;Layer: Drill PTH
;EasyEDA v6.2.46, 2019-10-22T23:17:59--4:00
;780f1b725bed47f4bbcc22436ff655ea,d79a69aa59da4e1fbb9b7d465b79b5da,10
;Gerber Generator version 0.2
M48
METRIC,LZ,000.000
;Holesize 1 = 0.310 METRIC
T01C0.310
;Holesize 2 = 0.889 METRIC
T02C0.889
;Holesize 3 = 0.900 METRIC
T03C0.900
;Holesize 4 = 1.000 METRIC
T04C1.000
;Holesize 5 = 1.016 METRIC
T05C1.016
;Holesize 6 = 1.101 METRIC
T06C1.101
;Holesize 7 = 1.200 METRIC
T07C1.200
;Holesize 8 = 1.300 METRIC
T08C1.300
;Holesize 9 = 3.200 METRIC
T09C3.200
%
G05
G90
T01
X+009276Y+017626
X+013174Y+008548
X+021541Y+013899
X+005039Y+031679
X+021940Y+003780
T02
X+042545Y+030790
X+042545Y+028250
X+042545Y+025710
X+042545Y+023170
X+050165Y+023170
X+050165Y+025710
X+050165Y+028250
X+050165Y+030790
X+031369Y+032187
X+033909Y+032187
T03
X+026670Y+021011
X+039370Y+021011
X+026670Y+024567
X+039370Y+024567
X+026670Y+028123
X+039370Y+028123
X+026670Y+017455
X+039370Y+017455
X+026670Y+013899
X+039370Y+013899
T04
X+008492Y+006406G85X+008492Y+006407
X+011032Y+006406G85X+011032Y+006407
X+013970Y+006406G85X+013970Y+006407
X+016510Y+006406G85X+016510Y+006407
X+019050Y+006406G85X+019050Y+006407
X+022098Y+006406G85X+022098Y+006407
X+024638Y+006406G85X+024638Y+006407
X+027178Y+006406G85X+027178Y+006407
X+030161Y+006406G85X+030161Y+006407
X+032701Y+006406G85X+032701Y+006407
X+035241Y+006406G85X+035241Y+006407
X+037781Y+006406G85X+037781Y+006407
X+040829Y+006406G85X+040829Y+006407
X+043369Y+006406G85X+043369Y+006407
X+045909Y+006406G85X+045909Y+006407
X+048449Y+006406G85X+048449Y+006407
T05
X+054483Y+033076
X+054483Y+030536
X+054483Y+027996
X+054483Y+025456
X+057023Y+033076
X+057023Y+030536
X+057023Y+027996
X+057023Y+025456
X+059563Y+033076
X+059563Y+030536
X+059563Y+027996
X+059563Y+025456
X+062103Y+033076
X+062103Y+030536
X+062103Y+027996
X+062103Y+025456
X+062103Y+033076
X+062103Y+030536
X+062103Y+027996
X+062103Y+025456
X+064643Y+033076
X+064643Y+030536
X+064643Y+027996
X+064643Y+025456
X+067183Y+033076
X+067183Y+030536
X+067183Y+027996
X+067183Y+025456
X+069723Y+033076
X+069723Y+030536
X+069723Y+027996
X+069723Y+025456
X+072263Y+033076
X+072263Y+030536
X+072263Y+027996
X+072263Y+025456
X+072263Y+033076
X+072263Y+030536
X+072263Y+027996
X+072263Y+025456
X+074803Y+033076
X+074803Y+030536
X+074803Y+027996
X+074803Y+025456
X+077343Y+033076
X+077343Y+030536
X+077343Y+027996
X+077343Y+025456
X+079883Y+033076
X+079883Y+030536
X+079883Y+027996
X+079883Y+025456
X+054483Y+022916
X+054483Y+020376
X+054483Y+017836
X+054483Y+015296
X+057023Y+022916
X+057023Y+020376
X+057023Y+017836
X+057023Y+015296
X+059563Y+022916
X+059563Y+020376
X+059563Y+017836
X+059563Y+015296
X+062103Y+022916
X+062103Y+020376
X+062103Y+017836
X+062103Y+015296
X+062103Y+022916
X+062103Y+020376
X+062103Y+017836
X+062103Y+015296
X+064643Y+022916
X+064643Y+020376
X+064643Y+017836
X+064643Y+015296
X+067183Y+022916
X+067183Y+020376
X+067183Y+017836
X+067183Y+015296
X+069723Y+022916
X+069723Y+020376
X+069723Y+017836
X+069723Y+015296
X+072263Y+022916
X+072263Y+020376
X+072263Y+017836
X+072263Y+015296
X+072263Y+022916
X+072263Y+020376
X+072263Y+017836
X+072263Y+015296
X+074803Y+022916
X+074803Y+020376
X+074803Y+017836
X+074803Y+015296
X+077343Y+022916
X+077343Y+020376
X+077343Y+017836
X+077343Y+015296
X+079883Y+022916
X+079883Y+020376
X+079883Y+017836
X+079883Y+015296
X+054483Y+012756
X+054483Y+010216
X+054483Y+007676
X+054483Y+005136
X+057023Y+012756
X+057023Y+010216
X+057023Y+007676
X+057023Y+005136
X+059563Y+012756
X+059563Y+010216
X+059563Y+007676
X+059563Y+005136
X+062103Y+012756
X+062103Y+010216
X+062103Y+007676
X+062103Y+005136
X+062103Y+012756
X+062103Y+010216
X+062103Y+007676
X+062103Y+005136
X+064643Y+012756
X+064643Y+010216
X+064643Y+007676
X+064643Y+005136
X+067183Y+012756
X+067183Y+010216
X+067183Y+007676
X+067183Y+005136
X+069723Y+012756
X+069723Y+010216
X+069723Y+007676
X+069723Y+005136
X+072263Y+012756
X+072263Y+010216
X+072263Y+007676
X+072263Y+005136
X+072263Y+012756
X+072263Y+010216
X+072263Y+007676
X+072263Y+005136
X+074803Y+012756
X+074803Y+010216
X+074803Y+007676
X+074803Y+005136
X+077343Y+012756
X+077343Y+010216
X+077343Y+007676
X+077343Y+005136
X+079883Y+012756
X+079883Y+010216
X+079883Y+007676
X+079883Y+005136
X+054483Y+002596
X+057023Y+002596
X+059563Y+002596
X+062103Y+002596
X+062103Y+002596
X+064643Y+002596
X+067183Y+002596
X+069723Y+002596
X+072263Y+002596
X+072263Y+002596
X+074803Y+002596
X+077343Y+002596
X+079883Y+002596
T06
X+044577Y+012756
X+044577Y+020376
X+023114Y+049459
X+023114Y+046919
X+023114Y+044379
X+023114Y+041839
X+023114Y+039299
X+023114Y+036759
X+023114Y+034219
X+023114Y+031679
X+023114Y+029139
X+023114Y+026599
X+023114Y+024059
X+023114Y+021519
X+023114Y+018979
X+023114Y+016439
X+023114Y+013899
X+007874Y+049459
X+007874Y+046919
X+007874Y+044379
X+007874Y+041839
X+007874Y+039299
X+007874Y+036759
X+007874Y+034219
X+007874Y+031679
X+007874Y+029139
X+007874Y+026599
X+007874Y+024059
X+007874Y+021519
X+007874Y+018979
X+007874Y+016439
X+007874Y+013899
T07
X+031580Y+037570G85X+034080Y+037570
X+034080Y+043569G85X+031580Y+043569
X+028129Y+041820G85X+028129Y+039319
T08
X+050675Y+039045G85X+050670Y+039045
X+045675Y+036546G85X+045670Y+036546
X+043175Y+039045G85X+043170Y+039045
X+055675Y+036546G85X+055670Y+036546
X+058175Y+039045G85X+058170Y+039045
X+053175Y+049045G85X+053170Y+049045
X+048175Y+049045G85X+048170Y+049045
X+072265Y+039045G85X+072260Y+039045
X+067265Y+036546G85X+067260Y+036546
X+064765Y+039045G85X+064760Y+039045
X+077265Y+036546G85X+077260Y+036546
X+079765Y+039045G85X+079760Y+039045
X+074765Y+049045G85X+074760Y+049045
X+069765Y+049045G85X+069760Y+049045
T09
X+003172Y+003104G85X+003177Y+003104
X+003172Y+048824G85X+003177Y+048824
X+085849Y+003104G85X+085854Y+003104
X+085849Y+048824G85X+085854Y+048824
M30
