G04 Layer: TopSilkLayer*
G04 EasyEDA v6.1.52, Sun, 21 Jul 2019 17:23:19 GMT*
G04 9af5fbda4f6940c5a343921887981b07,d79a69aa59da4e1fbb9b7d465b79b5da,10*
G04 Gerber Generator version 0.2*
G04 Scale: 100 percent, Rotated: No, Reflected: No *
G04 Dimensions in millimeters *
G04 leading zeros omitted , absolute positions ,3 integer and 3 decimal *
%FSLAX33Y33*%
%MOMM*%
G90*
G71D02*

%ADD10C,0.254000*%
%ADD23C,0.228600*%
%ADD24C,0.127000*%
%ADD25C,0.203200*%
%ADD26C,0.202999*%
%ADD27C,0.199898*%
%ADD28C,0.152400*%
%ADD29C,0.150012*%
%ADD30C,0.151994*%

%LPD*%
G54D10*
G01X49149Y16947D02*
G01X54229Y16947D01*
G01X54229Y16947D02*
G01X54229Y27107D01*
G01X49149Y16947D02*
G01X49149Y27107D01*
G01X49149Y27107D02*
G01X50419Y27107D01*
G01X52959Y27107D02*
G01X54229Y27107D01*
G01X70104Y17532D02*
G01X66802Y17532D01*
G01X66802Y17532D02*
G01X66802Y26523D01*
G01X66802Y26523D02*
G01X70104Y26523D01*
G01X70104Y26523D02*
G01X70104Y17532D01*
G01X64770Y17532D02*
G01X61468Y17532D01*
G01X61468Y17532D02*
G01X61468Y26523D01*
G01X61468Y26523D02*
G01X64770Y26523D01*
G01X64770Y26523D02*
G01X64770Y17532D01*
G01X39497Y17659D02*
G01X36195Y17659D01*
G01X36195Y17659D02*
G01X36195Y26650D01*
G01X36195Y26650D02*
G01X39497Y26650D01*
G01X39497Y26650D02*
G01X39497Y17659D01*
G01X75565Y17532D02*
G01X72263Y17532D01*
G01X72263Y17532D02*
G01X72263Y26523D01*
G01X72263Y26523D02*
G01X75565Y26523D01*
G01X75565Y26523D02*
G01X75565Y17532D01*
G01X33401Y17659D02*
G01X30099Y17659D01*
G01X30099Y17659D02*
G01X30099Y26650D01*
G01X30099Y26650D02*
G01X33401Y26650D01*
G01X33401Y26650D02*
G01X33401Y17659D01*
G54D23*
G01X42291Y19614D02*
G01X42291Y24694D01*
G01X44577Y24694D01*
G01X44577Y19614D01*
G01X42291Y19614D01*
G01X42291Y24059D02*
G01X44577Y24059D01*
G54D24*
G01X59373Y39045D02*
G01X60672Y39045D01*
G01X60672Y51545D01*
G01X40673Y51545D01*
G01X40673Y39045D01*
G01X41972Y39045D01*
G01X56972Y39045D02*
G01X51872Y39045D01*
G01X49473Y39045D02*
G01X44373Y39045D01*
G01X80963Y39045D02*
G01X82262Y39045D01*
G01X82262Y51545D01*
G01X62263Y51545D01*
G01X62263Y39045D01*
G01X63562Y39045D01*
G01X78562Y39045D02*
G01X73462Y39045D01*
G01X71063Y39045D02*
G01X65963Y39045D01*
G54D25*
G01X33528Y8311D02*
G01X33528Y5797D01*
G01X28448Y5797D01*
G01X28448Y8311D01*
G01X33528Y8311D01*
G01X38608Y8184D02*
G01X36703Y8184D01*
G01X36703Y5644D01*
G01X44323Y5644D01*
G01X44323Y8184D01*
G54D26*
G01X44323Y8184D02*
G01X38608Y8184D01*
G54D25*
G01X49403Y8184D02*
G01X47498Y8184D01*
G01X47498Y5644D01*
G01X55118Y5644D01*
G01X55118Y8184D01*
G54D26*
G01X55118Y8184D02*
G01X49403Y8184D01*
G54D25*
G01X68199Y8184D02*
G01X68199Y5644D01*
G01X58039Y5644D01*
G01X58039Y8184D01*
G01X59944Y8184D01*
G54D26*
G01X68199Y8184D02*
G01X59944Y8184D01*
G54D10*
G01X24638Y50729D02*
G01X21590Y50729D01*
G01X21590Y12375D01*
G01X24638Y12375D01*
G01X24638Y50729D01*
G01X24638Y48189D02*
G01X21590Y48189D01*
G01X9398Y50729D02*
G01X6350Y50729D01*
G01X6350Y12375D01*
G01X9398Y12375D01*
G01X9398Y50729D01*
G01X9398Y48189D02*
G01X6350Y48189D01*
G01X28330Y51469D02*
G01X37330Y51470D01*
G01X37330Y51470D02*
G01X37330Y37069D01*
G01X37330Y37069D02*
G01X28330Y37069D01*
G01X28330Y37069D02*
G01X28330Y51470D01*
G01X28330Y47769D02*
G01X37330Y47769D01*
G01X29630Y47689D02*
G01X29630Y37069D01*
G01X36030Y47689D02*
G01X36030Y37069D01*
G54D25*
G01X35179Y33457D02*
G01X35179Y30943D01*
G01X30099Y30943D01*
G01X30099Y33457D01*
G01X35179Y33457D01*
G01X75819Y10724D02*
G01X75819Y5644D01*
G01X70739Y5644D01*
G01X70739Y10724D01*
G01X75819Y10724D01*
G54D28*
G01X56896Y21459D02*
G01X57673Y21459D01*
G01X57830Y21509D01*
G01X57934Y21613D01*
G01X57985Y21771D01*
G01X57985Y21875D01*
G01X57934Y22030D01*
G01X57830Y22134D01*
G01X57673Y22185D01*
G01X56896Y22185D01*
G01X57101Y22528D02*
G01X57050Y22632D01*
G01X56896Y22789D01*
G01X57985Y22789D01*
G01X65532Y17435D02*
G01X66621Y17435D01*
G01X65532Y17435D02*
G01X65532Y17903D01*
G01X65582Y18057D01*
G01X65633Y18111D01*
G01X65737Y18162D01*
G01X65841Y18162D01*
G01X65946Y18111D01*
G01X65999Y18057D01*
G01X66050Y17903D01*
G01X66050Y17435D01*
G01X66050Y17798D02*
G01X66621Y18162D01*
G01X65532Y18609D02*
G01X65532Y19180D01*
G01X65946Y18870D01*
G01X65946Y19025D01*
G01X65999Y19129D01*
G01X66050Y19180D01*
G01X66205Y19233D01*
G01X66309Y19233D01*
G01X66466Y19180D01*
G01X66570Y19076D01*
G01X66621Y18921D01*
G01X66621Y18766D01*
G01X66570Y18609D01*
G01X66517Y18558D01*
G01X66413Y18504D01*
G01X60071Y17511D02*
G01X61160Y17511D01*
G01X60071Y17511D02*
G01X60071Y17979D01*
G01X60121Y18134D01*
G01X60172Y18187D01*
G01X60276Y18238D01*
G01X60380Y18238D01*
G01X60485Y18187D01*
G01X60538Y18134D01*
G01X60589Y17979D01*
G01X60589Y17511D01*
G01X60589Y17875D02*
G01X61160Y18238D01*
G01X60071Y19101D02*
G01X60797Y18581D01*
G01X60797Y19360D01*
G01X60071Y19101D02*
G01X61160Y19101D01*
G01X34671Y17816D02*
G01X35760Y17816D01*
G01X34671Y17816D02*
G01X34671Y18284D01*
G01X34721Y18438D01*
G01X34772Y18492D01*
G01X34876Y18543D01*
G01X34980Y18543D01*
G01X35085Y18492D01*
G01X35138Y18438D01*
G01X35189Y18284D01*
G01X35189Y17816D01*
G01X35189Y18179D02*
G01X35760Y18543D01*
G01X34671Y19510D02*
G01X34671Y18990D01*
G01X35138Y18939D01*
G01X35085Y18990D01*
G01X35034Y19147D01*
G01X35034Y19302D01*
G01X35085Y19457D01*
G01X35189Y19561D01*
G01X35344Y19614D01*
G01X35448Y19614D01*
G01X35605Y19561D01*
G01X35709Y19457D01*
G01X35760Y19302D01*
G01X35760Y19147D01*
G01X35709Y18990D01*
G01X35656Y18939D01*
G01X35552Y18885D01*
G01X71005Y17455D02*
G01X72095Y17455D01*
G01X71005Y17455D02*
G01X71005Y17923D01*
G01X71056Y18078D01*
G01X71107Y18131D01*
G01X71211Y18182D01*
G01X71315Y18182D01*
G01X71419Y18131D01*
G01X71473Y18078D01*
G01X71523Y17923D01*
G01X71523Y17455D01*
G01X71523Y17819D02*
G01X72095Y18182D01*
G01X71264Y18578D02*
G01X71211Y18578D01*
G01X71107Y18629D01*
G01X71056Y18682D01*
G01X71005Y18786D01*
G01X71005Y18992D01*
G01X71056Y19096D01*
G01X71107Y19150D01*
G01X71211Y19200D01*
G01X71315Y19200D01*
G01X71419Y19150D01*
G01X71577Y19046D01*
G01X72095Y18525D01*
G01X72095Y19254D01*
G01X28702Y17776D02*
G01X29791Y17776D01*
G01X28702Y17776D02*
G01X28702Y18243D01*
G01X28752Y18398D01*
G01X28803Y18451D01*
G01X28907Y18502D01*
G01X29011Y18502D01*
G01X29116Y18451D01*
G01X29169Y18398D01*
G01X29220Y18243D01*
G01X29220Y17776D01*
G01X29220Y18139D02*
G01X29791Y18502D01*
G01X28907Y18845D02*
G01X28856Y18949D01*
G01X28702Y19106D01*
G01X29791Y19106D01*
G01X40767Y19808D02*
G01X41856Y19808D01*
G01X40767Y19808D02*
G01X40767Y20171D01*
G01X40817Y20328D01*
G01X40921Y20430D01*
G01X41026Y20483D01*
G01X41181Y20534D01*
G01X41440Y20534D01*
G01X41597Y20483D01*
G01X41701Y20430D01*
G01X41805Y20328D01*
G01X41856Y20171D01*
G01X41856Y19808D01*
G01X40972Y20877D02*
G01X40921Y20981D01*
G01X40767Y21138D01*
G01X41856Y21138D01*
G01X48006Y34854D02*
G01X48006Y33762D01*
G01X48006Y34854D02*
G01X48422Y33762D01*
G01X48836Y34854D02*
G01X48422Y33762D01*
G01X48836Y34854D02*
G01X48836Y33762D01*
G01X49179Y34854D02*
G01X49179Y33762D01*
G01X49522Y34854D02*
G01X49522Y33762D01*
G01X49522Y34854D02*
G01X49885Y34854D01*
G01X50043Y34801D01*
G01X50147Y34697D01*
G01X50198Y34595D01*
G01X50251Y34438D01*
G01X50251Y34179D01*
G01X50198Y34024D01*
G01X50147Y33920D01*
G01X50043Y33816D01*
G01X49885Y33762D01*
G01X49522Y33762D01*
G01X50594Y34854D02*
G01X50594Y33762D01*
G01X50937Y33399D02*
G01X51871Y33399D01*
G01X52214Y34854D02*
G01X52214Y33762D01*
G01X52557Y34854D02*
G01X52557Y33762D01*
G01X52557Y34854D02*
G01X53284Y33762D01*
G01X53284Y34854D02*
G01X53284Y33762D01*
G01X68834Y34462D02*
G01X68834Y33370D01*
G01X68834Y34462D02*
G01X69250Y33370D01*
G01X69664Y34462D02*
G01X69250Y33370D01*
G01X69664Y34462D02*
G01X69664Y33370D01*
G01X70007Y34462D02*
G01X70007Y33370D01*
G01X70350Y34462D02*
G01X70350Y33370D01*
G01X70350Y34462D02*
G01X70713Y34462D01*
G01X70871Y34409D01*
G01X70975Y34305D01*
G01X71026Y34203D01*
G01X71079Y34046D01*
G01X71079Y33787D01*
G01X71026Y33632D01*
G01X70975Y33528D01*
G01X70871Y33423D01*
G01X70713Y33370D01*
G01X70350Y33370D01*
G01X71422Y34462D02*
G01X71422Y33370D01*
G01X71765Y33007D02*
G01X72699Y33007D01*
G01X73355Y34462D02*
G01X73251Y34409D01*
G01X73146Y34305D01*
G01X73093Y34203D01*
G01X73042Y34046D01*
G01X73042Y33787D01*
G01X73093Y33632D01*
G01X73146Y33528D01*
G01X73251Y33423D01*
G01X73355Y33370D01*
G01X73560Y33370D01*
G01X73665Y33423D01*
G01X73769Y33528D01*
G01X73822Y33632D01*
G01X73873Y33787D01*
G01X73873Y34046D01*
G01X73822Y34203D01*
G01X73769Y34305D01*
G01X73665Y34409D01*
G01X73560Y34462D01*
G01X73355Y34462D01*
G01X74216Y34462D02*
G01X74216Y33683D01*
G01X74269Y33528D01*
G01X74371Y33423D01*
G01X74528Y33370D01*
G01X74632Y33370D01*
G01X74787Y33423D01*
G01X74891Y33528D01*
G01X74942Y33683D01*
G01X74942Y34462D01*
G01X75651Y34462D02*
G01X75651Y33370D01*
G01X75285Y34462D02*
G01X76014Y34462D01*
G01X27396Y5096D02*
G01X27292Y5200D01*
G01X27137Y5251D01*
G01X26929Y5251D01*
G01X26774Y5200D01*
G01X26670Y5096D01*
G01X26670Y4992D01*
G01X26720Y4888D01*
G01X26774Y4837D01*
G01X26878Y4783D01*
G01X27190Y4679D01*
G01X27292Y4628D01*
G01X27345Y4578D01*
G01X27396Y4474D01*
G01X27396Y4316D01*
G01X27292Y4212D01*
G01X27137Y4161D01*
G01X26929Y4161D01*
G01X26774Y4212D01*
G01X26670Y4316D01*
G01X28155Y5251D02*
G01X27739Y4161D01*
G01X28155Y5251D02*
G01X28572Y4161D01*
G01X27896Y4524D02*
G01X28414Y4524D01*
G01X28915Y5251D02*
G01X29329Y4161D01*
G01X29745Y5251D02*
G01X29329Y4161D01*
G01X30088Y5251D02*
G01X30088Y4161D01*
G01X30088Y5251D02*
G01X30764Y5251D01*
G01X30088Y4733D02*
G01X30505Y4733D01*
G01X30088Y4161D02*
G01X30764Y4161D01*
G01X31107Y3798D02*
G01X32042Y3798D01*
G01X32385Y5251D02*
G01X32385Y4161D01*
G01X32385Y5251D02*
G01X32852Y5251D01*
G01X33007Y5200D01*
G01X33060Y5149D01*
G01X33111Y5045D01*
G01X33111Y4941D01*
G01X33060Y4837D01*
G01X33007Y4783D01*
G01X32852Y4733D01*
G01X32385Y4733D02*
G01X32852Y4733D01*
G01X33007Y4679D01*
G01X33060Y4628D01*
G01X33111Y4524D01*
G01X33111Y4369D01*
G01X33060Y4265D01*
G01X33007Y4212D01*
G01X32852Y4161D01*
G01X32385Y4161D01*
G01X33820Y5251D02*
G01X33820Y4161D01*
G01X33454Y5251D02*
G01X34183Y5251D01*
G01X34526Y5251D02*
G01X34526Y4161D01*
G01X34526Y5251D02*
G01X35252Y4161D01*
G01X35252Y5251D02*
G01X35252Y4161D01*
G01X37719Y5124D02*
G01X37719Y4034D01*
G01X37719Y5124D02*
G01X38186Y5124D01*
G01X38341Y5073D01*
G01X38394Y5022D01*
G01X38445Y4918D01*
G01X38445Y4761D01*
G01X38394Y4656D01*
G01X38341Y4606D01*
G01X38186Y4552D01*
G01X37719Y4552D01*
G01X39100Y5124D02*
G01X38996Y5073D01*
G01X38892Y4969D01*
G01X38841Y4865D01*
G01X38788Y4710D01*
G01X38788Y4451D01*
G01X38841Y4293D01*
G01X38892Y4189D01*
G01X38996Y4085D01*
G01X39100Y4034D01*
G01X39309Y4034D01*
G01X39413Y4085D01*
G01X39517Y4189D01*
G01X39568Y4293D01*
G01X39621Y4451D01*
G01X39621Y4710D01*
G01X39568Y4865D01*
G01X39517Y4969D01*
G01X39413Y5073D01*
G01X39309Y5124D01*
G01X39100Y5124D01*
G01X40327Y5124D02*
G01X40327Y4034D01*
G01X39964Y5124D02*
G01X40690Y5124D01*
G01X41033Y3671D02*
G01X41968Y3671D01*
G01X42311Y5124D02*
G01X42311Y4034D01*
G01X42654Y5124D02*
G01X42654Y4034D01*
G01X42654Y5124D02*
G01X43383Y4034D01*
G01X43383Y5124D02*
G01X43383Y4034D01*
G01X47371Y5009D02*
G01X47371Y3920D01*
G01X47371Y5009D02*
G01X47838Y5009D01*
G01X47993Y4959D01*
G01X48046Y4908D01*
G01X48097Y4804D01*
G01X48097Y4646D01*
G01X48046Y4542D01*
G01X47993Y4491D01*
G01X47838Y4438D01*
G01X47371Y4438D01*
G01X48752Y5009D02*
G01X48648Y4959D01*
G01X48544Y4855D01*
G01X48493Y4750D01*
G01X48440Y4595D01*
G01X48440Y4336D01*
G01X48493Y4179D01*
G01X48544Y4075D01*
G01X48648Y3971D01*
G01X48752Y3920D01*
G01X48961Y3920D01*
G01X49065Y3971D01*
G01X49169Y4075D01*
G01X49220Y4179D01*
G01X49273Y4336D01*
G01X49273Y4595D01*
G01X49220Y4750D01*
G01X49169Y4855D01*
G01X49065Y4959D01*
G01X48961Y5009D01*
G01X48752Y5009D01*
G01X49979Y5009D02*
G01X49979Y3920D01*
G01X49616Y5009D02*
G01X50342Y5009D01*
G01X50685Y3557D02*
G01X51620Y3557D01*
G01X52275Y5009D02*
G01X52171Y4959D01*
G01X52067Y4855D01*
G01X52016Y4750D01*
G01X51963Y4595D01*
G01X51963Y4336D01*
G01X52016Y4179D01*
G01X52067Y4075D01*
G01X52171Y3971D01*
G01X52275Y3920D01*
G01X52484Y3920D01*
G01X52588Y3971D01*
G01X52692Y4075D01*
G01X52743Y4179D01*
G01X52793Y4336D01*
G01X52793Y4595D01*
G01X52743Y4750D01*
G01X52692Y4855D01*
G01X52588Y4959D01*
G01X52484Y5009D01*
G01X52275Y5009D01*
G01X53136Y5009D02*
G01X53136Y4232D01*
G01X53190Y4075D01*
G01X53294Y3971D01*
G01X53449Y3920D01*
G01X53553Y3920D01*
G01X53708Y3971D01*
G01X53812Y4075D01*
G01X53865Y4232D01*
G01X53865Y5009D01*
G01X54571Y5009D02*
G01X54571Y3920D01*
G01X54208Y5009D02*
G01X54935Y5009D01*
G01X61722Y4997D02*
G01X61722Y3907D01*
G01X61722Y4997D02*
G01X62085Y4997D01*
G01X62242Y4946D01*
G01X62344Y4842D01*
G01X62397Y4738D01*
G01X62448Y4583D01*
G01X62448Y4324D01*
G01X62397Y4166D01*
G01X62344Y4062D01*
G01X62242Y3958D01*
G01X62085Y3907D01*
G01X61722Y3907D01*
G01X62791Y4997D02*
G01X62791Y3907D01*
G01X63863Y4842D02*
G01X63759Y4946D01*
G01X63601Y4997D01*
G01X63395Y4997D01*
G01X63238Y4946D01*
G01X63134Y4842D01*
G01X63134Y4738D01*
G01X63187Y4634D01*
G01X63238Y4583D01*
G01X63342Y4529D01*
G01X63654Y4425D01*
G01X63759Y4374D01*
G01X63809Y4324D01*
G01X63863Y4220D01*
G01X63863Y4062D01*
G01X63759Y3958D01*
G01X63601Y3907D01*
G01X63395Y3907D01*
G01X63238Y3958D01*
G01X63134Y4062D01*
G01X64206Y4997D02*
G01X64206Y3907D01*
G01X64206Y4997D02*
G01X64673Y4997D01*
G01X64828Y4946D01*
G01X64881Y4895D01*
G01X64932Y4791D01*
G01X64932Y4634D01*
G01X64881Y4529D01*
G01X64828Y4479D01*
G01X64673Y4425D01*
G01X64206Y4425D01*
G01X14785Y29889D02*
G01X15874Y29472D01*
G01X14785Y29889D02*
G01X15874Y30303D01*
G01X15511Y29627D02*
G01X15511Y30148D01*
G01X15148Y30646D02*
G01X15874Y30646D01*
G01X15458Y30646D02*
G01X15303Y30699D01*
G01X15199Y30803D01*
G01X15148Y30907D01*
G01X15148Y31062D01*
G01X14785Y32028D02*
G01X15874Y32028D01*
G01X15303Y32028D02*
G01X15199Y31923D01*
G01X15148Y31822D01*
G01X15148Y31664D01*
G01X15199Y31560D01*
G01X15303Y31456D01*
G01X15458Y31405D01*
G01X15562Y31405D01*
G01X15720Y31456D01*
G01X15824Y31560D01*
G01X15874Y31664D01*
G01X15874Y31822D01*
G01X15824Y31923D01*
G01X15720Y32028D01*
G01X15148Y32370D02*
G01X15666Y32370D01*
G01X15824Y32424D01*
G01X15874Y32528D01*
G01X15874Y32683D01*
G01X15824Y32787D01*
G01X15666Y32942D01*
G01X15148Y32942D02*
G01X15874Y32942D01*
G01X14785Y33285D02*
G01X14836Y33338D01*
G01X14785Y33389D01*
G01X14731Y33338D01*
G01X14785Y33285D01*
G01X15148Y33338D02*
G01X15874Y33338D01*
G01X15148Y33732D02*
G01X15874Y33732D01*
G01X15356Y33732D02*
G01X15199Y33889D01*
G01X15148Y33993D01*
G01X15148Y34148D01*
G01X15199Y34253D01*
G01X15356Y34303D01*
G01X15874Y34303D01*
G01X15148Y34908D02*
G01X15199Y34804D01*
G01X15303Y34700D01*
G01X15458Y34646D01*
G01X15562Y34646D01*
G01X15720Y34700D01*
G01X15824Y34804D01*
G01X15874Y34908D01*
G01X15874Y35063D01*
G01X15824Y35167D01*
G01X15720Y35271D01*
G01X15562Y35322D01*
G01X15458Y35322D01*
G01X15303Y35271D01*
G01X15199Y35167D01*
G01X15148Y35063D01*
G01X15148Y34908D01*
G01X16238Y35665D02*
G01X16238Y36600D01*
G01X14785Y36942D02*
G01X15874Y36942D01*
G01X14785Y36942D02*
G01X15874Y37671D01*
G01X14785Y37671D02*
G01X15874Y37671D01*
G01X15148Y38637D02*
G01X15874Y38637D01*
G01X15303Y38637D02*
G01X15199Y38532D01*
G01X15148Y38428D01*
G01X15148Y38273D01*
G01X15199Y38169D01*
G01X15303Y38065D01*
G01X15458Y38014D01*
G01X15562Y38014D01*
G01X15720Y38065D01*
G01X15824Y38169D01*
G01X15874Y38273D01*
G01X15874Y38428D01*
G01X15824Y38532D01*
G01X15720Y38637D01*
G01X15148Y38979D02*
G01X15874Y38979D01*
G01X15356Y38979D02*
G01X15199Y39137D01*
G01X15148Y39239D01*
G01X15148Y39396D01*
G01X15199Y39500D01*
G01X15356Y39551D01*
G01X15874Y39551D01*
G01X15148Y40153D02*
G01X15199Y40051D01*
G01X15303Y39947D01*
G01X15458Y39894D01*
G01X15562Y39894D01*
G01X15720Y39947D01*
G01X15824Y40051D01*
G01X15874Y40153D01*
G01X15874Y40310D01*
G01X15824Y40415D01*
G01X15720Y40519D01*
G01X15562Y40570D01*
G01X15458Y40570D01*
G01X15303Y40519D01*
G01X15199Y40415D01*
G01X15148Y40310D01*
G01X15148Y40153D01*
G01X38100Y43198D02*
G01X39189Y43198D01*
G01X38100Y43198D02*
G01X38100Y43562D01*
G01X38150Y43719D01*
G01X38254Y43821D01*
G01X38359Y43874D01*
G01X38514Y43925D01*
G01X38775Y43925D01*
G01X38930Y43874D01*
G01X39034Y43821D01*
G01X39138Y43719D01*
G01X39189Y43562D01*
G01X39189Y43198D01*
G01X38359Y45048D02*
G01X38254Y44997D01*
G01X38150Y44893D01*
G01X38100Y44788D01*
G01X38100Y44580D01*
G01X38150Y44476D01*
G01X38254Y44372D01*
G01X38359Y44321D01*
G01X38514Y44268D01*
G01X38775Y44268D01*
G01X38930Y44321D01*
G01X39034Y44372D01*
G01X39138Y44476D01*
G01X39189Y44580D01*
G01X39189Y44788D01*
G01X39138Y44893D01*
G01X39034Y44997D01*
G01X38930Y45048D01*
G01X38308Y45390D02*
G01X38254Y45495D01*
G01X38100Y45650D01*
G01X39189Y45650D01*
G01X29591Y35235D02*
G01X29591Y34146D01*
G01X29591Y35235D02*
G01X30058Y35235D01*
G01X30213Y35185D01*
G01X30266Y35134D01*
G01X30317Y35030D01*
G01X30317Y34872D01*
G01X30266Y34768D01*
G01X30213Y34717D01*
G01X30058Y34664D01*
G01X29591Y34664D01*
G01X30660Y35235D02*
G01X30921Y34146D01*
G01X31181Y35235D02*
G01X30921Y34146D01*
G01X31181Y35235D02*
G01X31440Y34146D01*
G01X31699Y35235D02*
G01X31440Y34146D01*
G01X32042Y35235D02*
G01X32042Y34146D01*
G01X32042Y35235D02*
G01X32512Y35235D01*
G01X32666Y35185D01*
G01X32717Y35134D01*
G01X32771Y35030D01*
G01X32771Y34926D01*
G01X32717Y34821D01*
G01X32666Y34768D01*
G01X32512Y34717D01*
G01X32042Y34717D01*
G01X32407Y34717D02*
G01X32771Y34146D01*
G01X33113Y33783D02*
G01X34048Y33783D01*
G01X35118Y35081D02*
G01X35013Y35185D01*
G01X34858Y35235D01*
G01X34650Y35235D01*
G01X34495Y35185D01*
G01X34391Y35081D01*
G01X34391Y34976D01*
G01X34442Y34872D01*
G01X34495Y34821D01*
G01X34599Y34768D01*
G01X34912Y34664D01*
G01X35013Y34613D01*
G01X35067Y34562D01*
G01X35118Y34458D01*
G01X35118Y34301D01*
G01X35013Y34197D01*
G01X34858Y34146D01*
G01X34650Y34146D01*
G01X34495Y34197D01*
G01X34391Y34301D01*
G01X35460Y35235D02*
G01X35722Y34146D01*
G01X35981Y35235D02*
G01X35722Y34146D01*
G01X35981Y35235D02*
G01X36240Y34146D01*
G01X36499Y35235D02*
G01X36240Y34146D01*
G01X76708Y1158D02*
G01X77797Y1158D01*
G01X76708Y1158D02*
G01X77797Y1574D01*
G01X76708Y1988D02*
G01X77797Y1574D01*
G01X76708Y1988D02*
G01X77797Y1988D01*
G01X76708Y2331D02*
G01X77797Y2331D01*
G01X76708Y2674D02*
G01X77797Y2674D01*
G01X76708Y2674D02*
G01X76708Y3037D01*
G01X76758Y3195D01*
G01X76862Y3299D01*
G01X76967Y3350D01*
G01X77122Y3403D01*
G01X77381Y3403D01*
G01X77538Y3350D01*
G01X77642Y3299D01*
G01X77746Y3195D01*
G01X77797Y3037D01*
G01X77797Y2674D01*
G01X76708Y3746D02*
G01X77797Y3746D01*
G01X78160Y4089D02*
G01X78160Y5023D01*
G01X76708Y5366D02*
G01X77797Y5366D01*
G01X76708Y5366D02*
G01X76708Y5730D01*
G01X76758Y5885D01*
G01X76862Y5989D01*
G01X76967Y6042D01*
G01X77122Y6093D01*
G01X77381Y6093D01*
G01X77538Y6042D01*
G01X77642Y5989D01*
G01X77746Y5885D01*
G01X77797Y5730D01*
G01X77797Y5366D01*
G01X76708Y6436D02*
G01X77797Y6436D01*
G01X76862Y7508D02*
G01X76758Y7403D01*
G01X76708Y7246D01*
G01X76708Y7038D01*
G01X76758Y6883D01*
G01X76862Y6779D01*
G01X76967Y6779D01*
G01X77071Y6832D01*
G01X77122Y6883D01*
G01X77175Y6987D01*
G01X77279Y7299D01*
G01X77330Y7403D01*
G01X77381Y7454D01*
G01X77485Y7508D01*
G01X77642Y7508D01*
G01X77746Y7403D01*
G01X77797Y7246D01*
G01X77797Y7038D01*
G01X77746Y6883D01*
G01X77642Y6779D01*
G01X76708Y8264D02*
G01X77797Y7850D01*
G01X76708Y8264D02*
G01X77797Y8681D01*
G01X77434Y8005D02*
G01X77434Y8524D01*
G01X76708Y9024D02*
G01X77797Y9024D01*
G01X76708Y9024D02*
G01X76708Y9491D01*
G01X76758Y9646D01*
G01X76809Y9700D01*
G01X76913Y9750D01*
G01X77017Y9750D01*
G01X77122Y9700D01*
G01X77175Y9646D01*
G01X77226Y9491D01*
G01X77226Y9024D02*
G01X77226Y9491D01*
G01X77279Y9646D01*
G01X77330Y9700D01*
G01X77434Y9750D01*
G01X77589Y9750D01*
G01X77693Y9700D01*
G01X77746Y9646D01*
G01X77797Y9491D01*
G01X77797Y9024D01*
G01X76708Y10093D02*
G01X77797Y10093D01*
G01X77797Y10093D02*
G01X77797Y10718D01*
G01X76708Y11061D02*
G01X77797Y11061D01*
G01X76708Y11061D02*
G01X76708Y11737D01*
G01X77226Y11061D02*
G01X77226Y11475D01*
G01X77797Y11061D02*
G01X77797Y11737D01*
G01X78160Y12080D02*
G01X78160Y13014D01*
G01X76862Y14084D02*
G01X76758Y13979D01*
G01X76708Y13825D01*
G01X76708Y13616D01*
G01X76758Y13461D01*
G01X76862Y13357D01*
G01X76967Y13357D01*
G01X77071Y13408D01*
G01X77122Y13461D01*
G01X77175Y13565D01*
G01X77279Y13875D01*
G01X77330Y13979D01*
G01X77381Y14033D01*
G01X77485Y14084D01*
G01X77642Y14084D01*
G01X77746Y13979D01*
G01X77797Y13825D01*
G01X77797Y13616D01*
G01X77746Y13461D01*
G01X77642Y13357D01*
G01X76708Y14427D02*
G01X77797Y14686D01*
G01X76708Y14947D02*
G01X77797Y14686D01*
G01X76708Y14947D02*
G01X77797Y15206D01*
G01X76708Y15465D02*
G01X77797Y15206D01*
G54D25*
G01X86659Y38794D02*
G01X87614Y38794D01*
G01X86659Y38794D02*
G01X86659Y39203D01*
G01X86705Y39340D01*
G01X86751Y39386D01*
G01X86842Y39432D01*
G01X86934Y39432D01*
G01X87022Y39386D01*
G01X87068Y39340D01*
G01X87114Y39203D01*
G01X87114Y38794D01*
G01X87114Y39112D02*
G01X87614Y39432D01*
G01X87251Y39731D02*
G01X87251Y40275D01*
G01X87160Y40275D01*
G01X87068Y40229D01*
G01X87022Y40186D01*
G01X86979Y40095D01*
G01X86979Y39957D01*
G01X87022Y39866D01*
G01X87114Y39777D01*
G01X87251Y39731D01*
G01X87342Y39731D01*
G01X87477Y39777D01*
G01X87569Y39866D01*
G01X87614Y39957D01*
G01X87614Y40095D01*
G01X87569Y40186D01*
G01X87477Y40275D01*
G01X86979Y40577D02*
G01X87614Y40849D01*
G01X86979Y41121D02*
G01X87614Y40849D01*
G01X86659Y41420D02*
G01X86705Y41466D01*
G01X86659Y41512D01*
G01X86614Y41466D01*
G01X86659Y41420D01*
G01X86979Y41466D02*
G01X87614Y41466D01*
G01X87114Y42312D02*
G01X87022Y42266D01*
G01X86979Y42132D01*
G01X86979Y41994D01*
G01X87022Y41857D01*
G01X87114Y41812D01*
G01X87205Y41857D01*
G01X87251Y41949D01*
G01X87297Y42175D01*
G01X87342Y42266D01*
G01X87431Y42312D01*
G01X87477Y42312D01*
G01X87569Y42266D01*
G01X87614Y42132D01*
G01X87614Y41994D01*
G01X87569Y41857D01*
G01X87477Y41812D01*
G01X86659Y42612D02*
G01X86705Y42657D01*
G01X86659Y42703D01*
G01X86614Y42657D01*
G01X86659Y42612D01*
G01X86979Y42657D02*
G01X87614Y42657D01*
G01X86979Y43231D02*
G01X87022Y43140D01*
G01X87114Y43049D01*
G01X87251Y43003D01*
G01X87342Y43003D01*
G01X87477Y43049D01*
G01X87569Y43140D01*
G01X87614Y43231D01*
G01X87614Y43366D01*
G01X87569Y43457D01*
G01X87477Y43549D01*
G01X87342Y43595D01*
G01X87251Y43595D01*
G01X87114Y43549D01*
G01X87022Y43457D01*
G01X86979Y43366D01*
G01X86979Y43231D01*
G01X86979Y43894D02*
G01X87614Y43894D01*
G01X87160Y43894D02*
G01X87022Y44032D01*
G01X86979Y44120D01*
G01X86979Y44258D01*
G01X87022Y44349D01*
G01X87160Y44395D01*
G01X87614Y44395D01*
G01X86888Y45439D02*
G01X86842Y45439D01*
G01X86751Y45484D01*
G01X86705Y45530D01*
G01X86659Y45622D01*
G01X86659Y45802D01*
G01X86705Y45893D01*
G01X86751Y45939D01*
G01X86842Y45985D01*
G01X86934Y45985D01*
G01X87022Y45939D01*
G01X87160Y45848D01*
G01X87614Y45393D01*
G01X87614Y46030D01*
G01X83093Y6914D02*
G01X85031Y6914D01*
G01X83093Y6914D02*
G01X85031Y7654D01*
G01X83093Y8393D02*
G01X85031Y7654D01*
G01X83093Y8393D02*
G01X85031Y8393D01*
G01X83093Y9002D02*
G01X85031Y9002D01*
G01X83093Y9612D02*
G01X85031Y9612D01*
G01X83093Y9612D02*
G01X83093Y10257D01*
G01X83185Y10534D01*
G01X83370Y10719D01*
G01X83553Y10813D01*
G01X83832Y10905D01*
G01X84292Y10905D01*
G01X84569Y10813D01*
G01X84754Y10719D01*
G01X84940Y10534D01*
G01X85031Y10257D01*
G01X85031Y9612D01*
G01X83093Y11514D02*
G01X85031Y11514D01*
G01X83553Y14931D02*
G01X83370Y14839D01*
G01X83185Y14654D01*
G01X83093Y14471D01*
G01X83093Y14100D01*
G01X83185Y13915D01*
G01X83370Y13732D01*
G01X83553Y13638D01*
G01X83832Y13546D01*
G01X84292Y13546D01*
G01X84569Y13638D01*
G01X84754Y13732D01*
G01X84940Y13915D01*
G01X85031Y14100D01*
G01X85031Y14471D01*
G01X84940Y14654D01*
G01X84754Y14839D01*
G01X84569Y14931D01*
G01X83093Y15540D02*
G01X85031Y15540D01*
G01X84109Y15540D02*
G01X83832Y15817D01*
G01X83738Y16003D01*
G01X83738Y16279D01*
G01X83832Y16465D01*
G01X84109Y16556D01*
G01X85031Y16556D01*
G01X83738Y18276D02*
G01X85031Y18276D01*
G01X84015Y18276D02*
G01X83832Y18090D01*
G01X83738Y17905D01*
G01X83738Y17628D01*
G01X83832Y17443D01*
G01X84015Y17260D01*
G01X84292Y17166D01*
G01X84477Y17166D01*
G01X84754Y17260D01*
G01X84940Y17443D01*
G01X85031Y17628D01*
G01X85031Y17905D01*
G01X84940Y18090D01*
G01X84754Y18276D01*
G01X83738Y18886D02*
G01X85031Y18886D01*
G01X84109Y18886D02*
G01X83832Y19162D01*
G01X83738Y19348D01*
G01X83738Y19625D01*
G01X83832Y19808D01*
G01X84109Y19902D01*
G01X85031Y19902D01*
G01X83738Y20511D02*
G01X85031Y20511D01*
G01X84109Y20511D02*
G01X83832Y20788D01*
G01X83738Y20973D01*
G01X83738Y21250D01*
G01X83832Y21433D01*
G01X84109Y21527D01*
G01X85031Y21527D01*
G01X84292Y22137D02*
G01X84292Y23244D01*
G01X84109Y23244D01*
G01X83924Y23153D01*
G01X83832Y23059D01*
G01X83738Y22876D01*
G01X83738Y22599D01*
G01X83832Y22414D01*
G01X84015Y22228D01*
G01X84292Y22137D01*
G01X84477Y22137D01*
G01X84754Y22228D01*
G01X84940Y22414D01*
G01X85031Y22599D01*
G01X85031Y22876D01*
G01X84940Y23059D01*
G01X84754Y23244D01*
G01X83093Y23854D02*
G01X85031Y23854D01*
G01X83093Y25886D02*
G01X85031Y25886D01*
G01X83093Y25886D02*
G01X85031Y26625D01*
G01X83093Y27364D02*
G01X85031Y26625D01*
G01X83093Y27364D02*
G01X85031Y27364D01*
G01X83738Y29081D02*
G01X85031Y29081D01*
G01X84015Y29081D02*
G01X83832Y28898D01*
G01X83738Y28713D01*
G01X83738Y28436D01*
G01X83832Y28250D01*
G01X84015Y28065D01*
G01X84292Y27974D01*
G01X84477Y27974D01*
G01X84754Y28065D01*
G01X84940Y28250D01*
G01X85031Y28436D01*
G01X85031Y28713D01*
G01X84940Y28898D01*
G01X84754Y29081D01*
G01X83738Y29691D02*
G01X85679Y29691D01*
G01X84015Y29691D02*
G01X83832Y29876D01*
G01X83738Y30062D01*
G01X83738Y30338D01*
G01X83832Y30524D01*
G01X84015Y30707D01*
G01X84292Y30801D01*
G01X84477Y30801D01*
G01X84754Y30707D01*
G01X84940Y30524D01*
G01X85031Y30338D01*
G01X85031Y30062D01*
G01X84940Y29876D01*
G01X84754Y29691D01*
G01X83738Y31410D02*
G01X85679Y31410D01*
G01X84015Y31410D02*
G01X83832Y31593D01*
G01X83738Y31779D01*
G01X83738Y32055D01*
G01X83832Y32241D01*
G01X84015Y32426D01*
G01X84292Y32518D01*
G01X84477Y32518D01*
G01X84754Y32426D01*
G01X84940Y32241D01*
G01X85031Y32055D01*
G01X85031Y31779D01*
G01X84940Y31593D01*
G01X84754Y31410D01*
G01X84292Y33127D02*
G01X84292Y34235D01*
G01X84109Y34235D01*
G01X83924Y34143D01*
G01X83832Y34052D01*
G01X83738Y33866D01*
G01X83738Y33590D01*
G01X83832Y33404D01*
G01X84015Y33219D01*
G01X84292Y33127D01*
G01X84477Y33127D01*
G01X84754Y33219D01*
G01X84940Y33404D01*
G01X85031Y33590D01*
G01X85031Y33866D01*
G01X84940Y34052D01*
G01X84754Y34235D01*
G01X83738Y34844D02*
G01X85031Y34844D01*
G01X84292Y34844D02*
G01X84015Y34938D01*
G01X83832Y35121D01*
G01X83738Y35307D01*
G01X83738Y35583D01*
G01X86842Y7595D02*
G01X86751Y7552D01*
G01X86659Y7461D01*
G01X86614Y7369D01*
G01X86614Y7186D01*
G01X86659Y7097D01*
G01X86751Y7006D01*
G01X86842Y6960D01*
G01X86977Y6914D01*
G01X87205Y6914D01*
G01X87343Y6960D01*
G01X87431Y7006D01*
G01X87523Y7097D01*
G01X87569Y7186D01*
G01X87569Y7369D01*
G01X87523Y7461D01*
G01X87431Y7552D01*
G01X87343Y7595D01*
G01X86934Y7897D02*
G01X87569Y7897D01*
G01X87205Y7897D02*
G01X87068Y7941D01*
G01X86977Y8032D01*
G01X86934Y8124D01*
G01X86934Y8261D01*
G01X87205Y8560D02*
G01X87205Y9107D01*
G01X87114Y9107D01*
G01X87022Y9061D01*
G01X86977Y9015D01*
G01X86934Y8924D01*
G01X86934Y8786D01*
G01X86977Y8698D01*
G01X87068Y8606D01*
G01X87205Y8560D01*
G01X87297Y8560D01*
G01X87431Y8606D01*
G01X87523Y8698D01*
G01X87569Y8786D01*
G01X87569Y8924D01*
G01X87523Y9015D01*
G01X87431Y9107D01*
G01X86934Y9950D02*
G01X87569Y9950D01*
G01X87068Y9950D02*
G01X86977Y9861D01*
G01X86934Y9769D01*
G01X86934Y9632D01*
G01X86977Y9541D01*
G01X87068Y9452D01*
G01X87205Y9406D01*
G01X87297Y9406D01*
G01X87431Y9452D01*
G01X87523Y9541D01*
G01X87569Y9632D01*
G01X87569Y9769D01*
G01X87523Y9861D01*
G01X87431Y9950D01*
G01X86614Y10387D02*
G01X87386Y10387D01*
G01X87523Y10432D01*
G01X87569Y10524D01*
G01X87569Y10615D01*
G01X86934Y10252D02*
G01X86934Y10570D01*
G01X87205Y10915D02*
G01X87205Y11461D01*
G01X87114Y11461D01*
G01X87022Y11415D01*
G01X86977Y11370D01*
G01X86934Y11278D01*
G01X86934Y11141D01*
G01X86977Y11050D01*
G01X87068Y10961D01*
G01X87205Y10915D01*
G01X87297Y10915D01*
G01X87431Y10961D01*
G01X87523Y11050D01*
G01X87569Y11141D01*
G01X87569Y11278D01*
G01X87523Y11370D01*
G01X87431Y11461D01*
G01X86614Y12304D02*
G01X87569Y12304D01*
G01X87068Y12304D02*
G01X86977Y12215D01*
G01X86934Y12124D01*
G01X86934Y11987D01*
G01X86977Y11895D01*
G01X87068Y11807D01*
G01X87205Y11761D01*
G01X87297Y11761D01*
G01X87431Y11807D01*
G01X87523Y11895D01*
G01X87569Y11987D01*
G01X87569Y12124D01*
G01X87523Y12215D01*
G01X87431Y12304D01*
G01X86614Y13305D02*
G01X87569Y13305D01*
G01X86614Y13305D02*
G01X86614Y13714D01*
G01X86659Y13851D01*
G01X86705Y13897D01*
G01X86796Y13943D01*
G01X86888Y13943D01*
G01X86977Y13897D01*
G01X87022Y13851D01*
G01X87068Y13714D01*
G01X87068Y13305D02*
G01X87068Y13714D01*
G01X87114Y13851D01*
G01X87160Y13897D01*
G01X87251Y13943D01*
G01X87386Y13943D01*
G01X87477Y13897D01*
G01X87523Y13851D01*
G01X87569Y13714D01*
G01X87569Y13305D01*
G01X86934Y14288D02*
G01X87569Y14560D01*
G01X86934Y14832D02*
G01X87569Y14560D01*
G01X87751Y14468D01*
G01X87840Y14377D01*
G01X87886Y14288D01*
G01X87886Y14242D01*
G01X87022Y15177D02*
G01X87068Y15134D01*
G01X87114Y15177D01*
G01X87068Y15223D01*
G01X87022Y15177D01*
G01X87343Y15177D02*
G01X87386Y15134D01*
G01X87431Y15177D01*
G01X87386Y15223D01*
G01X87343Y15177D01*
G01X86614Y16678D02*
G01X87343Y16678D01*
G01X87477Y16633D01*
G01X87523Y16587D01*
G01X87569Y16495D01*
G01X87569Y16406D01*
G01X87523Y16315D01*
G01X87477Y16269D01*
G01X87343Y16224D01*
G01X87251Y16224D01*
G01X86934Y17524D02*
G01X87569Y17524D01*
G01X87068Y17524D02*
G01X86977Y17433D01*
G01X86934Y17341D01*
G01X86934Y17207D01*
G01X86977Y17115D01*
G01X87068Y17024D01*
G01X87205Y16978D01*
G01X87297Y16978D01*
G01X87431Y17024D01*
G01X87523Y17115D01*
G01X87569Y17207D01*
G01X87569Y17341D01*
G01X87523Y17433D01*
G01X87431Y17524D01*
G01X87068Y18370D02*
G01X86977Y18278D01*
G01X86934Y18187D01*
G01X86934Y18050D01*
G01X86977Y17961D01*
G01X87068Y17870D01*
G01X87205Y17824D01*
G01X87297Y17824D01*
G01X87431Y17870D01*
G01X87523Y17961D01*
G01X87569Y18050D01*
G01X87569Y18187D01*
G01X87523Y18278D01*
G01X87431Y18370D01*
G01X86934Y18896D02*
G01X86977Y18804D01*
G01X87068Y18715D01*
G01X87205Y18670D01*
G01X87297Y18670D01*
G01X87431Y18715D01*
G01X87523Y18804D01*
G01X87569Y18896D01*
G01X87569Y19033D01*
G01X87523Y19124D01*
G01X87431Y19216D01*
G01X87297Y19259D01*
G01X87205Y19259D01*
G01X87068Y19216D01*
G01X86977Y19124D01*
G01X86934Y19033D01*
G01X86934Y18896D01*
G01X86614Y19561D02*
G01X87569Y19561D01*
G01X87068Y19561D02*
G01X86977Y19650D01*
G01X86934Y19741D01*
G01X86934Y19879D01*
G01X86977Y19970D01*
G01X87068Y20059D01*
G01X87205Y20105D01*
G01X87297Y20105D01*
G01X87431Y20059D01*
G01X87523Y19970D01*
G01X87569Y19879D01*
G01X87569Y19741D01*
G01X87523Y19650D01*
G01X87431Y19561D01*
G01X86614Y21105D02*
G01X87569Y21105D01*
G01X86614Y21105D02*
G01X86614Y21514D01*
G01X86659Y21652D01*
G01X86705Y21697D01*
G01X86796Y21743D01*
G01X86888Y21743D01*
G01X86977Y21697D01*
G01X87022Y21652D01*
G01X87068Y21514D01*
G01X87068Y21105D02*
G01X87068Y21514D01*
G01X87114Y21652D01*
G01X87160Y21697D01*
G01X87251Y21743D01*
G01X87386Y21743D01*
G01X87477Y21697D01*
G01X87523Y21652D01*
G01X87569Y21514D01*
G01X87569Y21105D01*
G01X86934Y22586D02*
G01X87569Y22586D01*
G01X87068Y22586D02*
G01X86977Y22497D01*
G01X86934Y22406D01*
G01X86934Y22269D01*
G01X86977Y22177D01*
G01X87068Y22088D01*
G01X87205Y22043D01*
G01X87297Y22043D01*
G01X87431Y22088D01*
G01X87523Y22177D01*
G01X87569Y22269D01*
G01X87569Y22406D01*
G01X87523Y22497D01*
G01X87431Y22586D01*
G01X86614Y23023D02*
G01X87386Y23023D01*
G01X87523Y23069D01*
G01X87569Y23160D01*
G01X87569Y23252D01*
G01X86934Y22886D02*
G01X86934Y23206D01*
G01X87205Y23551D02*
G01X87205Y24095D01*
G01X87114Y24095D01*
G01X87022Y24052D01*
G01X86977Y24006D01*
G01X86934Y23915D01*
G01X86934Y23778D01*
G01X86977Y23686D01*
G01X87068Y23597D01*
G01X87205Y23551D01*
G01X87297Y23551D01*
G01X87431Y23597D01*
G01X87523Y23686D01*
G01X87569Y23778D01*
G01X87569Y23915D01*
G01X87523Y24006D01*
G01X87431Y24095D01*
G01X87068Y24895D02*
G01X86977Y24852D01*
G01X86934Y24715D01*
G01X86934Y24578D01*
G01X86977Y24443D01*
G01X87068Y24397D01*
G01X87160Y24443D01*
G01X87205Y24532D01*
G01X87251Y24761D01*
G01X87297Y24852D01*
G01X87386Y24895D01*
G01X87431Y24895D01*
G01X87523Y24852D01*
G01X87569Y24715D01*
G01X87569Y24578D01*
G01X87523Y24443D01*
G01X87431Y24397D01*
G01X87022Y26805D02*
G01X86977Y26805D01*
G01X86934Y26760D01*
G01X86934Y26714D01*
G01X86977Y26668D01*
G01X87068Y26622D01*
G01X87297Y26533D01*
G01X87431Y26442D01*
G01X87523Y26351D01*
G01X87569Y26259D01*
G01X87569Y26079D01*
G01X87523Y25987D01*
G01X87477Y25942D01*
G01X87386Y25896D01*
G01X87297Y25896D01*
G01X87205Y25942D01*
G01X87160Y25987D01*
G01X86977Y26305D01*
G01X86934Y26351D01*
G01X86842Y26396D01*
G01X86751Y26396D01*
G01X86659Y26351D01*
G01X86614Y26259D01*
G01X86659Y26170D01*
G01X86751Y26125D01*
G01X86842Y26125D01*
G01X86977Y26170D01*
G01X87114Y26259D01*
G01X87431Y26488D01*
G01X87523Y26579D01*
G01X87569Y26668D01*
G01X87569Y26760D01*
G01X87523Y26805D01*
G01X87477Y26805D01*
G01X86614Y28441D02*
G01X87569Y27806D01*
G01X86614Y27806D02*
G01X86614Y28441D01*
G01X87569Y27806D02*
G01X87569Y28441D01*
G01X86934Y29287D02*
G01X87569Y29287D01*
G01X87068Y29287D02*
G01X86977Y29195D01*
G01X86934Y29106D01*
G01X86934Y28969D01*
G01X86977Y28878D01*
G01X87068Y28786D01*
G01X87205Y28741D01*
G01X87297Y28741D01*
G01X87431Y28786D01*
G01X87523Y28878D01*
G01X87569Y28969D01*
G01X87569Y29106D01*
G01X87523Y29195D01*
G01X87431Y29287D01*
G01X87068Y30133D02*
G01X86977Y30041D01*
G01X86934Y29950D01*
G01X86934Y29815D01*
G01X86977Y29724D01*
G01X87068Y29632D01*
G01X87205Y29587D01*
G01X87297Y29587D01*
G01X87431Y29632D01*
G01X87523Y29724D01*
G01X87569Y29815D01*
G01X87569Y29950D01*
G01X87523Y30041D01*
G01X87431Y30133D01*
G01X86614Y30432D02*
G01X87569Y30432D01*
G01X87114Y30432D02*
G01X86977Y30570D01*
G01X86934Y30661D01*
G01X86934Y30796D01*
G01X86977Y30887D01*
G01X87114Y30933D01*
G01X87569Y30933D01*
G01X86614Y31933D02*
G01X87569Y31933D01*
G01X86614Y31933D02*
G01X86614Y32342D01*
G01X86659Y32477D01*
G01X86705Y32523D01*
G01X86796Y32568D01*
G01X86888Y32568D01*
G01X86977Y32523D01*
G01X87022Y32477D01*
G01X87068Y32342D01*
G01X87068Y31933D02*
G01X87068Y32342D01*
G01X87114Y32477D01*
G01X87160Y32523D01*
G01X87251Y32568D01*
G01X87386Y32568D01*
G01X87477Y32523D01*
G01X87523Y32477D01*
G01X87569Y32342D01*
G01X87569Y31933D01*
G01X87205Y32868D02*
G01X87205Y33414D01*
G01X87114Y33414D01*
G01X87022Y33369D01*
G01X86977Y33323D01*
G01X86934Y33231D01*
G01X86934Y33097D01*
G01X86977Y33005D01*
G01X87068Y32914D01*
G01X87205Y32868D01*
G01X87297Y32868D01*
G01X87431Y32914D01*
G01X87523Y33005D01*
G01X87569Y33097D01*
G01X87569Y33231D01*
G01X87523Y33323D01*
G01X87431Y33414D01*
G01X86934Y33714D02*
G01X87569Y33714D01*
G01X87205Y33714D02*
G01X87068Y33760D01*
G01X86977Y33851D01*
G01X86934Y33943D01*
G01X86934Y34077D01*
G01X86934Y34377D02*
G01X87569Y34377D01*
G01X87205Y34377D02*
G01X87068Y34423D01*
G01X86977Y34514D01*
G01X86934Y34606D01*
G01X86934Y34743D01*
G01X86934Y35088D02*
G01X87569Y35360D01*
G01X86934Y35632D02*
G01X87569Y35360D01*
G01X87751Y35269D01*
G01X87840Y35177D01*
G01X87886Y35088D01*
G01X87886Y35042D01*
G54D29*
G01X71572Y3993D02*
G01X72336Y3993D01*
G01X71572Y3739D02*
G01X71572Y4247D01*
G01X71572Y4489D02*
G01X72336Y4997D01*
G01X71572Y4997D02*
G01X72336Y4489D01*
G01X71572Y5238D02*
G01X72336Y5238D01*
G01X74239Y11232D02*
G01X75003Y11232D01*
G01X74239Y11232D02*
G01X74239Y11560D01*
G01X74277Y11669D01*
G01X74312Y11705D01*
G01X74383Y11740D01*
G01X74457Y11740D01*
G01X74531Y11705D01*
G01X74566Y11669D01*
G01X74602Y11560D01*
G01X74602Y11232D01*
G01X74602Y11486D02*
G01X75003Y11740D01*
G01X74239Y11982D02*
G01X75003Y12490D01*
G01X74239Y12490D02*
G01X75003Y11982D01*
G01X74239Y12950D02*
G01X74277Y12876D01*
G01X74348Y12802D01*
G01X74422Y12767D01*
G01X74531Y12731D01*
G01X74711Y12731D01*
G01X74820Y12767D01*
G01X74894Y12802D01*
G01X74968Y12876D01*
G01X75003Y12950D01*
G01X75003Y13094D01*
G01X74968Y13168D01*
G01X74894Y13239D01*
G01X74820Y13277D01*
G01X74711Y13313D01*
G01X74531Y13313D01*
G01X74422Y13277D01*
G01X74348Y13239D01*
G01X74277Y13168D01*
G01X74239Y13094D01*
G01X74239Y12950D01*
G01X74239Y3485D02*
G01X75003Y3485D01*
G01X74239Y3231D02*
G01X74239Y3739D01*
G01X74239Y3981D02*
G01X75003Y4489D01*
G01X74239Y4489D02*
G01X75003Y3981D01*
G01X74239Y4949D02*
G01X74277Y4875D01*
G01X74348Y4801D01*
G01X74422Y4766D01*
G01X74531Y4730D01*
G01X74711Y4730D01*
G01X74820Y4766D01*
G01X74894Y4801D01*
G01X74968Y4875D01*
G01X75003Y4949D01*
G01X75003Y5093D01*
G01X74968Y5167D01*
G01X74894Y5238D01*
G01X74820Y5276D01*
G01X74711Y5312D01*
G01X74531Y5312D01*
G01X74422Y5276D01*
G01X74348Y5238D01*
G01X74277Y5167D01*
G01X74239Y5093D01*
G01X74239Y4949D01*
G01X66728Y8893D02*
G01X67383Y8893D01*
G01X67056Y8565D02*
G01X67056Y9221D01*
G01X66619Y9896D02*
G01X66619Y9533D01*
G01X66946Y9495D01*
G01X66911Y9533D01*
G01X66873Y9642D01*
G01X66873Y9752D01*
G01X66911Y9861D01*
G01X66982Y9932D01*
G01X67091Y9970D01*
G01X67165Y9970D01*
G01X67274Y9932D01*
G01X67348Y9861D01*
G01X67383Y9752D01*
G01X67383Y9642D01*
G01X67348Y9533D01*
G01X67310Y9495D01*
G01X67238Y9460D01*
G01X66619Y10209D02*
G01X67383Y10501D01*
G01X66619Y10791D02*
G01X67383Y10501D01*
G01X64135Y9239D02*
G01X64061Y9200D01*
G01X63990Y9129D01*
G01X63952Y9056D01*
G01X63952Y8911D01*
G01X63990Y8837D01*
G01X64061Y8766D01*
G01X64135Y8728D01*
G01X64244Y8692D01*
G01X64424Y8692D01*
G01X64533Y8728D01*
G01X64607Y8766D01*
G01X64681Y8837D01*
G01X64716Y8911D01*
G01X64716Y9056D01*
G01X64681Y9129D01*
G01X64607Y9200D01*
G01X64533Y9239D01*
G01X64424Y9239D01*
G01X64424Y9056D02*
G01X64424Y9239D01*
G01X63952Y9477D02*
G01X64716Y9477D01*
G01X63952Y9477D02*
G01X64716Y9988D01*
G01X63952Y9988D02*
G01X64716Y9988D01*
G01X63952Y10227D02*
G01X64716Y10227D01*
G01X63952Y10227D02*
G01X63952Y10481D01*
G01X63990Y10590D01*
G01X64061Y10664D01*
G01X64135Y10699D01*
G01X64244Y10737D01*
G01X64424Y10737D01*
G01X64533Y10699D01*
G01X64607Y10664D01*
G01X64681Y10590D01*
G01X64716Y10481D01*
G01X64716Y10227D01*
G01X61412Y8692D02*
G01X62176Y8692D01*
G01X61412Y8692D02*
G01X61412Y8946D01*
G01X61450Y9056D01*
G01X61521Y9129D01*
G01X61595Y9165D01*
G01X61704Y9200D01*
G01X61884Y9200D01*
G01X61993Y9165D01*
G01X62067Y9129D01*
G01X62141Y9056D01*
G01X62176Y8946D01*
G01X62176Y8692D01*
G01X59055Y9239D02*
G01X58981Y9200D01*
G01X58910Y9129D01*
G01X58872Y9056D01*
G01X58872Y8911D01*
G01X58910Y8837D01*
G01X58981Y8766D01*
G01X59055Y8728D01*
G01X59164Y8692D01*
G01X59344Y8692D01*
G01X59453Y8728D01*
G01X59527Y8766D01*
G01X59601Y8837D01*
G01X59636Y8911D01*
G01X59636Y9056D01*
G01X59601Y9129D01*
G01X59527Y9200D01*
G01X59453Y9239D01*
G01X61087Y2906D02*
G01X61087Y2142D01*
G01X61595Y2906D02*
G01X61595Y2142D01*
G01X61087Y2543D02*
G01X61595Y2543D01*
G01X62090Y2906D02*
G01X62090Y2142D01*
G01X61836Y2906D02*
G01X62344Y2906D01*
G01X62585Y2762D02*
G01X62656Y2797D01*
G01X62765Y2906D01*
G01X62765Y2142D01*
G01X63444Y2797D02*
G01X63406Y2868D01*
G01X63296Y2906D01*
G01X63225Y2906D01*
G01X63116Y2868D01*
G01X63042Y2762D01*
G01X63007Y2579D01*
G01X63007Y2396D01*
G01X63042Y2251D01*
G01X63116Y2177D01*
G01X63225Y2142D01*
G01X63261Y2142D01*
G01X63370Y2177D01*
G01X63444Y2251D01*
G01X63479Y2360D01*
G01X63479Y2396D01*
G01X63444Y2505D01*
G01X63370Y2579D01*
G01X63261Y2614D01*
G01X63225Y2614D01*
G01X63116Y2579D01*
G01X63042Y2505D01*
G01X63007Y2396D01*
G01X63720Y2906D02*
G01X63720Y2142D01*
G01X64228Y2906D02*
G01X63720Y2396D01*
G01X63901Y2579D02*
G01X64228Y2142D01*
G01X64541Y2906D02*
G01X64942Y2906D01*
G01X64724Y2614D01*
G01X64833Y2614D01*
G01X64904Y2579D01*
G01X64942Y2543D01*
G01X64978Y2434D01*
G01X64978Y2360D01*
G01X64942Y2251D01*
G01X64869Y2177D01*
G01X64759Y2142D01*
G01X64650Y2142D01*
G01X64541Y2177D01*
G01X64505Y2215D01*
G01X64467Y2287D01*
G01X65290Y2906D02*
G01X65689Y2906D01*
G01X65473Y2614D01*
G01X65582Y2614D01*
G01X65653Y2579D01*
G01X65689Y2543D01*
G01X65727Y2434D01*
G01X65727Y2360D01*
G01X65689Y2251D01*
G01X65618Y2177D01*
G01X65509Y2142D01*
G01X65399Y2142D01*
G01X65290Y2177D01*
G01X65255Y2215D01*
G01X65217Y2287D01*
G01X53411Y8639D02*
G01X53411Y9038D01*
G01X53703Y8819D01*
G01X53703Y8929D01*
G01X53738Y9002D01*
G01X53774Y9038D01*
G01X53883Y9073D01*
G01X53957Y9073D01*
G01X54066Y9038D01*
G01X54140Y8964D01*
G01X54175Y8858D01*
G01X54175Y8748D01*
G01X54140Y8639D01*
G01X54102Y8601D01*
G01X54030Y8565D01*
G01X50942Y8565D02*
G01X50906Y8639D01*
G01X50797Y8748D01*
G01X51562Y8748D01*
G01X48440Y8601D02*
G01X48402Y8601D01*
G01X48331Y8639D01*
G01X48295Y8675D01*
G01X48257Y8748D01*
G01X48257Y8893D01*
G01X48295Y8964D01*
G01X48331Y9002D01*
G01X48402Y9038D01*
G01X48475Y9038D01*
G01X48549Y9002D01*
G01X48658Y8929D01*
G01X49022Y8565D01*
G01X49022Y9073D01*
G01X40678Y2960D02*
G01X40386Y2195D01*
G01X40678Y2960D02*
G01X40967Y2195D01*
G01X40495Y2449D02*
G01X40858Y2449D01*
G01X41208Y2960D02*
G01X41208Y2195D01*
G01X41208Y2195D02*
G01X41643Y2195D01*
G01X41884Y2960D02*
G01X41884Y2195D01*
G01X41884Y2960D02*
G01X42212Y2960D01*
G01X42321Y2922D01*
G01X42357Y2886D01*
G01X42392Y2815D01*
G01X42392Y2706D01*
G01X42357Y2632D01*
G01X42321Y2596D01*
G01X42212Y2558D01*
G01X41884Y2558D01*
G01X43141Y2850D02*
G01X43070Y2922D01*
G01X42961Y2960D01*
G01X42814Y2960D01*
G01X42705Y2922D01*
G01X42633Y2850D01*
G01X42633Y2777D01*
G01X42669Y2706D01*
G01X42705Y2668D01*
G01X42778Y2632D01*
G01X42997Y2558D01*
G01X43070Y2523D01*
G01X43106Y2487D01*
G01X43141Y2414D01*
G01X43141Y2304D01*
G01X43070Y2231D01*
G01X42961Y2195D01*
G01X42814Y2195D01*
G01X42705Y2231D01*
G01X42633Y2304D01*
G01X43942Y2960D02*
G01X43942Y2195D01*
G01X43942Y2960D02*
G01X44269Y2960D01*
G01X44378Y2922D01*
G01X44414Y2886D01*
G01X44452Y2815D01*
G01X44452Y2741D01*
G01X44414Y2668D01*
G01X44378Y2632D01*
G01X44269Y2596D01*
G01X43942Y2596D01*
G01X44196Y2596D02*
G01X44452Y2195D01*
G01X44691Y2960D02*
G01X44691Y2195D01*
G01X45199Y2960D02*
G01X44691Y2449D01*
G01X44874Y2632D02*
G01X45199Y2195D01*
G01X45476Y2777D02*
G01X45476Y2815D01*
G01X45514Y2886D01*
G01X45549Y2922D01*
G01X45623Y2960D01*
G01X45768Y2960D01*
G01X45839Y2922D01*
G01X45877Y2886D01*
G01X45913Y2815D01*
G01X45913Y2741D01*
G01X45877Y2668D01*
G01X45803Y2558D01*
G01X45440Y2195D01*
G01X45948Y2195D01*
G01X46408Y2960D02*
G01X46299Y2922D01*
G01X46225Y2815D01*
G01X46189Y2632D01*
G01X46189Y2523D01*
G01X46225Y2340D01*
G01X46299Y2231D01*
G01X46408Y2195D01*
G01X46479Y2195D01*
G01X46588Y2231D01*
G01X46662Y2340D01*
G01X46697Y2523D01*
G01X46697Y2632D01*
G01X46662Y2815D01*
G01X46588Y2922D01*
G01X46479Y2960D01*
G01X46408Y2960D01*
G01X47010Y2960D02*
G01X47411Y2960D01*
G01X47193Y2668D01*
G01X47302Y2668D01*
G01X47376Y2632D01*
G01X47411Y2596D01*
G01X47447Y2487D01*
G01X47447Y2414D01*
G01X47411Y2304D01*
G01X47337Y2231D01*
G01X47228Y2195D01*
G01X47119Y2195D01*
G01X47010Y2231D01*
G01X46974Y2269D01*
G01X46939Y2340D01*
G01X48902Y3104D02*
G01X48247Y1941D01*
G01X49702Y2815D02*
G01X49773Y2850D01*
G01X49883Y2960D01*
G01X49883Y2195D01*
G01X50342Y2960D02*
G01X50233Y2922D01*
G01X50159Y2815D01*
G01X50124Y2632D01*
G01X50124Y2523D01*
G01X50159Y2340D01*
G01X50233Y2231D01*
G01X50342Y2195D01*
G01X50413Y2195D01*
G01X50523Y2231D01*
G01X50596Y2340D01*
G01X50632Y2523D01*
G01X50632Y2632D01*
G01X50596Y2815D01*
G01X50523Y2922D01*
G01X50413Y2960D01*
G01X50342Y2960D01*
G01X50873Y2960D02*
G01X50873Y2195D01*
G01X51236Y2706D02*
G01X50873Y2340D01*
G01X51018Y2487D02*
G01X51272Y2195D01*
G01X42616Y8639D02*
G01X42616Y9038D01*
G01X42908Y8819D01*
G01X42908Y8929D01*
G01X42943Y9002D01*
G01X42979Y9038D01*
G01X43088Y9073D01*
G01X43162Y9073D01*
G01X43271Y9038D01*
G01X43345Y8964D01*
G01X43380Y8858D01*
G01X43380Y8748D01*
G01X43345Y8639D01*
G01X43307Y8601D01*
G01X43235Y8565D01*
G01X40147Y8565D02*
G01X40111Y8639D01*
G01X40002Y8748D01*
G01X40767Y8748D01*
G01X37645Y8601D02*
G01X37607Y8601D01*
G01X37536Y8639D01*
G01X37500Y8675D01*
G01X37462Y8748D01*
G01X37462Y8893D01*
G01X37500Y8964D01*
G01X37536Y9002D01*
G01X37607Y9038D01*
G01X37680Y9038D01*
G01X37754Y9002D01*
G01X37863Y8929D01*
G01X38227Y8565D01*
G01X38227Y9073D01*
G54D30*
G01X51221Y20110D02*
G01X51117Y20059D01*
G01X51066Y19904D01*
G01X51066Y19800D01*
G01X51117Y19642D01*
G01X51272Y19538D01*
G01X51534Y19487D01*
G01X51793Y19487D01*
G01X52001Y19538D01*
G01X52105Y19642D01*
G01X52156Y19800D01*
G01X52156Y19851D01*
G01X52105Y20008D01*
G01X52001Y20110D01*
G01X51843Y20163D01*
G01X51793Y20163D01*
G01X51638Y20110D01*
G01X51534Y20008D01*
G01X51480Y19851D01*
G01X51480Y19800D01*
G01X51534Y19642D01*
G01X51638Y19538D01*
G01X51793Y19487D01*
G01X51066Y20506D02*
G01X52156Y20506D01*
G01X51066Y20506D02*
G01X52156Y21232D01*
G01X51066Y21232D02*
G01X52156Y21232D01*
G01X51272Y21575D02*
G01X51221Y21680D01*
G01X51066Y21837D01*
G01X52156Y21837D01*
G01X51066Y22281D02*
G01X51066Y22853D01*
G01X51480Y22543D01*
G01X51480Y22698D01*
G01X51534Y22802D01*
G01X51584Y22853D01*
G01X51739Y22906D01*
G01X51843Y22906D01*
G01X52001Y22853D01*
G01X52105Y22751D01*
G01X52156Y22594D01*
G01X52156Y22439D01*
G01X52105Y22281D01*
G01X52052Y22231D01*
G01X51948Y22180D01*
G01X51066Y23508D02*
G01X51117Y23353D01*
G01X51221Y23300D01*
G01X51325Y23300D01*
G01X51429Y23353D01*
G01X51480Y23458D01*
G01X51534Y23666D01*
G01X51584Y23821D01*
G01X51689Y23925D01*
G01X51793Y23976D01*
G01X51948Y23976D01*
G01X52052Y23925D01*
G01X52105Y23872D01*
G01X52156Y23717D01*
G01X52156Y23508D01*
G01X52105Y23353D01*
G01X52052Y23300D01*
G01X51948Y23249D01*
G01X51793Y23249D01*
G01X51689Y23300D01*
G01X51584Y23404D01*
G01X51534Y23562D01*
G01X51480Y23767D01*
G01X51429Y23872D01*
G01X51325Y23925D01*
G01X51221Y23925D01*
G01X51117Y23872D01*
G01X51066Y23717D01*
G01X51066Y23508D01*
G01X73677Y20681D02*
G01X73624Y20681D01*
G01X73520Y20735D01*
G01X73469Y20785D01*
G01X73418Y20890D01*
G01X73418Y21098D01*
G01X73469Y21202D01*
G01X73520Y21253D01*
G01X73624Y21306D01*
G01X73728Y21306D01*
G01X73832Y21253D01*
G01X73990Y21151D01*
G01X74508Y20630D01*
G01X74508Y21357D01*
G01X73677Y21753D02*
G01X73624Y21753D01*
G01X73520Y21804D01*
G01X73469Y21857D01*
G01X73418Y21961D01*
G01X73418Y22167D01*
G01X73469Y22271D01*
G01X73520Y22325D01*
G01X73624Y22375D01*
G01X73728Y22375D01*
G01X73832Y22325D01*
G01X73990Y22221D01*
G01X74508Y21700D01*
G01X74508Y22429D01*
G01X73418Y23082D02*
G01X73469Y22927D01*
G01X73624Y22823D01*
G01X73886Y22772D01*
G01X74041Y22772D01*
G01X74300Y22823D01*
G01X74457Y22927D01*
G01X74508Y23082D01*
G01X74508Y23186D01*
G01X74457Y23343D01*
G01X74300Y23447D01*
G01X74041Y23498D01*
G01X73886Y23498D01*
G01X73624Y23447D01*
G01X73469Y23343D01*
G01X73418Y23186D01*
G01X73418Y23082D01*
G01X68216Y20681D02*
G01X68163Y20681D01*
G01X68059Y20735D01*
G01X68008Y20785D01*
G01X67957Y20890D01*
G01X67957Y21098D01*
G01X68008Y21202D01*
G01X68059Y21253D01*
G01X68163Y21306D01*
G01X68267Y21306D01*
G01X68371Y21253D01*
G01X68529Y21151D01*
G01X69047Y20630D01*
G01X69047Y21357D01*
G01X68216Y21753D02*
G01X68163Y21753D01*
G01X68059Y21804D01*
G01X68008Y21857D01*
G01X67957Y21961D01*
G01X67957Y22167D01*
G01X68008Y22271D01*
G01X68059Y22325D01*
G01X68163Y22375D01*
G01X68267Y22375D01*
G01X68371Y22325D01*
G01X68529Y22221D01*
G01X69047Y21700D01*
G01X69047Y22429D01*
G01X67957Y23082D02*
G01X68008Y22927D01*
G01X68163Y22823D01*
G01X68425Y22772D01*
G01X68580Y22772D01*
G01X68839Y22823D01*
G01X68996Y22927D01*
G01X69047Y23082D01*
G01X69047Y23186D01*
G01X68996Y23343D01*
G01X68839Y23447D01*
G01X68580Y23498D01*
G01X68425Y23498D01*
G01X68163Y23447D01*
G01X68008Y23343D01*
G01X67957Y23186D01*
G01X67957Y23082D01*
G01X62882Y20681D02*
G01X62829Y20681D01*
G01X62725Y20735D01*
G01X62674Y20785D01*
G01X62623Y20890D01*
G01X62623Y21098D01*
G01X62674Y21202D01*
G01X62725Y21253D01*
G01X62829Y21306D01*
G01X62933Y21306D01*
G01X63037Y21253D01*
G01X63195Y21151D01*
G01X63713Y20630D01*
G01X63713Y21357D01*
G01X62882Y21753D02*
G01X62829Y21753D01*
G01X62725Y21804D01*
G01X62674Y21857D01*
G01X62623Y21961D01*
G01X62623Y22167D01*
G01X62674Y22271D01*
G01X62725Y22325D01*
G01X62829Y22375D01*
G01X62933Y22375D01*
G01X63037Y22325D01*
G01X63195Y22221D01*
G01X63713Y21700D01*
G01X63713Y22429D01*
G01X62623Y23082D02*
G01X62674Y22927D01*
G01X62829Y22823D01*
G01X63091Y22772D01*
G01X63246Y22772D01*
G01X63505Y22823D01*
G01X63662Y22927D01*
G01X63713Y23082D01*
G01X63713Y23186D01*
G01X63662Y23343D01*
G01X63505Y23447D01*
G01X63246Y23498D01*
G01X63091Y23498D01*
G01X62829Y23447D01*
G01X62674Y23343D01*
G01X62623Y23186D01*
G01X62623Y23082D01*
G01X31254Y21024D02*
G01X31981Y20503D01*
G01X31981Y21283D01*
G01X31254Y21024D02*
G01X32344Y21024D01*
G01X32085Y21677D02*
G01X32136Y21626D01*
G01X32189Y21677D01*
G01X32136Y21730D01*
G01X32085Y21677D01*
G01X31254Y22800D02*
G01X32344Y22281D01*
G01X31254Y22073D02*
G01X31254Y22800D01*
G01X31254Y23143D02*
G01X32344Y23143D01*
G01X31617Y23663D02*
G01X32136Y23143D01*
G01X31927Y23351D02*
G01X32344Y23714D01*
G01X37482Y20681D02*
G01X37429Y20681D01*
G01X37325Y20735D01*
G01X37274Y20785D01*
G01X37223Y20890D01*
G01X37223Y21098D01*
G01X37274Y21202D01*
G01X37325Y21253D01*
G01X37429Y21306D01*
G01X37533Y21306D01*
G01X37637Y21253D01*
G01X37795Y21151D01*
G01X38313Y20630D01*
G01X38313Y21357D01*
G01X37482Y21753D02*
G01X37429Y21753D01*
G01X37325Y21804D01*
G01X37274Y21857D01*
G01X37223Y21961D01*
G01X37223Y22167D01*
G01X37274Y22271D01*
G01X37325Y22325D01*
G01X37429Y22375D01*
G01X37533Y22375D01*
G01X37637Y22325D01*
G01X37795Y22221D01*
G01X38313Y21700D01*
G01X38313Y22429D01*
G01X37223Y23082D02*
G01X37274Y22927D01*
G01X37429Y22823D01*
G01X37691Y22772D01*
G01X37846Y22772D01*
G01X38105Y22823D01*
G01X38262Y22927D01*
G01X38313Y23082D01*
G01X38313Y23186D01*
G01X38262Y23343D01*
G01X38105Y23447D01*
G01X37846Y23498D01*
G01X37691Y23498D01*
G01X37429Y23447D01*
G01X37274Y23343D01*
G01X37223Y23186D01*
G01X37223Y23082D01*
G54D29*
G01X71699Y11232D02*
G01X72463Y11232D01*
G01X71699Y11232D02*
G01X71699Y11560D01*
G01X71737Y11669D01*
G01X71772Y11705D01*
G01X71843Y11740D01*
G01X71917Y11740D01*
G01X71991Y11705D01*
G01X72026Y11669D01*
G01X72062Y11560D01*
G01X72062Y11232D01*
G01X72062Y11486D02*
G01X72463Y11740D01*
G01X71699Y11982D02*
G01X72463Y12490D01*
G01X71699Y12490D02*
G01X72463Y11982D01*
G01X71699Y12731D02*
G01X72463Y12731D01*
G01X43268Y20503D02*
G01X43233Y20577D01*
G01X43124Y20686D01*
G01X43888Y20686D01*
G01X43124Y20925D02*
G01X43888Y20925D01*
G01X43124Y20925D02*
G01X43888Y21433D01*
G01X43124Y21433D02*
G01X43888Y21433D01*
G01X43378Y22147D02*
G01X43487Y22111D01*
G01X43561Y22038D01*
G01X43596Y21928D01*
G01X43596Y21893D01*
G01X43561Y21784D01*
G01X43487Y21710D01*
G01X43378Y21674D01*
G01X43342Y21674D01*
G01X43233Y21710D01*
G01X43162Y21784D01*
G01X43124Y21893D01*
G01X43124Y21928D01*
G01X43162Y22038D01*
G01X43233Y22111D01*
G01X43378Y22147D01*
G01X43561Y22147D01*
G01X43743Y22111D01*
G01X43853Y22038D01*
G01X43888Y21928D01*
G01X43888Y21857D01*
G01X43853Y21748D01*
G01X43779Y21710D01*
G01X43268Y22388D02*
G01X43233Y22459D01*
G01X43124Y22569D01*
G01X43888Y22569D01*
G01X43124Y23173D02*
G01X43634Y22810D01*
G01X43634Y23353D01*
G01X43124Y23173D02*
G01X43888Y23173D01*
G54D30*
G01X47970Y44352D02*
G01X47866Y44456D01*
G01X47711Y44506D01*
G01X47503Y44506D01*
G01X47348Y44456D01*
G01X47244Y44352D01*
G01X47244Y44247D01*
G01X47294Y44143D01*
G01X47348Y44092D01*
G01X47452Y44039D01*
G01X47764Y43935D01*
G01X47866Y43884D01*
G01X47919Y43833D01*
G01X47970Y43729D01*
G01X47970Y43572D01*
G01X47866Y43468D01*
G01X47711Y43417D01*
G01X47503Y43417D01*
G01X47348Y43468D01*
G01X47244Y43572D01*
G01X48313Y44506D02*
G01X48313Y43417D01*
G01X48313Y44506D02*
G01X48679Y44506D01*
G01X48834Y44456D01*
G01X48938Y44352D01*
G01X48988Y44247D01*
G01X49042Y44092D01*
G01X49042Y43833D01*
G01X48988Y43676D01*
G01X48938Y43572D01*
G01X48834Y43468D01*
G01X48679Y43417D01*
G01X48313Y43417D01*
G01X50111Y44352D02*
G01X50007Y44456D01*
G01X49852Y44506D01*
G01X49644Y44506D01*
G01X49489Y44456D01*
G01X49385Y44352D01*
G01X49385Y44247D01*
G01X49436Y44143D01*
G01X49489Y44092D01*
G01X49593Y44039D01*
G01X49903Y43935D01*
G01X50007Y43884D01*
G01X50060Y43833D01*
G01X50111Y43729D01*
G01X50111Y43572D01*
G01X50007Y43468D01*
G01X49852Y43417D01*
G01X49644Y43417D01*
G01X49489Y43468D01*
G01X49385Y43572D01*
G01X50454Y43884D02*
G01X51389Y43884D01*
G01X52357Y44506D02*
G01X51836Y44506D01*
G01X51785Y44039D01*
G01X51836Y44092D01*
G01X51993Y44143D01*
G01X52148Y44143D01*
G01X52303Y44092D01*
G01X52407Y43988D01*
G01X52461Y43833D01*
G01X52461Y43729D01*
G01X52407Y43572D01*
G01X52303Y43468D01*
G01X52148Y43417D01*
G01X51993Y43417D01*
G01X51836Y43468D01*
G01X51785Y43521D01*
G01X51732Y43625D01*
G01X53113Y44506D02*
G01X52959Y44456D01*
G01X52854Y44301D01*
G01X52804Y44039D01*
G01X52804Y43884D01*
G01X52854Y43625D01*
G01X52959Y43468D01*
G01X53113Y43417D01*
G01X53218Y43417D01*
G01X53375Y43468D01*
G01X53479Y43625D01*
G01X53530Y43884D01*
G01X53530Y44039D01*
G01X53479Y44301D01*
G01X53375Y44456D01*
G01X53218Y44506D01*
G01X53113Y44506D01*
G01X54394Y44506D02*
G01X54394Y43676D01*
G01X54340Y43521D01*
G01X54289Y43468D01*
G01X54185Y43417D01*
G01X54081Y43417D01*
G01X53977Y43468D01*
G01X53924Y43521D01*
G01X53873Y43676D01*
G01X53873Y43780D01*
G01X69433Y44339D02*
G01X69329Y44443D01*
G01X69174Y44494D01*
G01X68966Y44494D01*
G01X68811Y44443D01*
G01X68707Y44339D01*
G01X68707Y44235D01*
G01X68757Y44131D01*
G01X68811Y44080D01*
G01X68915Y44026D01*
G01X69227Y43922D01*
G01X69329Y43871D01*
G01X69382Y43821D01*
G01X69433Y43717D01*
G01X69433Y43559D01*
G01X69329Y43455D01*
G01X69174Y43404D01*
G01X68966Y43404D01*
G01X68811Y43455D01*
G01X68707Y43559D01*
G01X69776Y44494D02*
G01X69776Y43404D01*
G01X69776Y44494D02*
G01X70142Y44494D01*
G01X70297Y44443D01*
G01X70401Y44339D01*
G01X70451Y44235D01*
G01X70505Y44080D01*
G01X70505Y43821D01*
G01X70451Y43663D01*
G01X70401Y43559D01*
G01X70297Y43455D01*
G01X70142Y43404D01*
G01X69776Y43404D01*
G01X71574Y44339D02*
G01X71470Y44443D01*
G01X71315Y44494D01*
G01X71107Y44494D01*
G01X70952Y44443D01*
G01X70848Y44339D01*
G01X70848Y44235D01*
G01X70899Y44131D01*
G01X70952Y44080D01*
G01X71056Y44026D01*
G01X71366Y43922D01*
G01X71470Y43871D01*
G01X71523Y43821D01*
G01X71574Y43717D01*
G01X71574Y43559D01*
G01X71470Y43455D01*
G01X71315Y43404D01*
G01X71107Y43404D01*
G01X70952Y43455D01*
G01X70848Y43559D01*
G01X71917Y43871D02*
G01X72852Y43871D01*
G01X73820Y44494D02*
G01X73299Y44494D01*
G01X73248Y44026D01*
G01X73299Y44080D01*
G01X73456Y44131D01*
G01X73611Y44131D01*
G01X73766Y44080D01*
G01X73870Y43976D01*
G01X73924Y43821D01*
G01X73924Y43717D01*
G01X73870Y43559D01*
G01X73766Y43455D01*
G01X73611Y43404D01*
G01X73456Y43404D01*
G01X73299Y43455D01*
G01X73248Y43508D01*
G01X73195Y43612D01*
G01X74576Y44494D02*
G01X74422Y44443D01*
G01X74317Y44288D01*
G01X74267Y44026D01*
G01X74267Y43871D01*
G01X74317Y43612D01*
G01X74422Y43455D01*
G01X74576Y43404D01*
G01X74681Y43404D01*
G01X74838Y43455D01*
G01X74942Y43612D01*
G01X74993Y43871D01*
G01X74993Y44026D01*
G01X74942Y44288D01*
G01X74838Y44443D01*
G01X74681Y44494D01*
G01X74576Y44494D01*
G01X75857Y44494D02*
G01X75857Y43663D01*
G01X75803Y43508D01*
G01X75752Y43455D01*
G01X75648Y43404D01*
G01X75544Y43404D01*
G01X75440Y43455D01*
G01X75387Y43508D01*
G01X75336Y43663D01*
G01X75336Y43767D01*
G01X29210Y50209D02*
G01X29210Y49119D01*
G01X29210Y50209D02*
G01X29677Y50209D01*
G01X29832Y50158D01*
G01X29885Y50107D01*
G01X29936Y50003D01*
G01X29936Y49846D01*
G01X29885Y49741D01*
G01X29832Y49691D01*
G01X29677Y49637D01*
G01X29210Y49637D01*
G01X30800Y50209D02*
G01X30800Y49378D01*
G01X30746Y49223D01*
G01X30695Y49170D01*
G01X30591Y49119D01*
G01X30487Y49119D01*
G01X30383Y49170D01*
G01X30332Y49223D01*
G01X30279Y49378D01*
G01X30279Y49482D01*
G01X31142Y49586D02*
G01X32077Y49586D01*
G01X32732Y50209D02*
G01X32575Y50158D01*
G01X32473Y50003D01*
G01X32420Y49741D01*
G01X32420Y49586D01*
G01X32473Y49327D01*
G01X32575Y49170D01*
G01X32732Y49119D01*
G01X32837Y49119D01*
G01X32992Y49170D01*
G01X33096Y49327D01*
G01X33147Y49586D01*
G01X33147Y49741D01*
G01X33096Y50003D01*
G01X32992Y50158D01*
G01X32837Y50209D01*
G01X32732Y50209D01*
G01X33802Y50209D02*
G01X33647Y50158D01*
G01X33543Y50003D01*
G01X33489Y49741D01*
G01X33489Y49586D01*
G01X33543Y49327D01*
G01X33647Y49170D01*
G01X33802Y49119D01*
G01X33906Y49119D01*
G01X34061Y49170D01*
G01X34165Y49327D01*
G01X34218Y49586D01*
G01X34218Y49741D01*
G01X34165Y50003D01*
G01X34061Y50158D01*
G01X33906Y50209D01*
G01X33802Y50209D01*
G01X34612Y49950D02*
G01X34612Y50003D01*
G01X34665Y50107D01*
G01X34716Y50158D01*
G01X34820Y50209D01*
G01X35029Y50209D01*
G01X35133Y50158D01*
G01X35184Y50107D01*
G01X35237Y50003D01*
G01X35237Y49899D01*
G01X35184Y49795D01*
G01X35079Y49637D01*
G01X34561Y49119D01*
G01X35288Y49119D01*
G01X36047Y50209D02*
G01X35631Y49119D01*
G01X36047Y50209D02*
G01X36461Y49119D01*
G01X35788Y49482D02*
G01X36306Y49482D01*
G54D29*
G01X19431Y14209D02*
G01X19431Y13445D01*
G01X19177Y14209D02*
G01X19685Y14209D01*
G01X19926Y14209D02*
G01X20434Y13445D01*
G01X20434Y14209D02*
G01X19926Y13445D01*
G01X20675Y14209D02*
G01X20675Y13445D01*
G01X20675Y14209D02*
G01X20929Y14209D01*
G01X21038Y14171D01*
G01X21112Y14100D01*
G01X21148Y14026D01*
G01X21183Y13917D01*
G01X21183Y13737D01*
G01X21148Y13628D01*
G01X21112Y13554D01*
G01X21038Y13480D01*
G01X20929Y13445D01*
G01X20675Y13445D01*
G01X19177Y16749D02*
G01X19177Y15985D01*
G01X19177Y16749D02*
G01X19504Y16749D01*
G01X19613Y16711D01*
G01X19649Y16676D01*
G01X19685Y16605D01*
G01X19685Y16531D01*
G01X19649Y16457D01*
G01X19613Y16422D01*
G01X19504Y16386D01*
G01X19177Y16386D01*
G01X19431Y16386D02*
G01X19685Y15985D01*
G01X19926Y16749D02*
G01X20434Y15985D01*
G01X20434Y16749D02*
G01X19926Y15985D01*
G01X20675Y16749D02*
G01X20675Y15985D01*
G01X20675Y16749D02*
G01X20929Y16749D01*
G01X21038Y16711D01*
G01X21112Y16640D01*
G01X21148Y16566D01*
G01X21183Y16457D01*
G01X21183Y16277D01*
G01X21148Y16168D01*
G01X21112Y16094D01*
G01X21038Y16020D01*
G01X20929Y15985D01*
G01X20675Y15985D01*
G01X19177Y19289D02*
G01X19177Y18525D01*
G01X19177Y19289D02*
G01X19504Y19289D01*
G01X19613Y19251D01*
G01X19649Y19216D01*
G01X19685Y19145D01*
G01X19685Y19071D01*
G01X19649Y18997D01*
G01X19613Y18962D01*
G01X19504Y18926D01*
G01X19177Y18926D01*
G01X19431Y18926D02*
G01X19685Y18525D01*
G01X20434Y19180D02*
G01X20363Y19251D01*
G01X20253Y19289D01*
G01X20106Y19289D01*
G01X19999Y19251D01*
G01X19926Y19180D01*
G01X19926Y19106D01*
G01X19961Y19035D01*
G01X19999Y18997D01*
G01X20071Y18962D01*
G01X20289Y18888D01*
G01X20363Y18852D01*
G01X20398Y18817D01*
G01X20434Y18743D01*
G01X20434Y18634D01*
G01X20363Y18560D01*
G01X20253Y18525D01*
G01X20106Y18525D01*
G01X19999Y18560D01*
G01X19926Y18634D01*
G01X20929Y19289D02*
G01X20929Y18525D01*
G01X20675Y19289D02*
G01X21183Y19289D01*
G01X19596Y21646D02*
G01X19558Y21720D01*
G01X19486Y21791D01*
G01X19413Y21829D01*
G01X19268Y21829D01*
G01X19194Y21791D01*
G01X19123Y21720D01*
G01X19085Y21646D01*
G01X19050Y21537D01*
G01X19050Y21357D01*
G01X19085Y21248D01*
G01X19123Y21174D01*
G01X19194Y21100D01*
G01X19268Y21065D01*
G01X19413Y21065D01*
G01X19486Y21100D01*
G01X19558Y21174D01*
G01X19596Y21248D01*
G01X19596Y21357D01*
G01X19413Y21357D02*
G01X19596Y21357D01*
G01X19834Y21829D02*
G01X19834Y21065D01*
G01X19834Y21829D02*
G01X20345Y21065D01*
G01X20345Y21829D02*
G01X20345Y21065D01*
G01X20584Y21829D02*
G01X20584Y21065D01*
G01X20584Y21829D02*
G01X20838Y21829D01*
G01X20947Y21791D01*
G01X21021Y21720D01*
G01X21056Y21646D01*
G01X21094Y21537D01*
G01X21094Y21357D01*
G01X21056Y21248D01*
G01X21021Y21174D01*
G01X20947Y21100D01*
G01X20838Y21065D01*
G01X20584Y21065D01*
G01X19177Y24369D02*
G01X19177Y23605D01*
G01X19177Y24369D02*
G01X19431Y24369D01*
G01X19540Y24331D01*
G01X19613Y24260D01*
G01X19649Y24186D01*
G01X19685Y24077D01*
G01X19685Y23897D01*
G01X19649Y23788D01*
G01X19613Y23714D01*
G01X19540Y23640D01*
G01X19431Y23605D01*
G01X19177Y23605D01*
G01X19961Y24186D02*
G01X19961Y24225D01*
G01X19999Y24296D01*
G01X20035Y24331D01*
G01X20106Y24369D01*
G01X20253Y24369D01*
G01X20325Y24331D01*
G01X20363Y24296D01*
G01X20398Y24225D01*
G01X20398Y24151D01*
G01X20363Y24077D01*
G01X20289Y23968D01*
G01X19926Y23605D01*
G01X20434Y23605D01*
G01X19177Y26909D02*
G01X19177Y26145D01*
G01X19177Y26909D02*
G01X19431Y26909D01*
G01X19540Y26871D01*
G01X19613Y26800D01*
G01X19649Y26726D01*
G01X19685Y26617D01*
G01X19685Y26437D01*
G01X19649Y26328D01*
G01X19613Y26254D01*
G01X19540Y26180D01*
G01X19431Y26145D01*
G01X19177Y26145D01*
G01X19999Y26909D02*
G01X20398Y26909D01*
G01X20180Y26617D01*
G01X20289Y26617D01*
G01X20363Y26582D01*
G01X20398Y26546D01*
G01X20434Y26437D01*
G01X20434Y26363D01*
G01X20398Y26254D01*
G01X20325Y26180D01*
G01X20215Y26145D01*
G01X20106Y26145D01*
G01X19999Y26180D01*
G01X19961Y26218D01*
G01X19926Y26290D01*
G01X19177Y29449D02*
G01X19177Y28685D01*
G01X19177Y29449D02*
G01X19431Y29449D01*
G01X19540Y29411D01*
G01X19613Y29340D01*
G01X19649Y29266D01*
G01X19685Y29157D01*
G01X19685Y28977D01*
G01X19649Y28868D01*
G01X19613Y28794D01*
G01X19540Y28720D01*
G01X19431Y28685D01*
G01X19177Y28685D01*
G01X20289Y29449D02*
G01X19926Y28939D01*
G01X20472Y28939D01*
G01X20289Y29449D02*
G01X20289Y28685D01*
G01X19177Y31989D02*
G01X19177Y31225D01*
G01X19177Y31989D02*
G01X19431Y31989D01*
G01X19540Y31951D01*
G01X19613Y31880D01*
G01X19649Y31806D01*
G01X19685Y31697D01*
G01X19685Y31517D01*
G01X19649Y31408D01*
G01X19613Y31334D01*
G01X19540Y31260D01*
G01X19431Y31225D01*
G01X19177Y31225D01*
G01X20363Y31989D02*
G01X19999Y31989D01*
G01X19961Y31662D01*
G01X19999Y31697D01*
G01X20106Y31735D01*
G01X20215Y31735D01*
G01X20325Y31697D01*
G01X20398Y31626D01*
G01X20434Y31517D01*
G01X20434Y31443D01*
G01X20398Y31334D01*
G01X20325Y31260D01*
G01X20215Y31225D01*
G01X20106Y31225D01*
G01X19999Y31260D01*
G01X19961Y31298D01*
G01X19926Y31370D01*
G01X19177Y34529D02*
G01X19177Y33765D01*
G01X19177Y34529D02*
G01X19431Y34529D01*
G01X19540Y34491D01*
G01X19613Y34420D01*
G01X19649Y34346D01*
G01X19685Y34237D01*
G01X19685Y34057D01*
G01X19649Y33948D01*
G01X19613Y33874D01*
G01X19540Y33800D01*
G01X19431Y33765D01*
G01X19177Y33765D01*
G01X20363Y34420D02*
G01X20325Y34491D01*
G01X20215Y34529D01*
G01X20144Y34529D01*
G01X20035Y34491D01*
G01X19961Y34385D01*
G01X19926Y34202D01*
G01X19926Y34019D01*
G01X19961Y33874D01*
G01X20035Y33800D01*
G01X20144Y33765D01*
G01X20180Y33765D01*
G01X20289Y33800D01*
G01X20363Y33874D01*
G01X20398Y33983D01*
G01X20398Y34019D01*
G01X20363Y34128D01*
G01X20289Y34202D01*
G01X20180Y34237D01*
G01X20144Y34237D01*
G01X20035Y34202D01*
G01X19961Y34128D01*
G01X19926Y34019D01*
G01X19177Y37069D02*
G01X19177Y36305D01*
G01X19177Y37069D02*
G01X19431Y37069D01*
G01X19540Y37031D01*
G01X19613Y36960D01*
G01X19649Y36886D01*
G01X19685Y36777D01*
G01X19685Y36597D01*
G01X19649Y36488D01*
G01X19613Y36414D01*
G01X19540Y36340D01*
G01X19431Y36305D01*
G01X19177Y36305D01*
G01X20434Y37069D02*
G01X20071Y36305D01*
G01X19926Y37069D02*
G01X20434Y37069D01*
G01X19177Y39609D02*
G01X19177Y38845D01*
G01X19177Y39609D02*
G01X19431Y39609D01*
G01X19540Y39571D01*
G01X19613Y39500D01*
G01X19649Y39426D01*
G01X19685Y39317D01*
G01X19685Y39137D01*
G01X19649Y39028D01*
G01X19613Y38954D01*
G01X19540Y38880D01*
G01X19431Y38845D01*
G01X19177Y38845D01*
G01X20106Y39609D02*
G01X19999Y39571D01*
G01X19961Y39500D01*
G01X19961Y39426D01*
G01X19999Y39355D01*
G01X20071Y39317D01*
G01X20215Y39282D01*
G01X20325Y39246D01*
G01X20398Y39172D01*
G01X20434Y39099D01*
G01X20434Y38990D01*
G01X20398Y38918D01*
G01X20363Y38880D01*
G01X20253Y38845D01*
G01X20106Y38845D01*
G01X19999Y38880D01*
G01X19961Y38918D01*
G01X19926Y38990D01*
G01X19926Y39099D01*
G01X19961Y39172D01*
G01X20035Y39246D01*
G01X20144Y39282D01*
G01X20289Y39317D01*
G01X20363Y39355D01*
G01X20398Y39426D01*
G01X20398Y39500D01*
G01X20363Y39571D01*
G01X20253Y39609D01*
G01X20106Y39609D01*
G01X19177Y42149D02*
G01X19177Y41385D01*
G01X19177Y42149D02*
G01X19431Y42149D01*
G01X19540Y42111D01*
G01X19613Y42040D01*
G01X19649Y41966D01*
G01X19685Y41857D01*
G01X19685Y41677D01*
G01X19649Y41568D01*
G01X19613Y41494D01*
G01X19540Y41420D01*
G01X19431Y41385D01*
G01X19177Y41385D01*
G01X20398Y41895D02*
G01X20363Y41786D01*
G01X20289Y41712D01*
G01X20180Y41677D01*
G01X20144Y41677D01*
G01X20035Y41712D01*
G01X19961Y41786D01*
G01X19926Y41895D01*
G01X19926Y41931D01*
G01X19961Y42040D01*
G01X20035Y42111D01*
G01X20144Y42149D01*
G01X20180Y42149D01*
G01X20289Y42111D01*
G01X20363Y42040D01*
G01X20398Y41895D01*
G01X20398Y41712D01*
G01X20363Y41530D01*
G01X20289Y41420D01*
G01X20180Y41385D01*
G01X20106Y41385D01*
G01X19999Y41420D01*
G01X19961Y41494D01*
G01X19177Y44689D02*
G01X19177Y43925D01*
G01X19177Y44689D02*
G01X19431Y44689D01*
G01X19540Y44651D01*
G01X19613Y44580D01*
G01X19649Y44506D01*
G01X19685Y44397D01*
G01X19685Y44217D01*
G01X19649Y44108D01*
G01X19613Y44034D01*
G01X19540Y43960D01*
G01X19431Y43925D01*
G01X19177Y43925D01*
G01X19926Y44545D02*
G01X19999Y44580D01*
G01X20106Y44689D01*
G01X20106Y43925D01*
G01X20566Y44689D02*
G01X20457Y44651D01*
G01X20383Y44545D01*
G01X20347Y44362D01*
G01X20347Y44252D01*
G01X20383Y44070D01*
G01X20457Y43960D01*
G01X20566Y43925D01*
G01X20640Y43925D01*
G01X20746Y43960D01*
G01X20820Y44070D01*
G01X20855Y44252D01*
G01X20855Y44362D01*
G01X20820Y44545D01*
G01X20746Y44651D01*
G01X20640Y44689D01*
G01X20566Y44689D01*
G01X19177Y47229D02*
G01X19177Y46465D01*
G01X19177Y47229D02*
G01X19431Y47229D01*
G01X19540Y47191D01*
G01X19613Y47120D01*
G01X19649Y47046D01*
G01X19685Y46937D01*
G01X19685Y46757D01*
G01X19649Y46648D01*
G01X19613Y46574D01*
G01X19540Y46500D01*
G01X19431Y46465D01*
G01X19177Y46465D01*
G01X19926Y47085D02*
G01X19999Y47120D01*
G01X20106Y47229D01*
G01X20106Y46465D01*
G01X20347Y47085D02*
G01X20421Y47120D01*
G01X20530Y47229D01*
G01X20530Y46465D01*
G01X19177Y49769D02*
G01X19177Y49005D01*
G01X19177Y49769D02*
G01X19431Y49769D01*
G01X19540Y49731D01*
G01X19613Y49660D01*
G01X19649Y49586D01*
G01X19685Y49477D01*
G01X19685Y49297D01*
G01X19649Y49188D01*
G01X19613Y49114D01*
G01X19540Y49040D01*
G01X19431Y49005D01*
G01X19177Y49005D01*
G01X19926Y49625D02*
G01X19999Y49660D01*
G01X20106Y49769D01*
G01X20106Y49005D01*
G01X20383Y49586D02*
G01X20383Y49625D01*
G01X20421Y49696D01*
G01X20457Y49731D01*
G01X20530Y49769D01*
G01X20675Y49769D01*
G01X20746Y49731D01*
G01X20784Y49696D01*
G01X20820Y49625D01*
G01X20820Y49551D01*
G01X20784Y49477D01*
G01X20711Y49368D01*
G01X20347Y49005D01*
G01X20855Y49005D01*
G01X9779Y14209D02*
G01X10071Y13445D01*
G01X10360Y14209D02*
G01X10071Y13445D01*
G01X10601Y14209D02*
G01X10601Y13445D01*
G01X10840Y14209D02*
G01X10840Y13445D01*
G01X10840Y14209D02*
G01X11348Y13445D01*
G01X11348Y14209D02*
G01X11348Y13445D01*
G01X10325Y16566D02*
G01X10287Y16640D01*
G01X10215Y16711D01*
G01X10142Y16749D01*
G01X9997Y16749D01*
G01X9923Y16711D01*
G01X9852Y16640D01*
G01X9814Y16566D01*
G01X9779Y16457D01*
G01X9779Y16277D01*
G01X9814Y16168D01*
G01X9852Y16094D01*
G01X9923Y16020D01*
G01X9997Y15985D01*
G01X10142Y15985D01*
G01X10215Y16020D01*
G01X10287Y16094D01*
G01X10325Y16168D01*
G01X10325Y16277D01*
G01X10142Y16277D02*
G01X10325Y16277D01*
G01X10563Y16749D02*
G01X10563Y15985D01*
G01X10563Y16749D02*
G01X11074Y15985D01*
G01X11074Y16749D02*
G01X11074Y15985D01*
G01X11313Y16749D02*
G01X11313Y15985D01*
G01X11313Y16749D02*
G01X11567Y16749D01*
G01X11676Y16711D01*
G01X11750Y16640D01*
G01X11785Y16566D01*
G01X11823Y16457D01*
G01X11823Y16277D01*
G01X11785Y16168D01*
G01X11750Y16094D01*
G01X11676Y16020D01*
G01X11567Y15985D01*
G01X11313Y15985D01*
G01X9779Y19289D02*
G01X9779Y18525D01*
G01X9779Y19289D02*
G01X10106Y19289D01*
G01X10215Y19251D01*
G01X10251Y19216D01*
G01X10287Y19145D01*
G01X10287Y19071D01*
G01X10251Y18997D01*
G01X10215Y18962D01*
G01X10106Y18926D01*
G01X9779Y18926D01*
G01X10033Y18926D02*
G01X10287Y18525D01*
G01X11036Y19180D02*
G01X10965Y19251D01*
G01X10855Y19289D01*
G01X10708Y19289D01*
G01X10601Y19251D01*
G01X10528Y19180D01*
G01X10528Y19106D01*
G01X10563Y19035D01*
G01X10601Y18997D01*
G01X10673Y18962D01*
G01X10891Y18888D01*
G01X10965Y18852D01*
G01X11000Y18817D01*
G01X11036Y18743D01*
G01X11036Y18634D01*
G01X10965Y18560D01*
G01X10855Y18525D01*
G01X10708Y18525D01*
G01X10601Y18560D01*
G01X10528Y18634D01*
G01X11531Y19289D02*
G01X11531Y18525D01*
G01X11277Y19289D02*
G01X11785Y19289D01*
G01X10088Y21829D02*
G01X9725Y21829D01*
G01X9687Y21502D01*
G01X9725Y21537D01*
G01X9834Y21575D01*
G01X9944Y21575D01*
G01X10050Y21537D01*
G01X10124Y21466D01*
G01X10160Y21357D01*
G01X10160Y21283D01*
G01X10124Y21174D01*
G01X10050Y21100D01*
G01X9944Y21065D01*
G01X9834Y21065D01*
G01X9725Y21100D01*
G01X9687Y21138D01*
G01X9652Y21210D01*
G01X10401Y21829D02*
G01X10690Y21065D01*
G01X10982Y21829D02*
G01X10690Y21065D01*
G01X10071Y24369D02*
G01X9779Y23605D01*
G01X10071Y24369D02*
G01X10360Y23605D01*
G01X9888Y23859D02*
G01X10251Y23859D01*
G01X11109Y24369D02*
G01X10746Y23605D01*
G01X10601Y24369D02*
G01X11109Y24369D01*
G01X10071Y26909D02*
G01X9779Y26145D01*
G01X10071Y26909D02*
G01X10360Y26145D01*
G01X9888Y26399D02*
G01X10251Y26399D01*
G01X11036Y26800D02*
G01X11000Y26871D01*
G01X10891Y26909D01*
G01X10817Y26909D01*
G01X10708Y26871D01*
G01X10637Y26765D01*
G01X10601Y26582D01*
G01X10601Y26399D01*
G01X10637Y26254D01*
G01X10708Y26180D01*
G01X10817Y26145D01*
G01X10855Y26145D01*
G01X10965Y26180D01*
G01X11036Y26254D01*
G01X11074Y26363D01*
G01X11074Y26399D01*
G01X11036Y26508D01*
G01X10965Y26582D01*
G01X10855Y26617D01*
G01X10817Y26617D01*
G01X10708Y26582D01*
G01X10637Y26508D01*
G01X10601Y26399D01*
G01X10071Y29449D02*
G01X9779Y28685D01*
G01X10071Y29449D02*
G01X10360Y28685D01*
G01X9888Y28939D02*
G01X10251Y28939D01*
G01X11036Y29449D02*
G01X10673Y29449D01*
G01X10637Y29122D01*
G01X10673Y29157D01*
G01X10782Y29195D01*
G01X10891Y29195D01*
G01X11000Y29157D01*
G01X11074Y29086D01*
G01X11109Y28977D01*
G01X11109Y28903D01*
G01X11074Y28794D01*
G01X11000Y28720D01*
G01X10891Y28685D01*
G01X10782Y28685D01*
G01X10673Y28720D01*
G01X10637Y28758D01*
G01X10601Y28830D01*
G01X10071Y31989D02*
G01X9779Y31225D01*
G01X10071Y31989D02*
G01X10360Y31225D01*
G01X9888Y31479D02*
G01X10251Y31479D01*
G01X10965Y31989D02*
G01X10601Y31479D01*
G01X11145Y31479D01*
G01X10965Y31989D02*
G01X10965Y31225D01*
G01X10071Y34529D02*
G01X9779Y33765D01*
G01X10071Y34529D02*
G01X10360Y33765D01*
G01X9888Y34019D02*
G01X10251Y34019D01*
G01X10673Y34529D02*
G01X11074Y34529D01*
G01X10855Y34237D01*
G01X10965Y34237D01*
G01X11036Y34202D01*
G01X11074Y34166D01*
G01X11109Y34057D01*
G01X11109Y33983D01*
G01X11074Y33874D01*
G01X11000Y33800D01*
G01X10891Y33765D01*
G01X10782Y33765D01*
G01X10673Y33800D01*
G01X10637Y33838D01*
G01X10601Y33910D01*
G01X10071Y37069D02*
G01X9779Y36305D01*
G01X10071Y37069D02*
G01X10360Y36305D01*
G01X9888Y36559D02*
G01X10251Y36559D01*
G01X10637Y36886D02*
G01X10637Y36925D01*
G01X10673Y36996D01*
G01X10708Y37031D01*
G01X10782Y37069D01*
G01X10927Y37069D01*
G01X11000Y37031D01*
G01X11036Y36996D01*
G01X11074Y36925D01*
G01X11074Y36851D01*
G01X11036Y36777D01*
G01X10965Y36668D01*
G01X10601Y36305D01*
G01X11109Y36305D01*
G01X10071Y39609D02*
G01X9779Y38845D01*
G01X10071Y39609D02*
G01X10360Y38845D01*
G01X9888Y39099D02*
G01X10251Y39099D01*
G01X10601Y39465D02*
G01X10673Y39500D01*
G01X10782Y39609D01*
G01X10782Y38845D01*
G01X10071Y42149D02*
G01X9779Y41385D01*
G01X10071Y42149D02*
G01X10360Y41385D01*
G01X9888Y41639D02*
G01X10251Y41639D01*
G01X10817Y42149D02*
G01X10708Y42111D01*
G01X10637Y42005D01*
G01X10601Y41822D01*
G01X10601Y41712D01*
G01X10637Y41530D01*
G01X10708Y41420D01*
G01X10817Y41385D01*
G01X10891Y41385D01*
G01X11000Y41420D01*
G01X11074Y41530D01*
G01X11109Y41712D01*
G01X11109Y41822D01*
G01X11074Y42005D01*
G01X11000Y42111D01*
G01X10891Y42149D01*
G01X10817Y42149D01*
G01X9779Y44689D02*
G01X9779Y43925D01*
G01X9779Y44689D02*
G01X10106Y44689D01*
G01X10215Y44651D01*
G01X10251Y44616D01*
G01X10287Y44545D01*
G01X10287Y44471D01*
G01X10251Y44397D01*
G01X10215Y44362D01*
G01X10106Y44326D01*
G01X9779Y44326D01*
G01X10033Y44326D02*
G01X10287Y43925D01*
G01X10528Y44689D02*
G01X10528Y43925D01*
G01X10528Y44689D02*
G01X11000Y44689D01*
G01X10528Y44326D02*
G01X10817Y44326D01*
G01X10528Y43925D02*
G01X11000Y43925D01*
G01X11242Y44689D02*
G01X11242Y43925D01*
G01X11242Y44689D02*
G01X11714Y44689D01*
G01X11242Y44326D02*
G01X11531Y44326D01*
G01X9852Y47229D02*
G01X10251Y47229D01*
G01X10033Y46937D01*
G01X10142Y46937D01*
G01X10215Y46902D01*
G01X10251Y46866D01*
G01X10287Y46757D01*
G01X10287Y46683D01*
G01X10251Y46574D01*
G01X10177Y46500D01*
G01X10071Y46465D01*
G01X9961Y46465D01*
G01X9852Y46500D01*
G01X9814Y46538D01*
G01X9779Y46610D01*
G01X10528Y47229D02*
G01X10817Y46465D01*
G01X11109Y47229D02*
G01X10817Y46465D01*
G01X11422Y47229D02*
G01X11823Y47229D01*
G01X11605Y46937D01*
G01X11714Y46937D01*
G01X11785Y46902D01*
G01X11823Y46866D01*
G01X11859Y46757D01*
G01X11859Y46683D01*
G01X11823Y46574D01*
G01X11750Y46500D01*
G01X11640Y46465D01*
G01X11531Y46465D01*
G01X11422Y46500D01*
G01X11386Y46538D01*
G01X11348Y46610D01*
G01X9779Y49769D02*
G01X9779Y49005D01*
G01X9779Y49769D02*
G01X10033Y49769D01*
G01X10142Y49731D01*
G01X10215Y49660D01*
G01X10251Y49586D01*
G01X10287Y49477D01*
G01X10287Y49297D01*
G01X10251Y49188D01*
G01X10215Y49114D01*
G01X10142Y49040D01*
G01X10033Y49005D01*
G01X9779Y49005D01*
G01X10528Y49625D02*
G01X10601Y49660D01*
G01X10708Y49769D01*
G01X10708Y49005D01*
G01X11023Y49769D02*
G01X11422Y49769D01*
G01X11203Y49477D01*
G01X11313Y49477D01*
G01X11386Y49442D01*
G01X11422Y49406D01*
G01X11457Y49297D01*
G01X11457Y49223D01*
G01X11422Y49114D01*
G01X11348Y49040D01*
G01X11242Y49005D01*
G01X11132Y49005D01*
G01X11023Y49040D01*
G01X10985Y49078D01*
G01X10949Y49150D01*
G54D10*
G75*
G01X52959Y27108D02*
G02X50419Y27108I-1270J0D01*
G01*
G54D27*
G75*
G01X39673Y38646D02*
G03X39759Y38745I100J0D01*
G01*
G75*
G01X61263Y38646D02*
G03X61349Y38745I100J0D01*
G01*
M00*
M02*
