G04 Layer: TopSolderMaskLayer*
G04 EasyEDA v6.1.48, Fri, 24 May 2019 02:17:32 GMT*
G04 a76c445d5078456fbe9c8c9c1c925b64,d79a69aa59da4e1fbb9b7d465b79b5da,10*
G04 Gerber Generator version 0.2*
G04 Scale: 100 percent, Rotated: No, Reflected: No *
G04 Dimensions in millimeters *
G04 leading zeros omitted , absolute positions ,3 integer and 3 decimal *
%FSLAX33Y33*%
%MOMM*%
G90*
G71D02*

%ADD29C,2.003196*%
%ADD31C,1.803400*%
%ADD32C,2.082800*%
%ADD33C,2.108200*%
%ADD34C,2.153158*%
%ADD35R,1.778000X1.778000*%
%ADD36C,1.778000*%
%ADD37R,1.903197X1.903197*%
%ADD38C,1.903197*%

%LPD*%
G54D29*
G01X34030Y37570D02*
G01X31630Y37570D01*
G01X31630Y43569D02*
G01X34030Y43569D01*
G01X28129Y39370D02*
G01X28129Y41769D01*
G36*
G01X46977Y24936D02*
G01X46977Y26739D01*
G01X48780Y26739D01*
G01X48780Y24936D01*
G01X46977Y24936D01*
G37*
G54D31*
G01X47879Y23297D03*
G01X47879Y20757D03*
G01X47879Y18217D03*
G01X55499Y18217D03*
G01X55499Y20757D03*
G01X55499Y23297D03*
G01X55499Y25837D03*
G54D32*
G01X68453Y15677D03*
G01X68453Y28377D03*
G01X63119Y15677D03*
G01X63119Y28377D03*
G01X37846Y15804D03*
G01X37846Y28504D03*
G01X73914Y15677D03*
G01X73914Y28377D03*
G01X31750Y15804D03*
G01X31750Y28504D03*
G54D33*
G01X43434Y20503D03*
G01X43434Y28123D03*
G54D34*
G01X50673Y39045D03*
G01X45673Y36546D03*
G01X43173Y39045D03*
G01X55672Y36546D03*
G01X58172Y39045D03*
G01X53172Y49045D03*
G01X48173Y49045D03*
G01X72263Y39045D03*
G01X67263Y36546D03*
G01X64763Y39045D03*
G01X77262Y36546D03*
G01X79762Y39045D03*
G01X74762Y49045D03*
G01X69763Y49045D03*
G36*
G01X6477Y2723D02*
G01X6477Y4501D01*
G01X8255Y4501D01*
G01X8255Y2723D01*
G01X6477Y2723D01*
G37*
G54D36*
G01X9906Y3612D03*
G01X20701Y3485D03*
G01X18161Y3485D03*
G54D35*
G01X15621Y3485D03*
G54D36*
G01X31496Y3485D03*
G01X28956Y3485D03*
G54D35*
G01X26416Y3485D03*
G01X36957Y3612D03*
G54D36*
G01X39497Y3612D03*
G01X42037Y3612D03*
G01X44577Y3612D03*
G54D37*
G01X23114Y49459D03*
G54D38*
G01X23114Y46919D03*
G01X23114Y44379D03*
G01X23114Y41839D03*
G01X23114Y39299D03*
G01X23114Y36759D03*
G01X23114Y34219D03*
G01X23114Y31679D03*
G01X23114Y29139D03*
G01X23114Y26599D03*
G01X23114Y24059D03*
G01X23114Y21519D03*
G01X23114Y18979D03*
G01X23114Y16439D03*
G01X23114Y13899D03*
G54D37*
G01X7874Y49459D03*
G54D38*
G01X7874Y46919D03*
G01X7874Y44379D03*
G01X7874Y41839D03*
G01X7874Y39299D03*
G01X7874Y36759D03*
G01X7874Y34219D03*
G01X7874Y31679D03*
G01X7874Y29139D03*
G01X7874Y26599D03*
G01X7874Y24059D03*
G01X7874Y21519D03*
G01X7874Y18979D03*
G01X7874Y16439D03*
G01X7874Y13899D03*
G36*
G01X30480Y31298D02*
G01X30480Y33076D01*
G01X32258Y33076D01*
G01X32258Y31298D01*
G01X30480Y31298D01*
G37*
G54D36*
G01X33909Y32187D03*
G36*
G01X48768Y5390D02*
G01X48768Y7168D01*
G01X50546Y7168D01*
G01X50546Y5390D01*
G01X48768Y5390D01*
G37*
G01X52197Y6279D03*
G01X49657Y3739D03*
G01X52197Y3739D03*
M00*
M02*
