;Layer: Drill PTH
;EasyEDA v6.1.52, Sun, 21 Jul 2019 17:23:19 GMT
;9af5fbda4f6940c5a343921887981b07,d79a69aa59da4e1fbb9b7d465b79b5da,10
;Gerber Generator version 0.2
M48
METRIC,LZ,000.000
;Holesize 1 = 0.310 METRIC
T01C0.310
;Holesize 2 = 0.889 METRIC
T02C0.889
;Holesize 3 = 0.900 METRIC
T03C0.900
;Holesize 4 = 1.101 METRIC
T04C1.101
;Holesize 5 = 1.200 METRIC
T05C1.200
;Holesize 6 = 1.300 METRIC
T06C1.300
%
G05
G90
T01
X+010546Y+010664
X+013342Y+013899
X+065913Y+012459
X+017571Y+008256
X+056248Y+003981
X+015232Y+006798
T02
X+047879Y+025837
X+047879Y+023297
X+047879Y+020757
X+047879Y+018217
X+055499Y+018217
X+055499Y+020757
X+055499Y+023297
X+055499Y+025837
X+029718Y+007041
X+032258Y+007041
X+043053Y+006914
X+040513Y+006914
X+037973Y+006914
X+053848Y+006914
X+051308Y+006914
X+048768Y+006914
X+059309Y+006914
X+061849Y+006914
X+064389Y+006914
X+066929Y+006914
X+031369Y+032187
X+033909Y+032187
X+072009Y+009454
X+074549Y+009454
X+072009Y+006914
X+074549Y+006914
T03
X+068453Y+015677
X+068453Y+028377
X+063119Y+015677
X+063119Y+028377
X+037846Y+015804
X+037846Y+028504
X+073914Y+015677
X+073914Y+028377
X+031750Y+015804
X+031750Y+028504
T04
X+043434Y+018344
X+043434Y+025964
X+023114Y+049459
X+023114Y+046919
X+023114Y+044379
X+023114Y+041839
X+023114Y+039299
X+023114Y+036759
X+023114Y+034219
X+023114Y+031679
X+023114Y+029139
X+023114Y+026599
X+023114Y+024059
X+023114Y+021519
X+023114Y+018979
X+023114Y+016439
X+023114Y+013899
X+007874Y+049459
X+007874Y+046919
X+007874Y+044379
X+007874Y+041839
X+007874Y+039299
X+007874Y+036759
X+007874Y+034219
X+007874Y+031679
X+007874Y+029139
X+007874Y+026599
X+007874Y+024059
X+007874Y+021519
X+007874Y+018979
X+007874Y+016439
X+007874Y+013899
T05
X+031580Y+037570G85X+034080Y+037570
X+034080Y+043569G85X+031580Y+043569
X+028129Y+041820G85X+028129Y+039319
T06
X+050675Y+039045G85X+050670Y+039045
X+045675Y+036546G85X+045670Y+036546
X+043175Y+039045G85X+043170Y+039045
X+055675Y+036546G85X+055670Y+036546
X+058175Y+039045G85X+058170Y+039045
X+053175Y+049045G85X+053170Y+049045
X+048175Y+049045G85X+048170Y+049045
X+072265Y+039045G85X+072260Y+039045
X+067265Y+036546G85X+067260Y+036546
X+064765Y+039045G85X+064760Y+039045
X+077265Y+036546G85X+077260Y+036546
X+079765Y+039045G85X+079760Y+039045
X+074765Y+049045G85X+074760Y+049045
X+069765Y+049045G85X+069760Y+049045
M30
