G04 Layer: TopSilkLayer*
G04 EasyEDA v6.2.46, 2019-10-22T23:17:59--4:00*
G04 780f1b725bed47f4bbcc22436ff655ea,d79a69aa59da4e1fbb9b7d465b79b5da,10*
G04 Gerber Generator version 0.2*
G04 Scale: 100 percent, Rotated: No, Reflected: No *
G04 Dimensions in millimeters *
G04 leading zeros omitted , absolute positions ,3 integer and 3 decimal *
%FSLAX33Y33*%
%MOMM*%
G90*
G71D02*

%ADD10C,0.254000*%
%ADD25C,0.228600*%
%ADD26C,0.127000*%
%ADD27C,0.203200*%
%ADD28C,0.199898*%
%ADD29C,0.151994*%
%ADD30C,0.150012*%
%ADD31C,0.152400*%

%LPD*%
G54D10*
G01X43815Y21900D02*
G01X48895Y21900D01*
G01X48895Y21900D02*
G01X48895Y32060D01*
G01X43815Y21900D02*
G01X43815Y32060D01*
G01X43815Y32060D02*
G01X45085Y32060D01*
G01X47625Y32060D02*
G01X48895Y32060D01*
G01X28524Y19360D02*
G01X28524Y22662D01*
G01X28524Y22662D02*
G01X37515Y22662D01*
G01X37515Y22662D02*
G01X37515Y19360D01*
G01X37515Y19360D02*
G01X28524Y19360D01*
G01X28524Y22916D02*
G01X28524Y26218D01*
G01X28524Y26218D02*
G01X37515Y26218D01*
G01X37515Y26218D02*
G01X37515Y22916D01*
G01X37515Y22916D02*
G01X28524Y22916D01*
G01X28524Y26472D02*
G01X28524Y29774D01*
G01X28524Y29774D02*
G01X37515Y29774D01*
G01X37515Y29774D02*
G01X37515Y26472D01*
G01X37515Y26472D02*
G01X28524Y26472D01*
G01X28524Y15804D02*
G01X28524Y19106D01*
G01X28524Y19106D02*
G01X37515Y19106D01*
G01X37515Y19106D02*
G01X37515Y15804D01*
G01X37515Y15804D02*
G01X28524Y15804D01*
G01X28524Y12248D02*
G01X28524Y15550D01*
G01X28524Y15550D02*
G01X37515Y15550D01*
G01X37515Y15550D02*
G01X37515Y12248D01*
G01X37515Y12248D02*
G01X28524Y12248D01*
G54D25*
G01X43434Y14026D02*
G01X43434Y19106D01*
G01X45720Y19106D01*
G01X45720Y14026D01*
G01X43434Y14026D01*
G01X43434Y18471D02*
G01X45720Y18471D01*
G54D26*
G01X59373Y39045D02*
G01X60672Y39045D01*
G01X60672Y51545D01*
G01X40673Y51545D01*
G01X40673Y39045D01*
G01X41972Y39045D01*
G01X56972Y39045D02*
G01X51872Y39045D01*
G01X49473Y39045D02*
G01X44373Y39045D01*
G01X80963Y39045D02*
G01X82262Y39045D01*
G01X82262Y51545D01*
G01X62263Y51545D01*
G01X62263Y39045D01*
G01X63562Y39045D01*
G01X78562Y39045D02*
G01X73462Y39045D01*
G01X71063Y39045D02*
G01X65963Y39045D01*
G54D10*
G01X24638Y50729D02*
G01X21590Y50729D01*
G01X21590Y12375D01*
G01X24638Y12375D01*
G01X24638Y50729D01*
G01X24638Y48189D02*
G01X21590Y48189D01*
G01X9398Y50729D02*
G01X6350Y50729D01*
G01X6350Y12375D01*
G01X9398Y12375D01*
G01X9398Y50729D01*
G01X9398Y48189D02*
G01X6350Y48189D01*
G01X28330Y51469D02*
G01X37330Y51470D01*
G01X37330Y51470D02*
G01X37330Y37069D01*
G01X37330Y37069D02*
G01X28330Y37069D01*
G01X28330Y37069D02*
G01X28330Y51470D01*
G01X28330Y47769D02*
G01X37330Y47769D01*
G01X29630Y47689D02*
G01X29630Y37069D01*
G01X36030Y47689D02*
G01X36030Y37069D01*
G54D27*
G01X35179Y33457D02*
G01X35179Y30943D01*
G01X30099Y30943D01*
G01X30099Y33457D01*
G01X35179Y33457D01*
G54D10*
G01X7222Y9581D02*
G01X12302Y9581D01*
G01X12302Y7676D01*
G01X12302Y3231D01*
G01X7222Y3231D01*
G01X7222Y7676D01*
G01X7222Y9581D01*
G01X7222Y7676D02*
G01X12302Y7676D01*
G01X12700Y9581D02*
G01X20320Y9581D01*
G01X20320Y7676D01*
G01X20320Y3231D01*
G01X12700Y3231D01*
G01X12700Y7676D01*
G01X12700Y9581D01*
G01X12700Y7676D02*
G01X20320Y7676D01*
G01X20828Y9581D02*
G01X28448Y9581D01*
G01X28448Y7676D01*
G01X28448Y3231D01*
G01X20828Y3231D01*
G01X20828Y7676D01*
G01X20828Y9581D01*
G01X20828Y7676D02*
G01X28448Y7676D01*
G01X28891Y9581D02*
G01X39051Y9581D01*
G01X39051Y7676D01*
G01X39051Y3231D01*
G01X28891Y3231D01*
G01X28891Y7676D01*
G01X28891Y9581D01*
G01X28891Y7676D02*
G01X39051Y7676D01*
G01X39559Y9581D02*
G01X49719Y9581D01*
G01X49719Y7676D01*
G01X49719Y3231D01*
G01X39559Y3231D01*
G01X39559Y7676D01*
G01X39559Y9581D01*
G01X39559Y7676D02*
G01X49719Y7676D01*
G54D27*
G01X86702Y38156D02*
G01X87657Y38156D01*
G01X86702Y38156D02*
G01X86702Y38565D01*
G01X86748Y38703D01*
G01X86794Y38748D01*
G01X86885Y38794D01*
G01X86977Y38794D01*
G01X87066Y38748D01*
G01X87111Y38703D01*
G01X87157Y38565D01*
G01X87157Y38156D01*
G01X87157Y38474D02*
G01X87657Y38794D01*
G01X87294Y39094D02*
G01X87294Y39637D01*
G01X87203Y39637D01*
G01X87111Y39592D01*
G01X87066Y39548D01*
G01X87022Y39457D01*
G01X87022Y39320D01*
G01X87066Y39228D01*
G01X87157Y39139D01*
G01X87294Y39094D01*
G01X87386Y39094D01*
G01X87520Y39139D01*
G01X87612Y39228D01*
G01X87657Y39320D01*
G01X87657Y39457D01*
G01X87612Y39548D01*
G01X87520Y39637D01*
G01X87022Y39940D02*
G01X87657Y40211D01*
G01X87022Y40483D02*
G01X87657Y40211D01*
G01X86702Y40783D02*
G01X86748Y40829D01*
G01X86702Y40874D01*
G01X86657Y40829D01*
G01X86702Y40783D01*
G01X87022Y40829D02*
G01X87657Y40829D01*
G01X87157Y41674D02*
G01X87066Y41629D01*
G01X87022Y41494D01*
G01X87022Y41357D01*
G01X87066Y41220D01*
G01X87157Y41174D01*
G01X87249Y41220D01*
G01X87294Y41311D01*
G01X87340Y41537D01*
G01X87386Y41629D01*
G01X87475Y41674D01*
G01X87520Y41674D01*
G01X87612Y41629D01*
G01X87657Y41494D01*
G01X87657Y41357D01*
G01X87612Y41220D01*
G01X87520Y41174D01*
G01X86702Y41974D02*
G01X86748Y42020D01*
G01X86702Y42066D01*
G01X86657Y42020D01*
G01X86702Y41974D01*
G01X87022Y42020D02*
G01X87657Y42020D01*
G01X87022Y42594D02*
G01X87066Y42502D01*
G01X87157Y42411D01*
G01X87294Y42365D01*
G01X87386Y42365D01*
G01X87520Y42411D01*
G01X87612Y42502D01*
G01X87657Y42594D01*
G01X87657Y42728D01*
G01X87612Y42820D01*
G01X87520Y42911D01*
G01X87386Y42957D01*
G01X87294Y42957D01*
G01X87157Y42911D01*
G01X87066Y42820D01*
G01X87022Y42728D01*
G01X87022Y42594D01*
G01X87022Y43257D02*
G01X87657Y43257D01*
G01X87203Y43257D02*
G01X87066Y43394D01*
G01X87022Y43483D01*
G01X87022Y43620D01*
G01X87066Y43711D01*
G01X87203Y43757D01*
G01X87657Y43757D01*
G01X86702Y44847D02*
G01X86702Y45347D01*
G01X87066Y45075D01*
G01X87066Y45210D01*
G01X87111Y45302D01*
G01X87157Y45347D01*
G01X87294Y45393D01*
G01X87386Y45393D01*
G01X87520Y45347D01*
G01X87612Y45256D01*
G01X87657Y45121D01*
G01X87657Y44984D01*
G01X87612Y44847D01*
G01X87566Y44801D01*
G01X87475Y44755D01*
G01X83093Y6914D02*
G01X85031Y6914D01*
G01X83093Y6914D02*
G01X85031Y7654D01*
G01X83093Y8393D02*
G01X85031Y7654D01*
G01X83093Y8393D02*
G01X85031Y8393D01*
G01X83093Y9002D02*
G01X85031Y9002D01*
G01X83093Y9612D02*
G01X85031Y9612D01*
G01X83093Y9612D02*
G01X83093Y10257D01*
G01X83185Y10534D01*
G01X83370Y10719D01*
G01X83553Y10813D01*
G01X83832Y10905D01*
G01X84292Y10905D01*
G01X84569Y10813D01*
G01X84754Y10719D01*
G01X84940Y10534D01*
G01X85031Y10257D01*
G01X85031Y9612D01*
G01X83093Y11514D02*
G01X85031Y11514D01*
G01X83553Y14931D02*
G01X83370Y14839D01*
G01X83185Y14654D01*
G01X83093Y14471D01*
G01X83093Y14100D01*
G01X83185Y13915D01*
G01X83370Y13732D01*
G01X83553Y13638D01*
G01X83832Y13546D01*
G01X84292Y13546D01*
G01X84569Y13638D01*
G01X84754Y13732D01*
G01X84940Y13915D01*
G01X85031Y14100D01*
G01X85031Y14471D01*
G01X84940Y14654D01*
G01X84754Y14839D01*
G01X84569Y14931D01*
G01X83093Y15540D02*
G01X85031Y15540D01*
G01X84109Y15540D02*
G01X83832Y15817D01*
G01X83738Y16003D01*
G01X83738Y16279D01*
G01X83832Y16465D01*
G01X84109Y16556D01*
G01X85031Y16556D01*
G01X83738Y18276D02*
G01X85031Y18276D01*
G01X84015Y18276D02*
G01X83832Y18090D01*
G01X83738Y17905D01*
G01X83738Y17628D01*
G01X83832Y17443D01*
G01X84015Y17260D01*
G01X84292Y17166D01*
G01X84477Y17166D01*
G01X84754Y17260D01*
G01X84940Y17443D01*
G01X85031Y17628D01*
G01X85031Y17905D01*
G01X84940Y18090D01*
G01X84754Y18276D01*
G01X83738Y18886D02*
G01X85031Y18886D01*
G01X84109Y18886D02*
G01X83832Y19162D01*
G01X83738Y19348D01*
G01X83738Y19625D01*
G01X83832Y19808D01*
G01X84109Y19902D01*
G01X85031Y19902D01*
G01X83738Y20511D02*
G01X85031Y20511D01*
G01X84109Y20511D02*
G01X83832Y20788D01*
G01X83738Y20973D01*
G01X83738Y21250D01*
G01X83832Y21433D01*
G01X84109Y21527D01*
G01X85031Y21527D01*
G01X84292Y22137D02*
G01X84292Y23244D01*
G01X84109Y23244D01*
G01X83924Y23153D01*
G01X83832Y23059D01*
G01X83738Y22876D01*
G01X83738Y22599D01*
G01X83832Y22414D01*
G01X84015Y22228D01*
G01X84292Y22137D01*
G01X84477Y22137D01*
G01X84754Y22228D01*
G01X84940Y22414D01*
G01X85031Y22599D01*
G01X85031Y22876D01*
G01X84940Y23059D01*
G01X84754Y23244D01*
G01X83093Y23854D02*
G01X85031Y23854D01*
G01X83093Y25886D02*
G01X85031Y25886D01*
G01X83093Y25886D02*
G01X85031Y26625D01*
G01X83093Y27364D02*
G01X85031Y26625D01*
G01X83093Y27364D02*
G01X85031Y27364D01*
G01X83738Y29081D02*
G01X85031Y29081D01*
G01X84015Y29081D02*
G01X83832Y28898D01*
G01X83738Y28713D01*
G01X83738Y28436D01*
G01X83832Y28250D01*
G01X84015Y28065D01*
G01X84292Y27974D01*
G01X84477Y27974D01*
G01X84754Y28065D01*
G01X84940Y28250D01*
G01X85031Y28436D01*
G01X85031Y28713D01*
G01X84940Y28898D01*
G01X84754Y29081D01*
G01X83738Y29691D02*
G01X85679Y29691D01*
G01X84015Y29691D02*
G01X83832Y29876D01*
G01X83738Y30062D01*
G01X83738Y30338D01*
G01X83832Y30524D01*
G01X84015Y30707D01*
G01X84292Y30801D01*
G01X84477Y30801D01*
G01X84754Y30707D01*
G01X84940Y30524D01*
G01X85031Y30338D01*
G01X85031Y30062D01*
G01X84940Y29876D01*
G01X84754Y29691D01*
G01X83738Y31410D02*
G01X85679Y31410D01*
G01X84015Y31410D02*
G01X83832Y31593D01*
G01X83738Y31779D01*
G01X83738Y32055D01*
G01X83832Y32241D01*
G01X84015Y32426D01*
G01X84292Y32518D01*
G01X84477Y32518D01*
G01X84754Y32426D01*
G01X84940Y32241D01*
G01X85031Y32055D01*
G01X85031Y31779D01*
G01X84940Y31593D01*
G01X84754Y31410D01*
G01X84292Y33127D02*
G01X84292Y34235D01*
G01X84109Y34235D01*
G01X83924Y34143D01*
G01X83832Y34052D01*
G01X83738Y33866D01*
G01X83738Y33590D01*
G01X83832Y33404D01*
G01X84015Y33219D01*
G01X84292Y33127D01*
G01X84477Y33127D01*
G01X84754Y33219D01*
G01X84940Y33404D01*
G01X85031Y33590D01*
G01X85031Y33866D01*
G01X84940Y34052D01*
G01X84754Y34235D01*
G01X83738Y34844D02*
G01X85031Y34844D01*
G01X84292Y34844D02*
G01X84015Y34938D01*
G01X83832Y35121D01*
G01X83738Y35307D01*
G01X83738Y35583D01*
G01X86842Y7595D02*
G01X86751Y7552D01*
G01X86659Y7461D01*
G01X86614Y7369D01*
G01X86614Y7186D01*
G01X86659Y7097D01*
G01X86751Y7006D01*
G01X86842Y6960D01*
G01X86977Y6914D01*
G01X87205Y6914D01*
G01X87343Y6960D01*
G01X87431Y7006D01*
G01X87523Y7097D01*
G01X87569Y7186D01*
G01X87569Y7369D01*
G01X87523Y7461D01*
G01X87431Y7552D01*
G01X87343Y7595D01*
G01X86934Y7897D02*
G01X87569Y7897D01*
G01X87205Y7897D02*
G01X87068Y7941D01*
G01X86977Y8032D01*
G01X86934Y8124D01*
G01X86934Y8261D01*
G01X87205Y8560D02*
G01X87205Y9107D01*
G01X87114Y9107D01*
G01X87022Y9061D01*
G01X86977Y9015D01*
G01X86934Y8924D01*
G01X86934Y8786D01*
G01X86977Y8698D01*
G01X87068Y8606D01*
G01X87205Y8560D01*
G01X87297Y8560D01*
G01X87431Y8606D01*
G01X87523Y8698D01*
G01X87569Y8786D01*
G01X87569Y8924D01*
G01X87523Y9015D01*
G01X87431Y9107D01*
G01X86934Y9950D02*
G01X87569Y9950D01*
G01X87068Y9950D02*
G01X86977Y9861D01*
G01X86934Y9769D01*
G01X86934Y9632D01*
G01X86977Y9541D01*
G01X87068Y9452D01*
G01X87205Y9406D01*
G01X87297Y9406D01*
G01X87431Y9452D01*
G01X87523Y9541D01*
G01X87569Y9632D01*
G01X87569Y9769D01*
G01X87523Y9861D01*
G01X87431Y9950D01*
G01X86614Y10387D02*
G01X87386Y10387D01*
G01X87523Y10432D01*
G01X87569Y10524D01*
G01X87569Y10615D01*
G01X86934Y10252D02*
G01X86934Y10570D01*
G01X87205Y10915D02*
G01X87205Y11461D01*
G01X87114Y11461D01*
G01X87022Y11415D01*
G01X86977Y11370D01*
G01X86934Y11278D01*
G01X86934Y11141D01*
G01X86977Y11050D01*
G01X87068Y10961D01*
G01X87205Y10915D01*
G01X87297Y10915D01*
G01X87431Y10961D01*
G01X87523Y11050D01*
G01X87569Y11141D01*
G01X87569Y11278D01*
G01X87523Y11370D01*
G01X87431Y11461D01*
G01X86614Y12304D02*
G01X87569Y12304D01*
G01X87068Y12304D02*
G01X86977Y12215D01*
G01X86934Y12124D01*
G01X86934Y11987D01*
G01X86977Y11895D01*
G01X87068Y11807D01*
G01X87205Y11761D01*
G01X87297Y11761D01*
G01X87431Y11807D01*
G01X87523Y11895D01*
G01X87569Y11987D01*
G01X87569Y12124D01*
G01X87523Y12215D01*
G01X87431Y12304D01*
G01X86614Y13305D02*
G01X87569Y13305D01*
G01X86614Y13305D02*
G01X86614Y13714D01*
G01X86659Y13851D01*
G01X86705Y13897D01*
G01X86796Y13943D01*
G01X86888Y13943D01*
G01X86977Y13897D01*
G01X87022Y13851D01*
G01X87068Y13714D01*
G01X87068Y13305D02*
G01X87068Y13714D01*
G01X87114Y13851D01*
G01X87160Y13897D01*
G01X87251Y13943D01*
G01X87386Y13943D01*
G01X87477Y13897D01*
G01X87523Y13851D01*
G01X87569Y13714D01*
G01X87569Y13305D01*
G01X86934Y14288D02*
G01X87569Y14560D01*
G01X86934Y14832D02*
G01X87569Y14560D01*
G01X87751Y14468D01*
G01X87840Y14377D01*
G01X87886Y14288D01*
G01X87886Y14242D01*
G01X87022Y15177D02*
G01X87068Y15134D01*
G01X87114Y15177D01*
G01X87068Y15223D01*
G01X87022Y15177D01*
G01X87343Y15177D02*
G01X87386Y15134D01*
G01X87431Y15177D01*
G01X87386Y15223D01*
G01X87343Y15177D01*
G01X86614Y16678D02*
G01X87343Y16678D01*
G01X87477Y16633D01*
G01X87523Y16587D01*
G01X87569Y16495D01*
G01X87569Y16406D01*
G01X87523Y16315D01*
G01X87477Y16269D01*
G01X87343Y16224D01*
G01X87251Y16224D01*
G01X86934Y17524D02*
G01X87569Y17524D01*
G01X87068Y17524D02*
G01X86977Y17433D01*
G01X86934Y17341D01*
G01X86934Y17207D01*
G01X86977Y17115D01*
G01X87068Y17024D01*
G01X87205Y16978D01*
G01X87297Y16978D01*
G01X87431Y17024D01*
G01X87523Y17115D01*
G01X87569Y17207D01*
G01X87569Y17341D01*
G01X87523Y17433D01*
G01X87431Y17524D01*
G01X87068Y18370D02*
G01X86977Y18278D01*
G01X86934Y18187D01*
G01X86934Y18050D01*
G01X86977Y17961D01*
G01X87068Y17870D01*
G01X87205Y17824D01*
G01X87297Y17824D01*
G01X87431Y17870D01*
G01X87523Y17961D01*
G01X87569Y18050D01*
G01X87569Y18187D01*
G01X87523Y18278D01*
G01X87431Y18370D01*
G01X86934Y18896D02*
G01X86977Y18804D01*
G01X87068Y18715D01*
G01X87205Y18670D01*
G01X87297Y18670D01*
G01X87431Y18715D01*
G01X87523Y18804D01*
G01X87569Y18896D01*
G01X87569Y19033D01*
G01X87523Y19124D01*
G01X87431Y19216D01*
G01X87297Y19259D01*
G01X87205Y19259D01*
G01X87068Y19216D01*
G01X86977Y19124D01*
G01X86934Y19033D01*
G01X86934Y18896D01*
G01X86614Y19561D02*
G01X87569Y19561D01*
G01X87068Y19561D02*
G01X86977Y19650D01*
G01X86934Y19741D01*
G01X86934Y19879D01*
G01X86977Y19970D01*
G01X87068Y20059D01*
G01X87205Y20105D01*
G01X87297Y20105D01*
G01X87431Y20059D01*
G01X87523Y19970D01*
G01X87569Y19879D01*
G01X87569Y19741D01*
G01X87523Y19650D01*
G01X87431Y19561D01*
G01X86614Y21105D02*
G01X87569Y21105D01*
G01X86614Y21105D02*
G01X86614Y21514D01*
G01X86659Y21652D01*
G01X86705Y21697D01*
G01X86796Y21743D01*
G01X86888Y21743D01*
G01X86977Y21697D01*
G01X87022Y21652D01*
G01X87068Y21514D01*
G01X87068Y21105D02*
G01X87068Y21514D01*
G01X87114Y21652D01*
G01X87160Y21697D01*
G01X87251Y21743D01*
G01X87386Y21743D01*
G01X87477Y21697D01*
G01X87523Y21652D01*
G01X87569Y21514D01*
G01X87569Y21105D01*
G01X86934Y22586D02*
G01X87569Y22586D01*
G01X87068Y22586D02*
G01X86977Y22497D01*
G01X86934Y22406D01*
G01X86934Y22269D01*
G01X86977Y22177D01*
G01X87068Y22088D01*
G01X87205Y22043D01*
G01X87297Y22043D01*
G01X87431Y22088D01*
G01X87523Y22177D01*
G01X87569Y22269D01*
G01X87569Y22406D01*
G01X87523Y22497D01*
G01X87431Y22586D01*
G01X86614Y23023D02*
G01X87386Y23023D01*
G01X87523Y23069D01*
G01X87569Y23160D01*
G01X87569Y23252D01*
G01X86934Y22886D02*
G01X86934Y23206D01*
G01X87205Y23551D02*
G01X87205Y24095D01*
G01X87114Y24095D01*
G01X87022Y24052D01*
G01X86977Y24006D01*
G01X86934Y23915D01*
G01X86934Y23778D01*
G01X86977Y23686D01*
G01X87068Y23597D01*
G01X87205Y23551D01*
G01X87297Y23551D01*
G01X87431Y23597D01*
G01X87523Y23686D01*
G01X87569Y23778D01*
G01X87569Y23915D01*
G01X87523Y24006D01*
G01X87431Y24095D01*
G01X87068Y24895D02*
G01X86977Y24852D01*
G01X86934Y24715D01*
G01X86934Y24578D01*
G01X86977Y24443D01*
G01X87068Y24397D01*
G01X87160Y24443D01*
G01X87205Y24532D01*
G01X87251Y24761D01*
G01X87297Y24852D01*
G01X87386Y24895D01*
G01X87431Y24895D01*
G01X87523Y24852D01*
G01X87569Y24715D01*
G01X87569Y24578D01*
G01X87523Y24443D01*
G01X87431Y24397D01*
G01X87022Y26805D02*
G01X86977Y26805D01*
G01X86934Y26760D01*
G01X86934Y26714D01*
G01X86977Y26668D01*
G01X87068Y26622D01*
G01X87297Y26533D01*
G01X87431Y26442D01*
G01X87523Y26351D01*
G01X87569Y26259D01*
G01X87569Y26079D01*
G01X87523Y25987D01*
G01X87477Y25942D01*
G01X87386Y25896D01*
G01X87297Y25896D01*
G01X87205Y25942D01*
G01X87160Y25987D01*
G01X86977Y26305D01*
G01X86934Y26351D01*
G01X86842Y26396D01*
G01X86751Y26396D01*
G01X86659Y26351D01*
G01X86614Y26259D01*
G01X86659Y26170D01*
G01X86751Y26125D01*
G01X86842Y26125D01*
G01X86977Y26170D01*
G01X87114Y26259D01*
G01X87431Y26488D01*
G01X87523Y26579D01*
G01X87569Y26668D01*
G01X87569Y26760D01*
G01X87523Y26805D01*
G01X87477Y26805D01*
G01X86614Y28441D02*
G01X87569Y27806D01*
G01X86614Y27806D02*
G01X86614Y28441D01*
G01X87569Y27806D02*
G01X87569Y28441D01*
G01X86934Y29287D02*
G01X87569Y29287D01*
G01X87068Y29287D02*
G01X86977Y29195D01*
G01X86934Y29106D01*
G01X86934Y28969D01*
G01X86977Y28878D01*
G01X87068Y28786D01*
G01X87205Y28741D01*
G01X87297Y28741D01*
G01X87431Y28786D01*
G01X87523Y28878D01*
G01X87569Y28969D01*
G01X87569Y29106D01*
G01X87523Y29195D01*
G01X87431Y29287D01*
G01X87068Y30133D02*
G01X86977Y30041D01*
G01X86934Y29950D01*
G01X86934Y29815D01*
G01X86977Y29724D01*
G01X87068Y29632D01*
G01X87205Y29587D01*
G01X87297Y29587D01*
G01X87431Y29632D01*
G01X87523Y29724D01*
G01X87569Y29815D01*
G01X87569Y29950D01*
G01X87523Y30041D01*
G01X87431Y30133D01*
G01X86614Y30432D02*
G01X87569Y30432D01*
G01X87114Y30432D02*
G01X86977Y30570D01*
G01X86934Y30661D01*
G01X86934Y30796D01*
G01X86977Y30887D01*
G01X87114Y30933D01*
G01X87569Y30933D01*
G01X86614Y31933D02*
G01X87569Y31933D01*
G01X86614Y31933D02*
G01X86614Y32342D01*
G01X86659Y32477D01*
G01X86705Y32523D01*
G01X86796Y32568D01*
G01X86888Y32568D01*
G01X86977Y32523D01*
G01X87022Y32477D01*
G01X87068Y32342D01*
G01X87068Y31933D02*
G01X87068Y32342D01*
G01X87114Y32477D01*
G01X87160Y32523D01*
G01X87251Y32568D01*
G01X87386Y32568D01*
G01X87477Y32523D01*
G01X87523Y32477D01*
G01X87569Y32342D01*
G01X87569Y31933D01*
G01X87205Y32868D02*
G01X87205Y33414D01*
G01X87114Y33414D01*
G01X87022Y33369D01*
G01X86977Y33323D01*
G01X86934Y33231D01*
G01X86934Y33097D01*
G01X86977Y33005D01*
G01X87068Y32914D01*
G01X87205Y32868D01*
G01X87297Y32868D01*
G01X87431Y32914D01*
G01X87523Y33005D01*
G01X87569Y33097D01*
G01X87569Y33231D01*
G01X87523Y33323D01*
G01X87431Y33414D01*
G01X86934Y33714D02*
G01X87569Y33714D01*
G01X87205Y33714D02*
G01X87068Y33760D01*
G01X86977Y33851D01*
G01X86934Y33943D01*
G01X86934Y34077D01*
G01X86934Y34377D02*
G01X87569Y34377D01*
G01X87205Y34377D02*
G01X87068Y34423D01*
G01X86977Y34514D01*
G01X86934Y34606D01*
G01X86934Y34743D01*
G01X86934Y35088D02*
G01X87569Y35360D01*
G01X86934Y35632D02*
G01X87569Y35360D01*
G01X87751Y35269D01*
G01X87840Y35177D01*
G01X87886Y35088D01*
G01X87886Y35042D01*
G54D29*
G01X46001Y25147D02*
G01X45897Y25096D01*
G01X45847Y24941D01*
G01X45847Y24837D01*
G01X45897Y24679D01*
G01X46052Y24575D01*
G01X46314Y24524D01*
G01X46573Y24524D01*
G01X46781Y24575D01*
G01X46885Y24679D01*
G01X46936Y24837D01*
G01X46936Y24888D01*
G01X46885Y25045D01*
G01X46781Y25147D01*
G01X46624Y25200D01*
G01X46573Y25200D01*
G01X46418Y25147D01*
G01X46314Y25045D01*
G01X46261Y24888D01*
G01X46261Y24837D01*
G01X46314Y24679D01*
G01X46418Y24575D01*
G01X46573Y24524D01*
G01X45847Y25543D02*
G01X46936Y25543D01*
G01X45847Y25543D02*
G01X46936Y26269D01*
G01X45847Y26269D02*
G01X46936Y26269D01*
G01X46052Y26612D02*
G01X46001Y26716D01*
G01X45847Y26874D01*
G01X46936Y26874D01*
G01X45847Y27318D02*
G01X45847Y27890D01*
G01X46261Y27580D01*
G01X46261Y27735D01*
G01X46314Y27839D01*
G01X46365Y27890D01*
G01X46520Y27943D01*
G01X46624Y27943D01*
G01X46781Y27890D01*
G01X46885Y27788D01*
G01X46936Y27631D01*
G01X46936Y27476D01*
G01X46885Y27318D01*
G01X46832Y27268D01*
G01X46728Y27217D01*
G01X45847Y28545D02*
G01X45897Y28390D01*
G01X46001Y28337D01*
G01X46106Y28337D01*
G01X46210Y28390D01*
G01X46261Y28494D01*
G01X46314Y28703D01*
G01X46365Y28858D01*
G01X46469Y28962D01*
G01X46573Y29013D01*
G01X46728Y29013D01*
G01X46832Y28962D01*
G01X46885Y28908D01*
G01X46936Y28753D01*
G01X46936Y28545D01*
G01X46885Y28390D01*
G01X46832Y28337D01*
G01X46728Y28286D01*
G01X46573Y28286D01*
G01X46469Y28337D01*
G01X46365Y28441D01*
G01X46314Y28599D01*
G01X46261Y28804D01*
G01X46210Y28908D01*
G01X46106Y28962D01*
G01X46001Y28962D01*
G01X45897Y28908D01*
G01X45847Y28753D01*
G01X45847Y28545D01*
G01X31673Y17692D02*
G01X31673Y17745D01*
G01X31727Y17849D01*
G01X31777Y17900D01*
G01X31882Y17951D01*
G01X32090Y17951D01*
G01X32194Y17900D01*
G01X32245Y17849D01*
G01X32298Y17745D01*
G01X32298Y17641D01*
G01X32245Y17537D01*
G01X32143Y17379D01*
G01X31623Y16861D01*
G01X32349Y16861D01*
G01X32745Y17692D02*
G01X32745Y17745D01*
G01X32796Y17849D01*
G01X32849Y17900D01*
G01X32953Y17951D01*
G01X33159Y17951D01*
G01X33263Y17900D01*
G01X33317Y17849D01*
G01X33367Y17745D01*
G01X33367Y17641D01*
G01X33317Y17537D01*
G01X33213Y17379D01*
G01X32692Y16861D01*
G01X33421Y16861D01*
G01X34074Y17951D02*
G01X33919Y17900D01*
G01X33815Y17745D01*
G01X33764Y17483D01*
G01X33764Y17328D01*
G01X33815Y17069D01*
G01X33919Y16912D01*
G01X34074Y16861D01*
G01X34178Y16861D01*
G01X34335Y16912D01*
G01X34439Y17069D01*
G01X34490Y17328D01*
G01X34490Y17483D01*
G01X34439Y17745D01*
G01X34335Y17900D01*
G01X34178Y17951D01*
G01X34074Y17951D01*
G01X31673Y21248D02*
G01X31673Y21301D01*
G01X31727Y21405D01*
G01X31777Y21456D01*
G01X31882Y21507D01*
G01X32090Y21507D01*
G01X32194Y21456D01*
G01X32245Y21405D01*
G01X32298Y21301D01*
G01X32298Y21197D01*
G01X32245Y21093D01*
G01X32143Y20935D01*
G01X31623Y20417D01*
G01X32349Y20417D01*
G01X32745Y21248D02*
G01X32745Y21301D01*
G01X32796Y21405D01*
G01X32849Y21456D01*
G01X32953Y21507D01*
G01X33159Y21507D01*
G01X33263Y21456D01*
G01X33317Y21405D01*
G01X33367Y21301D01*
G01X33367Y21197D01*
G01X33317Y21093D01*
G01X33213Y20935D01*
G01X32692Y20417D01*
G01X33421Y20417D01*
G01X34074Y21507D02*
G01X33919Y21456D01*
G01X33815Y21301D01*
G01X33764Y21039D01*
G01X33764Y20884D01*
G01X33815Y20625D01*
G01X33919Y20468D01*
G01X34074Y20417D01*
G01X34178Y20417D01*
G01X34335Y20468D01*
G01X34439Y20625D01*
G01X34490Y20884D01*
G01X34490Y21039D01*
G01X34439Y21301D01*
G01X34335Y21456D01*
G01X34178Y21507D01*
G01X34074Y21507D01*
G01X31673Y24931D02*
G01X31673Y24984D01*
G01X31727Y25088D01*
G01X31777Y25139D01*
G01X31882Y25190D01*
G01X32090Y25190D01*
G01X32194Y25139D01*
G01X32245Y25088D01*
G01X32298Y24984D01*
G01X32298Y24880D01*
G01X32245Y24776D01*
G01X32143Y24618D01*
G01X31623Y24100D01*
G01X32349Y24100D01*
G01X32745Y24931D02*
G01X32745Y24984D01*
G01X32796Y25088D01*
G01X32849Y25139D01*
G01X32953Y25190D01*
G01X33159Y25190D01*
G01X33263Y25139D01*
G01X33317Y25088D01*
G01X33367Y24984D01*
G01X33367Y24880D01*
G01X33317Y24776D01*
G01X33213Y24618D01*
G01X32692Y24100D01*
G01X33421Y24100D01*
G01X34074Y25190D02*
G01X33919Y25139D01*
G01X33815Y24984D01*
G01X33764Y24722D01*
G01X33764Y24567D01*
G01X33815Y24308D01*
G01X33919Y24151D01*
G01X34074Y24100D01*
G01X34178Y24100D01*
G01X34335Y24151D01*
G01X34439Y24308D01*
G01X34490Y24567D01*
G01X34490Y24722D01*
G01X34439Y24984D01*
G01X34335Y25139D01*
G01X34178Y25190D01*
G01X34074Y25190D01*
G01X32143Y14534D02*
G01X31623Y13808D01*
G01X32402Y13808D01*
G01X32143Y14534D02*
G01X32143Y13445D01*
G01X32796Y13704D02*
G01X32745Y13653D01*
G01X32796Y13600D01*
G01X32849Y13653D01*
G01X32796Y13704D01*
G01X33919Y14534D02*
G01X33401Y13445D01*
G01X33192Y14534D02*
G01X33919Y14534D01*
G01X34262Y14534D02*
G01X34262Y13445D01*
G01X34782Y14171D02*
G01X34262Y13653D01*
G01X34470Y13861D02*
G01X34833Y13445D01*
G01X31546Y28487D02*
G01X31546Y28540D01*
G01X31600Y28644D01*
G01X31650Y28695D01*
G01X31755Y28746D01*
G01X31963Y28746D01*
G01X32067Y28695D01*
G01X32118Y28644D01*
G01X32171Y28540D01*
G01X32171Y28436D01*
G01X32118Y28332D01*
G01X32016Y28174D01*
G01X31496Y27656D01*
G01X32222Y27656D01*
G01X32618Y28487D02*
G01X32618Y28540D01*
G01X32669Y28644D01*
G01X32722Y28695D01*
G01X32826Y28746D01*
G01X33032Y28746D01*
G01X33136Y28695D01*
G01X33190Y28644D01*
G01X33240Y28540D01*
G01X33240Y28436D01*
G01X33190Y28332D01*
G01X33086Y28174D01*
G01X32565Y27656D01*
G01X33294Y27656D01*
G01X33947Y28746D02*
G01X33792Y28695D01*
G01X33688Y28540D01*
G01X33637Y28278D01*
G01X33637Y28123D01*
G01X33688Y27864D01*
G01X33792Y27707D01*
G01X33947Y27656D01*
G01X34051Y27656D01*
G01X34208Y27707D01*
G01X34312Y27864D01*
G01X34363Y28123D01*
G01X34363Y28278D01*
G01X34312Y28540D01*
G01X34208Y28695D01*
G01X34051Y28746D01*
G01X33947Y28746D01*
G54D30*
G01X44411Y14915D02*
G01X44376Y14989D01*
G01X44267Y15098D01*
G01X45031Y15098D01*
G01X44267Y15337D02*
G01X45031Y15337D01*
G01X44267Y15337D02*
G01X45031Y15845D01*
G01X44267Y15845D02*
G01X45031Y15845D01*
G01X44521Y16559D02*
G01X44630Y16523D01*
G01X44704Y16450D01*
G01X44739Y16340D01*
G01X44739Y16305D01*
G01X44704Y16196D01*
G01X44630Y16122D01*
G01X44521Y16086D01*
G01X44485Y16086D01*
G01X44376Y16122D01*
G01X44305Y16196D01*
G01X44267Y16305D01*
G01X44267Y16340D01*
G01X44305Y16450D01*
G01X44376Y16523D01*
G01X44521Y16559D01*
G01X44704Y16559D01*
G01X44886Y16523D01*
G01X44996Y16450D01*
G01X45031Y16340D01*
G01X45031Y16269D01*
G01X44996Y16160D01*
G01X44922Y16122D01*
G01X44411Y16800D02*
G01X44376Y16871D01*
G01X44267Y16981D01*
G01X45031Y16981D01*
G01X44267Y17585D02*
G01X44777Y17222D01*
G01X44777Y17765D01*
G01X44267Y17585D02*
G01X45031Y17585D01*
G54D29*
G01X47970Y44352D02*
G01X47866Y44456D01*
G01X47711Y44506D01*
G01X47503Y44506D01*
G01X47348Y44456D01*
G01X47244Y44352D01*
G01X47244Y44247D01*
G01X47294Y44143D01*
G01X47348Y44092D01*
G01X47452Y44039D01*
G01X47764Y43935D01*
G01X47866Y43884D01*
G01X47919Y43833D01*
G01X47970Y43729D01*
G01X47970Y43572D01*
G01X47866Y43468D01*
G01X47711Y43417D01*
G01X47503Y43417D01*
G01X47348Y43468D01*
G01X47244Y43572D01*
G01X48313Y44506D02*
G01X48313Y43417D01*
G01X48313Y44506D02*
G01X48679Y44506D01*
G01X48834Y44456D01*
G01X48938Y44352D01*
G01X48988Y44247D01*
G01X49042Y44092D01*
G01X49042Y43833D01*
G01X48988Y43676D01*
G01X48938Y43572D01*
G01X48834Y43468D01*
G01X48679Y43417D01*
G01X48313Y43417D01*
G01X50111Y44352D02*
G01X50007Y44456D01*
G01X49852Y44506D01*
G01X49644Y44506D01*
G01X49489Y44456D01*
G01X49385Y44352D01*
G01X49385Y44247D01*
G01X49436Y44143D01*
G01X49489Y44092D01*
G01X49593Y44039D01*
G01X49903Y43935D01*
G01X50007Y43884D01*
G01X50060Y43833D01*
G01X50111Y43729D01*
G01X50111Y43572D01*
G01X50007Y43468D01*
G01X49852Y43417D01*
G01X49644Y43417D01*
G01X49489Y43468D01*
G01X49385Y43572D01*
G01X50454Y43884D02*
G01X51389Y43884D01*
G01X52357Y44506D02*
G01X51836Y44506D01*
G01X51785Y44039D01*
G01X51836Y44092D01*
G01X51993Y44143D01*
G01X52148Y44143D01*
G01X52303Y44092D01*
G01X52407Y43988D01*
G01X52461Y43833D01*
G01X52461Y43729D01*
G01X52407Y43572D01*
G01X52303Y43468D01*
G01X52148Y43417D01*
G01X51993Y43417D01*
G01X51836Y43468D01*
G01X51785Y43521D01*
G01X51732Y43625D01*
G01X53113Y44506D02*
G01X52959Y44456D01*
G01X52854Y44301D01*
G01X52804Y44039D01*
G01X52804Y43884D01*
G01X52854Y43625D01*
G01X52959Y43468D01*
G01X53113Y43417D01*
G01X53218Y43417D01*
G01X53375Y43468D01*
G01X53479Y43625D01*
G01X53530Y43884D01*
G01X53530Y44039D01*
G01X53479Y44301D01*
G01X53375Y44456D01*
G01X53218Y44506D01*
G01X53113Y44506D01*
G01X54394Y44506D02*
G01X54394Y43676D01*
G01X54340Y43521D01*
G01X54289Y43468D01*
G01X54185Y43417D01*
G01X54081Y43417D01*
G01X53977Y43468D01*
G01X53924Y43521D01*
G01X53873Y43676D01*
G01X53873Y43780D01*
G01X69433Y44339D02*
G01X69329Y44443D01*
G01X69174Y44494D01*
G01X68966Y44494D01*
G01X68811Y44443D01*
G01X68707Y44339D01*
G01X68707Y44235D01*
G01X68757Y44131D01*
G01X68811Y44080D01*
G01X68915Y44026D01*
G01X69227Y43922D01*
G01X69329Y43871D01*
G01X69382Y43821D01*
G01X69433Y43717D01*
G01X69433Y43559D01*
G01X69329Y43455D01*
G01X69174Y43404D01*
G01X68966Y43404D01*
G01X68811Y43455D01*
G01X68707Y43559D01*
G01X69776Y44494D02*
G01X69776Y43404D01*
G01X69776Y44494D02*
G01X70142Y44494D01*
G01X70297Y44443D01*
G01X70401Y44339D01*
G01X70451Y44235D01*
G01X70505Y44080D01*
G01X70505Y43821D01*
G01X70451Y43663D01*
G01X70401Y43559D01*
G01X70297Y43455D01*
G01X70142Y43404D01*
G01X69776Y43404D01*
G01X71574Y44339D02*
G01X71470Y44443D01*
G01X71315Y44494D01*
G01X71107Y44494D01*
G01X70952Y44443D01*
G01X70848Y44339D01*
G01X70848Y44235D01*
G01X70899Y44131D01*
G01X70952Y44080D01*
G01X71056Y44026D01*
G01X71366Y43922D01*
G01X71470Y43871D01*
G01X71523Y43821D01*
G01X71574Y43717D01*
G01X71574Y43559D01*
G01X71470Y43455D01*
G01X71315Y43404D01*
G01X71107Y43404D01*
G01X70952Y43455D01*
G01X70848Y43559D01*
G01X71917Y43871D02*
G01X72852Y43871D01*
G01X73820Y44494D02*
G01X73299Y44494D01*
G01X73248Y44026D01*
G01X73299Y44080D01*
G01X73456Y44131D01*
G01X73611Y44131D01*
G01X73766Y44080D01*
G01X73870Y43976D01*
G01X73924Y43821D01*
G01X73924Y43717D01*
G01X73870Y43559D01*
G01X73766Y43455D01*
G01X73611Y43404D01*
G01X73456Y43404D01*
G01X73299Y43455D01*
G01X73248Y43508D01*
G01X73195Y43612D01*
G01X74576Y44494D02*
G01X74422Y44443D01*
G01X74317Y44288D01*
G01X74267Y44026D01*
G01X74267Y43871D01*
G01X74317Y43612D01*
G01X74422Y43455D01*
G01X74576Y43404D01*
G01X74681Y43404D01*
G01X74838Y43455D01*
G01X74942Y43612D01*
G01X74993Y43871D01*
G01X74993Y44026D01*
G01X74942Y44288D01*
G01X74838Y44443D01*
G01X74681Y44494D01*
G01X74576Y44494D01*
G01X75857Y44494D02*
G01X75857Y43663D01*
G01X75803Y43508D01*
G01X75752Y43455D01*
G01X75648Y43404D01*
G01X75544Y43404D01*
G01X75440Y43455D01*
G01X75387Y43508D01*
G01X75336Y43663D01*
G01X75336Y43767D01*
G01X29210Y50209D02*
G01X29210Y49119D01*
G01X29210Y50209D02*
G01X29677Y50209D01*
G01X29832Y50158D01*
G01X29885Y50107D01*
G01X29936Y50003D01*
G01X29936Y49846D01*
G01X29885Y49741D01*
G01X29832Y49691D01*
G01X29677Y49637D01*
G01X29210Y49637D01*
G01X30800Y50209D02*
G01X30800Y49378D01*
G01X30746Y49223D01*
G01X30695Y49170D01*
G01X30591Y49119D01*
G01X30487Y49119D01*
G01X30383Y49170D01*
G01X30332Y49223D01*
G01X30279Y49378D01*
G01X30279Y49482D01*
G01X31142Y49586D02*
G01X32077Y49586D01*
G01X32732Y50209D02*
G01X32575Y50158D01*
G01X32473Y50003D01*
G01X32420Y49741D01*
G01X32420Y49586D01*
G01X32473Y49327D01*
G01X32575Y49170D01*
G01X32732Y49119D01*
G01X32837Y49119D01*
G01X32992Y49170D01*
G01X33096Y49327D01*
G01X33147Y49586D01*
G01X33147Y49741D01*
G01X33096Y50003D01*
G01X32992Y50158D01*
G01X32837Y50209D01*
G01X32732Y50209D01*
G01X33802Y50209D02*
G01X33647Y50158D01*
G01X33543Y50003D01*
G01X33489Y49741D01*
G01X33489Y49586D01*
G01X33543Y49327D01*
G01X33647Y49170D01*
G01X33802Y49119D01*
G01X33906Y49119D01*
G01X34061Y49170D01*
G01X34165Y49327D01*
G01X34218Y49586D01*
G01X34218Y49741D01*
G01X34165Y50003D01*
G01X34061Y50158D01*
G01X33906Y50209D01*
G01X33802Y50209D01*
G01X34612Y49950D02*
G01X34612Y50003D01*
G01X34665Y50107D01*
G01X34716Y50158D01*
G01X34820Y50209D01*
G01X35029Y50209D01*
G01X35133Y50158D01*
G01X35184Y50107D01*
G01X35237Y50003D01*
G01X35237Y49899D01*
G01X35184Y49795D01*
G01X35079Y49637D01*
G01X34561Y49119D01*
G01X35288Y49119D01*
G01X36047Y50209D02*
G01X35631Y49119D01*
G01X36047Y50209D02*
G01X36461Y49119D01*
G01X35788Y49482D02*
G01X36306Y49482D01*
G54D30*
G01X19469Y14209D02*
G01X19469Y13445D01*
G01X19215Y14209D02*
G01X19723Y14209D01*
G01X19964Y14209D02*
G01X20472Y13445D01*
G01X20472Y14209D02*
G01X19964Y13445D01*
G01X20713Y14209D02*
G01X20713Y13445D01*
G01X20713Y14209D02*
G01X20967Y14209D01*
G01X21076Y14171D01*
G01X21150Y14100D01*
G01X21186Y14026D01*
G01X21221Y13917D01*
G01X21221Y13737D01*
G01X21186Y13628D01*
G01X21150Y13554D01*
G01X21076Y13480D01*
G01X20967Y13445D01*
G01X20713Y13445D01*
G01X19215Y16749D02*
G01X19215Y15985D01*
G01X19215Y16749D02*
G01X19542Y16749D01*
G01X19651Y16711D01*
G01X19687Y16676D01*
G01X19723Y16605D01*
G01X19723Y16531D01*
G01X19687Y16457D01*
G01X19651Y16422D01*
G01X19542Y16386D01*
G01X19215Y16386D01*
G01X19469Y16386D02*
G01X19723Y15985D01*
G01X19964Y16749D02*
G01X20472Y15985D01*
G01X20472Y16749D02*
G01X19964Y15985D01*
G01X20713Y16749D02*
G01X20713Y15985D01*
G01X20713Y16749D02*
G01X20967Y16749D01*
G01X21076Y16711D01*
G01X21150Y16640D01*
G01X21186Y16566D01*
G01X21221Y16457D01*
G01X21221Y16277D01*
G01X21186Y16168D01*
G01X21150Y16094D01*
G01X21076Y16020D01*
G01X20967Y15985D01*
G01X20713Y15985D01*
G01X19215Y19289D02*
G01X19215Y18525D01*
G01X19215Y19289D02*
G01X19542Y19289D01*
G01X19651Y19251D01*
G01X19687Y19216D01*
G01X19723Y19145D01*
G01X19723Y19071D01*
G01X19687Y18997D01*
G01X19651Y18962D01*
G01X19542Y18926D01*
G01X19215Y18926D01*
G01X19469Y18926D02*
G01X19723Y18525D01*
G01X20472Y19180D02*
G01X20401Y19251D01*
G01X20292Y19289D01*
G01X20144Y19289D01*
G01X20038Y19251D01*
G01X19964Y19180D01*
G01X19964Y19106D01*
G01X19999Y19035D01*
G01X20038Y18997D01*
G01X20109Y18962D01*
G01X20327Y18888D01*
G01X20401Y18852D01*
G01X20436Y18817D01*
G01X20472Y18743D01*
G01X20472Y18634D01*
G01X20401Y18560D01*
G01X20292Y18525D01*
G01X20144Y18525D01*
G01X20038Y18560D01*
G01X19964Y18634D01*
G01X20967Y19289D02*
G01X20967Y18525D01*
G01X20713Y19289D02*
G01X21221Y19289D01*
G01X19723Y21646D02*
G01X19685Y21720D01*
G01X19613Y21791D01*
G01X19540Y21829D01*
G01X19395Y21829D01*
G01X19321Y21791D01*
G01X19250Y21720D01*
G01X19212Y21646D01*
G01X19177Y21537D01*
G01X19177Y21357D01*
G01X19212Y21248D01*
G01X19250Y21174D01*
G01X19321Y21100D01*
G01X19395Y21065D01*
G01X19540Y21065D01*
G01X19613Y21100D01*
G01X19685Y21174D01*
G01X19723Y21248D01*
G01X19723Y21357D01*
G01X19540Y21357D02*
G01X19723Y21357D01*
G01X19961Y21829D02*
G01X19961Y21065D01*
G01X19961Y21829D02*
G01X20472Y21065D01*
G01X20472Y21829D02*
G01X20472Y21065D01*
G01X20711Y21829D02*
G01X20711Y21065D01*
G01X20711Y21829D02*
G01X20965Y21829D01*
G01X21074Y21791D01*
G01X21148Y21720D01*
G01X21183Y21646D01*
G01X21221Y21537D01*
G01X21221Y21357D01*
G01X21183Y21248D01*
G01X21148Y21174D01*
G01X21074Y21100D01*
G01X20965Y21065D01*
G01X20711Y21065D01*
G01X19964Y24369D02*
G01X19964Y23605D01*
G01X19964Y24369D02*
G01X20218Y24369D01*
G01X20327Y24331D01*
G01X20401Y24260D01*
G01X20436Y24186D01*
G01X20472Y24077D01*
G01X20472Y23897D01*
G01X20436Y23788D01*
G01X20401Y23714D01*
G01X20327Y23640D01*
G01X20218Y23605D01*
G01X19964Y23605D01*
G01X20749Y24186D02*
G01X20749Y24225D01*
G01X20787Y24296D01*
G01X20822Y24331D01*
G01X20893Y24369D01*
G01X21041Y24369D01*
G01X21112Y24331D01*
G01X21150Y24296D01*
G01X21186Y24225D01*
G01X21186Y24151D01*
G01X21150Y24077D01*
G01X21076Y23968D01*
G01X20713Y23605D01*
G01X21221Y23605D01*
G01X19964Y26909D02*
G01X19964Y26145D01*
G01X19964Y26909D02*
G01X20218Y26909D01*
G01X20327Y26871D01*
G01X20401Y26800D01*
G01X20436Y26726D01*
G01X20472Y26617D01*
G01X20472Y26437D01*
G01X20436Y26328D01*
G01X20401Y26254D01*
G01X20327Y26180D01*
G01X20218Y26145D01*
G01X19964Y26145D01*
G01X20787Y26909D02*
G01X21186Y26909D01*
G01X20967Y26617D01*
G01X21076Y26617D01*
G01X21150Y26582D01*
G01X21186Y26546D01*
G01X21221Y26437D01*
G01X21221Y26363D01*
G01X21186Y26254D01*
G01X21112Y26180D01*
G01X21003Y26145D01*
G01X20893Y26145D01*
G01X20787Y26180D01*
G01X20749Y26218D01*
G01X20713Y26290D01*
G01X19926Y29449D02*
G01X19926Y28685D01*
G01X19926Y29449D02*
G01X20180Y29449D01*
G01X20289Y29411D01*
G01X20363Y29340D01*
G01X20398Y29266D01*
G01X20434Y29157D01*
G01X20434Y28977D01*
G01X20398Y28868D01*
G01X20363Y28794D01*
G01X20289Y28720D01*
G01X20180Y28685D01*
G01X19926Y28685D01*
G01X21038Y29449D02*
G01X20675Y28939D01*
G01X21221Y28939D01*
G01X21038Y29449D02*
G01X21038Y28685D01*
G01X19964Y31989D02*
G01X19964Y31225D01*
G01X19964Y31989D02*
G01X20218Y31989D01*
G01X20327Y31951D01*
G01X20401Y31880D01*
G01X20436Y31806D01*
G01X20472Y31697D01*
G01X20472Y31517D01*
G01X20436Y31408D01*
G01X20401Y31334D01*
G01X20327Y31260D01*
G01X20218Y31225D01*
G01X19964Y31225D01*
G01X21150Y31989D02*
G01X20787Y31989D01*
G01X20749Y31662D01*
G01X20787Y31697D01*
G01X20893Y31735D01*
G01X21003Y31735D01*
G01X21112Y31697D01*
G01X21186Y31626D01*
G01X21221Y31517D01*
G01X21221Y31443D01*
G01X21186Y31334D01*
G01X21112Y31260D01*
G01X21003Y31225D01*
G01X20893Y31225D01*
G01X20787Y31260D01*
G01X20749Y31298D01*
G01X20713Y31370D01*
G01X19999Y34529D02*
G01X19999Y33765D01*
G01X19999Y34529D02*
G01X20253Y34529D01*
G01X20363Y34491D01*
G01X20436Y34420D01*
G01X20472Y34346D01*
G01X20507Y34237D01*
G01X20507Y34057D01*
G01X20472Y33948D01*
G01X20436Y33874D01*
G01X20363Y33800D01*
G01X20253Y33765D01*
G01X19999Y33765D01*
G01X21186Y34420D02*
G01X21147Y34491D01*
G01X21038Y34529D01*
G01X20967Y34529D01*
G01X20858Y34491D01*
G01X20784Y34385D01*
G01X20749Y34202D01*
G01X20749Y34019D01*
G01X20784Y33874D01*
G01X20858Y33800D01*
G01X20967Y33765D01*
G01X21003Y33765D01*
G01X21112Y33800D01*
G01X21186Y33874D01*
G01X21221Y33983D01*
G01X21221Y34019D01*
G01X21186Y34128D01*
G01X21112Y34202D01*
G01X21003Y34237D01*
G01X20967Y34237D01*
G01X20858Y34202D01*
G01X20784Y34128D01*
G01X20749Y34019D01*
G01X19964Y37069D02*
G01X19964Y36305D01*
G01X19964Y37069D02*
G01X20218Y37069D01*
G01X20327Y37031D01*
G01X20401Y36960D01*
G01X20436Y36886D01*
G01X20472Y36777D01*
G01X20472Y36597D01*
G01X20436Y36488D01*
G01X20401Y36414D01*
G01X20327Y36340D01*
G01X20218Y36305D01*
G01X19964Y36305D01*
G01X21221Y37069D02*
G01X20858Y36305D01*
G01X20713Y37069D02*
G01X21221Y37069D01*
G01X19964Y39609D02*
G01X19964Y38845D01*
G01X19964Y39609D02*
G01X20218Y39609D01*
G01X20327Y39571D01*
G01X20401Y39500D01*
G01X20436Y39426D01*
G01X20472Y39317D01*
G01X20472Y39137D01*
G01X20436Y39028D01*
G01X20401Y38954D01*
G01X20327Y38880D01*
G01X20218Y38845D01*
G01X19964Y38845D01*
G01X20893Y39609D02*
G01X20787Y39571D01*
G01X20749Y39500D01*
G01X20749Y39426D01*
G01X20787Y39355D01*
G01X20858Y39317D01*
G01X21003Y39282D01*
G01X21112Y39246D01*
G01X21186Y39172D01*
G01X21221Y39099D01*
G01X21221Y38990D01*
G01X21186Y38918D01*
G01X21150Y38880D01*
G01X21041Y38845D01*
G01X20893Y38845D01*
G01X20787Y38880D01*
G01X20749Y38918D01*
G01X20713Y38990D01*
G01X20713Y39099D01*
G01X20749Y39172D01*
G01X20822Y39246D01*
G01X20932Y39282D01*
G01X21076Y39317D01*
G01X21150Y39355D01*
G01X21186Y39426D01*
G01X21186Y39500D01*
G01X21150Y39571D01*
G01X21041Y39609D01*
G01X20893Y39609D01*
G01X19999Y42149D02*
G01X19999Y41385D01*
G01X19999Y42149D02*
G01X20253Y42149D01*
G01X20363Y42111D01*
G01X20436Y42040D01*
G01X20472Y41966D01*
G01X20507Y41857D01*
G01X20507Y41677D01*
G01X20472Y41568D01*
G01X20436Y41494D01*
G01X20363Y41420D01*
G01X20253Y41385D01*
G01X19999Y41385D01*
G01X21221Y41895D02*
G01X21186Y41786D01*
G01X21112Y41712D01*
G01X21003Y41677D01*
G01X20967Y41677D01*
G01X20858Y41712D01*
G01X20784Y41786D01*
G01X20749Y41895D01*
G01X20749Y41931D01*
G01X20784Y42040D01*
G01X20858Y42111D01*
G01X20967Y42149D01*
G01X21003Y42149D01*
G01X21112Y42111D01*
G01X21186Y42040D01*
G01X21221Y41895D01*
G01X21221Y41712D01*
G01X21186Y41530D01*
G01X21112Y41420D01*
G01X21003Y41385D01*
G01X20929Y41385D01*
G01X20822Y41420D01*
G01X20784Y41494D01*
G01X19542Y44689D02*
G01X19542Y43925D01*
G01X19542Y44689D02*
G01X19796Y44689D01*
G01X19905Y44651D01*
G01X19979Y44580D01*
G01X20015Y44506D01*
G01X20050Y44397D01*
G01X20050Y44217D01*
G01X20015Y44108D01*
G01X19979Y44034D01*
G01X19905Y43960D01*
G01X19796Y43925D01*
G01X19542Y43925D01*
G01X20292Y44545D02*
G01X20365Y44580D01*
G01X20472Y44689D01*
G01X20472Y43925D01*
G01X20932Y44689D02*
G01X20822Y44651D01*
G01X20749Y44545D01*
G01X20713Y44362D01*
G01X20713Y44252D01*
G01X20749Y44070D01*
G01X20822Y43960D01*
G01X20932Y43925D01*
G01X21005Y43925D01*
G01X21112Y43960D01*
G01X21186Y44070D01*
G01X21221Y44252D01*
G01X21221Y44362D01*
G01X21186Y44545D01*
G01X21112Y44651D01*
G01X21005Y44689D01*
G01X20932Y44689D01*
G01X19867Y47229D02*
G01X19867Y46465D01*
G01X19867Y47229D02*
G01X20121Y47229D01*
G01X20231Y47191D01*
G01X20304Y47120D01*
G01X20340Y47046D01*
G01X20375Y46937D01*
G01X20375Y46757D01*
G01X20340Y46648D01*
G01X20304Y46574D01*
G01X20231Y46500D01*
G01X20121Y46465D01*
G01X19867Y46465D01*
G01X20617Y47085D02*
G01X20690Y47120D01*
G01X20797Y47229D01*
G01X20797Y46465D01*
G01X21038Y47085D02*
G01X21112Y47120D01*
G01X21221Y47229D01*
G01X21221Y46465D01*
G01X19542Y49769D02*
G01X19542Y49005D01*
G01X19542Y49769D02*
G01X19796Y49769D01*
G01X19905Y49731D01*
G01X19979Y49660D01*
G01X20015Y49586D01*
G01X20050Y49477D01*
G01X20050Y49297D01*
G01X20015Y49188D01*
G01X19979Y49114D01*
G01X19905Y49040D01*
G01X19796Y49005D01*
G01X19542Y49005D01*
G01X20292Y49625D02*
G01X20365Y49660D01*
G01X20472Y49769D01*
G01X20472Y49005D01*
G01X20749Y49586D02*
G01X20749Y49625D01*
G01X20787Y49696D01*
G01X20822Y49731D01*
G01X20896Y49769D01*
G01X21041Y49769D01*
G01X21112Y49731D01*
G01X21150Y49696D01*
G01X21186Y49625D01*
G01X21186Y49551D01*
G01X21150Y49477D01*
G01X21076Y49368D01*
G01X20713Y49005D01*
G01X21221Y49005D01*
G01X9779Y14209D02*
G01X10071Y13445D01*
G01X10360Y14209D02*
G01X10071Y13445D01*
G01X10601Y14209D02*
G01X10601Y13445D01*
G01X10840Y14209D02*
G01X10840Y13445D01*
G01X10840Y14209D02*
G01X11348Y13445D01*
G01X11348Y14209D02*
G01X11348Y13445D01*
G01X10325Y16566D02*
G01X10287Y16640D01*
G01X10215Y16711D01*
G01X10142Y16749D01*
G01X9997Y16749D01*
G01X9923Y16711D01*
G01X9852Y16640D01*
G01X9814Y16566D01*
G01X9779Y16457D01*
G01X9779Y16277D01*
G01X9814Y16168D01*
G01X9852Y16094D01*
G01X9923Y16020D01*
G01X9997Y15985D01*
G01X10142Y15985D01*
G01X10215Y16020D01*
G01X10287Y16094D01*
G01X10325Y16168D01*
G01X10325Y16277D01*
G01X10142Y16277D02*
G01X10325Y16277D01*
G01X10563Y16749D02*
G01X10563Y15985D01*
G01X10563Y16749D02*
G01X11074Y15985D01*
G01X11074Y16749D02*
G01X11074Y15985D01*
G01X11313Y16749D02*
G01X11313Y15985D01*
G01X11313Y16749D02*
G01X11567Y16749D01*
G01X11676Y16711D01*
G01X11750Y16640D01*
G01X11785Y16566D01*
G01X11823Y16457D01*
G01X11823Y16277D01*
G01X11785Y16168D01*
G01X11750Y16094D01*
G01X11676Y16020D01*
G01X11567Y15985D01*
G01X11313Y15985D01*
G01X9779Y19289D02*
G01X9779Y18525D01*
G01X9779Y19289D02*
G01X10106Y19289D01*
G01X10215Y19251D01*
G01X10251Y19216D01*
G01X10287Y19145D01*
G01X10287Y19071D01*
G01X10251Y18997D01*
G01X10215Y18962D01*
G01X10106Y18926D01*
G01X9779Y18926D01*
G01X10033Y18926D02*
G01X10287Y18525D01*
G01X11036Y19180D02*
G01X10965Y19251D01*
G01X10855Y19289D01*
G01X10708Y19289D01*
G01X10601Y19251D01*
G01X10528Y19180D01*
G01X10528Y19106D01*
G01X10563Y19035D01*
G01X10601Y18997D01*
G01X10673Y18962D01*
G01X10891Y18888D01*
G01X10965Y18852D01*
G01X11000Y18817D01*
G01X11036Y18743D01*
G01X11036Y18634D01*
G01X10965Y18560D01*
G01X10855Y18525D01*
G01X10708Y18525D01*
G01X10601Y18560D01*
G01X10528Y18634D01*
G01X11531Y19289D02*
G01X11531Y18525D01*
G01X11277Y19289D02*
G01X11785Y19289D01*
G01X10215Y21829D02*
G01X9852Y21829D01*
G01X9814Y21502D01*
G01X9852Y21537D01*
G01X9961Y21575D01*
G01X10071Y21575D01*
G01X10177Y21537D01*
G01X10251Y21466D01*
G01X10287Y21357D01*
G01X10287Y21283D01*
G01X10251Y21174D01*
G01X10177Y21100D01*
G01X10071Y21065D01*
G01X9961Y21065D01*
G01X9852Y21100D01*
G01X9814Y21138D01*
G01X9779Y21210D01*
G01X10528Y21829D02*
G01X10817Y21065D01*
G01X11109Y21829D02*
G01X10817Y21065D01*
G01X10071Y24369D02*
G01X9779Y23605D01*
G01X10071Y24369D02*
G01X10360Y23605D01*
G01X9888Y23859D02*
G01X10251Y23859D01*
G01X11109Y24369D02*
G01X10746Y23605D01*
G01X10601Y24369D02*
G01X11109Y24369D01*
G01X10071Y26909D02*
G01X9779Y26145D01*
G01X10071Y26909D02*
G01X10360Y26145D01*
G01X9888Y26399D02*
G01X10251Y26399D01*
G01X11036Y26800D02*
G01X11000Y26871D01*
G01X10891Y26909D01*
G01X10817Y26909D01*
G01X10708Y26871D01*
G01X10637Y26765D01*
G01X10601Y26582D01*
G01X10601Y26399D01*
G01X10637Y26254D01*
G01X10708Y26180D01*
G01X10817Y26145D01*
G01X10855Y26145D01*
G01X10965Y26180D01*
G01X11036Y26254D01*
G01X11074Y26363D01*
G01X11074Y26399D01*
G01X11036Y26508D01*
G01X10965Y26582D01*
G01X10855Y26617D01*
G01X10817Y26617D01*
G01X10708Y26582D01*
G01X10637Y26508D01*
G01X10601Y26399D01*
G01X10071Y29449D02*
G01X9779Y28685D01*
G01X10071Y29449D02*
G01X10360Y28685D01*
G01X9888Y28939D02*
G01X10251Y28939D01*
G01X11036Y29449D02*
G01X10673Y29449D01*
G01X10637Y29122D01*
G01X10673Y29157D01*
G01X10782Y29195D01*
G01X10891Y29195D01*
G01X11000Y29157D01*
G01X11074Y29086D01*
G01X11109Y28977D01*
G01X11109Y28903D01*
G01X11074Y28794D01*
G01X11000Y28720D01*
G01X10891Y28685D01*
G01X10782Y28685D01*
G01X10673Y28720D01*
G01X10637Y28758D01*
G01X10601Y28830D01*
G01X10071Y31989D02*
G01X9779Y31225D01*
G01X10071Y31989D02*
G01X10360Y31225D01*
G01X9888Y31479D02*
G01X10251Y31479D01*
G01X10965Y31989D02*
G01X10601Y31479D01*
G01X11145Y31479D01*
G01X10965Y31989D02*
G01X10965Y31225D01*
G01X10071Y34529D02*
G01X9779Y33765D01*
G01X10071Y34529D02*
G01X10360Y33765D01*
G01X9888Y34019D02*
G01X10251Y34019D01*
G01X10673Y34529D02*
G01X11074Y34529D01*
G01X10855Y34237D01*
G01X10965Y34237D01*
G01X11036Y34202D01*
G01X11074Y34166D01*
G01X11109Y34057D01*
G01X11109Y33983D01*
G01X11074Y33874D01*
G01X11000Y33800D01*
G01X10891Y33765D01*
G01X10782Y33765D01*
G01X10673Y33800D01*
G01X10637Y33838D01*
G01X10601Y33910D01*
G01X10071Y37069D02*
G01X9779Y36305D01*
G01X10071Y37069D02*
G01X10360Y36305D01*
G01X9888Y36559D02*
G01X10251Y36559D01*
G01X10637Y36886D02*
G01X10637Y36925D01*
G01X10673Y36996D01*
G01X10708Y37031D01*
G01X10782Y37069D01*
G01X10927Y37069D01*
G01X11000Y37031D01*
G01X11036Y36996D01*
G01X11074Y36925D01*
G01X11074Y36851D01*
G01X11036Y36777D01*
G01X10965Y36668D01*
G01X10601Y36305D01*
G01X11109Y36305D01*
G01X10071Y39609D02*
G01X9779Y38845D01*
G01X10071Y39609D02*
G01X10360Y38845D01*
G01X9888Y39099D02*
G01X10251Y39099D01*
G01X10601Y39465D02*
G01X10673Y39500D01*
G01X10782Y39609D01*
G01X10782Y38845D01*
G01X10071Y42149D02*
G01X9779Y41385D01*
G01X10071Y42149D02*
G01X10360Y41385D01*
G01X9888Y41639D02*
G01X10251Y41639D01*
G01X10817Y42149D02*
G01X10708Y42111D01*
G01X10637Y42005D01*
G01X10601Y41822D01*
G01X10601Y41712D01*
G01X10637Y41530D01*
G01X10708Y41420D01*
G01X10817Y41385D01*
G01X10891Y41385D01*
G01X11000Y41420D01*
G01X11074Y41530D01*
G01X11109Y41712D01*
G01X11109Y41822D01*
G01X11074Y42005D01*
G01X11000Y42111D01*
G01X10891Y42149D01*
G01X10817Y42149D01*
G01X9779Y44689D02*
G01X9779Y43925D01*
G01X9779Y44689D02*
G01X10106Y44689D01*
G01X10215Y44651D01*
G01X10251Y44616D01*
G01X10287Y44545D01*
G01X10287Y44471D01*
G01X10251Y44397D01*
G01X10215Y44362D01*
G01X10106Y44326D01*
G01X9779Y44326D01*
G01X10033Y44326D02*
G01X10287Y43925D01*
G01X10528Y44689D02*
G01X10528Y43925D01*
G01X10528Y44689D02*
G01X11000Y44689D01*
G01X10528Y44326D02*
G01X10817Y44326D01*
G01X10528Y43925D02*
G01X11000Y43925D01*
G01X11242Y44689D02*
G01X11242Y43925D01*
G01X11242Y44689D02*
G01X11714Y44689D01*
G01X11242Y44326D02*
G01X11531Y44326D01*
G01X9852Y47229D02*
G01X10251Y47229D01*
G01X10033Y46937D01*
G01X10142Y46937D01*
G01X10215Y46902D01*
G01X10251Y46866D01*
G01X10287Y46757D01*
G01X10287Y46683D01*
G01X10251Y46574D01*
G01X10177Y46500D01*
G01X10071Y46465D01*
G01X9961Y46465D01*
G01X9852Y46500D01*
G01X9814Y46538D01*
G01X9779Y46610D01*
G01X10528Y47229D02*
G01X10817Y46465D01*
G01X11109Y47229D02*
G01X10817Y46465D01*
G01X11422Y47229D02*
G01X11823Y47229D01*
G01X11605Y46937D01*
G01X11714Y46937D01*
G01X11785Y46902D01*
G01X11823Y46866D01*
G01X11859Y46757D01*
G01X11859Y46683D01*
G01X11823Y46574D01*
G01X11750Y46500D01*
G01X11640Y46465D01*
G01X11531Y46465D01*
G01X11422Y46500D01*
G01X11386Y46538D01*
G01X11348Y46610D01*
G01X9779Y49769D02*
G01X9779Y49005D01*
G01X9779Y49769D02*
G01X10033Y49769D01*
G01X10142Y49731D01*
G01X10215Y49660D01*
G01X10251Y49586D01*
G01X10287Y49477D01*
G01X10287Y49297D01*
G01X10251Y49188D01*
G01X10215Y49114D01*
G01X10142Y49040D01*
G01X10033Y49005D01*
G01X9779Y49005D01*
G01X10528Y49625D02*
G01X10601Y49660D01*
G01X10708Y49769D01*
G01X10708Y49005D01*
G01X11023Y49769D02*
G01X11422Y49769D01*
G01X11203Y49477D01*
G01X11313Y49477D01*
G01X11386Y49442D01*
G01X11422Y49406D01*
G01X11457Y49297D01*
G01X11457Y49223D01*
G01X11422Y49114D01*
G01X11348Y49040D01*
G01X11242Y49005D01*
G01X11132Y49005D01*
G01X11023Y49040D01*
G01X10985Y49078D01*
G01X10949Y49150D01*
G01X15151Y1509D02*
G01X14859Y745D01*
G01X15151Y1509D02*
G01X15440Y745D01*
G01X14968Y999D02*
G01X15331Y999D01*
G01X15681Y1509D02*
G01X15681Y745D01*
G01X15681Y745D02*
G01X16116Y745D01*
G01X16357Y1509D02*
G01X16357Y745D01*
G01X16357Y1509D02*
G01X16685Y1509D01*
G01X16794Y1471D01*
G01X16830Y1436D01*
G01X16865Y1365D01*
G01X16865Y1255D01*
G01X16830Y1182D01*
G01X16794Y1146D01*
G01X16685Y1108D01*
G01X16357Y1108D01*
G01X17614Y1400D02*
G01X17543Y1471D01*
G01X17434Y1509D01*
G01X17287Y1509D01*
G01X17178Y1471D01*
G01X17106Y1400D01*
G01X17106Y1326D01*
G01X17142Y1255D01*
G01X17178Y1217D01*
G01X17251Y1182D01*
G01X17470Y1108D01*
G01X17543Y1072D01*
G01X17579Y1037D01*
G01X17614Y963D01*
G01X17614Y854D01*
G01X17543Y780D01*
G01X17434Y745D01*
G01X17287Y745D01*
G01X17178Y780D01*
G01X17106Y854D01*
G01X18415Y1509D02*
G01X18415Y745D01*
G01X18415Y1509D02*
G01X18742Y1509D01*
G01X18851Y1471D01*
G01X18887Y1436D01*
G01X18925Y1365D01*
G01X18925Y1291D01*
G01X18887Y1217D01*
G01X18851Y1182D01*
G01X18742Y1146D01*
G01X18415Y1146D01*
G01X18669Y1146D02*
G01X18925Y745D01*
G01X19164Y1509D02*
G01X19164Y745D01*
G01X19672Y1509D02*
G01X19164Y999D01*
G01X19347Y1182D02*
G01X19672Y745D01*
G01X19949Y1326D02*
G01X19949Y1365D01*
G01X19987Y1436D01*
G01X20022Y1471D01*
G01X20096Y1509D01*
G01X20241Y1509D01*
G01X20312Y1471D01*
G01X20350Y1436D01*
G01X20386Y1365D01*
G01X20386Y1291D01*
G01X20350Y1217D01*
G01X20276Y1108D01*
G01X19913Y745D01*
G01X20421Y745D01*
G01X20881Y1509D02*
G01X20772Y1471D01*
G01X20698Y1365D01*
G01X20662Y1182D01*
G01X20662Y1072D01*
G01X20698Y890D01*
G01X20772Y780D01*
G01X20881Y745D01*
G01X20952Y745D01*
G01X21061Y780D01*
G01X21135Y890D01*
G01X21170Y1072D01*
G01X21170Y1182D01*
G01X21135Y1365D01*
G01X21061Y1471D01*
G01X20952Y1509D01*
G01X20881Y1509D01*
G01X21483Y1509D02*
G01X21884Y1509D01*
G01X21666Y1217D01*
G01X21775Y1217D01*
G01X21849Y1182D01*
G01X21884Y1146D01*
G01X21920Y1037D01*
G01X21920Y963D01*
G01X21884Y854D01*
G01X21810Y780D01*
G01X21701Y745D01*
G01X21592Y745D01*
G01X21483Y780D01*
G01X21447Y818D01*
G01X21412Y890D01*
G01X23375Y1654D02*
G01X22720Y491D01*
G01X24175Y1365D02*
G01X24246Y1400D01*
G01X24356Y1509D01*
G01X24356Y745D01*
G01X24815Y1509D02*
G01X24706Y1471D01*
G01X24632Y1365D01*
G01X24597Y1182D01*
G01X24597Y1072D01*
G01X24632Y890D01*
G01X24706Y780D01*
G01X24815Y745D01*
G01X24886Y745D01*
G01X24996Y780D01*
G01X25069Y890D01*
G01X25105Y1072D01*
G01X25105Y1182D01*
G01X25069Y1365D01*
G01X24996Y1471D01*
G01X24886Y1509D01*
G01X24815Y1509D01*
G01X25346Y1509D02*
G01X25346Y745D01*
G01X25709Y1255D02*
G01X25346Y890D01*
G01X25491Y1037D02*
G01X25745Y745D01*
G01X13716Y2251D02*
G01X13677Y2251D01*
G01X13606Y2289D01*
G01X13571Y2325D01*
G01X13533Y2398D01*
G01X13533Y2543D01*
G01X13571Y2614D01*
G01X13606Y2652D01*
G01X13677Y2688D01*
G01X13751Y2688D01*
G01X13825Y2652D01*
G01X13934Y2579D01*
G01X14297Y2215D01*
G01X14297Y2723D01*
G01X16217Y2342D02*
G01X16182Y2416D01*
G01X16073Y2525D01*
G01X16837Y2525D01*
G01X18686Y2289D02*
G01X18686Y2688D01*
G01X18978Y2469D01*
G01X18978Y2579D01*
G01X19014Y2652D01*
G01X19050Y2688D01*
G01X19159Y2723D01*
G01X19232Y2723D01*
G01X19342Y2688D01*
G01X19415Y2614D01*
G01X19451Y2508D01*
G01X19451Y2398D01*
G01X19415Y2289D01*
G01X19377Y2251D01*
G01X19306Y2215D01*
G01X21844Y2251D02*
G01X21805Y2251D01*
G01X21734Y2289D01*
G01X21699Y2325D01*
G01X21661Y2398D01*
G01X21661Y2543D01*
G01X21699Y2614D01*
G01X21734Y2652D01*
G01X21805Y2688D01*
G01X21879Y2688D01*
G01X21953Y2652D01*
G01X22062Y2579D01*
G01X22425Y2215D01*
G01X22425Y2723D01*
G01X24345Y2342D02*
G01X24310Y2416D01*
G01X24201Y2525D01*
G01X24965Y2525D01*
G01X26814Y2289D02*
G01X26814Y2688D01*
G01X27106Y2469D01*
G01X27106Y2579D01*
G01X27142Y2652D01*
G01X27178Y2688D01*
G01X27287Y2723D01*
G01X27360Y2723D01*
G01X27470Y2688D01*
G01X27543Y2614D01*
G01X27579Y2508D01*
G01X27579Y2398D01*
G01X27543Y2289D01*
G01X27505Y2251D01*
G01X27434Y2215D01*
G01X29337Y1580D02*
G01X29337Y816D01*
G01X29845Y1580D02*
G01X29845Y816D01*
G01X29337Y1217D02*
G01X29845Y1217D01*
G01X30340Y1580D02*
G01X30340Y816D01*
G01X30086Y1580D02*
G01X30594Y1580D01*
G01X30835Y1436D02*
G01X30906Y1471D01*
G01X31015Y1580D01*
G01X31015Y816D01*
G01X31694Y1471D02*
G01X31656Y1542D01*
G01X31546Y1580D01*
G01X31475Y1580D01*
G01X31366Y1542D01*
G01X31292Y1436D01*
G01X31257Y1253D01*
G01X31257Y1070D01*
G01X31292Y925D01*
G01X31366Y852D01*
G01X31475Y816D01*
G01X31511Y816D01*
G01X31620Y852D01*
G01X31694Y925D01*
G01X31729Y1034D01*
G01X31729Y1070D01*
G01X31694Y1179D01*
G01X31620Y1253D01*
G01X31511Y1288D01*
G01X31475Y1288D01*
G01X31366Y1253D01*
G01X31292Y1179D01*
G01X31257Y1070D01*
G01X31970Y1580D02*
G01X31970Y816D01*
G01X32478Y1580D02*
G01X31970Y1070D01*
G01X32151Y1253D02*
G01X32478Y816D01*
G01X32791Y1580D02*
G01X33192Y1580D01*
G01X32974Y1288D01*
G01X33083Y1288D01*
G01X33154Y1253D01*
G01X33192Y1217D01*
G01X33228Y1108D01*
G01X33228Y1034D01*
G01X33192Y925D01*
G01X33119Y852D01*
G01X33009Y816D01*
G01X32900Y816D01*
G01X32791Y852D01*
G01X32755Y890D01*
G01X32717Y961D01*
G01X33540Y1580D02*
G01X33939Y1580D01*
G01X33723Y1288D01*
G01X33832Y1288D01*
G01X33903Y1253D01*
G01X33939Y1217D01*
G01X33977Y1108D01*
G01X33977Y1034D01*
G01X33939Y925D01*
G01X33868Y852D01*
G01X33759Y816D01*
G01X33649Y816D01*
G01X33540Y852D01*
G01X33505Y890D01*
G01X33467Y961D01*
G01X29972Y2762D02*
G01X29898Y2723D01*
G01X29827Y2652D01*
G01X29789Y2579D01*
G01X29789Y2434D01*
G01X29827Y2360D01*
G01X29898Y2289D01*
G01X29972Y2251D01*
G01X30081Y2215D01*
G01X30261Y2215D01*
G01X30370Y2251D01*
G01X30444Y2289D01*
G01X30518Y2360D01*
G01X30553Y2434D01*
G01X30553Y2579D01*
G01X30518Y2652D01*
G01X30444Y2723D01*
G01X30370Y2762D01*
G01X32329Y2215D02*
G01X33093Y2215D01*
G01X32329Y2215D02*
G01X32329Y2469D01*
G01X32367Y2579D01*
G01X32438Y2652D01*
G01X32512Y2688D01*
G01X32621Y2723D01*
G01X32801Y2723D01*
G01X32910Y2688D01*
G01X32984Y2652D01*
G01X33058Y2579D01*
G01X33093Y2469D01*
G01X33093Y2215D01*
G01X35052Y1238D02*
G01X34978Y1199D01*
G01X34907Y1128D01*
G01X34869Y1055D01*
G01X34869Y910D01*
G01X34907Y836D01*
G01X34978Y765D01*
G01X35052Y727D01*
G01X35161Y691D01*
G01X35341Y691D01*
G01X35450Y727D01*
G01X35524Y765D01*
G01X35598Y836D01*
G01X35633Y910D01*
G01X35633Y1055D01*
G01X35598Y1128D01*
G01X35524Y1199D01*
G01X35450Y1238D01*
G01X35341Y1238D01*
G01X35341Y1055D02*
G01X35341Y1238D01*
G01X34869Y1476D02*
G01X35633Y1476D01*
G01X34869Y1476D02*
G01X35633Y1987D01*
G01X34869Y1987D02*
G01X35633Y1987D01*
G01X34869Y2226D02*
G01X35633Y2226D01*
G01X34869Y2226D02*
G01X34869Y2480D01*
G01X34907Y2589D01*
G01X34978Y2663D01*
G01X35052Y2698D01*
G01X35161Y2736D01*
G01X35341Y2736D01*
G01X35450Y2698D01*
G01X35524Y2663D01*
G01X35598Y2589D01*
G01X35633Y2480D01*
G01X35633Y2226D01*
G01X37645Y892D02*
G01X38300Y892D01*
G01X37973Y564D02*
G01X37973Y1220D01*
G01X37536Y1895D02*
G01X37536Y1532D01*
G01X37863Y1494D01*
G01X37828Y1532D01*
G01X37790Y1641D01*
G01X37790Y1751D01*
G01X37828Y1860D01*
G01X37899Y1931D01*
G01X38008Y1969D01*
G01X38082Y1969D01*
G01X38191Y1931D01*
G01X38265Y1860D01*
G01X38300Y1751D01*
G01X38300Y1641D01*
G01X38265Y1532D01*
G01X38227Y1494D01*
G01X38155Y1459D01*
G01X37536Y2208D02*
G01X38300Y2500D01*
G01X37536Y2790D02*
G01X38300Y2500D01*
G01X40457Y1453D02*
G01X41221Y1453D01*
G01X40457Y1199D02*
G01X40457Y1707D01*
G01X40457Y1949D02*
G01X41221Y2457D01*
G01X40457Y2457D02*
G01X41221Y1949D01*
G01X40457Y2698D02*
G01X41221Y2698D01*
G01X42997Y945D02*
G01X43761Y945D01*
G01X42997Y691D02*
G01X42997Y1199D01*
G01X42997Y1441D02*
G01X43761Y1949D01*
G01X42997Y1949D02*
G01X43761Y1441D01*
G01X42997Y2409D02*
G01X43035Y2335D01*
G01X43106Y2261D01*
G01X43180Y2226D01*
G01X43289Y2190D01*
G01X43469Y2190D01*
G01X43578Y2226D01*
G01X43652Y2261D01*
G01X43726Y2335D01*
G01X43761Y2409D01*
G01X43761Y2553D01*
G01X43726Y2627D01*
G01X43652Y2698D01*
G01X43578Y2736D01*
G01X43469Y2772D01*
G01X43289Y2772D01*
G01X43180Y2736D01*
G01X43106Y2698D01*
G01X43035Y2627D01*
G01X42997Y2553D01*
G01X42997Y2409D01*
G01X45537Y1199D02*
G01X46301Y1199D01*
G01X45537Y1199D02*
G01X45537Y1527D01*
G01X45575Y1636D01*
G01X45610Y1672D01*
G01X45681Y1707D01*
G01X45755Y1707D01*
G01X45829Y1672D01*
G01X45864Y1636D01*
G01X45900Y1527D01*
G01X45900Y1199D01*
G01X45900Y1453D02*
G01X46301Y1707D01*
G01X45537Y1949D02*
G01X46301Y2457D01*
G01X45537Y2457D02*
G01X46301Y1949D01*
G01X45537Y2698D02*
G01X46301Y2698D01*
G01X48077Y691D02*
G01X48841Y691D01*
G01X48077Y691D02*
G01X48077Y1019D01*
G01X48115Y1128D01*
G01X48150Y1164D01*
G01X48221Y1199D01*
G01X48295Y1199D01*
G01X48369Y1164D01*
G01X48404Y1128D01*
G01X48440Y1019D01*
G01X48440Y691D01*
G01X48440Y945D02*
G01X48841Y1199D01*
G01X48077Y1441D02*
G01X48841Y1949D01*
G01X48077Y1949D02*
G01X48841Y1441D01*
G01X48077Y2409D02*
G01X48115Y2335D01*
G01X48186Y2261D01*
G01X48260Y2226D01*
G01X48369Y2190D01*
G01X48549Y2190D01*
G01X48658Y2226D01*
G01X48732Y2261D01*
G01X48806Y2335D01*
G01X48841Y2409D01*
G01X48841Y2553D01*
G01X48806Y2627D01*
G01X48732Y2698D01*
G01X48658Y2736D01*
G01X48549Y2772D01*
G01X48369Y2772D01*
G01X48260Y2736D01*
G01X48186Y2698D01*
G01X48115Y2627D01*
G01X48077Y2553D01*
G01X48077Y2409D01*
G54D31*
G01X51562Y26412D02*
G01X52339Y26412D01*
G01X52496Y26462D01*
G01X52600Y26566D01*
G01X52651Y26724D01*
G01X52651Y26828D01*
G01X52600Y26983D01*
G01X52496Y27087D01*
G01X52339Y27138D01*
G01X51562Y27138D01*
G01X51767Y27481D02*
G01X51716Y27585D01*
G01X51562Y27742D01*
G01X52651Y27742D01*
G01X38607Y23285D02*
G01X38607Y22195D01*
G01X38607Y23285D02*
G01X39075Y23285D01*
G01X39230Y23234D01*
G01X39283Y23183D01*
G01X39334Y23079D01*
G01X39334Y22975D01*
G01X39283Y22871D01*
G01X39230Y22817D01*
G01X39075Y22767D01*
G01X38607Y22767D01*
G01X38971Y22767D02*
G01X39334Y22195D01*
G01X39781Y23285D02*
G01X40352Y23285D01*
G01X40043Y22871D01*
G01X40198Y22871D01*
G01X40302Y22817D01*
G01X40352Y22767D01*
G01X40406Y22612D01*
G01X40406Y22508D01*
G01X40352Y22350D01*
G01X40248Y22246D01*
G01X40093Y22195D01*
G01X39938Y22195D01*
G01X39781Y22246D01*
G01X39730Y22299D01*
G01X39677Y22403D01*
G01X38608Y26968D02*
G01X38608Y25878D01*
G01X38608Y26968D02*
G01X39075Y26968D01*
G01X39230Y26917D01*
G01X39283Y26866D01*
G01X39334Y26762D01*
G01X39334Y26658D01*
G01X39283Y26554D01*
G01X39230Y26500D01*
G01X39075Y26450D01*
G01X38608Y26450D01*
G01X38971Y26450D02*
G01X39334Y25878D01*
G01X40198Y26968D02*
G01X39677Y26241D01*
G01X40457Y26241D01*
G01X40198Y26968D02*
G01X40198Y25878D01*
G01X38607Y30524D02*
G01X38607Y29434D01*
G01X38607Y30524D02*
G01X39075Y30524D01*
G01X39230Y30473D01*
G01X39283Y30422D01*
G01X39334Y30318D01*
G01X39334Y30214D01*
G01X39283Y30110D01*
G01X39230Y30056D01*
G01X39075Y30006D01*
G01X38607Y30006D01*
G01X38971Y30006D02*
G01X39334Y29434D01*
G01X40302Y30524D02*
G01X39781Y30524D01*
G01X39730Y30056D01*
G01X39781Y30110D01*
G01X39938Y30161D01*
G01X40093Y30161D01*
G01X40248Y30110D01*
G01X40352Y30006D01*
G01X40406Y29851D01*
G01X40406Y29747D01*
G01X40352Y29589D01*
G01X40248Y29485D01*
G01X40093Y29434D01*
G01X39938Y29434D01*
G01X39781Y29485D01*
G01X39730Y29538D01*
G01X39677Y29642D01*
G01X38608Y19868D02*
G01X38608Y18779D01*
G01X38608Y19868D02*
G01X39075Y19868D01*
G01X39230Y19818D01*
G01X39283Y19767D01*
G01X39334Y19663D01*
G01X39334Y19559D01*
G01X39283Y19454D01*
G01X39230Y19401D01*
G01X39075Y19350D01*
G01X38608Y19350D01*
G01X38971Y19350D02*
G01X39334Y18779D01*
G01X39730Y19609D02*
G01X39730Y19663D01*
G01X39781Y19767D01*
G01X39834Y19818D01*
G01X39938Y19868D01*
G01X40144Y19868D01*
G01X40248Y19818D01*
G01X40302Y19767D01*
G01X40352Y19663D01*
G01X40352Y19559D01*
G01X40302Y19454D01*
G01X40198Y19297D01*
G01X39677Y18779D01*
G01X40406Y18779D01*
G01X38608Y16173D02*
G01X38608Y15083D01*
G01X38608Y16173D02*
G01X39075Y16173D01*
G01X39230Y16122D01*
G01X39283Y16071D01*
G01X39334Y15967D01*
G01X39334Y15863D01*
G01X39283Y15759D01*
G01X39230Y15705D01*
G01X39075Y15655D01*
G01X38608Y15655D01*
G01X38971Y15655D02*
G01X39334Y15083D01*
G01X39677Y15967D02*
G01X39781Y16018D01*
G01X39938Y16173D01*
G01X39938Y15083D01*
G01X41910Y14220D02*
G01X42999Y14220D01*
G01X41910Y14220D02*
G01X41910Y14583D01*
G01X41960Y14740D01*
G01X42064Y14842D01*
G01X42169Y14895D01*
G01X42324Y14946D01*
G01X42583Y14946D01*
G01X42740Y14895D01*
G01X42844Y14842D01*
G01X42948Y14740D01*
G01X42999Y14583D01*
G01X42999Y14220D01*
G01X42115Y15289D02*
G01X42064Y15393D01*
G01X41910Y15550D01*
G01X42999Y15550D01*
G01X47752Y37129D02*
G01X47752Y36037D01*
G01X47752Y37129D02*
G01X48168Y36037D01*
G01X48582Y37129D02*
G01X48168Y36037D01*
G01X48582Y37129D02*
G01X48582Y36037D01*
G01X48925Y37129D02*
G01X48925Y36037D01*
G01X49268Y37129D02*
G01X49268Y36037D01*
G01X49268Y37129D02*
G01X49631Y37129D01*
G01X49789Y37076D01*
G01X49893Y36972D01*
G01X49944Y36870D01*
G01X49997Y36713D01*
G01X49997Y36454D01*
G01X49944Y36299D01*
G01X49893Y36195D01*
G01X49789Y36090D01*
G01X49631Y36037D01*
G01X49268Y36037D01*
G01X50340Y37129D02*
G01X50340Y36037D01*
G01X50683Y35674D02*
G01X51617Y35674D01*
G01X51960Y37129D02*
G01X51960Y36037D01*
G01X52303Y37129D02*
G01X52303Y36037D01*
G01X52303Y37129D02*
G01X53030Y36037D01*
G01X53030Y37129D02*
G01X53030Y36037D01*
G01X68834Y37002D02*
G01X68834Y35910D01*
G01X68834Y37002D02*
G01X69250Y35910D01*
G01X69664Y37002D02*
G01X69250Y35910D01*
G01X69664Y37002D02*
G01X69664Y35910D01*
G01X70007Y37002D02*
G01X70007Y35910D01*
G01X70350Y37002D02*
G01X70350Y35910D01*
G01X70350Y37002D02*
G01X70713Y37002D01*
G01X70871Y36949D01*
G01X70975Y36845D01*
G01X71026Y36743D01*
G01X71079Y36586D01*
G01X71079Y36327D01*
G01X71026Y36172D01*
G01X70975Y36068D01*
G01X70871Y35963D01*
G01X70713Y35910D01*
G01X70350Y35910D01*
G01X71422Y37002D02*
G01X71422Y35910D01*
G01X71765Y35547D02*
G01X72699Y35547D01*
G01X73355Y37002D02*
G01X73251Y36949D01*
G01X73146Y36845D01*
G01X73093Y36743D01*
G01X73042Y36586D01*
G01X73042Y36327D01*
G01X73093Y36172D01*
G01X73146Y36068D01*
G01X73251Y35963D01*
G01X73355Y35910D01*
G01X73560Y35910D01*
G01X73665Y35963D01*
G01X73769Y36068D01*
G01X73822Y36172D01*
G01X73873Y36327D01*
G01X73873Y36586D01*
G01X73822Y36743D01*
G01X73769Y36845D01*
G01X73665Y36949D01*
G01X73560Y37002D01*
G01X73355Y37002D01*
G01X74216Y37002D02*
G01X74216Y36223D01*
G01X74269Y36068D01*
G01X74371Y35963D01*
G01X74528Y35910D01*
G01X74632Y35910D01*
G01X74787Y35963D01*
G01X74891Y36068D01*
G01X74942Y36223D01*
G01X74942Y37002D01*
G01X75651Y37002D02*
G01X75651Y35910D01*
G01X75285Y37002D02*
G01X76014Y37002D01*
G01X14478Y25644D02*
G01X15570Y25228D01*
G01X14478Y25644D02*
G01X15570Y26058D01*
G01X15204Y25383D02*
G01X15204Y25904D01*
G01X14478Y26401D02*
G01X15570Y26401D01*
G01X14478Y26401D02*
G01X14478Y26869D01*
G01X14531Y27026D01*
G01X14582Y27077D01*
G01X14686Y27130D01*
G01X14790Y27130D01*
G01X14894Y27077D01*
G01X14945Y27026D01*
G01X14998Y26869D01*
G01X14998Y26401D01*
G01X14998Y26765D02*
G01X15570Y27130D01*
G01X14478Y27473D02*
G01X15570Y27473D01*
G01X14478Y27473D02*
G01X14478Y27836D01*
G01X14531Y27991D01*
G01X14632Y28096D01*
G01X14737Y28149D01*
G01X14894Y28200D01*
G01X15153Y28200D01*
G01X15308Y28149D01*
G01X15412Y28096D01*
G01X15516Y27991D01*
G01X15570Y27836D01*
G01X15570Y27473D01*
G01X14478Y28543D02*
G01X15257Y28543D01*
G01X15412Y28593D01*
G01X15516Y28698D01*
G01X15570Y28855D01*
G01X15570Y28959D01*
G01X15516Y29114D01*
G01X15412Y29218D01*
G01X15257Y29269D01*
G01X14478Y29269D01*
G01X14478Y29612D02*
G01X15570Y29612D01*
G01X14478Y29955D02*
G01X15570Y29955D01*
G01X14478Y29955D02*
G01X15570Y30684D01*
G01X14478Y30684D02*
G01X15570Y30684D01*
G01X14478Y31337D02*
G01X14531Y31235D01*
G01X14632Y31131D01*
G01X14737Y31078D01*
G01X14894Y31027D01*
G01X15153Y31027D01*
G01X15308Y31078D01*
G01X15412Y31131D01*
G01X15516Y31235D01*
G01X15570Y31337D01*
G01X15570Y31545D01*
G01X15516Y31649D01*
G01X15412Y31753D01*
G01X15308Y31806D01*
G01X15153Y31857D01*
G01X14894Y31857D01*
G01X14737Y31806D01*
G01X14632Y31753D01*
G01X14531Y31649D01*
G01X14478Y31545D01*
G01X14478Y31337D01*
G01X15933Y32200D02*
G01X15933Y33135D01*
G01X14478Y33478D02*
G01X15570Y33478D01*
G01X14478Y33478D02*
G01X15570Y34207D01*
G01X14478Y34207D02*
G01X15570Y34207D01*
G01X14478Y34964D02*
G01X15570Y34550D01*
G01X14478Y34964D02*
G01X15570Y35380D01*
G01X15204Y34705D02*
G01X15204Y35223D01*
G01X14478Y35723D02*
G01X15570Y35723D01*
G01X14478Y35723D02*
G01X15570Y36450D01*
G01X14478Y36450D02*
G01X15570Y36450D01*
G01X14478Y37105D02*
G01X14531Y37001D01*
G01X14632Y36897D01*
G01X14737Y36846D01*
G01X14894Y36793D01*
G01X15153Y36793D01*
G01X15308Y36846D01*
G01X15412Y36897D01*
G01X15516Y37001D01*
G01X15570Y37105D01*
G01X15570Y37313D01*
G01X15516Y37417D01*
G01X15412Y37521D01*
G01X15308Y37572D01*
G01X15153Y37623D01*
G01X14894Y37623D01*
G01X14737Y37572D01*
G01X14632Y37521D01*
G01X14531Y37417D01*
G01X14478Y37313D01*
G01X14478Y37105D01*
G01X38100Y43198D02*
G01X39189Y43198D01*
G01X38100Y43198D02*
G01X38100Y43562D01*
G01X38150Y43719D01*
G01X38254Y43821D01*
G01X38359Y43874D01*
G01X38514Y43925D01*
G01X38775Y43925D01*
G01X38930Y43874D01*
G01X39034Y43821D01*
G01X39138Y43719D01*
G01X39189Y43562D01*
G01X39189Y43198D01*
G01X38359Y45048D02*
G01X38254Y44997D01*
G01X38150Y44893D01*
G01X38100Y44788D01*
G01X38100Y44580D01*
G01X38150Y44476D01*
G01X38254Y44372D01*
G01X38359Y44321D01*
G01X38514Y44268D01*
G01X38775Y44268D01*
G01X38930Y44321D01*
G01X39034Y44372D01*
G01X39138Y44476D01*
G01X39189Y44580D01*
G01X39189Y44788D01*
G01X39138Y44893D01*
G01X39034Y44997D01*
G01X38930Y45048D01*
G01X38308Y45390D02*
G01X38254Y45495D01*
G01X38100Y45650D01*
G01X39189Y45650D01*
G01X29591Y35235D02*
G01X29591Y34146D01*
G01X29591Y35235D02*
G01X30058Y35235D01*
G01X30213Y35185D01*
G01X30266Y35134D01*
G01X30317Y35030D01*
G01X30317Y34872D01*
G01X30266Y34768D01*
G01X30213Y34717D01*
G01X30058Y34664D01*
G01X29591Y34664D01*
G01X30660Y35235D02*
G01X30921Y34146D01*
G01X31181Y35235D02*
G01X30921Y34146D01*
G01X31181Y35235D02*
G01X31440Y34146D01*
G01X31699Y35235D02*
G01X31440Y34146D01*
G01X32042Y35235D02*
G01X32042Y34146D01*
G01X32042Y35235D02*
G01X32512Y35235D01*
G01X32666Y35185D01*
G01X32717Y35134D01*
G01X32771Y35030D01*
G01X32771Y34926D01*
G01X32717Y34821D01*
G01X32666Y34768D01*
G01X32512Y34717D01*
G01X32042Y34717D01*
G01X32407Y34717D02*
G01X32771Y34146D01*
G01X33113Y33783D02*
G01X34048Y33783D01*
G01X35118Y35081D02*
G01X35013Y35185D01*
G01X34858Y35235D01*
G01X34650Y35235D01*
G01X34495Y35185D01*
G01X34391Y35081D01*
G01X34391Y34976D01*
G01X34442Y34872D01*
G01X34495Y34821D01*
G01X34599Y34768D01*
G01X34912Y34664D01*
G01X35013Y34613D01*
G01X35067Y34562D01*
G01X35118Y34458D01*
G01X35118Y34301D01*
G01X35013Y34197D01*
G01X34858Y34146D01*
G01X34650Y34146D01*
G01X34495Y34197D01*
G01X34391Y34301D01*
G01X35460Y35235D02*
G01X35722Y34146D01*
G01X35981Y35235D02*
G01X35722Y34146D01*
G01X35981Y35235D02*
G01X36240Y34146D01*
G01X36499Y35235D02*
G01X36240Y34146D01*
G01X8346Y10989D02*
G01X8242Y11093D01*
G01X8087Y11144D01*
G01X7879Y11144D01*
G01X7724Y11093D01*
G01X7620Y10989D01*
G01X7620Y10885D01*
G01X7670Y10780D01*
G01X7724Y10730D01*
G01X7828Y10676D01*
G01X8140Y10572D01*
G01X8242Y10521D01*
G01X8295Y10470D01*
G01X8346Y10366D01*
G01X8346Y10209D01*
G01X8242Y10105D01*
G01X8087Y10054D01*
G01X7879Y10054D01*
G01X7724Y10105D01*
G01X7620Y10209D01*
G01X9105Y11144D02*
G01X8689Y10054D01*
G01X9105Y11144D02*
G01X9522Y10054D01*
G01X8846Y10417D02*
G01X9364Y10417D01*
G01X9865Y11144D02*
G01X10279Y10054D01*
G01X10695Y11144D02*
G01X10279Y10054D01*
G01X11038Y11144D02*
G01X11038Y10054D01*
G01X11038Y11144D02*
G01X11714Y11144D01*
G01X11038Y10625D02*
G01X11455Y10625D01*
G01X11038Y10054D02*
G01X11714Y10054D01*
G01X13716Y11017D02*
G01X13716Y9927D01*
G01X13716Y11017D02*
G01X14183Y11017D01*
G01X14338Y10966D01*
G01X14391Y10915D01*
G01X14442Y10811D01*
G01X14442Y10653D01*
G01X14391Y10549D01*
G01X14338Y10498D01*
G01X14183Y10445D01*
G01X13716Y10445D01*
G01X15097Y11017D02*
G01X14993Y10966D01*
G01X14889Y10862D01*
G01X14838Y10758D01*
G01X14785Y10603D01*
G01X14785Y10343D01*
G01X14838Y10186D01*
G01X14889Y10082D01*
G01X14993Y9978D01*
G01X15097Y9927D01*
G01X15306Y9927D01*
G01X15410Y9978D01*
G01X15514Y10082D01*
G01X15565Y10186D01*
G01X15618Y10343D01*
G01X15618Y10603D01*
G01X15565Y10758D01*
G01X15514Y10862D01*
G01X15410Y10966D01*
G01X15306Y11017D01*
G01X15097Y11017D01*
G01X16324Y11017D02*
G01X16324Y9927D01*
G01X15961Y11017D02*
G01X16687Y11017D01*
G01X17030Y9564D02*
G01X17965Y9564D01*
G01X18308Y11017D02*
G01X18308Y9927D01*
G01X18651Y11017D02*
G01X18651Y9927D01*
G01X18651Y11017D02*
G01X19380Y9927D01*
G01X19380Y11017D02*
G01X19380Y9927D01*
G01X20955Y11017D02*
G01X20955Y9927D01*
G01X20955Y11017D02*
G01X21422Y11017D01*
G01X21577Y10966D01*
G01X21630Y10915D01*
G01X21681Y10811D01*
G01X21681Y10653D01*
G01X21630Y10549D01*
G01X21577Y10498D01*
G01X21422Y10445D01*
G01X20955Y10445D01*
G01X22336Y11017D02*
G01X22232Y10966D01*
G01X22128Y10862D01*
G01X22077Y10758D01*
G01X22024Y10603D01*
G01X22024Y10343D01*
G01X22077Y10186D01*
G01X22128Y10082D01*
G01X22232Y9978D01*
G01X22336Y9927D01*
G01X22545Y9927D01*
G01X22649Y9978D01*
G01X22753Y10082D01*
G01X22804Y10186D01*
G01X22857Y10343D01*
G01X22857Y10603D01*
G01X22804Y10758D01*
G01X22753Y10862D01*
G01X22649Y10966D01*
G01X22545Y11017D01*
G01X22336Y11017D01*
G01X23563Y11017D02*
G01X23563Y9927D01*
G01X23200Y11017D02*
G01X23926Y11017D01*
G01X24269Y9564D02*
G01X25204Y9564D01*
G01X25859Y11017D02*
G01X25755Y10966D01*
G01X25651Y10862D01*
G01X25600Y10758D01*
G01X25547Y10603D01*
G01X25547Y10343D01*
G01X25600Y10186D01*
G01X25651Y10082D01*
G01X25755Y9978D01*
G01X25859Y9927D01*
G01X26068Y9927D01*
G01X26172Y9978D01*
G01X26276Y10082D01*
G01X26327Y10186D01*
G01X26377Y10343D01*
G01X26377Y10603D01*
G01X26327Y10758D01*
G01X26276Y10862D01*
G01X26172Y10966D01*
G01X26068Y11017D01*
G01X25859Y11017D01*
G01X26720Y11017D02*
G01X26720Y10239D01*
G01X26774Y10082D01*
G01X26878Y9978D01*
G01X27033Y9927D01*
G01X27137Y9927D01*
G01X27292Y9978D01*
G01X27396Y10082D01*
G01X27449Y10239D01*
G01X27449Y11017D01*
G01X28155Y11017D02*
G01X28155Y9927D01*
G01X27792Y11017D02*
G01X28519Y11017D01*
G01X32639Y11017D02*
G01X32639Y9927D01*
G01X32639Y11017D02*
G01X33002Y11017D01*
G01X33159Y10966D01*
G01X33261Y10862D01*
G01X33314Y10758D01*
G01X33365Y10603D01*
G01X33365Y10343D01*
G01X33314Y10186D01*
G01X33261Y10082D01*
G01X33159Y9978D01*
G01X33002Y9927D01*
G01X32639Y9927D01*
G01X33708Y11017D02*
G01X33708Y9927D01*
G01X34780Y10862D02*
G01X34676Y10966D01*
G01X34518Y11017D01*
G01X34312Y11017D01*
G01X34155Y10966D01*
G01X34051Y10862D01*
G01X34051Y10758D01*
G01X34104Y10653D01*
G01X34155Y10603D01*
G01X34259Y10549D01*
G01X34571Y10445D01*
G01X34676Y10394D01*
G01X34726Y10343D01*
G01X34780Y10239D01*
G01X34780Y10082D01*
G01X34676Y9978D01*
G01X34518Y9927D01*
G01X34312Y9927D01*
G01X34155Y9978D01*
G01X34051Y10082D01*
G01X35123Y11017D02*
G01X35123Y9927D01*
G01X35123Y11017D02*
G01X35590Y11017D01*
G01X35745Y10966D01*
G01X35798Y10915D01*
G01X35849Y10811D01*
G01X35849Y10653D01*
G01X35798Y10549D01*
G01X35745Y10498D01*
G01X35590Y10445D01*
G01X35123Y10445D01*
G01X39624Y11017D02*
G01X39624Y9927D01*
G01X39624Y11017D02*
G01X40040Y9927D01*
G01X40454Y11017D02*
G01X40040Y9927D01*
G01X40454Y11017D02*
G01X40454Y9927D01*
G01X40797Y11017D02*
G01X40797Y9927D01*
G01X41140Y11017D02*
G01X41140Y9927D01*
G01X41140Y11017D02*
G01X41503Y11017D01*
G01X41661Y10966D01*
G01X41765Y10862D01*
G01X41816Y10758D01*
G01X41869Y10603D01*
G01X41869Y10343D01*
G01X41816Y10186D01*
G01X41765Y10082D01*
G01X41661Y9978D01*
G01X41503Y9927D01*
G01X41140Y9927D01*
G01X42212Y11017D02*
G01X42212Y9927D01*
G01X42555Y9564D02*
G01X43489Y9564D01*
G01X43832Y11017D02*
G01X43832Y9927D01*
G01X43832Y11017D02*
G01X44196Y11017D01*
G01X44350Y10966D01*
G01X44455Y10862D01*
G01X44508Y10758D01*
G01X44559Y10603D01*
G01X44559Y10343D01*
G01X44508Y10186D01*
G01X44455Y10082D01*
G01X44350Y9978D01*
G01X44196Y9927D01*
G01X43832Y9927D01*
G01X44902Y11017D02*
G01X44902Y9927D01*
G01X45974Y10862D02*
G01X45869Y10966D01*
G01X45712Y11017D01*
G01X45504Y11017D01*
G01X45349Y10966D01*
G01X45245Y10862D01*
G01X45245Y10758D01*
G01X45298Y10653D01*
G01X45349Y10603D01*
G01X45453Y10549D01*
G01X45765Y10445D01*
G01X45869Y10394D01*
G01X45920Y10343D01*
G01X45974Y10239D01*
G01X45974Y10082D01*
G01X45869Y9978D01*
G01X45712Y9927D01*
G01X45504Y9927D01*
G01X45349Y9978D01*
G01X45245Y10082D01*
G01X46730Y11017D02*
G01X46316Y9927D01*
G01X46730Y11017D02*
G01X47147Y9927D01*
G01X46471Y10290D02*
G01X46990Y10290D01*
G01X47490Y11017D02*
G01X47490Y9927D01*
G01X47490Y11017D02*
G01X47957Y11017D01*
G01X48112Y10966D01*
G01X48166Y10915D01*
G01X48216Y10811D01*
G01X48216Y10707D01*
G01X48166Y10603D01*
G01X48112Y10549D01*
G01X47957Y10498D01*
G01X47490Y10498D02*
G01X47957Y10498D01*
G01X48112Y10445D01*
G01X48166Y10394D01*
G01X48216Y10290D01*
G01X48216Y10135D01*
G01X48166Y10031D01*
G01X48112Y9978D01*
G01X47957Y9927D01*
G01X47490Y9927D01*
G01X48559Y11017D02*
G01X48559Y9927D01*
G01X48559Y9927D02*
G01X49184Y9927D01*
G01X49527Y11017D02*
G01X49527Y9927D01*
G01X49527Y11017D02*
G01X50203Y11017D01*
G01X49527Y10498D02*
G01X49941Y10498D01*
G01X49527Y9927D02*
G01X50203Y9927D01*
G54D10*
G75*
G01X47625Y32061D02*
G02X45085Y32061I-1270J0D01*
G01*
G54D28*
G75*
G01X39673Y38646D02*
G03X39759Y38745I100J0D01*
G01*
G75*
G01X61263Y38646D02*
G03X61349Y38745I100J0D01*
G01*
M00*
M02*
