;Layer: Drill PTH
;EasyEDA v6.1.48, Fri, 24 May 2019 02:17:32 GMT
;a76c445d5078456fbe9c8c9c1c925b64,d79a69aa59da4e1fbb9b7d465b79b5da,10
;Gerber Generator version 0.2
M48
METRIC,LZ,000.000
;Holesize 1 = 0.310 METRIC
T01C0.310
;Holesize 2 = 0.889 METRIC
T02C0.889
;Holesize 3 = 0.900 METRIC
T03C0.900
;Holesize 4 = 1.101 METRIC
T04C1.101
;Holesize 5 = 1.200 METRIC
T05C1.200
;Holesize 6 = 1.300 METRIC
T06C1.300
%
G05
G90
T01
X+013573Y+024941
X+017261Y+013899
T02
X+047879Y+025837
X+047879Y+023297
X+047879Y+020757
X+047879Y+018217
X+055499Y+018217
X+055499Y+020757
X+055499Y+023297
X+055499Y+025837
X+007366Y+003612
X+009906Y+003612
X+020701Y+003485
X+018161Y+003485
X+015621Y+003485
X+031496Y+003485
X+028956Y+003485
X+026416Y+003485
X+036957Y+003612
X+039497Y+003612
X+042037Y+003612
X+044577Y+003612
X+031369Y+032187
X+033909Y+032187
X+049657Y+006279
X+052197Y+006279
X+049657Y+003739
X+052197Y+003739
T03
X+068453Y+015677
X+068453Y+028377
X+063119Y+015677
X+063119Y+028377
X+037846Y+015804
X+037846Y+028504
X+073914Y+015677
X+073914Y+028377
X+031750Y+015804
X+031750Y+028504
T04
X+043434Y+020503
X+043434Y+028123
X+023114Y+049459
X+023114Y+046919
X+023114Y+044379
X+023114Y+041839
X+023114Y+039299
X+023114Y+036759
X+023114Y+034219
X+023114Y+031679
X+023114Y+029139
X+023114Y+026599
X+023114Y+024059
X+023114Y+021519
X+023114Y+018979
X+023114Y+016439
X+023114Y+013899
X+007874Y+049459
X+007874Y+046919
X+007874Y+044379
X+007874Y+041839
X+007874Y+039299
X+007874Y+036759
X+007874Y+034219
X+007874Y+031679
X+007874Y+029139
X+007874Y+026599
X+007874Y+024059
X+007874Y+021519
X+007874Y+018979
X+007874Y+016439
X+007874Y+013899
T05
X+031580Y+037570G85X+034080Y+037570
X+034080Y+043569G85X+031580Y+043569
X+028129Y+041820G85X+028129Y+039319
T06
X+050675Y+039045G85X+050670Y+039045
X+045675Y+036546G85X+045670Y+036546
X+043175Y+039045G85X+043170Y+039045
X+055675Y+036546G85X+055670Y+036546
X+058175Y+039045G85X+058170Y+039045
X+053175Y+049045G85X+053170Y+049045
X+048175Y+049045G85X+048170Y+049045
X+072265Y+039045G85X+072260Y+039045
X+067265Y+036546G85X+067260Y+036546
X+064765Y+039045G85X+064760Y+039045
X+077265Y+036546G85X+077260Y+036546
X+079765Y+039045G85X+079760Y+039045
X+074765Y+049045G85X+074760Y+049045
X+069765Y+049045G85X+069760Y+049045
M30
