G04 Layer: TopSilkLayer*
G04 EasyEDA v6.1.48, Fri, 24 May 2019 02:17:32 GMT*
G04 a76c445d5078456fbe9c8c9c1c925b64,d79a69aa59da4e1fbb9b7d465b79b5da,10*
G04 Gerber Generator version 0.2*
G04 Scale: 100 percent, Rotated: No, Reflected: No *
G04 Dimensions in millimeters *
G04 leading zeros omitted , absolute positions ,3 integer and 3 decimal *
%FSLAX33Y33*%
%MOMM*%
G90*
G71D02*

%ADD10C,0.254000*%
%ADD23C,0.228600*%
%ADD24C,0.127000*%
%ADD25C,0.203200*%
%ADD26C,0.202999*%
%ADD27C,0.199898*%
%ADD28C,0.152400*%

%LPD*%
G54D10*
G01X49149Y16947D02*
G01X54229Y16947D01*
G01X54229Y16947D02*
G01X54229Y27107D01*
G01X49149Y16947D02*
G01X49149Y27107D01*
G01X49149Y27107D02*
G01X50419Y27107D01*
G01X52959Y27107D02*
G01X54229Y27107D01*
G01X70104Y17532D02*
G01X66802Y17532D01*
G01X66802Y17532D02*
G01X66802Y26523D01*
G01X66802Y26523D02*
G01X70104Y26523D01*
G01X70104Y26523D02*
G01X70104Y17532D01*
G01X64770Y17532D02*
G01X61468Y17532D01*
G01X61468Y17532D02*
G01X61468Y26523D01*
G01X61468Y26523D02*
G01X64770Y26523D01*
G01X64770Y26523D02*
G01X64770Y17532D01*
G01X39497Y17659D02*
G01X36195Y17659D01*
G01X36195Y17659D02*
G01X36195Y26650D01*
G01X36195Y26650D02*
G01X39497Y26650D01*
G01X39497Y26650D02*
G01X39497Y17659D01*
G01X75565Y17532D02*
G01X72263Y17532D01*
G01X72263Y17532D02*
G01X72263Y26523D01*
G01X72263Y26523D02*
G01X75565Y26523D01*
G01X75565Y26523D02*
G01X75565Y17532D01*
G01X33401Y17659D02*
G01X30099Y17659D01*
G01X30099Y17659D02*
G01X30099Y26650D01*
G01X30099Y26650D02*
G01X33401Y26650D01*
G01X33401Y26650D02*
G01X33401Y17659D01*
G54D23*
G01X42291Y21773D02*
G01X42291Y26853D01*
G01X44577Y26853D01*
G01X44577Y21773D01*
G01X42291Y21773D01*
G01X42291Y26218D02*
G01X44577Y26218D01*
G54D24*
G01X59373Y39045D02*
G01X60672Y39045D01*
G01X60672Y51545D01*
G01X40673Y51545D01*
G01X40673Y39045D01*
G01X41972Y39045D01*
G01X56972Y39045D02*
G01X51872Y39045D01*
G01X49473Y39045D02*
G01X44373Y39045D01*
G01X80963Y39045D02*
G01X82262Y39045D01*
G01X82262Y51545D01*
G01X62263Y51545D01*
G01X62263Y39045D01*
G01X63562Y39045D01*
G01X78562Y39045D02*
G01X73462Y39045D01*
G01X71063Y39045D02*
G01X65963Y39045D01*
G54D25*
G01X11176Y4882D02*
G01X11176Y2368D01*
G01X6096Y2368D01*
G01X6096Y4882D01*
G01X11176Y4882D01*
G01X16256Y4755D02*
G01X14351Y4755D01*
G01X14351Y2215D01*
G01X21971Y2215D01*
G01X21971Y4755D01*
G54D26*
G01X21971Y4755D02*
G01X16256Y4755D01*
G54D25*
G01X27051Y4755D02*
G01X25146Y4755D01*
G01X25146Y2215D01*
G01X32766Y2215D01*
G01X32766Y4755D01*
G54D26*
G01X32766Y4755D02*
G01X27051Y4755D01*
G54D25*
G01X45847Y4882D02*
G01X45847Y2342D01*
G01X35687Y2342D01*
G01X35687Y4882D01*
G01X37592Y4882D01*
G54D26*
G01X45847Y4882D02*
G01X37592Y4882D01*
G54D10*
G01X24638Y50729D02*
G01X21590Y50729D01*
G01X21590Y12375D01*
G01X24638Y12375D01*
G01X24638Y50729D01*
G01X24638Y48189D02*
G01X21590Y48189D01*
G01X9398Y50729D02*
G01X6350Y50729D01*
G01X6350Y12375D01*
G01X9398Y12375D01*
G01X9398Y50729D01*
G01X9398Y48189D02*
G01X6350Y48189D01*
G01X28330Y51469D02*
G01X37330Y51470D01*
G01X37330Y51470D02*
G01X37330Y37069D01*
G01X37330Y37069D02*
G01X28330Y37069D01*
G01X28330Y37069D02*
G01X28330Y51470D01*
G01X28330Y47769D02*
G01X37330Y47769D01*
G01X29630Y47689D02*
G01X29630Y37069D01*
G01X36030Y47689D02*
G01X36030Y37069D01*
G54D25*
G01X35179Y33457D02*
G01X35179Y30943D01*
G01X30099Y30943D01*
G01X30099Y33457D01*
G01X35179Y33457D01*
G01X53467Y7549D02*
G01X53467Y2469D01*
G01X48387Y2469D01*
G01X48387Y7549D01*
G01X53467Y7549D01*
G54D28*
G01X56896Y21459D02*
G01X57673Y21459D01*
G01X57830Y21509D01*
G01X57934Y21613D01*
G01X57985Y21771D01*
G01X57985Y21875D01*
G01X57934Y22030D01*
G01X57830Y22134D01*
G01X57673Y22185D01*
G01X56896Y22185D01*
G01X57101Y22528D02*
G01X57050Y22632D01*
G01X56896Y22789D01*
G01X57985Y22789D01*
G01X65532Y17435D02*
G01X66621Y17435D01*
G01X65532Y17435D02*
G01X65532Y17903D01*
G01X65582Y18057D01*
G01X65633Y18111D01*
G01X65737Y18162D01*
G01X65841Y18162D01*
G01X65946Y18111D01*
G01X65999Y18057D01*
G01X66050Y17903D01*
G01X66050Y17435D01*
G01X66050Y17798D02*
G01X66621Y18162D01*
G01X65532Y18609D02*
G01X65532Y19180D01*
G01X65946Y18870D01*
G01X65946Y19025D01*
G01X65999Y19129D01*
G01X66050Y19180D01*
G01X66205Y19233D01*
G01X66309Y19233D01*
G01X66466Y19180D01*
G01X66570Y19076D01*
G01X66621Y18921D01*
G01X66621Y18766D01*
G01X66570Y18609D01*
G01X66517Y18558D01*
G01X66413Y18504D01*
G01X60071Y17511D02*
G01X61160Y17511D01*
G01X60071Y17511D02*
G01X60071Y17979D01*
G01X60121Y18134D01*
G01X60172Y18187D01*
G01X60276Y18238D01*
G01X60380Y18238D01*
G01X60485Y18187D01*
G01X60538Y18134D01*
G01X60589Y17979D01*
G01X60589Y17511D01*
G01X60589Y17875D02*
G01X61160Y18238D01*
G01X60071Y19101D02*
G01X60797Y18581D01*
G01X60797Y19360D01*
G01X60071Y19101D02*
G01X61160Y19101D01*
G01X34851Y22154D02*
G01X35941Y22154D01*
G01X34851Y22154D02*
G01X34851Y22622D01*
G01X34902Y22777D01*
G01X34952Y22830D01*
G01X35057Y22881D01*
G01X35161Y22881D01*
G01X35265Y22830D01*
G01X35318Y22777D01*
G01X35369Y22622D01*
G01X35369Y22154D01*
G01X35369Y22518D02*
G01X35941Y22881D01*
G01X34851Y23849D02*
G01X34851Y23328D01*
G01X35318Y23277D01*
G01X35265Y23328D01*
G01X35214Y23485D01*
G01X35214Y23640D01*
G01X35265Y23795D01*
G01X35369Y23899D01*
G01X35524Y23953D01*
G01X35628Y23953D01*
G01X35786Y23899D01*
G01X35890Y23795D01*
G01X35941Y23640D01*
G01X35941Y23485D01*
G01X35890Y23328D01*
G01X35836Y23277D01*
G01X35732Y23224D01*
G01X71005Y17455D02*
G01X72095Y17455D01*
G01X71005Y17455D02*
G01X71005Y17923D01*
G01X71056Y18078D01*
G01X71107Y18131D01*
G01X71211Y18182D01*
G01X71315Y18182D01*
G01X71419Y18131D01*
G01X71473Y18078D01*
G01X71523Y17923D01*
G01X71523Y17455D01*
G01X71523Y17819D02*
G01X72095Y18182D01*
G01X71264Y18578D02*
G01X71211Y18578D01*
G01X71107Y18629D01*
G01X71056Y18682D01*
G01X71005Y18786D01*
G01X71005Y18992D01*
G01X71056Y19096D01*
G01X71107Y19150D01*
G01X71211Y19200D01*
G01X71315Y19200D01*
G01X71419Y19150D01*
G01X71577Y19046D01*
G01X72095Y18525D01*
G01X72095Y19254D01*
G01X28755Y22154D02*
G01X29845Y22154D01*
G01X28755Y22154D02*
G01X28755Y22622D01*
G01X28806Y22777D01*
G01X28856Y22830D01*
G01X28961Y22881D01*
G01X29065Y22881D01*
G01X29169Y22830D01*
G01X29222Y22777D01*
G01X29273Y22622D01*
G01X29273Y22154D01*
G01X29273Y22518D02*
G01X29845Y22881D01*
G01X28961Y23224D02*
G01X28910Y23328D01*
G01X28755Y23485D01*
G01X29845Y23485D01*
G01X40947Y24313D02*
G01X42037Y24313D01*
G01X40947Y24313D02*
G01X40947Y24677D01*
G01X40998Y24834D01*
G01X41102Y24936D01*
G01X41206Y24989D01*
G01X41361Y25040D01*
G01X41620Y25040D01*
G01X41777Y24989D01*
G01X41882Y24936D01*
G01X41986Y24834D01*
G01X42037Y24677D01*
G01X42037Y24313D01*
G01X41153Y25383D02*
G01X41102Y25487D01*
G01X40947Y25644D01*
G01X42037Y25644D01*
G01X48006Y34854D02*
G01X48006Y33762D01*
G01X48006Y34854D02*
G01X48422Y33762D01*
G01X48836Y34854D02*
G01X48422Y33762D01*
G01X48836Y34854D02*
G01X48836Y33762D01*
G01X49179Y34854D02*
G01X49179Y33762D01*
G01X49522Y34854D02*
G01X49522Y33762D01*
G01X49522Y34854D02*
G01X49885Y34854D01*
G01X50043Y34801D01*
G01X50147Y34697D01*
G01X50198Y34595D01*
G01X50251Y34438D01*
G01X50251Y34179D01*
G01X50198Y34024D01*
G01X50147Y33920D01*
G01X50043Y33816D01*
G01X49885Y33762D01*
G01X49522Y33762D01*
G01X50594Y34854D02*
G01X50594Y33762D01*
G01X50937Y33399D02*
G01X51871Y33399D01*
G01X52214Y34854D02*
G01X52214Y33762D01*
G01X52557Y34854D02*
G01X52557Y33762D01*
G01X52557Y34854D02*
G01X53284Y33762D01*
G01X53284Y34854D02*
G01X53284Y33762D01*
G01X69088Y34462D02*
G01X69088Y33370D01*
G01X69088Y34462D02*
G01X69504Y33370D01*
G01X69918Y34462D02*
G01X69504Y33370D01*
G01X69918Y34462D02*
G01X69918Y33370D01*
G01X70261Y34462D02*
G01X70261Y33370D01*
G01X70604Y34462D02*
G01X70604Y33370D01*
G01X70604Y34462D02*
G01X70967Y34462D01*
G01X71125Y34409D01*
G01X71229Y34305D01*
G01X71280Y34203D01*
G01X71333Y34046D01*
G01X71333Y33787D01*
G01X71280Y33632D01*
G01X71229Y33528D01*
G01X71125Y33423D01*
G01X70967Y33370D01*
G01X70604Y33370D01*
G01X71676Y34462D02*
G01X71676Y33370D01*
G01X72019Y33007D02*
G01X72953Y33007D01*
G01X73609Y34462D02*
G01X73505Y34409D01*
G01X73400Y34305D01*
G01X73347Y34203D01*
G01X73296Y34046D01*
G01X73296Y33787D01*
G01X73347Y33632D01*
G01X73400Y33528D01*
G01X73505Y33423D01*
G01X73609Y33370D01*
G01X73814Y33370D01*
G01X73919Y33423D01*
G01X74023Y33528D01*
G01X74076Y33632D01*
G01X74127Y33787D01*
G01X74127Y34046D01*
G01X74076Y34203D01*
G01X74023Y34305D01*
G01X73919Y34409D01*
G01X73814Y34462D01*
G01X73609Y34462D01*
G01X74470Y34462D02*
G01X74470Y33683D01*
G01X74523Y33528D01*
G01X74625Y33423D01*
G01X74782Y33370D01*
G01X74886Y33370D01*
G01X75041Y33423D01*
G01X75145Y33528D01*
G01X75196Y33683D01*
G01X75196Y34462D01*
G01X75905Y34462D02*
G01X75905Y33370D01*
G01X75539Y34462D02*
G01X76268Y34462D01*
G01X4917Y6633D02*
G01X4813Y6737D01*
G01X4658Y6787D01*
G01X4450Y6787D01*
G01X4295Y6737D01*
G01X4191Y6633D01*
G01X4191Y6528D01*
G01X4241Y6424D01*
G01X4295Y6373D01*
G01X4399Y6320D01*
G01X4711Y6216D01*
G01X4813Y6165D01*
G01X4866Y6114D01*
G01X4917Y6010D01*
G01X4917Y5853D01*
G01X4813Y5749D01*
G01X4658Y5698D01*
G01X4450Y5698D01*
G01X4295Y5749D01*
G01X4191Y5853D01*
G01X5676Y6787D02*
G01X5260Y5698D01*
G01X5676Y6787D02*
G01X6093Y5698D01*
G01X5417Y6061D02*
G01X5935Y6061D01*
G01X6436Y6787D02*
G01X6850Y5698D01*
G01X7266Y6787D02*
G01X6850Y5698D01*
G01X7609Y6787D02*
G01X7609Y5698D01*
G01X7609Y6787D02*
G01X8285Y6787D01*
G01X7609Y6269D02*
G01X8026Y6269D01*
G01X7609Y5698D02*
G01X8285Y5698D01*
G01X8628Y5335D02*
G01X9563Y5335D01*
G01X9906Y6787D02*
G01X9906Y5698D01*
G01X9906Y6787D02*
G01X10373Y6787D01*
G01X10528Y6737D01*
G01X10581Y6686D01*
G01X10632Y6582D01*
G01X10632Y6478D01*
G01X10581Y6373D01*
G01X10528Y6320D01*
G01X10373Y6269D01*
G01X9906Y6269D02*
G01X10373Y6269D01*
G01X10528Y6216D01*
G01X10581Y6165D01*
G01X10632Y6061D01*
G01X10632Y5906D01*
G01X10581Y5802D01*
G01X10528Y5749D01*
G01X10373Y5698D01*
G01X9906Y5698D01*
G01X11341Y6787D02*
G01X11341Y5698D01*
G01X10975Y6787D02*
G01X11704Y6787D01*
G01X12047Y6787D02*
G01X12047Y5698D01*
G01X12047Y6787D02*
G01X12773Y5698D01*
G01X12773Y6787D02*
G01X12773Y5698D01*
G01X16129Y6787D02*
G01X16129Y5698D01*
G01X16129Y6787D02*
G01X16596Y6787D01*
G01X16751Y6737D01*
G01X16804Y6686D01*
G01X16855Y6582D01*
G01X16855Y6424D01*
G01X16804Y6320D01*
G01X16751Y6269D01*
G01X16596Y6216D01*
G01X16129Y6216D01*
G01X17510Y6787D02*
G01X17406Y6737D01*
G01X17302Y6633D01*
G01X17251Y6528D01*
G01X17198Y6373D01*
G01X17198Y6114D01*
G01X17251Y5957D01*
G01X17302Y5853D01*
G01X17406Y5749D01*
G01X17510Y5698D01*
G01X17719Y5698D01*
G01X17823Y5749D01*
G01X17927Y5853D01*
G01X17978Y5957D01*
G01X18031Y6114D01*
G01X18031Y6373D01*
G01X17978Y6528D01*
G01X17927Y6633D01*
G01X17823Y6737D01*
G01X17719Y6787D01*
G01X17510Y6787D01*
G01X18737Y6787D02*
G01X18737Y5698D01*
G01X18374Y6787D02*
G01X19100Y6787D01*
G01X19443Y5335D02*
G01X20378Y5335D01*
G01X20721Y6787D02*
G01X20721Y5698D01*
G01X21064Y6787D02*
G01X21064Y5698D01*
G01X21064Y6787D02*
G01X21793Y5698D01*
G01X21793Y6787D02*
G01X21793Y5698D01*
G01X25273Y6533D02*
G01X25273Y5444D01*
G01X25273Y6533D02*
G01X25740Y6533D01*
G01X25895Y6483D01*
G01X25948Y6432D01*
G01X25999Y6328D01*
G01X25999Y6170D01*
G01X25948Y6066D01*
G01X25895Y6015D01*
G01X25740Y5962D01*
G01X25273Y5962D01*
G01X26654Y6533D02*
G01X26550Y6483D01*
G01X26446Y6379D01*
G01X26395Y6274D01*
G01X26342Y6119D01*
G01X26342Y5860D01*
G01X26395Y5703D01*
G01X26446Y5599D01*
G01X26550Y5495D01*
G01X26654Y5444D01*
G01X26863Y5444D01*
G01X26967Y5495D01*
G01X27071Y5599D01*
G01X27122Y5703D01*
G01X27175Y5860D01*
G01X27175Y6119D01*
G01X27122Y6274D01*
G01X27071Y6379D01*
G01X26967Y6483D01*
G01X26863Y6533D01*
G01X26654Y6533D01*
G01X27881Y6533D02*
G01X27881Y5444D01*
G01X27518Y6533D02*
G01X28244Y6533D01*
G01X28587Y5081D02*
G01X29522Y5081D01*
G01X30177Y6533D02*
G01X30073Y6483D01*
G01X29969Y6379D01*
G01X29918Y6274D01*
G01X29865Y6119D01*
G01X29865Y5860D01*
G01X29918Y5703D01*
G01X29969Y5599D01*
G01X30073Y5495D01*
G01X30177Y5444D01*
G01X30386Y5444D01*
G01X30490Y5495D01*
G01X30594Y5599D01*
G01X30645Y5703D01*
G01X30695Y5860D01*
G01X30695Y6119D01*
G01X30645Y6274D01*
G01X30594Y6379D01*
G01X30490Y6483D01*
G01X30386Y6533D01*
G01X30177Y6533D01*
G01X31038Y6533D02*
G01X31038Y5756D01*
G01X31092Y5599D01*
G01X31196Y5495D01*
G01X31351Y5444D01*
G01X31455Y5444D01*
G01X31610Y5495D01*
G01X31714Y5599D01*
G01X31767Y5756D01*
G01X31767Y6533D01*
G01X32473Y6533D02*
G01X32473Y5444D01*
G01X32110Y6533D02*
G01X32837Y6533D01*
G01X38862Y6394D02*
G01X38862Y5304D01*
G01X38862Y6394D02*
G01X39225Y6394D01*
G01X39382Y6343D01*
G01X39484Y6239D01*
G01X39537Y6135D01*
G01X39588Y5980D01*
G01X39588Y5721D01*
G01X39537Y5563D01*
G01X39484Y5459D01*
G01X39382Y5355D01*
G01X39225Y5304D01*
G01X38862Y5304D01*
G01X39931Y6394D02*
G01X39931Y5304D01*
G01X41003Y6239D02*
G01X40899Y6343D01*
G01X40741Y6394D01*
G01X40535Y6394D01*
G01X40378Y6343D01*
G01X40274Y6239D01*
G01X40274Y6135D01*
G01X40327Y6031D01*
G01X40378Y5980D01*
G01X40482Y5926D01*
G01X40794Y5822D01*
G01X40899Y5771D01*
G01X40949Y5721D01*
G01X41003Y5617D01*
G01X41003Y5459D01*
G01X40899Y5355D01*
G01X40741Y5304D01*
G01X40535Y5304D01*
G01X40378Y5355D01*
G01X40274Y5459D01*
G01X41346Y6394D02*
G01X41346Y5304D01*
G01X41346Y6394D02*
G01X41813Y6394D01*
G01X41968Y6343D01*
G01X42021Y6292D01*
G01X42072Y6188D01*
G01X42072Y6031D01*
G01X42021Y5926D01*
G01X41968Y5876D01*
G01X41813Y5822D01*
G01X41346Y5822D01*
G01X14785Y29889D02*
G01X15874Y29472D01*
G01X14785Y29889D02*
G01X15874Y30303D01*
G01X15511Y29627D02*
G01X15511Y30148D01*
G01X15148Y30646D02*
G01X15874Y30646D01*
G01X15458Y30646D02*
G01X15303Y30699D01*
G01X15199Y30803D01*
G01X15148Y30907D01*
G01X15148Y31062D01*
G01X14785Y32028D02*
G01X15874Y32028D01*
G01X15303Y32028D02*
G01X15199Y31923D01*
G01X15148Y31822D01*
G01X15148Y31664D01*
G01X15199Y31560D01*
G01X15303Y31456D01*
G01X15458Y31405D01*
G01X15562Y31405D01*
G01X15720Y31456D01*
G01X15824Y31560D01*
G01X15874Y31664D01*
G01X15874Y31822D01*
G01X15824Y31923D01*
G01X15720Y32028D01*
G01X15148Y32370D02*
G01X15666Y32370D01*
G01X15824Y32424D01*
G01X15874Y32528D01*
G01X15874Y32683D01*
G01X15824Y32787D01*
G01X15666Y32942D01*
G01X15148Y32942D02*
G01X15874Y32942D01*
G01X14785Y33285D02*
G01X14836Y33338D01*
G01X14785Y33389D01*
G01X14731Y33338D01*
G01X14785Y33285D01*
G01X15148Y33338D02*
G01X15874Y33338D01*
G01X15148Y33732D02*
G01X15874Y33732D01*
G01X15356Y33732D02*
G01X15199Y33889D01*
G01X15148Y33993D01*
G01X15148Y34148D01*
G01X15199Y34253D01*
G01X15356Y34303D01*
G01X15874Y34303D01*
G01X15148Y34908D02*
G01X15199Y34804D01*
G01X15303Y34700D01*
G01X15458Y34646D01*
G01X15562Y34646D01*
G01X15720Y34700D01*
G01X15824Y34804D01*
G01X15874Y34908D01*
G01X15874Y35063D01*
G01X15824Y35167D01*
G01X15720Y35271D01*
G01X15562Y35322D01*
G01X15458Y35322D01*
G01X15303Y35271D01*
G01X15199Y35167D01*
G01X15148Y35063D01*
G01X15148Y34908D01*
G01X16238Y35665D02*
G01X16238Y36600D01*
G01X14785Y36942D02*
G01X15874Y36942D01*
G01X14785Y36942D02*
G01X15874Y37671D01*
G01X14785Y37671D02*
G01X15874Y37671D01*
G01X15148Y38637D02*
G01X15874Y38637D01*
G01X15303Y38637D02*
G01X15199Y38532D01*
G01X15148Y38428D01*
G01X15148Y38273D01*
G01X15199Y38169D01*
G01X15303Y38065D01*
G01X15458Y38014D01*
G01X15562Y38014D01*
G01X15720Y38065D01*
G01X15824Y38169D01*
G01X15874Y38273D01*
G01X15874Y38428D01*
G01X15824Y38532D01*
G01X15720Y38637D01*
G01X15148Y38979D02*
G01X15874Y38979D01*
G01X15356Y38979D02*
G01X15199Y39137D01*
G01X15148Y39239D01*
G01X15148Y39396D01*
G01X15199Y39500D01*
G01X15356Y39551D01*
G01X15874Y39551D01*
G01X15148Y40153D02*
G01X15199Y40051D01*
G01X15303Y39947D01*
G01X15458Y39894D01*
G01X15562Y39894D01*
G01X15720Y39947D01*
G01X15824Y40051D01*
G01X15874Y40153D01*
G01X15874Y40310D01*
G01X15824Y40415D01*
G01X15720Y40519D01*
G01X15562Y40570D01*
G01X15458Y40570D01*
G01X15303Y40519D01*
G01X15199Y40415D01*
G01X15148Y40310D01*
G01X15148Y40153D01*
G01X38100Y43198D02*
G01X39189Y43198D01*
G01X38100Y43198D02*
G01X38100Y43562D01*
G01X38150Y43719D01*
G01X38254Y43821D01*
G01X38359Y43874D01*
G01X38514Y43925D01*
G01X38775Y43925D01*
G01X38930Y43874D01*
G01X39034Y43821D01*
G01X39138Y43719D01*
G01X39189Y43562D01*
G01X39189Y43198D01*
G01X38359Y45048D02*
G01X38254Y44997D01*
G01X38150Y44893D01*
G01X38100Y44788D01*
G01X38100Y44580D01*
G01X38150Y44476D01*
G01X38254Y44372D01*
G01X38359Y44321D01*
G01X38514Y44268D01*
G01X38775Y44268D01*
G01X38930Y44321D01*
G01X39034Y44372D01*
G01X39138Y44476D01*
G01X39189Y44580D01*
G01X39189Y44788D01*
G01X39138Y44893D01*
G01X39034Y44997D01*
G01X38930Y45048D01*
G01X38308Y45390D02*
G01X38254Y45495D01*
G01X38100Y45650D01*
G01X39189Y45650D01*
G01X29591Y35235D02*
G01X29591Y34146D01*
G01X29591Y35235D02*
G01X30058Y35235D01*
G01X30213Y35185D01*
G01X30266Y35134D01*
G01X30317Y35030D01*
G01X30317Y34872D01*
G01X30266Y34768D01*
G01X30213Y34717D01*
G01X30058Y34664D01*
G01X29591Y34664D01*
G01X30660Y35235D02*
G01X30921Y34146D01*
G01X31181Y35235D02*
G01X30921Y34146D01*
G01X31181Y35235D02*
G01X31440Y34146D01*
G01X31699Y35235D02*
G01X31440Y34146D01*
G01X32042Y35235D02*
G01X32042Y34146D01*
G01X32042Y35235D02*
G01X32512Y35235D01*
G01X32666Y35185D01*
G01X32717Y35134D01*
G01X32771Y35030D01*
G01X32771Y34926D01*
G01X32717Y34821D01*
G01X32666Y34768D01*
G01X32512Y34717D01*
G01X32042Y34717D01*
G01X32407Y34717D02*
G01X32771Y34146D01*
G01X33113Y33783D02*
G01X34048Y33783D01*
G01X35118Y35081D02*
G01X35013Y35185D01*
G01X34858Y35235D01*
G01X34650Y35235D01*
G01X34495Y35185D01*
G01X34391Y35081D01*
G01X34391Y34976D01*
G01X34442Y34872D01*
G01X34495Y34821D01*
G01X34599Y34768D01*
G01X34912Y34664D01*
G01X35013Y34613D01*
G01X35067Y34562D01*
G01X35118Y34458D01*
G01X35118Y34301D01*
G01X35013Y34197D01*
G01X34858Y34146D01*
G01X34650Y34146D01*
G01X34495Y34197D01*
G01X34391Y34301D01*
G01X35460Y35235D02*
G01X35722Y34146D01*
G01X35981Y35235D02*
G01X35722Y34146D01*
G01X35981Y35235D02*
G01X36240Y34146D01*
G01X36499Y35235D02*
G01X36240Y34146D01*
G01X39243Y9823D02*
G01X39243Y8733D01*
G01X39243Y9823D02*
G01X39659Y8733D01*
G01X40073Y9823D02*
G01X39659Y8733D01*
G01X40073Y9823D02*
G01X40073Y8733D01*
G01X40416Y9823D02*
G01X40416Y8733D01*
G01X40759Y9823D02*
G01X40759Y8733D01*
G01X40759Y9823D02*
G01X41122Y9823D01*
G01X41280Y9772D01*
G01X41384Y9668D01*
G01X41435Y9564D01*
G01X41488Y9409D01*
G01X41488Y9150D01*
G01X41435Y8992D01*
G01X41384Y8888D01*
G01X41280Y8784D01*
G01X41122Y8733D01*
G01X40759Y8733D01*
G01X41831Y9823D02*
G01X41831Y8733D01*
G01X42174Y8370D02*
G01X43108Y8370D01*
G01X43451Y9823D02*
G01X43451Y8733D01*
G01X43451Y9823D02*
G01X43815Y9823D01*
G01X43969Y9772D01*
G01X44074Y9668D01*
G01X44127Y9564D01*
G01X44178Y9409D01*
G01X44178Y9150D01*
G01X44127Y8992D01*
G01X44074Y8888D01*
G01X43969Y8784D01*
G01X43815Y8733D01*
G01X43451Y8733D01*
G01X44521Y9823D02*
G01X44521Y8733D01*
G01X45593Y9668D02*
G01X45488Y9772D01*
G01X45331Y9823D01*
G01X45123Y9823D01*
G01X44968Y9772D01*
G01X44864Y9668D01*
G01X44864Y9564D01*
G01X44917Y9460D01*
G01X44968Y9409D01*
G01X45072Y9355D01*
G01X45384Y9251D01*
G01X45488Y9200D01*
G01X45539Y9150D01*
G01X45593Y9046D01*
G01X45593Y8888D01*
G01X45488Y8784D01*
G01X45331Y8733D01*
G01X45123Y8733D01*
G01X44968Y8784D01*
G01X44864Y8888D01*
G01X46349Y9823D02*
G01X45935Y8733D01*
G01X46349Y9823D02*
G01X46766Y8733D01*
G01X46090Y9096D02*
G01X46609Y9096D01*
G01X47109Y9823D02*
G01X47109Y8733D01*
G01X47109Y9823D02*
G01X47576Y9823D01*
G01X47731Y9772D01*
G01X47785Y9721D01*
G01X47835Y9617D01*
G01X47835Y9513D01*
G01X47785Y9409D01*
G01X47731Y9355D01*
G01X47576Y9305D01*
G01X47109Y9305D02*
G01X47576Y9305D01*
G01X47731Y9251D01*
G01X47785Y9200D01*
G01X47835Y9096D01*
G01X47835Y8941D01*
G01X47785Y8837D01*
G01X47731Y8784D01*
G01X47576Y8733D01*
G01X47109Y8733D01*
G01X48178Y9823D02*
G01X48178Y8733D01*
G01X48178Y8733D02*
G01X48803Y8733D01*
G01X49146Y9823D02*
G01X49146Y8733D01*
G01X49146Y9823D02*
G01X49822Y9823D01*
G01X49146Y9305D02*
G01X49560Y9305D01*
G01X49146Y8733D02*
G01X49822Y8733D01*
G01X50165Y8370D02*
G01X51099Y8370D01*
G01X52169Y9668D02*
G01X52064Y9772D01*
G01X51909Y9823D01*
G01X51701Y9823D01*
G01X51546Y9772D01*
G01X51442Y9668D01*
G01X51442Y9564D01*
G01X51493Y9460D01*
G01X51546Y9409D01*
G01X51650Y9355D01*
G01X51960Y9251D01*
G01X52064Y9200D01*
G01X52118Y9150D01*
G01X52169Y9046D01*
G01X52169Y8888D01*
G01X52064Y8784D01*
G01X51909Y8733D01*
G01X51701Y8733D01*
G01X51546Y8784D01*
G01X51442Y8888D01*
G01X52511Y9823D02*
G01X52771Y8733D01*
G01X53032Y9823D02*
G01X52771Y8733D01*
G01X53032Y9823D02*
G01X53291Y8733D01*
G01X53550Y9823D02*
G01X53291Y8733D01*
G54D25*
G01X57195Y7102D02*
G01X57152Y7194D01*
G01X57061Y7285D01*
G01X56969Y7331D01*
G01X56786Y7331D01*
G01X56697Y7285D01*
G01X56606Y7194D01*
G01X56560Y7102D01*
G01X56515Y6968D01*
G01X56515Y6739D01*
G01X56560Y6602D01*
G01X56606Y6513D01*
G01X56697Y6422D01*
G01X56786Y6376D01*
G01X56969Y6376D01*
G01X57061Y6422D01*
G01X57152Y6513D01*
G01X57195Y6602D01*
G01X57497Y7011D02*
G01X57497Y6376D01*
G01X57497Y6739D02*
G01X57541Y6876D01*
G01X57632Y6968D01*
G01X57724Y7011D01*
G01X57861Y7011D01*
G01X58160Y6739D02*
G01X58707Y6739D01*
G01X58707Y6831D01*
G01X58661Y6922D01*
G01X58615Y6968D01*
G01X58524Y7011D01*
G01X58386Y7011D01*
G01X58298Y6968D01*
G01X58206Y6876D01*
G01X58160Y6739D01*
G01X58160Y6648D01*
G01X58206Y6513D01*
G01X58298Y6422D01*
G01X58386Y6376D01*
G01X58524Y6376D01*
G01X58615Y6422D01*
G01X58707Y6513D01*
G01X59550Y7011D02*
G01X59550Y6376D01*
G01X59550Y6876D02*
G01X59461Y6968D01*
G01X59369Y7011D01*
G01X59232Y7011D01*
G01X59141Y6968D01*
G01X59052Y6876D01*
G01X59006Y6739D01*
G01X59006Y6648D01*
G01X59052Y6513D01*
G01X59141Y6422D01*
G01X59232Y6376D01*
G01X59369Y6376D01*
G01X59461Y6422D01*
G01X59550Y6513D01*
G01X59987Y7331D02*
G01X59987Y6559D01*
G01X60032Y6422D01*
G01X60124Y6376D01*
G01X60215Y6376D01*
G01X59852Y7011D02*
G01X60170Y7011D01*
G01X60515Y6739D02*
G01X61061Y6739D01*
G01X61061Y6831D01*
G01X61015Y6922D01*
G01X60970Y6968D01*
G01X60878Y7011D01*
G01X60741Y7011D01*
G01X60650Y6968D01*
G01X60561Y6876D01*
G01X60515Y6739D01*
G01X60515Y6648D01*
G01X60561Y6513D01*
G01X60650Y6422D01*
G01X60741Y6376D01*
G01X60878Y6376D01*
G01X60970Y6422D01*
G01X61061Y6513D01*
G01X61904Y7331D02*
G01X61904Y6376D01*
G01X61904Y6876D02*
G01X61815Y6968D01*
G01X61724Y7011D01*
G01X61587Y7011D01*
G01X61495Y6968D01*
G01X61407Y6876D01*
G01X61361Y6739D01*
G01X61361Y6648D01*
G01X61407Y6513D01*
G01X61495Y6422D01*
G01X61587Y6376D01*
G01X61724Y6376D01*
G01X61815Y6422D01*
G01X61904Y6513D01*
G01X62905Y7331D02*
G01X62905Y6376D01*
G01X62905Y7331D02*
G01X63314Y7331D01*
G01X63451Y7285D01*
G01X63497Y7240D01*
G01X63543Y7148D01*
G01X63543Y7057D01*
G01X63497Y6968D01*
G01X63451Y6922D01*
G01X63314Y6876D01*
G01X62905Y6876D02*
G01X63314Y6876D01*
G01X63451Y6831D01*
G01X63497Y6785D01*
G01X63543Y6693D01*
G01X63543Y6559D01*
G01X63497Y6467D01*
G01X63451Y6422D01*
G01X63314Y6376D01*
G01X62905Y6376D01*
G01X63888Y7011D02*
G01X64160Y6376D01*
G01X64432Y7011D02*
G01X64160Y6376D01*
G01X64068Y6193D01*
G01X63977Y6104D01*
G01X63888Y6058D01*
G01X63842Y6058D01*
G01X64777Y6922D02*
G01X64734Y6876D01*
G01X64777Y6831D01*
G01X64823Y6876D01*
G01X64777Y6922D01*
G01X64777Y6602D02*
G01X64734Y6559D01*
G01X64777Y6513D01*
G01X64823Y6559D01*
G01X64777Y6602D01*
G01X66278Y7331D02*
G01X66278Y6602D01*
G01X66233Y6467D01*
G01X66187Y6422D01*
G01X66095Y6376D01*
G01X66006Y6376D01*
G01X65915Y6422D01*
G01X65869Y6467D01*
G01X65824Y6602D01*
G01X65824Y6693D01*
G01X67124Y7011D02*
G01X67124Y6376D01*
G01X67124Y6876D02*
G01X67033Y6968D01*
G01X66941Y7011D01*
G01X66807Y7011D01*
G01X66715Y6968D01*
G01X66624Y6876D01*
G01X66578Y6739D01*
G01X66578Y6648D01*
G01X66624Y6513D01*
G01X66715Y6422D01*
G01X66807Y6376D01*
G01X66941Y6376D01*
G01X67033Y6422D01*
G01X67124Y6513D01*
G01X67970Y6876D02*
G01X67878Y6968D01*
G01X67787Y7011D01*
G01X67650Y7011D01*
G01X67561Y6968D01*
G01X67470Y6876D01*
G01X67424Y6739D01*
G01X67424Y6648D01*
G01X67470Y6513D01*
G01X67561Y6422D01*
G01X67650Y6376D01*
G01X67787Y6376D01*
G01X67878Y6422D01*
G01X67970Y6513D01*
G01X68496Y7011D02*
G01X68404Y6968D01*
G01X68315Y6876D01*
G01X68270Y6739D01*
G01X68270Y6648D01*
G01X68315Y6513D01*
G01X68404Y6422D01*
G01X68496Y6376D01*
G01X68633Y6376D01*
G01X68724Y6422D01*
G01X68816Y6513D01*
G01X68859Y6648D01*
G01X68859Y6739D01*
G01X68816Y6876D01*
G01X68724Y6968D01*
G01X68633Y7011D01*
G01X68496Y7011D01*
G01X69161Y7331D02*
G01X69161Y6376D01*
G01X69161Y6876D02*
G01X69250Y6968D01*
G01X69342Y7011D01*
G01X69479Y7011D01*
G01X69570Y6968D01*
G01X69659Y6876D01*
G01X69705Y6739D01*
G01X69705Y6648D01*
G01X69659Y6513D01*
G01X69570Y6422D01*
G01X69479Y6376D01*
G01X69342Y6376D01*
G01X69250Y6422D01*
G01X69161Y6513D01*
G01X70705Y7331D02*
G01X70705Y6376D01*
G01X70705Y7331D02*
G01X71114Y7331D01*
G01X71252Y7285D01*
G01X71297Y7240D01*
G01X71343Y7148D01*
G01X71343Y7057D01*
G01X71297Y6968D01*
G01X71252Y6922D01*
G01X71114Y6876D01*
G01X70705Y6876D02*
G01X71114Y6876D01*
G01X71252Y6831D01*
G01X71297Y6785D01*
G01X71343Y6693D01*
G01X71343Y6559D01*
G01X71297Y6467D01*
G01X71252Y6422D01*
G01X71114Y6376D01*
G01X70705Y6376D01*
G01X72186Y7011D02*
G01X72186Y6376D01*
G01X72186Y6876D02*
G01X72097Y6968D01*
G01X72006Y7011D01*
G01X71869Y7011D01*
G01X71777Y6968D01*
G01X71688Y6876D01*
G01X71643Y6739D01*
G01X71643Y6648D01*
G01X71688Y6513D01*
G01X71777Y6422D01*
G01X71869Y6376D01*
G01X72006Y6376D01*
G01X72097Y6422D01*
G01X72186Y6513D01*
G01X72623Y7331D02*
G01X72623Y6559D01*
G01X72669Y6422D01*
G01X72760Y6376D01*
G01X72852Y6376D01*
G01X72486Y7011D02*
G01X72806Y7011D01*
G01X73152Y6739D02*
G01X73695Y6739D01*
G01X73695Y6831D01*
G01X73652Y6922D01*
G01X73606Y6968D01*
G01X73515Y7011D01*
G01X73378Y7011D01*
G01X73286Y6968D01*
G01X73197Y6876D01*
G01X73152Y6739D01*
G01X73152Y6648D01*
G01X73197Y6513D01*
G01X73286Y6422D01*
G01X73378Y6376D01*
G01X73515Y6376D01*
G01X73606Y6422D01*
G01X73695Y6513D01*
G01X74495Y6876D02*
G01X74452Y6968D01*
G01X74315Y7011D01*
G01X74178Y7011D01*
G01X74043Y6968D01*
G01X73997Y6876D01*
G01X74043Y6785D01*
G01X74132Y6739D01*
G01X74361Y6693D01*
G01X74452Y6648D01*
G01X74495Y6559D01*
G01X74495Y6513D01*
G01X74452Y6422D01*
G01X74315Y6376D01*
G01X74178Y6376D01*
G01X74043Y6422D01*
G01X73997Y6513D01*
G01X76405Y6922D02*
G01X76405Y6968D01*
G01X76360Y7011D01*
G01X76314Y7011D01*
G01X76268Y6968D01*
G01X76222Y6876D01*
G01X76133Y6648D01*
G01X76042Y6513D01*
G01X75951Y6422D01*
G01X75859Y6376D01*
G01X75679Y6376D01*
G01X75587Y6422D01*
G01X75542Y6467D01*
G01X75496Y6559D01*
G01X75496Y6648D01*
G01X75542Y6739D01*
G01X75587Y6785D01*
G01X75905Y6968D01*
G01X75951Y7011D01*
G01X75996Y7102D01*
G01X75996Y7194D01*
G01X75951Y7285D01*
G01X75859Y7331D01*
G01X75770Y7285D01*
G01X75725Y7194D01*
G01X75725Y7102D01*
G01X75770Y6968D01*
G01X75859Y6831D01*
G01X76088Y6513D01*
G01X76179Y6422D01*
G01X76268Y6376D01*
G01X76360Y6376D01*
G01X76405Y6422D01*
G01X76405Y6467D01*
G01X78041Y7331D02*
G01X77406Y6376D01*
G01X77406Y7331D02*
G01X78041Y7331D01*
G01X77406Y6376D02*
G01X78041Y6376D01*
G01X78887Y7011D02*
G01X78887Y6376D01*
G01X78887Y6876D02*
G01X78795Y6968D01*
G01X78706Y7011D01*
G01X78569Y7011D01*
G01X78478Y6968D01*
G01X78386Y6876D01*
G01X78341Y6739D01*
G01X78341Y6648D01*
G01X78386Y6513D01*
G01X78478Y6422D01*
G01X78569Y6376D01*
G01X78706Y6376D01*
G01X78795Y6422D01*
G01X78887Y6513D01*
G01X79733Y6876D02*
G01X79641Y6968D01*
G01X79550Y7011D01*
G01X79415Y7011D01*
G01X79324Y6968D01*
G01X79232Y6876D01*
G01X79187Y6739D01*
G01X79187Y6648D01*
G01X79232Y6513D01*
G01X79324Y6422D01*
G01X79415Y6376D01*
G01X79550Y6376D01*
G01X79641Y6422D01*
G01X79733Y6513D01*
G01X80032Y7331D02*
G01X80032Y6376D01*
G01X80032Y6831D02*
G01X80170Y6968D01*
G01X80261Y7011D01*
G01X80396Y7011D01*
G01X80487Y6968D01*
G01X80533Y6831D01*
G01X80533Y6376D01*
G01X81534Y7331D02*
G01X81534Y6376D01*
G01X81534Y7331D02*
G01X81942Y7331D01*
G01X82077Y7285D01*
G01X82123Y7240D01*
G01X82169Y7148D01*
G01X82169Y7057D01*
G01X82123Y6968D01*
G01X82077Y6922D01*
G01X81942Y6876D01*
G01X81534Y6876D02*
G01X81942Y6876D01*
G01X82077Y6831D01*
G01X82123Y6785D01*
G01X82169Y6693D01*
G01X82169Y6559D01*
G01X82123Y6467D01*
G01X82077Y6422D01*
G01X81942Y6376D01*
G01X81534Y6376D01*
G01X82468Y6739D02*
G01X83014Y6739D01*
G01X83014Y6831D01*
G01X82969Y6922D01*
G01X82923Y6968D01*
G01X82831Y7011D01*
G01X82697Y7011D01*
G01X82605Y6968D01*
G01X82514Y6876D01*
G01X82468Y6739D01*
G01X82468Y6648D01*
G01X82514Y6513D01*
G01X82605Y6422D01*
G01X82697Y6376D01*
G01X82831Y6376D01*
G01X82923Y6422D01*
G01X83014Y6513D01*
G01X83314Y7011D02*
G01X83314Y6376D01*
G01X83314Y6739D02*
G01X83360Y6876D01*
G01X83451Y6968D01*
G01X83543Y7011D01*
G01X83677Y7011D01*
G01X83977Y7011D02*
G01X83977Y6376D01*
G01X83977Y6739D02*
G01X84023Y6876D01*
G01X84114Y6968D01*
G01X84206Y7011D01*
G01X84343Y7011D01*
G01X84688Y7011D02*
G01X84960Y6376D01*
G01X85232Y7011D02*
G01X84960Y6376D01*
G01X84869Y6193D01*
G01X84777Y6104D01*
G01X84688Y6058D01*
G01X84642Y6058D01*
G01X56515Y10851D02*
G01X56515Y8913D01*
G01X56515Y10851D02*
G01X57254Y8913D01*
G01X57993Y10851D02*
G01X57254Y8913D01*
G01X57993Y10851D02*
G01X57993Y8913D01*
G01X58602Y10851D02*
G01X58602Y8913D01*
G01X59212Y10851D02*
G01X59212Y8913D01*
G01X59212Y10851D02*
G01X59857Y10851D01*
G01X60134Y10760D01*
G01X60319Y10575D01*
G01X60413Y10392D01*
G01X60505Y10112D01*
G01X60505Y9653D01*
G01X60413Y9376D01*
G01X60319Y9190D01*
G01X60134Y9005D01*
G01X59857Y8913D01*
G01X59212Y8913D01*
G01X61114Y10851D02*
G01X61114Y8913D01*
G01X64531Y10392D02*
G01X64439Y10575D01*
G01X64254Y10760D01*
G01X64071Y10851D01*
G01X63700Y10851D01*
G01X63515Y10760D01*
G01X63332Y10575D01*
G01X63238Y10392D01*
G01X63146Y10112D01*
G01X63146Y9653D01*
G01X63238Y9376D01*
G01X63332Y9190D01*
G01X63515Y9005D01*
G01X63700Y8913D01*
G01X64071Y8913D01*
G01X64254Y9005D01*
G01X64439Y9190D01*
G01X64531Y9376D01*
G01X65140Y10851D02*
G01X65140Y8913D01*
G01X65140Y9835D02*
G01X65417Y10112D01*
G01X65603Y10206D01*
G01X65879Y10206D01*
G01X66065Y10112D01*
G01X66156Y9835D01*
G01X66156Y8913D01*
G01X67876Y10206D02*
G01X67876Y8913D01*
G01X67876Y9929D02*
G01X67691Y10112D01*
G01X67505Y10206D01*
G01X67228Y10206D01*
G01X67043Y10112D01*
G01X66860Y9929D01*
G01X66766Y9653D01*
G01X66766Y9467D01*
G01X66860Y9190D01*
G01X67043Y9005D01*
G01X67228Y8913D01*
G01X67505Y8913D01*
G01X67691Y9005D01*
G01X67876Y9190D01*
G01X68486Y10206D02*
G01X68486Y8913D01*
G01X68486Y9835D02*
G01X68762Y10112D01*
G01X68948Y10206D01*
G01X69225Y10206D01*
G01X69408Y10112D01*
G01X69502Y9835D01*
G01X69502Y8913D01*
G01X70111Y10206D02*
G01X70111Y8913D01*
G01X70111Y9835D02*
G01X70388Y10112D01*
G01X70573Y10206D01*
G01X70850Y10206D01*
G01X71033Y10112D01*
G01X71127Y9835D01*
G01X71127Y8913D01*
G01X71737Y9653D02*
G01X72844Y9653D01*
G01X72844Y9835D01*
G01X72753Y10021D01*
G01X72659Y10112D01*
G01X72476Y10206D01*
G01X72199Y10206D01*
G01X72014Y10112D01*
G01X71828Y9929D01*
G01X71737Y9653D01*
G01X71737Y9467D01*
G01X71828Y9190D01*
G01X72014Y9005D01*
G01X72199Y8913D01*
G01X72476Y8913D01*
G01X72659Y9005D01*
G01X72844Y9190D01*
G01X73454Y10851D02*
G01X73454Y8913D01*
G01X75486Y10851D02*
G01X75486Y8913D01*
G01X75486Y10851D02*
G01X76225Y8913D01*
G01X76964Y10851D02*
G01X76225Y8913D01*
G01X76964Y10851D02*
G01X76964Y8913D01*
G01X78681Y10206D02*
G01X78681Y8913D01*
G01X78681Y9929D02*
G01X78498Y10112D01*
G01X78313Y10206D01*
G01X78036Y10206D01*
G01X77851Y10112D01*
G01X77665Y9929D01*
G01X77574Y9653D01*
G01X77574Y9467D01*
G01X77665Y9190D01*
G01X77851Y9005D01*
G01X78036Y8913D01*
G01X78313Y8913D01*
G01X78498Y9005D01*
G01X78681Y9190D01*
G01X79291Y10206D02*
G01X79291Y8266D01*
G01X79291Y9929D02*
G01X79476Y10112D01*
G01X79662Y10206D01*
G01X79938Y10206D01*
G01X80124Y10112D01*
G01X80307Y9929D01*
G01X80401Y9653D01*
G01X80401Y9467D01*
G01X80307Y9190D01*
G01X80124Y9005D01*
G01X79938Y8913D01*
G01X79662Y8913D01*
G01X79476Y9005D01*
G01X79291Y9190D01*
G01X81010Y10206D02*
G01X81010Y8266D01*
G01X81010Y9929D02*
G01X81193Y10112D01*
G01X81379Y10206D01*
G01X81655Y10206D01*
G01X81841Y10112D01*
G01X82026Y9929D01*
G01X82118Y9653D01*
G01X82118Y9467D01*
G01X82026Y9190D01*
G01X81841Y9005D01*
G01X81655Y8913D01*
G01X81379Y8913D01*
G01X81193Y9005D01*
G01X81010Y9190D01*
G01X82727Y9653D02*
G01X83835Y9653D01*
G01X83835Y9835D01*
G01X83743Y10021D01*
G01X83652Y10112D01*
G01X83466Y10206D01*
G01X83190Y10206D01*
G01X83004Y10112D01*
G01X82819Y9929D01*
G01X82727Y9653D01*
G01X82727Y9467D01*
G01X82819Y9190D01*
G01X83004Y9005D01*
G01X83190Y8913D01*
G01X83466Y8913D01*
G01X83652Y9005D01*
G01X83835Y9190D01*
G01X84444Y10206D02*
G01X84444Y8913D01*
G01X84444Y9653D02*
G01X84538Y9929D01*
G01X84721Y10112D01*
G01X84907Y10206D01*
G01X85183Y10206D01*
G01X56515Y2508D02*
G01X56515Y1553D01*
G01X56515Y2508D02*
G01X56923Y2508D01*
G01X57061Y2462D01*
G01X57106Y2416D01*
G01X57152Y2325D01*
G01X57152Y2233D01*
G01X57106Y2144D01*
G01X57061Y2099D01*
G01X56923Y2053D01*
G01X56515Y2053D01*
G01X56832Y2053D02*
G01X57152Y1553D01*
G01X57452Y1916D02*
G01X57995Y1916D01*
G01X57995Y2007D01*
G01X57950Y2099D01*
G01X57906Y2144D01*
G01X57815Y2188D01*
G01X57678Y2188D01*
G01X57586Y2144D01*
G01X57497Y2053D01*
G01X57452Y1916D01*
G01X57452Y1824D01*
G01X57497Y1690D01*
G01X57586Y1598D01*
G01X57678Y1553D01*
G01X57815Y1553D01*
G01X57906Y1598D01*
G01X57995Y1690D01*
G01X58298Y2188D02*
G01X58569Y1553D01*
G01X58841Y2188D02*
G01X58569Y1553D01*
G01X59141Y2508D02*
G01X59187Y2462D01*
G01X59232Y2508D01*
G01X59187Y2553D01*
G01X59141Y2508D01*
G01X59187Y2188D02*
G01X59187Y1553D01*
G01X60032Y2053D02*
G01X59987Y2144D01*
G01X59852Y2188D01*
G01X59715Y2188D01*
G01X59578Y2144D01*
G01X59532Y2053D01*
G01X59578Y1961D01*
G01X59669Y1916D01*
G01X59895Y1870D01*
G01X59987Y1824D01*
G01X60032Y1735D01*
G01X60032Y1690D01*
G01X59987Y1598D01*
G01X59852Y1553D01*
G01X59715Y1553D01*
G01X59578Y1598D01*
G01X59532Y1690D01*
G01X60332Y2508D02*
G01X60378Y2462D01*
G01X60424Y2508D01*
G01X60378Y2553D01*
G01X60332Y2508D01*
G01X60378Y2188D02*
G01X60378Y1553D01*
G01X60952Y2188D02*
G01X60860Y2144D01*
G01X60769Y2053D01*
G01X60723Y1916D01*
G01X60723Y1824D01*
G01X60769Y1690D01*
G01X60860Y1598D01*
G01X60952Y1553D01*
G01X61087Y1553D01*
G01X61178Y1598D01*
G01X61269Y1690D01*
G01X61315Y1824D01*
G01X61315Y1916D01*
G01X61269Y2053D01*
G01X61178Y2144D01*
G01X61087Y2188D01*
G01X60952Y2188D01*
G01X61615Y2188D02*
G01X61615Y1553D01*
G01X61615Y2007D02*
G01X61752Y2144D01*
G01X61841Y2188D01*
G01X61978Y2188D01*
G01X62069Y2144D01*
G01X62115Y2007D01*
G01X62115Y1553D01*
G01X63113Y2325D02*
G01X63205Y2370D01*
G01X63342Y2508D01*
G01X63342Y1553D01*
G54D10*
G75*
G01X52959Y27108D02*
G02X50419Y27108I-1270J0D01*
G01*
G54D27*
G75*
G01X39673Y38646D02*
G03X39759Y38745I100J0D01*
G01*
G75*
G01X61263Y38646D02*
G03X61349Y38745I100J0D01*
G01*
M00*
M02*
