<svg xmlns="http://www.w3.org/2000/svg" xmlns:xlink="http://www.w3.org/1999/xlink" width="99.06mm" height="61.341mm" viewBox="4026.5 3028.5 390 241.5"><title></title><style type="text/css">
*[layerid="1"] {stroke:#FF0000;fill:#FF0000;}
*[layerid="2"] {stroke:#0000FF;fill:#0000FF;}
*[layerid="3"] {stroke:#FFCC00;fill:#FFCC00;}
*[layerid="4"] {stroke:#66CC33;fill:#66CC33;}
*[layerid="5"] {stroke:#808080;fill:#808080;}
*[layerid="6"] {stroke:#800000;fill:#800000;}
*[layerid="7"] {stroke:#800080;fill:#800080;stroke-opacity:0.7;fill-opacity:0.7;}
*[layerid="8"] {stroke:#AA00FF;fill:#AA00FF;stroke-opacity:0.7;fill-opacity:0.7;}
*[layerid="9"] {stroke:#6464FF;fill:#6464FF;}
*[layerid="10"] {stroke:#FF00FF;fill:#FF00FF;}
*[layerid="11"] {stroke:#C0C0C0;fill:#C0C0C0;}
*[layerid="12"] {stroke:#FFFFFF;fill:#FFFFFF;}
*[layerid="13"] {stroke:#33CC99;fill:#33CC99;}
*[layerid="14"] {stroke:#5555FF;fill:#5555FF;}
*[layerid="15"] {stroke:#F022F0;fill:#F022F0;}
*[layerid="21"] {stroke:#800000;fill:#800000;}
*[layerid="22"] {stroke:#008000;fill:#008000;}
*[layerid="23"] {stroke:#00FF00;fill:#00FF00;}
*[layerid="24"] {stroke:#BC8E00;fill:#BC8E00;}
*[layerid="25"] {stroke:#70DBFA;fill:#70DBFA;}
*[layerid="26"] {stroke:#00CC66;fill:#00CC66;}
*[layerid="27"] {stroke:#9966FF;fill:#9966FF;}
*[layerid="28"] {stroke:#800080;fill:#800080;}
*[layerid="29"] {stroke:#008080;fill:#008080;}
*[layerid="30"] {stroke:#15935F;fill:#15935F;}
*[layerid="31"] {stroke:#000080;fill:#000080;}
*[layerid="32"] {stroke:#00B400;fill:#00B400;}
*[layerid="33"] {stroke:#2E4756;fill:#2E4756;}
*[layerid="34"] {stroke:#99842F;fill:#99842F;}
*[layerid="35"] {stroke:#FFFFAA;fill:#FFFFAA;}
*[layerid="36"] {stroke:#99842F;fill:#99842F;}
*[layerid="37"] {stroke:#2E4756;fill:#2E4756;}
*[layerid="38"] {stroke:#3535FF;fill:#3535FF;}
*[layerid="39"] {stroke:#8000BC;fill:#8000BC;}
*[layerid="40"] {stroke:#43AE5F;fill:#43AE5F;}
*[layerid="41"] {stroke:#C3ECCE;fill:#C3ECCE;}
*[layerid="42"] {stroke:#728978;fill:#728978;}
*[layerid="43"] {stroke:#39503F;fill:#39503F;}
*[layerid="44"] {stroke:#0C715D;fill:#0C715D;}
*[layerid="45"] {stroke:#5A8A80;fill:#5A8A80;}
*[layerid="46"] {stroke:#2B937E;fill:#2B937E;}
*[layerid="47"] {stroke:#23999D;fill:#23999D;}
*[layerid="48"] {stroke:#45B4E3;fill:#45B4E3;}
*[layerid="49"] {stroke:#215DA1;fill:#215DA1;}
*[layerid="50"] {stroke:#4564D7;fill:#4564D7;}
*[layerid="51"] {stroke:#6969E9;fill:#6969E9;}
*[layerid="52"] {stroke:#9069E9;fill:#9069E9;}
*[fill="none"] {fill: none;}
*[stroke="none"] {stroke: none;}
path, polyline, polygon, line {stroke-linecap:round;}
g[c_partid="part_pad"][layerid="1"] ellipse:not([c_padid]) {fill:#FF0000;}
g[c_partid="part_pad"][layerid="1"]  polygon:not([c_padid]) {fill:#FF0000;}
g[c_partid="part_pad"][layerid="1"]  polyline:not([c_padid]) {stroke:#FF0000;}
g[c_partid="part_pad"][layerid="1"]  circle {fill:#FF0000;}
g[c_partid="part_pad"][layerid="2"]  ellipse:not([c_padid]) {fill:#0000FF;}
g[c_partid="part_pad"][layerid="2"]  polygon:not([c_padid]) {fill:#0000FF;}
g[c_partid="part_pad"][layerid="2"]  polyline:not([c_padid]) {stroke:#0000FF;}
g[c_partid="part_pad"][layerid="2"]  circle {fill:#0000FF;}
g[c_partid="part_pad"][layerid="11"]  ellipse:not([c_padid]) {fill:#C0C0C0;}
g[c_partid="part_pad"][layerid="11"]  polygon:not([c_padid]) {fill:#C0C0C0;}
g[c_partid="part_pad"][layerid="11"]  polyline:not([c_padid]) {stroke:#C0C0C0;}
g[c_partid="part_pad"][layerid="11"]  circle {fill:#C0C0C0;}
g[c_partid="part_pad"][layerid] > circle[c_padhole] {fill: #222222;}
g[c_partid="part_pad"][layerid] > polyline[c_padhole] {stroke:#222222;}
g[c_partid="part_via"][layerid] > * + circle {fill: #222222;}
g[c_partid="part_pad"] > polygon[c_padid] {stroke-linejoin: miter;stroke-miterlimit: 100;}
g[c_partid="part_hole"] > circle {fill: #222222;}path, polyline, polygon {stroke-linejoin:round;}
rect, circle, ellipse, polyline, line, polygon, path {shape-rendering:crispEdges;}
</style>
<rect x="4026.5" y="3028.5" width="390" height="241.5" fill="#000000" stroke="none"/><g id="g1" cpara="" c_transformList="" importFlag="0" xmlns="http://www.w3.org/2000/svg"><path d="M 4078.55 3240.98015 A 0.4 0.4 0 0 1 4078.15 3241.38015 L 4075.85 3241.38015 A 0.4 0.4 0 0 1 4075.45 3240.98015 L 4075.45 3240.05 4073.0326 3240.05 A 0.4 0.4 0 0 1 4072.7493 3239.93238 L 4072.56655 3239.74904 A 0.4 0.4 0 0 1 4072.44985 3239.46665 L 4072.44985 3237.35 A 0.4 0.4 0 0 1 4072.84985 3236.95 L 4075.45 3236.95 4075.45 3234.39 4073.9 3234.39 4073.9 3234.39 A 1.01 1.01 0 0 0 4073.14776 3234.72602 0.4 0.4 0 0 1 4072.84985 3234.8591 0.4 0.4 0 0 1 4072.44985 3234.4591 L 4072.44985 3127.92589 A 0.4 0.4 0 0 1 4072.56701 3127.64305 L 4074.32966 3125.88039 A 0.4 0.4 0 0 1 4074.61251 3125.76323 0.4 0.4 0 0 1 4075.01251 3126.16323 0.4 0.4 0 0 1 4074.98148 3126.3177 4.35645 4.35645 0 0 0 4074.64355 3128.0 4.35645 4.35645 0 0 0 4079.0 3132.35645 4.35645 4.35645 0 0 0 4080.10406 3132.21423 L 4080.10406 3132.21423 A 0.4 0.4 0 0 1 4080.20543 3132.20117 0.4 0.4 0 0 1 4080.48827 3132.31833 L 4081.94635 3133.7764 A 0.4 0.4 0 0 1 4082.06351 3134.05925 0.4 0.4 0 0 1 4081.66351 3134.45925 0.4 0.4 0 0 1 4081.43952 3134.39065 4.35645 4.35645 0 0 0 4079.0 3133.64355 4.35645 4.35645 0 0 0 4074.64355 3138.0 4.35645 4.35645 0 0 0 4079.0 3142.35645 4.35645 4.35645 0 0 0 4083.35645 3138.0 4.35645 4.35645 0 0 0 4082.60935 3135.56048 L 4082.60935 3135.56048 A 0.4 0.4 0 0 1 4082.54075 3135.33649 0.4 0.4 0 0 1 4082.94075 3134.93649 0.4 0.4 0 0 1 4083.2236 3135.05365 L 4100.21429 3152.04435 A 0.4 0.4 0 0 1 4100.33145 3152.32719 0.4 0.4 0 0 1 4100.15746 3152.65722 L 4100.15746 3152.65722 A 2.26985 2.26985 0 0 0 4099.17015 3154.53 L 4099.17015 3154.53 4099.17015 3222.95411 A 0.4 0.4 0 0 1 4099.05299 3223.23695 L 4087.96519 3234.32476 A 0.4 0.4 0 0 1 4087.68235 3234.44192 0.4 0.4 0 0 1 4087.62183 3234.43731 4.11 4.11 0 0 0 4087.0 3234.39 4.11 4.11 0 0 0 4082.89 3238.5 4.11 4.11 0 0 0 4083.56726 3240.76018 L 4083.56726 3240.76018 A 0.4 0.4 0 0 1 4083.63318 3240.98015 0.4 0.4 0 0 1 4083.23318 3241.38015 L 4081.51 3241.38015 A 0.4 0.4 0 0 1 4081.11 3240.98015 L 4081.11 3240.05 4078.55 3240.05 4078.55 3240.98015 Z M 4074.64355 3148.0 A 4.35645 4.35645 0 0 0 4079.0 3152.35645 4.35645 4.35645 0 0 0 4083.35645 3148.0 4.35645 4.35645 0 0 0 4079.0 3143.64355 4.35645 4.35645 0 0 0 4074.64355 3148.0 Z M 4074.64355 3198.0 A 4.35645 4.35645 0 0 0 4079.0 3202.35645 4.35645 4.35645 0 0 0 4083.35645 3198.0 4.35645 4.35645 0 0 0 4079.0 3193.64355 4.35645 4.35645 0 0 0 4074.64355 3198.0 Z M 4074.64355 3158.0 A 4.35645 4.35645 0 0 0 4079.0 3162.35645 4.35645 4.35645 0 0 0 4083.35645 3158.0 4.35645 4.35645 0 0 0 4079.0 3153.64355 4.35645 4.35645 0 0 0 4074.64355 3158.0 Z M 4074.64355 3168.0 A 4.35645 4.35645 0 0 0 4079.0 3172.35645 4.35645 4.35645 0 0 0 4083.35645 3168.0 4.35645 4.35645 0 0 0 4079.0 3163.64355 4.35645 4.35645 0 0 0 4074.64355 3168.0 Z M 4079.0 3182.35645 A 4.35645 4.35645 0 0 0 4083.35645 3178.0 4.35645 4.35645 0 0 0 4079.0 3173.64355 4.35645 4.35645 0 0 0 4074.64355 3178.0 4.35645 4.35645 0 0 0 4079.0 3182.35645 Z M 4081.11 3236.95 L 4081.11 3235.4 4081.11 3235.4 A 1.01 1.01 0 0 0 4080.1 3234.39 L 4080.1 3234.39 4078.55 3234.39 4078.55 3236.95 4081.11 3236.95 Z M 4080.67323 3183.97769 L 4080.67323 3186.32677 4083.02231 3186.32677 A 4.35645 4.35645 0 0 0 4080.67323 3183.97769 Z M 4077.32677 3183.97769 A 4.35645 4.35645 0 0 0 4074.97769 3186.32677 L 4077.32677 3186.32677 4077.32677 3183.97769 Z M 4074.97769 3189.67323 A 4.35645 4.35645 0 0 0 4077.32677 3192.02231 L 4077.32677 3189.67323 4074.97769 3189.67323 Z M 4080.67323 3189.67323 L 4080.67323 3192.02231 A 4.35645 4.35645 0 0 0 4083.02231 3189.67323 L 4080.67323 3189.67323 Z M 4049.46 3251.6644 A 0.4 0.4 0 0 1 4049.06 3251.2644 L 4049.06 3049.46 A 0.4 0.4 0 0 1 4049.46 3049.06 L 4396.9337 3049.06 A 0.4 0.4 0 0 1 4397.3337 3049.46 L 4397.3337 3251.2644 A 0.4 0.4 0 0 1 4396.9337 3251.6644 L 4049.46 3251.6644 Z M 4212.07 3250.06985 A 2.26985 2.26985 0 0 0 4213.67378 3249.40627 L 4213.67378 3249.40627 4220.10378 3242.98627 4220.10378 3242.98627 A 2.26985 2.26985 0 0 0 4220.64123 3242.13324 0.4 0.4 0 0 1 4221.01856 3241.86597 0.4 0.4 0 0 1 4221.23864 3241.93196 L 4221.23864 3241.93196 A 4.11 4.11 0 0 0 4223.5 3242.61 4.11 4.11 0 0 0 4227.61 3238.5 4.11 4.11 0 0 0 4225.93306 3235.18755 0.4 0.4 0 0 1 4225.76985 3234.86517 L 4225.76985 3232.10589 A 0.4 0.4 0 0 1 4225.88701 3231.82305 L 4253.60503 3204.10503 4253.60503 3204.10503 A 2.26985 2.26985 0 0 0 4254.26984 3202.50795 L 4254.39598 3166.47836 A 0.4 0.4 0 0 1 4254.51314 3166.19691 L 4262.26156 3158.4485 A 0.4 0.4 0 0 1 4262.5444 3158.33134 0.4 0.4 0 0 1 4262.9444 3158.73134 0.4 0.4 0 0 1 4262.89138 3158.93034 4.16 4.16 0 0 0 4262.34 3161.0 4.16 4.16 0 0 0 4266.5 3165.16 4.16 4.16 0 0 0 4270.66 3161.0 4.16 4.16 0 0 0 4266.5 3156.84 4.16 4.16 0 0 0 4264.43034 3157.39138 L 4264.43034 3157.39138 A 0.4 0.4 0 0 1 4264.23134 3157.4444 0.4 0.4 0 0 1 4263.83134 3157.0444 0.4 0.4 0 0 1 4263.9485 3156.76156 L 4263.9485 3156.76156 4265.49107 3155.21898 4265.49107 3155.21898 A 0.4 0.4 0 0 1 4265.77392 3155.10182 0.4 0.4 0 0 1 4265.83761 3155.10693 4.16 4.16 0 0 0 4266.5 3155.16 4.16 4.16 0 0 0 4270.66 3151.0 4.16 4.16 0 0 0 4266.5 3146.84 4.16 4.16 0 0 0 4264.44823 3147.38118 0.4 0.4 0 0 1 4264.25095 3147.43322 0.4 0.4 0 0 1 4263.85095 3147.03322 0.4 0.4 0 0 1 4263.96815 3146.75033 L 4268.79476 3141.92529 A 2.26985 2.26985 0 0 0 4269.45985 3140.32 L 4269.45985 3140.32 4269.45985 3113.35774 A 0.4 0.4 0 0 1 4269.65599 3113.01359 4.8485 4.8485 0 0 0 4272.0335 3108.842 4.8485 4.8485 0 0 0 4267.185 3103.9935 4.8485 4.8485 0 0 0 4262.3365 3108.842 4.8485 4.8485 0 0 0 4264.72324 3113.01905 L 4264.72324 3113.01905 A 0.4 0.4 0 0 1 4264.92015 3113.36365 L 4264.92015 3139.21386 A 0.4 0.4 0 0 1 4264.80295 3139.49675 L 4240.73583 3163.55602 A 0.4 0.4 0 0 1 4240.45303 3163.67313 0.4 0.4 0 0 1 4240.05303 3163.27313 0.4 0.4 0 0 1 4240.10628 3163.07373 L 4240.10628 3163.07373 A 4.16 4.16 0 0 0 4240.66 3161.0 4.16 4.16 0 0 0 4236.5 3156.84 4.16 4.16 0 0 0 4235.83761 3156.89307 L 4235.83761 3156.89307 A 0.4 0.4 0 0 1 4235.77392 3156.89818 0.4 0.4 0 0 1 4235.49107 3156.78102 L 4234.5529 3155.84284 A 0.4 0.4 0 0 1 4234.43574 3155.56 0.4 0.4 0 0 1 4234.83574 3155.16 L 4239.65 3155.16 4239.65 3155.16 A 1.01 1.01 0 0 0 4240.66 3154.15 L 4240.66 3147.85 A 1.01 1.01 0 0 0 4239.65 3146.84 L 4239.65 3146.84 4233.35 3146.84 4233.35 3146.84 A 1.01 1.01 0 0 0 4232.34 3147.85 L 4232.34 3152.66426 A 0.4 0.4 0 0 1 4231.94 3153.06426 0.4 0.4 0 0 1 4231.65716 3152.9471 L 4230.76503 3152.05497 4223.32173 3144.61168 A 0.4 0.4 0 0 1 4223.20458 3144.32884 0.4 0.4 0 0 1 4223.24763 3144.14831 4.76 4.76 0 0 0 4223.76 3142.0 4.76 4.76 0 0 0 4219.0 3137.24 4.76 4.76 0 0 0 4214.24 3142.0 4.76 4.76 0 0 0 4218.89201 3146.75877 L 4218.89201 3146.75877 A 0.4 0.4 0 0 1 4219.16578 3146.87583 L 4222.99725 3150.70731 A 0.4 0.4 0 0 1 4223.11441 3150.99015 0.4 0.4 0 0 1 4222.71441 3151.39015 L 4219.34 3151.39015 A 2.26985 2.26985 0 0 0 4217.73497 3152.05497 L 4217.73497 3152.05497 4195.39497 3174.39497 4195.39497 3174.39497 A 2.26985 2.26985 0 0 0 4194.73015 3176.0 L 4194.73015 3176.0 4194.73015 3186.14294 A 0.4 0.4 0 0 1 4194.53914 3186.484 4.71 4.71 0 0 0 4192.29 3190.5 4.71 4.71 0 0 0 4197.0 3195.21 4.71 4.71 0 0 0 4201.71 3190.5 4.71 4.71 0 0 0 4199.46086 3186.484 L 4199.46086 3186.484 A 0.4 0.4 0 0 1 4199.26985 3186.14294 L 4199.26985 3177.10589 A 0.4 0.4 0 0 1 4199.38701 3176.82305 L 4220.16305 3156.04701 A 0.4 0.4 0 0 1 4220.44589 3155.92985 L 4228.05411 3155.92985 A 0.4 0.4 0 0 1 4228.33695 3156.04701 L 4232.28102 3159.99107 A 0.4 0.4 0 0 1 4232.39818 3160.27392 0.4 0.4 0 0 1 4232.39307 3160.33761 L 4232.39307 3160.33761 A 4.16 4.16 0 0 0 4232.34 3161.0 4.16 4.16 0 0 0 4236.5 3165.16 4.16 4.16 0 0 0 4238.57256 3164.60695 L 4238.57256 3164.60695 A 0.4 0.4 0 0 1 4238.77184 3164.55377 0.4 0.4 0 0 1 4239.17184 3164.95377 0.4 0.4 0 0 1 4239.05464 3165.23666 L 4237.50961 3166.78119 A 0.4 0.4 0 0 1 4237.22682 3166.8983 0.4 0.4 0 0 1 4237.16306 3166.89318 4.16 4.16 0 0 0 4236.5 3166.84 4.16 4.16 0 0 0 4232.34 3171.0 4.16 4.16 0 0 0 4236.5 3175.16 4.16 4.16 0 0 0 4240.66 3171.0 4.16 4.16 0 0 0 4240.60703 3170.33828 L 4240.60703 3170.33828 A 0.4 0.4 0 0 1 4240.60194 3170.27465 0.4 0.4 0 0 1 4240.71914 3169.99176 L 4262.25115 3148.46677 A 0.4 0.4 0 0 1 4262.53395 3148.34966 0.4 0.4 0 0 1 4262.93395 3148.74966 0.4 0.4 0 0 1 4262.88185 3148.94705 4.16 4.16 0 0 0 4262.34 3151.0 4.16 4.16 0 0 0 4262.39307 3151.66239 L 4262.39307 3151.66239 A 0.4 0.4 0 0 1 4262.39818 3151.72608 0.4 0.4 0 0 1 4262.28102 3152.00893 L 4250.52497 3163.76497 4250.52497 3163.76497 A 2.26985 2.26985 0 0 0 4249.86016 3165.36205 L 4249.73402 3201.39164 A 0.4 0.4 0 0 1 4249.61686 3201.67309 L 4221.89497 3229.39497 4221.89497 3229.39497 A 2.26985 2.26985 0 0 0 4221.51896 3229.89199 L 4221.51896 3229.89199 A 0.4 0.4 0 0 1 4221.16985 3230.09673 0.4 0.4 0 0 1 4220.76985 3229.69673 L 4220.76985 3229.49 4220.76985 3229.49 A 2.26985 2.26985 0 0 0 4220.10477 3227.88472 L 4189.67705 3197.46675 A 0.4 0.4 0 0 1 4189.55985 3197.18386 L 4189.55985 3146.01 4189.55985 3146.01 A 2.26985 2.26985 0 0 0 4188.89558 3144.40553 L 4188.89558 3144.40553 4175.07278 3130.57312 A 0.4 0.4 0 0 1 4174.95572 3130.29037 0.4 0.4 0 0 1 4175.14133 3129.95268 L 4175.14133 3129.95268 A 1.01 1.01 0 0 0 4175.61 3129.1 L 4175.61 3122.9 A 1.01 1.01 0 0 0 4174.6 3121.89 L 4174.6 3121.89 4168.4 3121.89 4168.4 3121.89 A 1.01 1.01 0 0 0 4167.39 3122.9 L 4167.39 3129.1 A 1.01 1.01 0 0 0 4168.4 3130.11 L 4168.4 3130.11 4168.83015 3130.11 A 0.4 0.4 0 0 1 4169.23015 3130.51 L 4169.23015 3131.62 4169.23015 3131.62 A 2.26985 2.26985 0 0 0 4171.5 3133.88985 L 4171.80357 3133.88985 A 0.4 0.4 0 0 1 4172.08651 3134.00711 L 4173.1868 3135.10816 A 0.4 0.4 0 0 1 4173.30386 3135.3909 0.4 0.4 0 0 1 4172.91138 3135.79083 4.71 4.71 0 0 0 4168.29 3140.5 4.71 4.71 0 0 0 4173.0 3145.21 4.71 4.71 0 0 0 4177.7091 3140.59189 L 4177.7091 3140.59189 A 0.4 0.4 0 0 1 4178.10903 3140.19969 0.4 0.4 0 0 1 4178.39197 3140.31695 L 4184.90309 3146.8326 A 0.4 0.4 0 0 1 4185.02015 3147.11534 L 4185.02015 3198.29 4185.02015 3198.29 A 2.26985 2.26985 0 0 0 4185.68523 3199.89528 L 4216.11295 3230.31325 A 0.4 0.4 0 0 1 4216.23015 3230.59614 L 4216.23015 3234.63859 A 0.4 0.4 0 0 1 4215.83015 3235.03859 0.4 0.4 0 0 1 4215.62348 3234.98106 4.11 4.11 0 0 0 4215.05 3234.69348 L 4215.05 3236.95 4215.83015 3236.95 A 0.4 0.4 0 0 1 4216.23015 3237.35 L 4216.23015 3239.65 A 0.4 0.4 0 0 1 4215.83015 3240.05 L 4215.05 3240.05 4215.05 3241.45121 A 0.4 0.4 0 0 1 4214.93262 3241.73427 L 4214.93262 3241.73427 4213.38867 3243.27582 4213.38867 3243.27582 4211.24795 3245.41321 A 0.4 0.4 0 0 1 4210.96533 3245.53015 L 4164.57589 3245.53015 A 0.4 0.4 0 0 1 4164.29305 3245.41299 L 4162.58802 3243.70796 4160.56716 3241.6871 A 0.4 0.4 0 0 1 4160.45 3241.40426 L 4160.45 3240.55 4159.66985 3240.55 A 0.4 0.4 0 0 1 4159.26985 3240.15 L 4159.26985 3237.85 A 0.4 0.4 0 0 1 4159.66985 3237.45 L 4160.45 3237.45 4160.45 3235.19348 A 4.11 4.11 0 0 0 4159.87652 3235.48106 0.4 0.4 0 0 1 4159.66985 3235.53859 0.4 0.4 0 0 1 4159.26985 3235.13859 L 4159.26985 3235.04 4159.26985 3235.04 A 2.26985 2.26985 0 0 0 4158.60503 3233.43497 L 4158.60503 3233.43497 4154.30503 3229.13497 4154.30503 3229.13497 A 2.26985 2.26985 0 0 0 4152.73262 3228.47038 L 4152.73262 3228.47038 4137.01384 3228.24449 A 0.4 0.4 0 0 1 4136.75619 3228.14556 L 4118.40322 3212.08671 A 0.4 0.4 0 0 1 4118.26662 3211.78675 L 4118.22984 3197.99395 4118.22984 3197.99395 A 2.26985 2.26985 0 0 0 4115.96 3195.73015 2.26985 2.26985 0 0 0 4113.69015 3198.0 2.26985 2.26985 0 0 0 4113.69016 3197.99417 L 4113.69016 3198.00605 4113.69016 3198.00605 4113.73016 3213.00605 4113.73016 3213.00605 A 2.26985 2.26985 0 0 0 4114.50529 3214.70824 L 4133.15773 3231.02912 A 0.4 0.4 0 0 1 4133.29433 3231.33015 0.4 0.4 0 0 1 4132.89433 3231.73015 L 4101.64 3231.73015 A 2.26985 2.26985 0 0 0 4100.03497 3232.39497 L 4100.03497 3232.39497 4091.16695 3241.26299 A 0.4 0.4 0 0 1 4090.88411 3241.38015 L 4090.76682 3241.38015 A 0.4 0.4 0 0 1 4090.36682 3240.98015 0.4 0.4 0 0 1 4090.43274 3240.76018 4.11 4.11 0 0 0 4091.11 3238.5 4.11 4.11 0 0 0 4091.06269 3237.87817 L 4091.06269 3237.87817 A 0.4 0.4 0 0 1 4091.05808 3237.81765 0.4 0.4 0 0 1 4091.17524 3237.53481 L 4103.04503 3225.66503 4103.04503 3225.66503 A 2.26985 2.26985 0 0 0 4103.70985 3224.06 L 4103.70985 3224.06 4103.70985 3156.50559 A 0.4 0.4 0 0 1 4104.10985 3156.10559 0.4 0.4 0 0 1 4104.39269 3156.22275 L 4125.46299 3177.29305 A 0.4 0.4 0 0 1 4125.58015 3177.57589 L 4125.58015 3194.78 4125.58015 3194.78 A 2.26985 2.26985 0 0 0 4126.24472 3196.38477 L 4157.48472 3227.63477 A 2.26985 2.26985 0 0 0 4159.09 3228.29985 L 4189.92411 3228.29985 A 0.4 0.4 0 0 1 4190.20695 3228.41701 L 4195.4971 3233.70716 A 0.4 0.4 0 0 1 4195.61426 3233.99 0.4 0.4 0 0 1 4195.21426 3234.39 L 4190.4 3234.39 4190.4 3234.39 A 1.01 1.01 0 0 0 4189.39 3235.4 L 4189.39 3241.6 A 1.01 1.01 0 0 0 4190.4 3242.61 L 4190.4 3242.61 4196.6 3242.61 4196.6 3242.61 A 1.01 1.01 0 0 0 4197.61 3241.6 L 4197.61 3236.78574 A 0.4 0.4 0 0 1 4198.01 3236.38574 0.4 0.4 0 0 1 4198.29284 3236.5029 L 4199.32476 3237.53481 A 0.4 0.4 0 0 1 4199.44192 3237.81765 0.4 0.4 0 0 1 4199.43731 3237.87817 L 4199.43731 3237.87817 A 4.11 4.11 0 0 0 4199.39 3238.5 4.11 4.11 0 0 0 4203.5 3242.61 4.11 4.11 0 0 0 4207.61 3238.5 4.11 4.11 0 0 0 4203.5 3234.39 4.11 4.11 0 0 0 4202.87817 3234.43731 L 4202.87817 3234.43731 A 0.4 0.4 0 0 1 4202.81765 3234.44192 0.4 0.4 0 0 1 4202.53481 3234.32476 L 4192.63503 3224.42497 4192.63503 3224.42497 A 2.26985 2.26985 0 0 0 4191.03 3223.76015 L 4160.19614 3223.76015 A 0.4 0.4 0 0 1 4159.91325 3223.64295 L 4139.28244 3203.00553 A 0.4 0.4 0 0 1 4139.16533 3202.72273 0.4 0.4 0 0 1 4139.51779 3202.32557 4.35645 4.35645 0 0 0 4143.35645 3198.0 4.35645 4.35645 0 0 0 4139.0 3193.64355 4.35645 4.35645 0 0 0 4134.6746 3197.48083 0.4 0.4 0 0 1 4134.27745 3197.83316 0.4 0.4 0 0 1 4133.99456 3197.71596 L 4130.23696 3193.95716 A 0.4 0.4 0 0 1 4130.11985 3193.67436 L 4130.11985 3176.47 4130.11985 3176.47 A 2.26985 2.26985 0 0 0 4129.45503 3174.86497 L 4129.45503 3174.86497 4083.43971 3128.84966 A 0.4 0.4 0 0 1 4083.32256 3128.56682 0.4 0.4 0 0 1 4083.32541 3128.51915 L 4083.32541 3128.51915 A 4.35645 4.35645 0 0 0 4083.35645 3128.0 4.35645 4.35645 0 0 0 4079.0 3123.64355 4.35645 4.35645 0 0 0 4077.3177 3123.98148 L 4077.3177 3123.98148 A 0.4 0.4 0 0 1 4077.16323 3124.01251 0.4 0.4 0 0 1 4076.76323 3123.61251 0.4 0.4 0 0 1 4076.88039 3123.32966 L 4077.82153 3122.38852 A 0.4 0.4 0 0 1 4078.10437 3122.27137 0.4 0.4 0 0 1 4078.17969 3122.27852 L 4078.17969 3122.27852 A 4.35645 4.35645 0 0 0 4079.0 3122.35645 4.35645 4.35645 0 0 0 4083.35645 3118.0 4.35645 4.35645 0 0 0 4079.0 3113.64355 4.35645 4.35645 0 0 0 4077.3177 3113.98148 L 4077.3177 3113.98148 A 0.4 0.4 0 0 1 4077.16323 3114.01251 0.4 0.4 0 0 1 4076.76323 3113.61251 0.4 0.4 0 0 1 4076.88039 3113.32966 L 4077.82153 3112.38852 A 0.4 0.4 0 0 1 4078.10437 3112.27137 0.4 0.4 0 0 1 4078.17969 3112.27852 L 4078.17969 3112.27852 A 4.35645 4.35645 0 0 0 4079.0 3112.35645 4.35645 4.35645 0 0 0 4083.35645 3108.0 4.35645 4.35645 0 0 0 4079.0 3103.64355 4.35645 4.35645 0 0 0 4074.64355 3108.0 4.35645 4.35645 0 0 0 4074.72148 3108.82031 0.4 0.4 0 0 1 4074.72863 3108.89563 0.4 0.4 0 0 1 4074.61148 3109.17847 L 4065.41497 3118.37497 A 2.26985 2.26985 0 0 0 4064.75015 3119.98 L 4064.75015 3119.98 4064.75015 3235.44942 A 0.4 0.4 0 0 1 4064.35015 3235.84942 0.4 0.4 0 0 1 4064.06548 3235.73042 L 4064.06548 3235.73042 A 5.01 5.01 0 0 0 4060.5 3234.24 5.01 5.01 0 0 0 4055.49 3239.25 5.01 5.01 0 0 0 4060.5 3244.26 5.01 5.01 0 0 0 4064.23605 3242.58797 L 4064.23605 3242.58797 A 0.4 0.4 0 0 1 4064.53434 3242.45447 0.4 0.4 0 0 1 4064.90674 3242.70847 L 4064.90674 3242.70847 A 2.26985 2.26985 0 0 0 4065.41335 3243.4834 L 4070.33335 3248.4134 A 2.26985 2.26985 0 0 0 4071.94 3249.07985 L 4096.07 3249.07985 A 2.26985 2.26985 0 0 0 4097.67503 3248.41503 L 4097.67503 3248.41503 4104.70305 3241.38701 A 0.4 0.4 0 0 1 4104.98589 3241.26985 L 4104.99 3241.26985 A 0.4 0.4 0 0 1 4105.39 3241.66985 L 4105.39 3242.1 A 1.01 1.01 0 0 0 4106.4 3243.11 L 4106.4 3243.11 4112.6 3243.11 4112.6 3243.11 A 1.01 1.01 0 0 0 4113.61 3242.1 L 4113.61 3236.66985 A 0.4 0.4 0 0 1 4114.01 3236.26985 L 4115.63859 3236.26985 A 0.4 0.4 0 0 1 4116.03859 3236.66985 0.4 0.4 0 0 1 4115.98106 3236.87652 4.11 4.11 0 0 0 4115.69348 3237.45 L 4117.95 3237.45 4117.95 3236.66985 A 0.4 0.4 0 0 1 4118.35 3236.26985 L 4120.65 3236.26985 A 0.4 0.4 0 0 1 4121.05 3236.66985 L 4121.05 3237.45 4123.30652 3237.45 A 4.11 4.11 0 0 0 4123.01894 3236.87652 L 4123.01894 3236.87652 A 0.4 0.4 0 0 1 4122.96141 3236.66985 0.4 0.4 0 0 1 4123.36141 3236.26985 L 4125.63859 3236.26985 A 0.4 0.4 0 0 1 4126.03859 3236.66985 0.4 0.4 0 0 1 4125.98106 3236.87652 4.11 4.11 0 0 0 4125.39 3239.0 4.11 4.11 0 0 0 4129.5 3243.11 4.11 4.11 0 0 0 4133.61 3239.0 4.11 4.11 0 0 0 4133.01894 3236.87652 L 4133.01894 3236.87652 A 0.4 0.4 0 0 1 4132.96141 3236.66985 0.4 0.4 0 0 1 4133.36141 3236.26985 L 4140.27411 3236.26985 A 0.4 0.4 0 0 1 4140.55695 3236.38701 L 4144.77497 3240.60503 4144.77497 3240.60503 A 2.26985 2.26985 0 0 0 4146.38 3241.26985 L 4147.49 3241.26985 A 0.4 0.4 0 0 1 4147.89 3241.66985 L 4147.89 3242.1 A 1.01 1.01 0 0 0 4148.9 3243.11 L 4148.9 3243.11 4155.1 3243.11 4155.1 3243.11 A 1.01 1.01 0 0 0 4155.29829 3243.09034 L 4155.29829 3243.09034 A 0.4 0.4 0 0 1 4155.37682 3243.08256 0.4 0.4 0 0 1 4155.65966 3243.19972 L 4161.86497 3249.40503 4161.86497 3249.40503 A 2.26985 2.26985 0 0 0 4163.47 3250.06985 L 4212.07 3250.06985 Z M 4253.5 3242.11 A 4.11 4.11 0 0 0 4256.81245 3240.43306 0.4 0.4 0 0 1 4257.13483 3240.26985 L 4292.0 3240.26985 A 2.26985 2.26985 0 0 0 4293.60503 3239.60503 L 4293.60503 3239.60503 4337.52412 3195.68594 A 0.4 0.4 0 0 1 4337.80696 3195.56878 0.4 0.4 0 0 1 4337.90035 3195.57983 4.71 4.71 0 0 0 4339.0 3195.71 4.71 4.71 0 0 0 4343.71 3191.0 4.71 4.71 0 0 0 4339.0 3186.29 4.71 4.71 0 0 0 4334.29 3191.0 4.71 4.71 0 0 0 4334.42017 3192.09965 L 4334.42017 3192.09965 A 0.4 0.4 0 0 1 4334.43122 3192.19304 0.4 0.4 0 0 1 4334.31406 3192.47588 L 4291.17695 3235.61299 A 0.4 0.4 0 0 1 4290.89411 3235.73015 L 4257.13483 3235.73015 A 0.4 0.4 0 0 1 4256.81245 3235.56694 L 4256.81245 3235.56694 A 4.11 4.11 0 0 0 4253.5 3233.89 4.11 4.11 0 0 0 4249.39 3238.0 4.11 4.11 0 0 0 4253.5 3242.11 Z M 4253.5 3232.11 A 4.11 4.11 0 0 0 4257.61 3228.0 4.11 4.11 0 0 0 4257.56269 3227.37817 0.4 0.4 0 0 1 4257.55808 3227.31765 0.4 0.4 0 0 1 4257.67524 3227.03481 L 4273.15503 3211.55503 4273.15503 3211.55503 A 2.26985 2.26985 0 0 0 4273.81985 3209.95 L 4273.81985 3209.95 4273.81985 3193.66985 A 0.4 0.4 0 0 1 4274.21985 3193.26985 L 4292.14294 3193.26985 A 0.4 0.4 0 0 1 4292.484 3193.46086 4.71 4.71 0 0 0 4296.5 3195.71 4.71 4.71 0 0 0 4301.21 3191.0 4.71 4.71 0 0 0 4296.5 3186.29 4.71 4.71 0 0 0 4292.484 3188.53914 0.4 0.4 0 0 1 4292.14294 3188.73015 L 4274.21985 3188.73015 A 0.4 0.4 0 0 1 4273.81985 3188.33015 L 4273.81985 3176.05 4273.81985 3176.05 A 2.26985 2.26985 0 0 0 4273.15503 3174.44497 L 4273.15503 3174.44497 4270.71898 3172.00893 A 0.4 0.4 0 0 1 4270.60182 3171.72608 0.4 0.4 0 0 1 4270.60693 3171.66239 L 4270.60693 3171.66239 A 4.16 4.16 0 0 0 4270.66 3171.0 4.16 4.16 0 0 0 4266.5 3166.84 4.16 4.16 0 0 0 4262.34 3171.0 4.16 4.16 0 0 0 4266.5 3175.16 4.16 4.16 0 0 0 4267.16239 3175.10693 L 4267.16239 3175.10693 A 0.4 0.4 0 0 1 4267.22608 3175.10182 0.4 0.4 0 0 1 4267.50893 3175.21898 L 4267.50893 3175.21898 4269.0515 3176.76156 4269.0515 3176.76156 A 0.4 0.4 0 0 1 4269.16866 3177.0444 0.4 0.4 0 0 1 4268.76866 3177.4444 0.4 0.4 0 0 1 4268.56966 3177.39138 4.16 4.16 0 0 0 4268.075 3177.14968 L 4268.075 3179.425 4268.88015 3179.425 A 0.4 0.4 0 0 1 4269.28015 3179.825 L 4269.28015 3182.175 A 0.4 0.4 0 0 1 4268.88015 3182.575 L 4268.075 3182.575 4268.075 3184.85032 A 4.16 4.16 0 0 0 4268.67136 3184.54835 L 4268.67136 3184.54835 A 0.4 0.4 0 0 1 4268.88015 3184.48954 0.4 0.4 0 0 1 4269.28015 3184.88954 L 4269.28015 3191.0 4269.28015 3208.84411 A 0.4 0.4 0 0 1 4269.16299 3209.12695 L 4254.46519 3223.82476 A 0.4 0.4 0 0 1 4254.18235 3223.94192 0.4 0.4 0 0 1 4254.12183 3223.93731 L 4254.12183 3223.93731 A 4.11 4.11 0 0 0 4253.5 3223.89 4.11 4.11 0 0 0 4249.39 3228.0 4.11 4.11 0 0 0 4253.5 3232.11 Z M 4312.79 3191.0 A 4.71 4.71 0 0 0 4317.5 3195.71 4.71 4.71 0 0 0 4322.21 3191.0 4.71 4.71 0 0 0 4317.5 3186.29 4.71 4.71 0 0 0 4316.40035 3186.42017 L 4316.40035 3186.42017 A 0.4 0.4 0 0 1 4316.30696 3186.43122 0.4 0.4 0 0 1 4316.02412 3186.31406 L 4298.88701 3169.17695 A 0.4 0.4 0 0 1 4298.76985 3168.89411 L 4298.76985 3145.35706 A 0.4 0.4 0 0 1 4298.96086 3145.016 4.71 4.71 0 0 0 4301.21 3141.0 4.71 4.71 0 0 0 4296.5 3136.29 4.71 4.71 0 0 0 4291.79 3141.0 4.71 4.71 0 0 0 4294.03914 3145.016 L 4294.03914 3145.016 A 0.4 0.4 0 0 1 4294.23015 3145.35706 L 4294.23015 3170.0 4294.23015 3170.0 A 2.26985 2.26985 0 0 0 4294.89497 3171.60503 L 4294.89497 3171.60503 4312.81406 3189.52412 A 0.4 0.4 0 0 1 4312.93122 3189.80696 0.4 0.4 0 0 1 4312.92017 3189.90035 L 4312.92017 3189.90035 A 4.71 4.71 0 0 0 4312.79 3191.0 Z M 4197.0 3145.21 A 4.71 4.71 0 0 0 4201.71 3140.5 4.71 4.71 0 0 0 4201.5615 3139.32663 L 4201.5615 3139.32663 A 0.4 0.4 0 0 1 4201.54889 3139.22698 0.4 0.4 0 0 1 4201.66152 3138.94874 L 4226.17237 3113.63426 A 0.4 0.4 0 0 1 4226.45974 3113.5125 0.4 0.4 0 0 1 4226.56302 3113.52607 L 4226.56302 3113.52607 A 4.8485 4.8485 0 0 0 4227.815 3113.6905 4.8485 4.8485 0 0 0 4232.6635 3108.842 4.8485 4.8485 0 0 0 4227.815 3103.9935 4.8485 4.8485 0 0 0 4222.9665 3108.842 4.8485 4.8485 0 0 0 4223.10767 3110.00347 L 4223.10767 3110.00347 A 0.4 0.4 0 0 1 4223.11932 3110.09929 0.4 0.4 0 0 1 4223.00669 3110.37754 L 4198.40012 3135.79087 A 0.4 0.4 0 0 1 4198.11275 3135.91263 0.4 0.4 0 0 1 4198.02565 3135.90303 L 4198.02565 3135.90303 A 4.71 4.71 0 0 0 4197.0 3135.79 4.71 4.71 0 0 0 4192.29 3140.5 4.71 4.71 0 0 0 4197.0 3145.21 Z M 4339.0 3145.71 A 4.71 4.71 0 0 0 4343.71 3141.0 4.71 4.71 0 0 0 4341.46086 3136.984 L 4341.46086 3136.984 A 0.4 0.4 0 0 1 4341.26985 3136.64294 L 4341.26985 3123.10589 A 0.4 0.4 0 0 1 4341.38701 3122.82305 L 4349.98305 3114.22701 A 0.4 0.4 0 0 1 4350.26589 3114.10985 L 4352.19 3114.10985 A 2.26985 2.26985 0 0 0 4353.78184 3113.4581 L 4353.78184 3113.4581 A 0.4 0.4 0 0 1 4353.91928 3113.36972 4.8485 4.8485 0 0 0 4357.0335 3108.842 4.8485 4.8485 0 0 0 4352.185 3103.9935 4.8485 4.8485 0 0 0 4347.3365 3108.842 4.8485 4.8485 0 0 0 4347.48425 3110.02982 L 4347.48425 3110.02982 A 0.4 0.4 0 0 1 4347.49644 3110.12782 0.4 0.4 0 0 1 4347.37928 3110.41066 L 4337.39497 3120.39497 4337.39497 3120.39497 A 2.26985 2.26985 0 0 0 4336.73015 3122.0 L 4336.73015 3122.0 4336.73015 3136.64294 A 0.4 0.4 0 0 1 4336.53914 3136.984 4.71 4.71 0 0 0 4334.29 3141.0 4.71 4.71 0 0 0 4339.0 3145.71 Z M 4317.5 3145.71 A 4.71 4.71 0 0 0 4322.21 3141.0 4.71 4.71 0 0 0 4319.96086 3136.984 L 4319.96086 3136.984 A 0.4 0.4 0 0 1 4319.76985 3136.64294 L 4319.76985 3114.5 4319.76985 3114.5 A 2.26985 2.26985 0 0 0 4319.18717 3112.98155 L 4317.41086 3111.00788 A 0.4 0.4 0 0 1 4317.30818 3110.7403 0.4 0.4 0 0 1 4317.33526 3110.59562 4.8485 4.8485 0 0 0 4317.6635 3108.842 4.8485 4.8485 0 0 0 4312.815 3103.9935 4.8485 4.8485 0 0 0 4307.9665 3108.842 4.8485 4.8485 0 0 0 4312.815 3113.6905 4.8485 4.8485 0 0 0 4313.44708 3113.64912 L 4313.44708 3113.64912 A 0.4 0.4 0 0 1 4313.49922 3113.64571 0.4 0.4 0 0 1 4313.79654 3113.77812 L 4315.12747 3115.25693 A 0.4 0.4 0 0 1 4315.23015 3115.52452 L 4315.23015 3136.64294 A 0.4 0.4 0 0 1 4315.03914 3136.984 4.71 4.71 0 0 0 4312.79 3141.0 4.71 4.71 0 0 0 4317.5 3145.71 Z M 4177.39 3126.0 A 4.11 4.11 0 0 0 4181.5 3130.11 4.11 4.11 0 0 0 4185.61 3126.0 4.11 4.11 0 0 0 4183.93306 3122.68755 0.4 0.4 0 0 1 4183.76985 3122.36517 L 4183.76985 3109.25151 A 0.4 0.4 0 0 1 4183.99278 3108.89284 L 4183.99278 3108.89284 A 4.5533 4.5533 0 0 0 4186.5304 3104.81 4.5533 4.5533 0 0 0 4181.9771 3100.2567 L 4181.9771 3100.2567 4172.5283 3100.2567 4172.5283 3100.2567 A 4.5533 4.5533 0 0 0 4167.975 3104.81 4.5533 4.5533 0 0 0 4172.5283 3109.3633 L 4172.5283 3109.3633 4178.42756 3109.3633 A 0.4 0.4 0 0 1 4178.7104 3109.48046 L 4179.11299 3109.88305 A 0.4 0.4 0 0 1 4179.23015 3110.16589 L 4179.23015 3122.36517 A 0.4 0.4 0 0 1 4179.06694 3122.68755 4.11 4.11 0 0 0 4177.39 3126.0 Z M 4217.973 3085.049 A 5.734 5.734 0 0 0 4223.707 3079.315 5.734 5.734 0 0 0 4217.973 3073.581 5.734 5.734 0 0 0 4212.239 3079.315 5.734 5.734 0 0 0 4217.973 3085.049 Z M 4271.293 3079.315 A 5.734 5.734 0 0 0 4277.027 3085.049 5.734 5.734 0 0 0 4282.761 3079.315 5.734 5.734 0 0 0 4277.027 3073.581 5.734 5.734 0 0 0 4271.293 3079.315 Z M 4362.027 3085.049 A 5.734 5.734 0 0 0 4367.761 3079.315 5.734 5.734 0 0 0 4362.027 3073.581 5.734 5.734 0 0 0 4356.293 3079.315 5.734 5.734 0 0 0 4362.027 3085.049 Z M 4302.973 3085.049 A 5.734 5.734 0 0 0 4308.707 3079.315 5.734 5.734 0 0 0 4302.973 3073.581 5.734 5.734 0 0 0 4297.239 3079.315 5.734 5.734 0 0 0 4302.973 3085.049 Z M 4381.99 3239.25 A 5.01 5.01 0 0 0 4387.0 3244.26 5.01 5.01 0 0 0 4392.01 3239.25 5.01 5.01 0 0 0 4387.0 3234.24 5.01 5.01 0 0 0 4381.99 3239.25 Z M 4055.49 3059.25 A 5.01 5.01 0 0 0 4060.5 3064.26 5.01 5.01 0 0 0 4065.51 3059.25 5.01 5.01 0 0 0 4060.5 3054.24 5.01 5.01 0 0 0 4055.49 3059.25 Z M 4387.0 3064.26 A 5.01 5.01 0 0 0 4392.01 3059.25 5.01 5.01 0 0 0 4387.0 3054.24 5.01 5.01 0 0 0 4381.99 3059.25 5.01 5.01 0 0 0 4387.0 3064.26 Z M 4362.027 3103.8485 A 4.8485 4.8485 0 0 0 4366.8755 3099.0 4.8485 4.8485 0 0 0 4362.027 3094.1515 4.8485 4.8485 0 0 0 4357.1785 3099.0 4.8485 4.8485 0 0 0 4362.027 3103.8485 Z M 4247.5 3103.8485 A 4.8485 4.8485 0 0 0 4252.3485 3099.0 4.8485 4.8485 0 0 0 4247.5 3094.1515 4.8485 4.8485 0 0 0 4242.6515 3099.0 4.8485 4.8485 0 0 0 4247.5 3103.8485 Z M 4337.4935 3059.63 A 4.8485 4.8485 0 0 0 4342.342 3064.4785 4.8485 4.8485 0 0 0 4347.1905 3059.63 4.8485 4.8485 0 0 0 4342.342 3054.7815 4.8485 4.8485 0 0 0 4337.4935 3059.63 Z M 4277.027 3103.8485 A 4.8485 4.8485 0 0 0 4281.8755 3099.0 4.8485 4.8485 0 0 0 4277.027 3094.1515 4.8485 4.8485 0 0 0 4272.1785 3099.0 4.8485 4.8485 0 0 0 4277.027 3103.8485 Z M 4317.8095 3059.63 A 4.8485 4.8485 0 0 0 4322.658 3064.4785 4.8485 4.8485 0 0 0 4327.5065 3059.63 4.8485 4.8485 0 0 0 4322.658 3054.7815 4.8485 4.8485 0 0 0 4317.8095 3059.63 Z M 4252.4935 3059.63 A 4.8485 4.8485 0 0 0 4257.342 3064.4785 4.8485 4.8485 0 0 0 4262.1905 3059.63 4.8485 4.8485 0 0 0 4257.342 3054.7815 4.8485 4.8485 0 0 0 4252.4935 3059.63 Z M 4298.1245 3099.0 A 4.8485 4.8485 0 0 0 4302.973 3103.8485 4.8485 4.8485 0 0 0 4307.8215 3099.0 4.8485 4.8485 0 0 0 4302.973 3094.1515 4.8485 4.8485 0 0 0 4298.1245 3099.0 Z M 4237.658 3064.4785 A 4.8485 4.8485 0 0 0 4242.5065 3059.63 4.8485 4.8485 0 0 0 4237.658 3054.7815 4.8485 4.8485 0 0 0 4232.8095 3059.63 4.8485 4.8485 0 0 0 4237.658 3064.4785 Z M 4213.1245 3099.0 A 4.8485 4.8485 0 0 0 4217.973 3103.8485 4.8485 4.8485 0 0 0 4222.8215 3099.0 4.8485 4.8485 0 0 0 4217.973 3094.1515 4.8485 4.8485 0 0 0 4213.1245 3099.0 Z M 4214.24 3172.0 A 4.76 4.76 0 0 0 4219.0 3176.76 4.76 4.76 0 0 0 4223.76 3172.0 4.76 4.76 0 0 0 4219.0 3167.24 4.76 4.76 0 0 0 4214.24 3172.0 Z M 4082.3465 3062.3565 A 1.01 1.01 0 0 0 4083.3565 3061.3465 L 4083.3565 3061.3465 4083.3565 3054.6536 4083.3565 3054.6536 A 1.01 1.01 0 0 0 4082.3465 3053.6436 L 4082.3465 3053.6436 4075.6535 3053.6436 4075.6535 3053.6436 A 1.01 1.01 0 0 0 4074.6435 3054.6536 L 4074.6435 3054.6536 4074.6435 3061.3465 4074.6435 3061.3465 A 1.01 1.01 0 0 0 4075.6535 3062.3565 L 4075.6535 3062.3565 4082.3465 3062.3565 Z M 4134.6435 3061.3465 A 1.01 1.01 0 0 0 4135.6535 3062.3565 L 4135.6535 3062.3565 4142.3465 3062.3565 4142.3465 3062.3565 A 1.01 1.01 0 0 0 4143.3565 3061.3465 L 4143.3565 3054.6536 A 1.01 1.01 0 0 0 4142.3465 3053.6436 L 4142.3465 3053.6436 4135.6535 3053.6436 4135.6535 3053.6436 A 1.01 1.01 0 0 0 4134.6435 3054.6536 L 4134.6435 3061.3465 Z M 4134.64355 3098.0 A 4.35645 4.35645 0 0 0 4139.0 3102.35645 4.35645 4.35645 0 0 0 4143.35645 3098.0 4.35645 4.35645 0 0 0 4139.0 3093.64355 4.35645 4.35645 0 0 0 4134.64355 3098.0 Z M 4139.0 3112.35645 A 4.35645 4.35645 0 0 0 4143.35645 3108.0 4.35645 4.35645 0 0 0 4139.0 3103.64355 4.35645 4.35645 0 0 0 4134.64355 3108.0 4.35645 4.35645 0 0 0 4139.0 3112.35645 Z M 4074.64355 3098.0 A 4.35645 4.35645 0 0 0 4079.0 3102.35645 4.35645 4.35645 0 0 0 4083.35645 3098.0 4.35645 4.35645 0 0 0 4079.0 3093.64355 4.35645 4.35645 0 0 0 4074.64355 3098.0 Z M 4139.0 3142.35645 A 4.35645 4.35645 0 0 0 4143.35645 3138.0 4.35645 4.35645 0 0 0 4139.0 3133.64355 4.35645 4.35645 0 0 0 4134.64355 3138.0 4.35645 4.35645 0 0 0 4139.0 3142.35645 Z M 4079.0 3082.35645 A 4.35645 4.35645 0 0 0 4083.35645 3078.0 4.35645 4.35645 0 0 0 4079.0 3073.64355 4.35645 4.35645 0 0 0 4074.64355 3078.0 4.35645 4.35645 0 0 0 4079.0 3082.35645 Z M 4134.64355 3118.0 A 4.35645 4.35645 0 0 0 4139.0 3122.35645 4.35645 4.35645 0 0 0 4143.35645 3118.0 4.35645 4.35645 0 0 0 4139.0 3113.64355 4.35645 4.35645 0 0 0 4134.64355 3118.0 Z M 4139.0 3072.35645 A 4.35645 4.35645 0 0 0 4143.35645 3068.0 4.35645 4.35645 0 0 0 4139.0 3063.64355 4.35645 4.35645 0 0 0 4134.64355 3068.0 4.35645 4.35645 0 0 0 4139.0 3072.35645 Z M 4134.64355 3158.0 A 4.35645 4.35645 0 0 0 4139.0 3162.35645 4.35645 4.35645 0 0 0 4143.35645 3158.0 4.35645 4.35645 0 0 0 4139.0 3153.64355 4.35645 4.35645 0 0 0 4134.64355 3158.0 Z M 4074.64355 3068.0 A 4.35645 4.35645 0 0 0 4079.0 3072.35645 4.35645 4.35645 0 0 0 4083.35645 3068.0 4.35645 4.35645 0 0 0 4079.0 3063.64355 4.35645 4.35645 0 0 0 4074.64355 3068.0 Z M 4134.64355 3128.0 A 4.35645 4.35645 0 0 0 4139.0 3132.35645 4.35645 4.35645 0 0 0 4143.35645 3128.0 4.35645 4.35645 0 0 0 4139.0 3123.64355 4.35645 4.35645 0 0 0 4134.64355 3128.0 Z M 4139.0 3092.35645 A 4.35645 4.35645 0 0 0 4143.35645 3088.0 4.35645 4.35645 0 0 0 4139.0 3083.64355 4.35645 4.35645 0 0 0 4134.64355 3088.0 4.35645 4.35645 0 0 0 4139.0 3092.35645 Z M 4139.0 3152.35645 A 4.35645 4.35645 0 0 0 4143.35645 3148.0 4.35645 4.35645 0 0 0 4139.0 3143.64355 4.35645 4.35645 0 0 0 4134.64355 3148.0 4.35645 4.35645 0 0 0 4139.0 3152.35645 Z M 4074.64355 3088.0 A 4.35645 4.35645 0 0 0 4079.0 3092.35645 4.35645 4.35645 0 0 0 4083.35645 3088.0 4.35645 4.35645 0 0 0 4079.0 3083.64355 4.35645 4.35645 0 0 0 4074.64355 3088.0 Z M 4139.0 3182.35645 A 4.35645 4.35645 0 0 0 4143.35645 3178.0 4.35645 4.35645 0 0 0 4139.0 3173.64355 4.35645 4.35645 0 0 0 4134.64355 3178.0 4.35645 4.35645 0 0 0 4139.0 3182.35645 Z M 4134.64355 3188.0 A 4.35645 4.35645 0 0 0 4139.0 3192.35645 4.35645 4.35645 0 0 0 4143.35645 3188.0 4.35645 4.35645 0 0 0 4139.0 3183.64355 4.35645 4.35645 0 0 0 4134.64355 3188.0 Z M 4139.0 3082.35645 A 4.35645 4.35645 0 0 0 4143.35645 3078.0 4.35645 4.35645 0 0 0 4139.0 3073.64355 4.35645 4.35645 0 0 0 4134.64355 3078.0 4.35645 4.35645 0 0 0 4139.0 3082.35645 Z M 4236.5 3185.16 A 4.16 4.16 0 0 0 4240.66 3181.0 4.16 4.16 0 0 0 4236.5 3176.84 4.16 4.16 0 0 0 4232.34 3181.0 4.16 4.16 0 0 0 4236.5 3185.16 Z M 4239.39 3231.1 A 1.01 1.01 0 0 0 4240.4 3232.11 L 4240.4 3232.11 4246.6 3232.11 4246.6 3232.11 A 1.01 1.01 0 0 0 4247.61 3231.1 L 4247.61 3224.9 A 1.01 1.01 0 0 0 4246.6 3223.89 L 4246.6 3223.89 4240.4 3223.89 4240.4 3223.89 A 1.01 1.01 0 0 0 4239.39 3224.9 L 4239.39 3231.1 Z M 4167.89 3239.0 A 4.11 4.11 0 0 0 4172.0 3243.11 4.11 4.11 0 0 0 4176.11 3239.0 4.11 4.11 0 0 0 4172.0 3234.89 4.11 4.11 0 0 0 4167.89 3239.0 Z M 4239.39 3238.0 A 4.11 4.11 0 0 0 4243.5 3242.11 4.11 4.11 0 0 0 4247.61 3238.0 4.11 4.11 0 0 0 4243.5 3233.89 4.11 4.11 0 0 0 4239.39 3238.0 Z M 4181.9771 3085.7433 A 4.5533 4.5533 0 0 0 4186.1716 3082.96165 L 4181.29984 3082.96165 4181.29984 3085.7433 4181.9771 3085.7433 Z M 4168.3338 3082.96165 A 4.5533 4.5533 0 0 0 4172.5283 3085.7433 L 4172.5283 3085.7433 4173.20556 3085.7433 4173.20556 3082.96165 4168.3338 3082.96165 Z M 4154.1944 3097.7244 A 4.5533 4.5533 0 0 0 4156.97605 3101.9189 L 4156.97605 3097.04714 4154.1944 3097.04714 4154.1944 3097.7244 Z M 4160.51935 3097.04714 L 4160.51935 3101.9189 A 4.5533 4.5533 0 0 0 4163.301 3097.7244 L 4163.301 3097.7244 4163.301 3097.04714 4160.51935 3097.04714 Z M 4163.301 3088.95286 L 4163.301 3088.2756 4163.301 3088.2756 A 4.5533 4.5533 0 0 0 4160.51935 3084.0811 L 4160.51935 3088.95286 4163.301 3088.95286 Z M 4156.97605 3088.95286 L 4156.97605 3084.0811 A 4.5533 4.5533 0 0 0 4154.1944 3088.2756 L 4154.1944 3088.2756 4154.1944 3088.95286 4156.97605 3088.95286 Z M 4181.29984 3076.6367 L 4181.29984 3079.41835 4186.1716 3079.41835 A 4.5533 4.5533 0 0 0 4181.9771 3076.6367 L 4181.9771 3076.6367 4181.29984 3076.6367 Z M 4173.20556 3079.41835 L 4173.20556 3076.6367 4172.5283 3076.6367 4172.5283 3076.6367 A 4.5533 4.5533 0 0 0 4168.3338 3079.41835 L 4173.20556 3079.41835 Z M 4334.41925 3094.54754 L 4334.41925 3097.08075 4336.95246 3097.08075 A 4.8485 4.8485 0 0 0 4334.41925 3094.54754 Z M 4334.41925 3100.91925 L 4334.41925 3103.45246 A 4.8485 4.8485 0 0 0 4336.95246 3100.91925 L 4334.41925 3100.91925 Z M 4330.58075 3097.08075 L 4330.58075 3094.54754 A 4.8485 4.8485 0 0 0 4328.04754 3097.08075 L 4330.58075 3097.08075 Z M 4328.04754 3100.91925 A 4.8485 4.8485 0 0 0 4330.58075 3103.45246 L 4330.58075 3100.91925 4328.04754 3100.91925 Z M 4168.66853 3192.35 A 4.71 4.71 0 0 0 4171.15 3194.83147 L 4171.15 3192.35 4168.66853 3192.35 Z M 4171.15 3188.65 L 4171.15 3186.16853 A 4.71 4.71 0 0 0 4168.66853 3188.65 L 4171.15 3188.65 Z M 4174.85 3192.35 L 4174.85 3194.83147 A 4.71 4.71 0 0 0 4177.33147 3192.35 L 4174.85 3192.35 Z M 4174.85 3186.16853 L 4174.85 3188.65 4177.33147 3188.65 A 4.71 4.71 0 0 0 4174.85 3186.16853 Z M 4134.97769 3169.67323 A 4.35645 4.35645 0 0 0 4137.32678 3172.02231 L 4137.32678 3169.67323 4134.97769 3169.67323 Z M 4140.67322 3169.67323 L 4140.67322 3172.02231 A 4.35645 4.35645 0 0 0 4143.02231 3169.67323 L 4140.67322 3169.67323 Z M 4137.32678 3163.97769 A 4.35645 4.35645 0 0 0 4134.97769 3166.32677 L 4137.32678 3166.32677 4137.32678 3163.97769 Z M 4143.02231 3166.32677 A 4.35645 4.35645 0 0 0 4140.67322 3163.97769 L 4140.67322 3166.32677 4143.02231 3166.32677 Z M 4262.64968 3182.575 A 4.16 4.16 0 0 0 4264.925 3184.85032 L 4264.925 3182.575 4262.64968 3182.575 Z M 4264.925 3177.14968 A 4.16 4.16 0 0 0 4262.64968 3179.425 L 4264.925 3179.425 4264.925 3177.14968 Z M 4121.05 3242.80652 A 4.11 4.11 0 0 0 4123.30652 3240.55 L 4121.05 3240.55 4121.05 3242.80652 Z M 4211.95 3236.95 L 4211.95 3234.69348 A 4.11 4.11 0 0 0 4209.69348 3236.95 L 4211.95 3236.95 Z M 4163.55 3242.80652 A 4.11 4.11 0 0 0 4165.80652 3240.55 L 4163.55 3240.55 4163.55 3242.80652 Z M 4165.80652 3237.45 A 4.11 4.11 0 0 0 4163.55 3235.19348 L 4163.55 3237.45 4165.80652 3237.45 Z M 4115.69348 3240.55 A 4.11 4.11 0 0 0 4117.95 3242.80652 L 4117.95 3240.55 4115.69348 3240.55 Z M 4209.69348 3240.05 A 4.11 4.11 0 0 0 4211.95 3242.30652 L 4211.95 3240.05 4209.69348 3240.05 Z " layerid="2" stroke-width="0"></path><polyline points="4229.16 3153.66 4236.5 3161" stroke-width="2.5197" c_shapetype="line" stroke-linecap="round" fill="none" layerid="2" net="U1_2" id="gge402" /><polyline points="4219 3142 4219 3143.5 4229.16 3153.66" stroke-width="2.5197" c_shapetype="line" stroke-linecap="round" fill="none" layerid="2" net="U1_2" id="gge403" /><polyline points="4197 3190.5 4197 3176 4219.34 3153.66 4229.16 3153.66" stroke-width="2.5197" c_shapetype="line" stroke-linecap="round" fill="none" layerid="2" net="U1_2" id="gge404" /><polyline points="4267.19 3111.84 4267.19 3140.32 4236.5 3171" stroke-width="2.5197" c_shapetype="line" stroke-linecap="round" fill="none" layerid="2" net="U1_3" id="gge406" /><polyline points="4162 3239 4167.16 3244.16 4207.84 3244.16 4213.5 3238.5" stroke-width="2.5197" c_shapetype="line" stroke-linecap="round" fill="none" layerid="2" net="GND" id="gge409" /><polyline points="4213.5 3238.5 4213.5 3231 4173 3190.5" stroke-width="2.5197" c_shapetype="line" stroke-linecap="round" fill="none" layerid="2" net="GND" id="gge413" /><polyline points="4144.75 3162.25 4139 3168" stroke-width="2.5197" c_shapetype="line" stroke-linecap="round" fill="none" layerid="2" net="GND" id="gge414" /><polyline points="4158.75 3093 4158.75 3148.25 4144.75 3162.25" stroke-width="2.5197" c_shapetype="line" stroke-linecap="round" fill="none" layerid="2" net="GND" id="gge415" /><polyline points="4144.75 3162.25 4173 3190.5" stroke-width="2.5197" c_shapetype="line" stroke-linecap="round" fill="none" layerid="2" net="GND" id="gge416" /><polyline points="4077 3238.5 4077 3232.88" stroke-width="2.5197" c_shapetype="line" stroke-linecap="round" fill="none" layerid="2" net="GND" id="gge417" /><polyline points="4079 3188 4073.5 3193.5 4073.5 3229.38 4077 3232.88" stroke-width="2.5197" c_shapetype="line" stroke-linecap="round" fill="none" layerid="2" net="GND" id="gge418" /><polyline points="4158.75 3093 4165.44 3093 4177.25 3081.19" stroke-width="2.5197" c_shapetype="line" stroke-linecap="round" fill="none" layerid="2" net="GND" id="gge419" /><polyline points="4271.55 3191 4271.55 3176.05 4266.5 3171" stroke-width="2.5197" c_shapetype="line" stroke-linecap="round" fill="none" layerid="2" net="U1_6" id="gge420" /><polyline points="4253.5 3228 4271.55 3209.95 4271.55 3191" stroke-width="2.5197" c_shapetype="line" stroke-linecap="round" fill="none" layerid="2" net="U1_6" id="gge421" /><polyline points="4296.5 3191 4271.55 3191" stroke-width="2.5197" c_shapetype="line" stroke-linecap="round" fill="none" layerid="2" net="U1_6" id="gge422" /><polyline points="4317.5 3191 4296.5 3170 4296.5 3141" stroke-width="2.5197" c_shapetype="line" stroke-linecap="round" fill="none" layerid="2" net="+5V" id="gge427" /><polyline points="4223.5 3238.5 4223.5 3231 4252 3202.5 4252.13 3165.37 4266.5 3151" stroke-width="2.5197" c_shapetype="line" stroke-linecap="round" fill="none" layerid="2" net="+5V" id="gge429" /><polyline points="4313 3109.5 4317.5 3114.5 4317.5 3141" stroke-width="2.5197" c_shapetype="line" stroke-linecap="round" fill="none" layerid="2" net="R3_2" id="gge431" /><polyline points="4227.5 3109 4197 3140.5" stroke-width="2.5197" c_shapetype="line" stroke-linecap="round" fill="none" layerid="2" net="R5_2" id="gge432" /><polyline points="4253.5 3238 4292 3238 4339 3191" stroke-width="2.5197" c_shapetype="line" stroke-linecap="round" fill="none" layerid="2" net="R2_1" id="gge433" /><polyline points="4352.19 3111.84 4349.16 3111.84 4339 3122 4339 3141" stroke-width="2.5197" c_shapetype="line" stroke-linecap="round" fill="none" layerid="2" net="R2_2" id="gge434" /><polyline points="4087 3238.5 4101.44 3224.06 4101.44 3154.53" stroke-width="2.5197" c_shapetype="line" stroke-linecap="round" fill="none" layerid="2" net="SAVE_BTN_2" id="gge436" /><polyline points="4103.88 3239 4096.07 3246.81 4071.94 3246.81 4067.02 3241.88 4067.02 3119.98 4079 3108" stroke-width="2.5197" c_shapetype="line" stroke-linecap="round" fill="none" layerid="2" net="POT_IN_1" id="gge438" /><polyline points="4109.5 3239 4103.88 3239" stroke-width="2.5197" c_shapetype="line" stroke-linecap="round" fill="none" layerid="2" net="POT_IN_1" id="gge439" /><polyline points="4152 3239 4146.38 3239" stroke-width="2.5197" c_shapetype="line" stroke-linecap="round" fill="none" layerid="2" net="POT_OUT_1" id="gge440" /><polyline points="4146.38 3239 4141.38 3234 4101.64 3234 4091.99 3243.65 4073.25 3243.65 4070.18 3240.57 4070.18 3126.82 4079 3118" stroke-width="2.5197" c_shapetype="line" stroke-linecap="round" fill="none" layerid="2" net="POT_OUT_1" id="gge441" /><polyline points="4079 3128 4079.38 3128 4127.85 3176.47 4127.85 3194.78 4159.09 3226.03 4191.03 3226.03 4203.5 3238.5" stroke-width="2.5197" c_shapetype="line" stroke-linecap="round" fill="none" layerid="2" net="DISP_2" id="gge446" /><polyline points="4171.5 3126 4171.5 3131.62" stroke-width="2.5197" c_shapetype="line" stroke-linecap="round" fill="none" layerid="2" net="NANO_1_15" id="gge449" /><polyline points="4171.5 3131.62 4172.91 3131.62 4187.29 3146.01 4187.29 3198.29 4218.5 3229.49 4218.5 3241.38 4212.07 3247.8 4163.47 3247.8 4157 3241.33 4157 3235.04 4152.7 3230.74 4136 3230.5 4116 3213 4115.96 3198" stroke-width="2.5197" c_shapetype="line" stroke-linecap="round" fill="none" layerid="2" net="NANO_1_15" id="gge451" /><polyline points="4181.5 3126 4181.5 3109.06 4177.25 3104.81" stroke-width="2.5197" c_shapetype="line" stroke-linecap="round" fill="none" layerid="2" net="DC1_1" id="gge453" /><g xmlns="http://www.w3.org/2000/svg" c_origin="4246.5,3161" c_para="package`DIP-8`" c_partid="part_import_gge42" id="gge42" c_shapetype="group" c_etype="pinpart" layerid="1" c_rotation="270"><g c_partid="part_pad" c_etype="pinpart" c_origin="4236.5,3151" layerid="11" number="1" net="U1_1" plated ="Y" c_shapetype="group" id="gge50" locked="0" c_rotation="270" c_width="6.3" c_height="6.3" title="U1_1" c_shape="RECT" pasteExpansion="0" solderExpansion="0.4"><polygon points="4239.65 3147.85 4239.65 3154.15 4233.35 3154.15 4233.35 3147.85" stroke-width="0" /><circle c_padhole="1" cx="4236.5" cy="3151" r="1.75" stroke-width="0" /></g><g c_partid="part_pad" c_etype="pinpart" c_origin="4236.5,3161" layerid="11" number="2" net="U1_2" plated ="Y" c_shapetype="group" id="gge51" locked="0" c_rotation="270" c_width="6.3" c_height="6.3" title="U1_2" c_shape="ELLIPSE" pasteExpansion="0" solderExpansion="0.4"><ellipse cx="4236.5" cy="3161" rx="3.15" ry="3.15" stroke-width="0" /><circle c_padhole="1" cx="4236.5" cy="3161" r="1.75" stroke-width="0" /></g><g c_partid="part_pad" c_etype="pinpart" c_origin="4236.5,3171" layerid="11" number="3" net="U1_3" plated ="Y" c_shapetype="group" id="gge52" locked="0" c_rotation="270" c_width="6.3" c_height="6.3" title="U1_3" c_shape="ELLIPSE" pasteExpansion="0" solderExpansion="0.4"><ellipse cx="4236.5" cy="3171" rx="3.15" ry="3.15" stroke-width="0" /><circle c_padhole="1" cx="4236.5" cy="3171" r="1.75" stroke-width="0" /></g><g c_partid="part_pad" c_etype="pinpart" c_origin="4236.5,3181" layerid="11" number="4" net="U1_4" plated ="Y" c_shapetype="group" id="gge53" locked="0" c_rotation="270" c_width="6.3" c_height="6.3" title="U1_4" c_shape="ELLIPSE" pasteExpansion="0" solderExpansion="0.4"><ellipse cx="4236.5" cy="3181" rx="3.15" ry="3.15" stroke-width="0" /><circle c_padhole="1" cx="4236.5" cy="3181" r="1.75" stroke-width="0" /></g><g c_partid="part_pad" c_etype="pinpart" c_origin="4266.5,3181" layerid="11" number="5" net="GND" plated ="Y" c_shapetype="group" id="gge54" locked="0" c_rotation="270" c_width="6.3" c_height="6.3" title="GND" c_shape="ELLIPSE" pasteExpansion="0" solderExpansion="0.4"><ellipse cx="4266.5" cy="3181" rx="3.15" ry="3.15" stroke-width="0" /><circle c_padhole="1" cx="4266.5" cy="3181" r="1.75" stroke-width="0" /></g><g c_partid="part_pad" c_etype="pinpart" c_origin="4266.5,3171" layerid="11" number="6" net="U1_6" plated ="Y" c_shapetype="group" id="gge55" locked="0" c_rotation="270" c_width="6.3" c_height="6.3" title="U1_6" c_shape="ELLIPSE" pasteExpansion="0" solderExpansion="0.4"><ellipse cx="4266.5" cy="3171" rx="3.15" ry="3.15" stroke-width="0" /><circle c_padhole="1" cx="4266.5" cy="3171" r="1.75" stroke-width="0" /></g><g c_partid="part_pad" c_etype="pinpart" c_origin="4266.5,3161" layerid="11" number="7" net="U1_7" plated ="Y" c_shapetype="group" id="gge56" locked="0" c_rotation="270" c_width="6.3" c_height="6.3" title="U1_7" c_shape="ELLIPSE" pasteExpansion="0" solderExpansion="0.4"><ellipse cx="4266.5" cy="3161" rx="3.15" ry="3.15" stroke-width="0" /><circle c_padhole="1" cx="4266.5" cy="3161" r="1.75" stroke-width="0" /></g><g c_partid="part_pad" c_etype="pinpart" c_origin="4266.5,3151" layerid="11" number="8" net="+5V" plated ="Y" c_shapetype="group" id="gge57" locked="0" c_rotation="270" c_width="6.3" c_height="6.3" title="+5V" c_shape="ELLIPSE" pasteExpansion="0" solderExpansion="0.4"><ellipse cx="4266.5" cy="3151" rx="3.15" ry="3.15" stroke-width="0" /><circle c_padhole="1" cx="4266.5" cy="3151" r="1.75" stroke-width="0" /></g></g><g xmlns="http://www.w3.org/2000/svg" c_origin="4317.5,3166" c_para="package`AXIAL-0.5`" c_partid="part_import_gge59" id="gge59" c_shapetype="group" c_etype="pinpart" layerid="1" c_rotation="90"><g c_partid="part_pad" c_etype="pinpart" c_origin="4317.5,3191" layerid="11" number="1" net="+5V" plated ="Y" c_shapetype="group" id="gge66" locked="0" c_rotation="90" c_width="7.4" c_height="7.4" title="+5V" c_shape="ELLIPSE" pasteExpansion="0" solderExpansion="0.4"><ellipse cx="4317.5" cy="3191" rx="3.7" ry="3.7" stroke-width="0" /><circle c_padhole="1" cx="4317.5" cy="3191" r="1.77" stroke-width="0" /></g><g c_partid="part_pad" c_etype="pinpart" c_origin="4317.5,3141" layerid="11" number="2" net="R3_2" plated ="Y" c_shapetype="group" id="gge67" locked="0" c_rotation="90" c_width="7.4" c_height="7.4" title="R3_2" c_shape="ELLIPSE" pasteExpansion="0" solderExpansion="0.4"><ellipse cx="4317.5" cy="3141" rx="3.7" ry="3.7" stroke-width="0" /><circle c_padhole="1" cx="4317.5" cy="3141" r="1.77" stroke-width="0" /></g></g><g xmlns="http://www.w3.org/2000/svg" c_origin="4296.5,3166" c_para="package`AXIAL-0.5`" c_partid="part_import_gge68" id="gge68" c_shapetype="group" c_etype="pinpart" layerid="1" c_rotation="90"><g c_partid="part_pad" c_etype="pinpart" c_origin="4296.5,3191" layerid="11" number="1" net="U1_6" plated ="Y" c_shapetype="group" id="gge75" locked="0" c_rotation="90" c_width="7.4" c_height="7.4" title="U1_6" c_shape="ELLIPSE" pasteExpansion="0" solderExpansion="0.4"><ellipse cx="4296.5" cy="3191" rx="3.7" ry="3.7" stroke-width="0" /><circle c_padhole="1" cx="4296.5" cy="3191" r="1.77" stroke-width="0" /></g><g c_partid="part_pad" c_etype="pinpart" c_origin="4296.5,3141" layerid="11" number="2" net="+5V" plated ="Y" c_shapetype="group" id="gge76" locked="0" c_rotation="90" c_width="7.4" c_height="7.4" title="+5V" c_shape="ELLIPSE" pasteExpansion="0" solderExpansion="0.4"><ellipse cx="4296.5" cy="3141" rx="3.7" ry="3.7" stroke-width="0" /><circle c_padhole="1" cx="4296.5" cy="3141" r="1.77" stroke-width="0" /></g></g><g xmlns="http://www.w3.org/2000/svg" c_origin="4197,3165.5" c_para="package`AXIAL-0.5`" c_partid="part_import_gge77" id="gge77" c_shapetype="group" c_etype="pinpart" layerid="1" c_rotation="90"><g c_partid="part_pad" c_etype="pinpart" c_origin="4197,3190.5" layerid="11" number="1" net="U1_2" plated ="Y" c_shapetype="group" id="gge84" locked="0" c_rotation="90" c_width="7.4" c_height="7.4" title="U1_2" c_shape="ELLIPSE" pasteExpansion="0" solderExpansion="0.4"><ellipse cx="4197" cy="3190.5" rx="3.7" ry="3.7" stroke-width="0" /><circle c_padhole="1" cx="4197" cy="3190.5" r="1.77" stroke-width="0" /></g><g c_partid="part_pad" c_etype="pinpart" c_origin="4197,3140.5" layerid="11" number="2" net="R5_2" plated ="Y" c_shapetype="group" id="gge85" locked="0" c_rotation="90" c_width="7.4" c_height="7.4" title="R5_2" c_shape="ELLIPSE" pasteExpansion="0" solderExpansion="0.4"><ellipse cx="4197" cy="3140.5" rx="3.7" ry="3.7" stroke-width="0" /><circle c_padhole="1" cx="4197" cy="3140.5" r="1.77" stroke-width="0" /></g></g><g xmlns="http://www.w3.org/2000/svg" c_origin="4339,3166" c_para="package`AXIAL-0.5`" c_partid="part_import_gge86" id="gge86" c_shapetype="group" c_etype="pinpart" layerid="1" c_rotation="90"><g c_partid="part_pad" c_etype="pinpart" c_origin="4339,3191" layerid="11" number="1" net="R2_1" plated ="Y" c_shapetype="group" id="gge93" locked="0" c_rotation="90" c_width="7.4" c_height="7.4" title="R2_1" c_shape="ELLIPSE" pasteExpansion="0" solderExpansion="0.4"><ellipse cx="4339" cy="3191" rx="3.7" ry="3.7" stroke-width="0" /><circle c_padhole="1" cx="4339" cy="3191" r="1.77" stroke-width="0" /></g><g c_partid="part_pad" c_etype="pinpart" c_origin="4339,3141" layerid="11" number="2" net="R2_2" plated ="Y" c_shapetype="group" id="gge94" locked="0" c_rotation="90" c_width="7.4" c_height="7.4" title="R2_2" c_shape="ELLIPSE" pasteExpansion="0" solderExpansion="0.4"><ellipse cx="4339" cy="3141" rx="3.7" ry="3.7" stroke-width="0" /><circle c_padhole="1" cx="4339" cy="3141" r="1.77" stroke-width="0" /></g></g><g xmlns="http://www.w3.org/2000/svg" c_origin="4173,3165.5" c_para="package`AXIAL-0.5`" c_partid="part_import_gge95" id="gge95" c_shapetype="group" c_etype="pinpart" layerid="1" c_rotation="90"><g c_partid="part_pad" c_etype="pinpart" c_origin="4173,3190.5" layerid="11" number="1" net="GND" plated ="Y" c_shapetype="group" id="gge102" locked="0" c_rotation="90" c_width="7.4" c_height="7.4" title="GND" c_shape="ELLIPSE" pasteExpansion="0" solderExpansion="0.4"><ellipse cx="4173" cy="3190.5" rx="3.7" ry="3.7" stroke-width="0" /><circle c_padhole="1" cx="4173" cy="3190.5" r="1.77" stroke-width="0" /></g><g c_partid="part_pad" c_etype="pinpart" c_origin="4173,3140.5" layerid="11" number="2" net="U1_7" plated ="Y" c_shapetype="group" id="gge103" locked="0" c_rotation="90" c_width="7.4" c_height="7.4" title="U1_7" c_shape="ELLIPSE" pasteExpansion="0" solderExpansion="0.4"><ellipse cx="4173" cy="3140.5" rx="3.7" ry="3.7" stroke-width="0" /><circle c_padhole="1" cx="4173" cy="3140.5" r="1.77" stroke-width="0" /></g></g><g xmlns="http://www.w3.org/2000/svg" c_origin="4219,3157" c_para="package`DO-35`" c_partid="part_import_gge104" id="gge104" c_shapetype="group" c_etype="pinpart" layerid="1" c_rotation="90"><g c_partid="part_pad" c_etype="pinpart" c_origin="4219,3172" layerid="11" number="1" net="U1_3" plated ="Y" c_shapetype="group" id="gge109" locked="0" c_rotation="90" c_width="7.5" c_height="7.5" title="U1_3" c_shape="ELLIPSE" pasteExpansion="0" solderExpansion="0.4"><ellipse cx="4219" cy="3172" rx="3.75" ry="3.75" stroke-width="0" /><circle c_padhole="1" cx="4219" cy="3172" r="2.1654" stroke-width="0" /></g><g c_partid="part_pad" c_etype="pinpart" c_origin="4219,3142" layerid="11" number="2" net="U1_2" plated ="Y" c_shapetype="group" id="gge110" locked="0" c_rotation="90" c_width="7.5" c_height="7.5" title="U1_2" c_shape="ELLIPSE" pasteExpansion="0" solderExpansion="0.4"><ellipse cx="4219" cy="3142" rx="3.75" ry="3.75" stroke-width="0" /><circle c_padhole="1" cx="4219" cy="3142" r="2.1654" stroke-width="0" /></g></g><g xmlns="http://www.w3.org/2000/svg" c_origin="4247.5,3099" c_para="package`CUI_SDS-50J`" c_partid="part_import_gge111" id="gge111" c_shapetype="group" c_etype="pinpart" layerid="1" c_rotation="180"><g c_partid="part_pad" c_etype="pinpart" c_origin="4247.5,3099" layerid="11" number="2" net="MIDI_IN_2" plated ="Y" c_shapetype="group" id="gge121" locked="0" c_rotation="180" c_width="7.677" c_height="7.677" title="MIDI_IN_2" c_shape="ELLIPSE" pasteExpansion="0" solderExpansion="0.4"><ellipse cx="4247.5" cy="3099" rx="3.8385" ry="3.8385" stroke-width="0" /><polyline c_padhole="1" points="4247.51 3099 4247.49 3099" stroke-width="5.118"></polyline></g><g c_partid="part_pad" c_etype="pinpart" c_origin="4227.81,3108.84" layerid="11" number="4" net="R5_2" plated ="Y" c_shapetype="group" id="gge122" locked="0" c_rotation="180" c_width="7.677" c_height="7.677" title="R5_2" c_shape="ELLIPSE" pasteExpansion="0" solderExpansion="0.4"><ellipse cx="4227.81" cy="3108.84" rx="3.8385" ry="3.8385" stroke-width="0" /><polyline c_padhole="1" points="4227.825 3108.842 4227.805 3108.842" stroke-width="5.118"></polyline></g><g c_partid="part_pad" c_etype="pinpart" c_origin="4217.97,3099" layerid="11" number="1" net="MIDI_IN_1" plated ="Y" c_shapetype="group" id="gge123" locked="0" c_rotation="180" c_width="7.677" c_height="7.677" title="MIDI_IN_1" c_shape="ELLIPSE" pasteExpansion="0" solderExpansion="0.4"><ellipse cx="4217.97" cy="3099" rx="3.8385" ry="3.8385" stroke-width="0" /><polyline c_padhole="1" points="4217.983 3099 4217.963 3099" stroke-width="5.118"></polyline></g><g c_partid="part_pad" c_etype="pinpart" c_origin="4267.19,3108.84" layerid="11" number="5" net="U1_3" plated ="Y" c_shapetype="group" id="gge124" locked="0" c_rotation="180" c_width="7.677" c_height="7.677" title="U1_3" c_shape="ELLIPSE" pasteExpansion="0" solderExpansion="0.4"><ellipse cx="4267.19" cy="3108.84" rx="3.8385" ry="3.8385" stroke-width="0" /><polyline c_padhole="1" points="4267.195 3108.842 4267.175 3108.842" stroke-width="5.118"></polyline></g><g c_partid="part_pad" c_etype="pinpart" c_origin="4277.03,3099" layerid="11" number="3" net="MIDI_IN_3" plated ="Y" c_shapetype="group" id="gge125" locked="0" c_rotation="180" c_width="7.677" c_height="7.677" title="MIDI_IN_3" c_shape="ELLIPSE" pasteExpansion="0" solderExpansion="0.4"><ellipse cx="4277.03" cy="3099" rx="3.8385" ry="3.8385" stroke-width="0" /><polyline c_padhole="1" points="4277.037 3099 4277.017 3099" stroke-width="5.118"></polyline></g><g c_partid="part_pad" c_etype="pinpart" c_origin="4257.34,3059.63" layerid="11" number="S1" net="MIDI_IN_S1" plated ="Y" c_shapetype="group" id="gge126" locked="0" c_rotation="180" c_width="7.677" c_height="7.677" title="MIDI_IN_S1" c_shape="ELLIPSE" pasteExpansion="0" solderExpansion="0.4"><ellipse cx="4257.34" cy="3059.63" rx="3.8385" ry="3.8385" stroke-width="0" /><polyline c_padhole="1" points="4257.352 3059.63 4257.332 3059.63" stroke-width="5.118"></polyline></g><g c_partid="part_pad" c_etype="pinpart" c_origin="4237.66,3059.63" layerid="11" number="S2" net="MIDI_IN_S1" plated ="Y" c_shapetype="group" id="gge127" locked="0" c_rotation="180" c_width="7.677" c_height="7.677" title="MIDI_IN_S1" c_shape="ELLIPSE" pasteExpansion="0" solderExpansion="0.4"><ellipse cx="4237.66" cy="3059.63" rx="3.8385" ry="3.8385" stroke-width="0" /><polyline c_padhole="1" points="4237.668 3059.63 4237.648 3059.63" stroke-width="5.118"></polyline></g><g c_partid="part_hole" c_etype="pinpart" c_shapetype="group" c_origin="4277.03,3079.32" layerid="11" id="gge128" ><circle cx="4277.03" cy="3079.32" r="4.724"   stroke-width="0" /></g><g c_partid="part_hole" c_etype="pinpart" c_shapetype="group" c_origin="4217.97,3079.32" layerid="11" id="gge129" ><circle cx="4217.97" cy="3079.32" r="4.724"   stroke-width="0" /></g></g><g xmlns="http://www.w3.org/2000/svg" c_origin="4332.5,3099" c_para="package`CUI_SDS-50J`" c_partid="part_import_gge130" id="gge130" c_shapetype="group" c_etype="pinpart" layerid="1" c_rotation="180"><g c_partid="part_pad" c_etype="pinpart" c_origin="4332.5,3099" layerid="11" number="2" net="GND" plated ="Y" c_shapetype="group" id="gge140" locked="0" c_rotation="180" c_width="7.677" c_height="7.677" title="GND" c_shape="ELLIPSE" pasteExpansion="0" solderExpansion="0.4"><ellipse cx="4332.5" cy="3099" rx="3.8385" ry="3.8385" stroke-width="0" /><polyline c_padhole="1" points="4332.51 3099 4332.49 3099" stroke-width="5.118"></polyline></g><g c_partid="part_pad" c_etype="pinpart" c_origin="4312.81,3108.84" layerid="11" number="4" net="R3_2" plated ="Y" c_shapetype="group" id="gge141" locked="0" c_rotation="180" c_width="7.677" c_height="7.677" title="R3_2" c_shape="ELLIPSE" pasteExpansion="0" solderExpansion="0.4"><ellipse cx="4312.81" cy="3108.84" rx="3.8385" ry="3.8385" stroke-width="0" /><polyline c_padhole="1" points="4312.825 3108.842 4312.805 3108.842" stroke-width="5.118"></polyline></g><g c_partid="part_pad" c_etype="pinpart" c_origin="4302.97,3099" layerid="11" number="1" net="MIDI_OUT_1" plated ="Y" c_shapetype="group" id="gge142" locked="0" c_rotation="180" c_width="7.677" c_height="7.677" title="MIDI_OUT_1" c_shape="ELLIPSE" pasteExpansion="0" solderExpansion="0.4"><ellipse cx="4302.97" cy="3099" rx="3.8385" ry="3.8385" stroke-width="0" /><polyline c_padhole="1" points="4302.983 3099 4302.963 3099" stroke-width="5.118"></polyline></g><g c_partid="part_pad" c_etype="pinpart" c_origin="4352.19,3108.84" layerid="11" number="5" net="R2_2" plated ="Y" c_shapetype="group" id="gge143" locked="0" c_rotation="180" c_width="7.677" c_height="7.677" title="R2_2" c_shape="ELLIPSE" pasteExpansion="0" solderExpansion="0.4"><ellipse cx="4352.19" cy="3108.84" rx="3.8385" ry="3.8385" stroke-width="0" /><polyline c_padhole="1" points="4352.195 3108.842 4352.175 3108.842" stroke-width="5.118"></polyline></g><g c_partid="part_pad" c_etype="pinpart" c_origin="4362.03,3099" layerid="11" number="3" net="MIDI_OUT_3" plated ="Y" c_shapetype="group" id="gge144" locked="0" c_rotation="180" c_width="7.677" c_height="7.677" title="MIDI_OUT_3" c_shape="ELLIPSE" pasteExpansion="0" solderExpansion="0.4"><ellipse cx="4362.03" cy="3099" rx="3.8385" ry="3.8385" stroke-width="0" /><polyline c_padhole="1" points="4362.037 3099 4362.017 3099" stroke-width="5.118"></polyline></g><g c_partid="part_pad" c_etype="pinpart" c_origin="4342.34,3059.63" layerid="11" number="S1" net="MIDI_OUT_S1" plated ="Y" c_shapetype="group" id="gge145" locked="0" c_rotation="180" c_width="7.677" c_height="7.677" title="MIDI_OUT_S1" c_shape="ELLIPSE" pasteExpansion="0" solderExpansion="0.4"><ellipse cx="4342.34" cy="3059.63" rx="3.8385" ry="3.8385" stroke-width="0" /><polyline c_padhole="1" points="4342.352 3059.63 4342.332 3059.63" stroke-width="5.118"></polyline></g><g c_partid="part_pad" c_etype="pinpart" c_origin="4322.66,3059.63" layerid="11" number="S2" net="MIDI_OUT_S1" plated ="Y" c_shapetype="group" id="gge146" locked="0" c_rotation="180" c_width="7.677" c_height="7.677" title="MIDI_OUT_S1" c_shape="ELLIPSE" pasteExpansion="0" solderExpansion="0.4"><ellipse cx="4322.66" cy="3059.63" rx="3.8385" ry="3.8385" stroke-width="0" /><polyline c_padhole="1" points="4322.668 3059.63 4322.648 3059.63" stroke-width="5.118"></polyline></g><g c_partid="part_hole" c_etype="pinpart" c_shapetype="group" c_origin="4362.03,3079.32" layerid="11" id="gge147" ><circle cx="4362.03" cy="3079.32" r="4.724"   stroke-width="0" /></g><g c_partid="part_hole" c_etype="pinpart" c_shapetype="group" c_origin="4302.97,3079.32" layerid="11" id="gge148" ><circle cx="4302.97" cy="3079.32" r="4.724"   stroke-width="0" /></g></g><g xmlns="http://www.w3.org/2000/svg" c_origin="4082,3238.5" c_para="package`HDR-1X2/2.54`" c_partid="part_import_gge149" id="gge149" c_shapetype="group" c_etype="pinpart" layerid="1" ><g c_partid="part_pad" c_etype="pinpart" c_origin="4077,3238.5" layerid="11" number="1" net="GND" plated ="Y" c_shapetype="group" id="gge153" locked="0" c_rotation="270" c_width="6.2" c_height="6.2" title="GND" c_shape="RECT" pasteExpansion="0" solderExpansion="0.4"><polygon points="4080.1 3235.4 4080.1 3241.6 4073.9 3241.6 4073.9 3235.4" stroke-width="0" /><circle c_padhole="1" cx="4077" cy="3238.5" r="1.75" stroke-width="0" /></g><g c_partid="part_pad" c_etype="pinpart" c_origin="4087,3238.5" layerid="11" number="2" net="SAVE_BTN_2" plated ="Y" c_shapetype="group" id="gge154" locked="0" c_rotation="270" c_width="6.2" c_height="6.2" title="SAVE_BTN_2" c_shape="ELLIPSE" pasteExpansion="0" solderExpansion="0.4"><ellipse cx="4087" cy="3238.5" rx="3.1" ry="3.1" stroke-width="0" /><circle c_padhole="1" cx="4087" cy="3238.5" r="1.75" stroke-width="0" /></g></g><g xmlns="http://www.w3.org/2000/svg" c_origin="4119.5,3239" c_para="package`HDR-3X1/2.54`" c_partid="part_import_gge155" id="gge155" c_shapetype="group" c_etype="pinpart" layerid="1" ><g c_partid="part_pad" c_etype="pinpart" c_origin="4129.5,3239" layerid="11" number="3" net="+5V" plated ="Y" c_shapetype="group" id="gge160" locked="0" c_rotation="0" c_width="6.2" c_height="6.2" title="+5V" c_shape="ELLIPSE" pasteExpansion="0" solderExpansion="0.4"><ellipse cx="4129.5" cy="3239" rx="3.1" ry="3.1" stroke-width="0" /><circle c_padhole="1" cx="4129.5" cy="3239" r="1.75" stroke-width="0" /></g><g c_partid="part_pad" c_etype="pinpart" c_origin="4119.5,3239" layerid="11" number="2" net="GND" plated ="Y" c_shapetype="group" id="gge161" locked="0" c_rotation="0" c_width="6.2" c_height="6.2" title="GND" c_shape="ELLIPSE" pasteExpansion="0" solderExpansion="0.4"><ellipse cx="4119.5" cy="3239" rx="3.1" ry="3.1" stroke-width="0" /><circle c_padhole="1" cx="4119.5" cy="3239" r="1.75" stroke-width="0" /></g><g c_partid="part_pad" c_etype="pinpart" c_origin="4109.5,3239" layerid="11" number="1" net="POT_IN_1" plated ="Y" c_shapetype="group" id="gge162" locked="0" c_rotation="0" c_width="6.2" c_height="6.2" title="POT_IN_1" c_shape="RECT" pasteExpansion="0" solderExpansion="0.4"><polygon points="4106.4 3235.9 4112.6 3235.9 4112.6 3242.1 4106.4 3242.1" stroke-width="0" /><circle c_padhole="1" cx="4109.5" cy="3239" r="1.75" stroke-width="0" /></g></g><g xmlns="http://www.w3.org/2000/svg" c_origin="4162,3239" c_para="package`HDR-3X1/2.54`" c_partid="part_import_gge163" id="gge163" c_shapetype="group" c_etype="pinpart" layerid="1" ><g c_partid="part_pad" c_etype="pinpart" c_origin="4172,3239" layerid="11" number="3" net="+5V" plated ="Y" c_shapetype="group" id="gge168" locked="0" c_rotation="0" c_width="6.2" c_height="6.2" title="+5V" c_shape="ELLIPSE" pasteExpansion="0" solderExpansion="0.4"><ellipse cx="4172" cy="3239" rx="3.1" ry="3.1" stroke-width="0" /><circle c_padhole="1" cx="4172" cy="3239" r="1.75" stroke-width="0" /></g><g c_partid="part_pad" c_etype="pinpart" c_origin="4162,3239" layerid="11" number="2" net="GND" plated ="Y" c_shapetype="group" id="gge169" locked="0" c_rotation="0" c_width="6.2" c_height="6.2" title="GND" c_shape="ELLIPSE" pasteExpansion="0" solderExpansion="0.4"><ellipse cx="4162" cy="3239" rx="3.1" ry="3.1" stroke-width="0" /><circle c_padhole="1" cx="4162" cy="3239" r="1.75" stroke-width="0" /></g><g c_partid="part_pad" c_etype="pinpart" c_origin="4152,3239" layerid="11" number="1" net="POT_OUT_1" plated ="Y" c_shapetype="group" id="gge170" locked="0" c_rotation="0" c_width="6.2" c_height="6.2" title="POT_OUT_1" c_shape="RECT" pasteExpansion="0" solderExpansion="0.4"><polygon points="4148.9 3235.9 4155.1 3235.9 4155.1 3242.1 4148.9 3242.1" stroke-width="0" /><circle c_padhole="1" cx="4152" cy="3239" r="1.75" stroke-width="0" /></g></g><g xmlns="http://www.w3.org/2000/svg" c_origin="4208.5,3238.5" c_para="package`HDR-4X1/2.54`" c_partid="part_import_gge171" id="gge171" c_shapetype="group" c_etype="pinpart" layerid="1" ><g c_partid="part_pad" c_etype="pinpart" c_origin="4193.5,3238.5" layerid="11" number="1" net="DISP_1" plated ="Y" c_shapetype="group" id="gge176" locked="0" c_rotation="0" c_width="6.2" c_height="6.2" title="DISP_1" c_shape="RECT" pasteExpansion="0" solderExpansion="0.4"><polygon points="4190.4 3235.4 4196.6 3235.4 4196.6 3241.6 4190.4 3241.6" stroke-width="0" /><circle c_padhole="1" cx="4193.5" cy="3238.5" r="1.75" stroke-width="0" /></g><g c_partid="part_pad" c_etype="pinpart" c_origin="4203.5,3238.5" layerid="11" number="2" net="DISP_2" plated ="Y" c_shapetype="group" id="gge177" locked="0" c_rotation="0" c_width="6.2" c_height="6.2" title="DISP_2" c_shape="ELLIPSE" pasteExpansion="0" solderExpansion="0.4"><ellipse cx="4203.5" cy="3238.5" rx="3.1" ry="3.1" stroke-width="0" /><circle c_padhole="1" cx="4203.5" cy="3238.5" r="1.75" stroke-width="0" /></g><g c_partid="part_pad" c_etype="pinpart" c_origin="4213.5,3238.5" layerid="11" number="3" net="GND" plated ="Y" c_shapetype="group" id="gge178" locked="0" c_rotation="0" c_width="6.2" c_height="6.2" title="GND" c_shape="ELLIPSE" pasteExpansion="0" solderExpansion="0.4"><ellipse cx="4213.5" cy="3238.5" rx="3.1" ry="3.1" stroke-width="0" /><circle c_padhole="1" cx="4213.5" cy="3238.5" r="1.75" stroke-width="0" /></g><g c_partid="part_pad" c_etype="pinpart" c_origin="4223.5,3238.5" layerid="11" number="4" net="+5V" plated ="Y" c_shapetype="group" id="gge179" locked="0" c_rotation="0" c_width="6.2" c_height="6.2" title="+5V" c_shape="ELLIPSE" pasteExpansion="0" solderExpansion="0.4"><ellipse cx="4223.5" cy="3238.5" rx="3.1" ry="3.1" stroke-width="0" /><circle c_padhole="1" cx="4223.5" cy="3238.5" r="1.75" stroke-width="0" /></g></g><g xmlns="http://www.w3.org/2000/svg" c_origin="4139,3128" c_para="package`DIP-1X15P2.54`" c_partid="part_import_gge180" id="gge180" c_shapetype="group" c_etype="pinpart" layerid="1" c_rotation="270"><g c_partid="part_pad" c_etype="pinpart" c_origin="4139,3058" layerid="11" number="1" net="NANO_2_1" plated ="Y" c_shapetype="group" id="gge185" locked="0" c_rotation="0" c_width="6.6929" c_height="6.6929" title="NANO_2_1" c_shape="RECT" pasteExpansion="0" solderExpansion="0.4"><polygon points="4135.654 3054.654 4142.346 3054.654 4142.346 3061.347 4135.654 3061.347" stroke-width="0" /><circle c_padhole="1" cx="4139" cy="3058" r="2.1654" stroke-width="0" /></g><g c_partid="part_pad" c_etype="pinpart" c_origin="4139,3068" layerid="11" number="2" net="NANO_2_2" plated ="Y" c_shapetype="group" id="gge186" locked="0" c_rotation="270" c_width="6.6929" c_height="6.6929" title="NANO_2_2" c_shape="ELLIPSE" pasteExpansion="0" solderExpansion="0.4"><ellipse cx="4139" cy="3068" rx="3.34645" ry="3.34645" stroke-width="0" /><circle c_padhole="1" cx="4139" cy="3068" r="2.1654" stroke-width="0" /></g><g c_partid="part_pad" c_etype="pinpart" c_origin="4139,3078" layerid="11" number="3" net="NANO_2_3" plated ="Y" c_shapetype="group" id="gge187" locked="0" c_rotation="270" c_width="6.6929" c_height="6.6929" title="NANO_2_3" c_shape="ELLIPSE" pasteExpansion="0" solderExpansion="0.4"><ellipse cx="4139" cy="3078" rx="3.34645" ry="3.34645" stroke-width="0" /><circle c_padhole="1" cx="4139" cy="3078" r="2.1654" stroke-width="0" /></g><g c_partid="part_pad" c_etype="pinpart" c_origin="4139,3088" layerid="11" number="4" net="NANO_2_4" plated ="Y" c_shapetype="group" id="gge188" locked="0" c_rotation="270" c_width="6.6929" c_height="6.6929" title="NANO_2_4" c_shape="ELLIPSE" pasteExpansion="0" solderExpansion="0.4"><ellipse cx="4139" cy="3088" rx="3.34645" ry="3.34645" stroke-width="0" /><circle c_padhole="1" cx="4139" cy="3088" r="2.1654" stroke-width="0" /></g><g c_partid="part_pad" c_etype="pinpart" c_origin="4139,3098" layerid="11" number="5" net="NANO_2_5" plated ="Y" c_shapetype="group" id="gge189" locked="0" c_rotation="270" c_width="6.6929" c_height="6.6929" title="NANO_2_5" c_shape="ELLIPSE" pasteExpansion="0" solderExpansion="0.4"><ellipse cx="4139" cy="3098" rx="3.34645" ry="3.34645" stroke-width="0" /><circle c_padhole="1" cx="4139" cy="3098" r="2.1654" stroke-width="0" /></g><g c_partid="part_pad" c_etype="pinpart" c_origin="4139,3108" layerid="11" number="6" net="NANO_2_6" plated ="Y" c_shapetype="group" id="gge190" locked="0" c_rotation="270" c_width="6.6929" c_height="6.6929" title="NANO_2_6" c_shape="ELLIPSE" pasteExpansion="0" solderExpansion="0.4"><ellipse cx="4139" cy="3108" rx="3.34645" ry="3.34645" stroke-width="0" /><circle c_padhole="1" cx="4139" cy="3108" r="2.1654" stroke-width="0" /></g><g c_partid="part_pad" c_etype="pinpart" c_origin="4139,3118" layerid="11" number="7" net="NANO_2_7" plated ="Y" c_shapetype="group" id="gge191" locked="0" c_rotation="270" c_width="6.6929" c_height="6.6929" title="NANO_2_7" c_shape="ELLIPSE" pasteExpansion="0" solderExpansion="0.4"><ellipse cx="4139" cy="3118" rx="3.34645" ry="3.34645" stroke-width="0" /><circle c_padhole="1" cx="4139" cy="3118" r="2.1654" stroke-width="0" /></g><g c_partid="part_pad" c_etype="pinpart" c_origin="4139,3128" layerid="11" number="8" net="NANO_2_8" plated ="Y" c_shapetype="group" id="gge192" locked="0" c_rotation="270" c_width="6.6929" c_height="6.6929" title="NANO_2_8" c_shape="ELLIPSE" pasteExpansion="0" solderExpansion="0.4"><ellipse cx="4139" cy="3128" rx="3.34645" ry="3.34645" stroke-width="0" /><circle c_padhole="1" cx="4139" cy="3128" r="2.1654" stroke-width="0" /></g><g c_partid="part_pad" c_etype="pinpart" c_origin="4139,3138" layerid="11" number="9" net="SAVE_BTN_2" plated ="Y" c_shapetype="group" id="gge193" locked="0" c_rotation="270" c_width="6.6929" c_height="6.6929" title="SAVE_BTN_2" c_shape="ELLIPSE" pasteExpansion="0" solderExpansion="0.4"><ellipse cx="4139" cy="3138" rx="3.34645" ry="3.34645" stroke-width="0" /><circle c_padhole="1" cx="4139" cy="3138" r="2.1654" stroke-width="0" /></g><g c_partid="part_pad" c_etype="pinpart" c_origin="4139,3148" layerid="11" number="10" net="NANO_2_10" plated ="Y" c_shapetype="group" id="gge194" locked="0" c_rotation="270" c_width="6.6929" c_height="6.6929" title="NANO_2_10" c_shape="ELLIPSE" pasteExpansion="0" solderExpansion="0.4"><ellipse cx="4139" cy="3148" rx="3.34645" ry="3.34645" stroke-width="0" /><circle c_padhole="1" cx="4139" cy="3148" r="2.1654" stroke-width="0" /></g><g c_partid="part_pad" c_etype="pinpart" c_origin="4139,3158" layerid="11" number="11" net="NANO_2_11" plated ="Y" c_shapetype="group" id="gge195" locked="0" c_rotation="270" c_width="6.6929" c_height="6.6929" title="NANO_2_11" c_shape="ELLIPSE" pasteExpansion="0" solderExpansion="0.4"><ellipse cx="4139" cy="3158" rx="3.34645" ry="3.34645" stroke-width="0" /><circle c_padhole="1" cx="4139" cy="3158" r="2.1654" stroke-width="0" /></g><g c_partid="part_pad" c_etype="pinpart" c_origin="4139,3168" layerid="11" number="12" net="GND" plated ="Y" c_shapetype="group" id="gge196" locked="0" c_rotation="270" c_width="6.6929" c_height="6.6929" title="GND" c_shape="ELLIPSE" pasteExpansion="0" solderExpansion="0.4"><ellipse cx="4139" cy="3168" rx="3.34645" ry="3.34645" stroke-width="0" /><circle c_padhole="1" cx="4139" cy="3168" r="2.1654" stroke-width="0" /></g><g c_partid="part_pad" c_etype="pinpart" c_origin="4139,3178" layerid="11" number="13" net="NANO_2_13" plated ="Y" c_shapetype="group" id="gge197" locked="0" c_rotation="270" c_width="6.6929" c_height="6.6929" title="NANO_2_13" c_shape="ELLIPSE" pasteExpansion="0" solderExpansion="0.4"><ellipse cx="4139" cy="3178" rx="3.34645" ry="3.34645" stroke-width="0" /><circle c_padhole="1" cx="4139" cy="3178" r="2.1654" stroke-width="0" /></g><g c_partid="part_pad" c_etype="pinpart" c_origin="4139,3188" layerid="11" number="14" net="NANO_2_14" plated ="Y" c_shapetype="group" id="gge198" locked="0" c_rotation="270" c_width="6.6929" c_height="6.6929" title="NANO_2_14" c_shape="ELLIPSE" pasteExpansion="0" solderExpansion="0.4"><ellipse cx="4139" cy="3188" rx="3.34645" ry="3.34645" stroke-width="0" /><circle c_padhole="1" cx="4139" cy="3188" r="2.1654" stroke-width="0" /></g><g c_partid="part_pad" c_etype="pinpart" c_origin="4139,3198" layerid="11" number="15" net="NANO_2_15" plated ="Y" c_shapetype="group" id="gge199" locked="0" c_rotation="270" c_width="6.6929" c_height="6.6929" title="NANO_2_15" c_shape="ELLIPSE" pasteExpansion="0" solderExpansion="0.4"><ellipse cx="4139" cy="3198" rx="3.34645" ry="3.34645" stroke-width="0" /><circle c_padhole="1" cx="4139" cy="3198" r="2.1654" stroke-width="0" /></g></g><g xmlns="http://www.w3.org/2000/svg" c_origin="4079,3128" c_para="package`DIP-1X15P2.54`" c_partid="part_import_gge200" id="gge200" c_shapetype="group" c_etype="pinpart" layerid="1" c_rotation="270"><g c_partid="part_pad" c_etype="pinpart" c_origin="4079,3058" layerid="11" number="1" net="NANO_1_1" plated ="Y" c_shapetype="group" id="gge205" locked="0" c_rotation="0" c_width="6.6929" c_height="6.6929" title="NANO_1_1" c_shape="RECT" pasteExpansion="0" solderExpansion="0.4"><polygon points="4075.654 3054.654 4082.347 3054.654 4082.347 3061.347 4075.654 3061.347" stroke-width="0" /><circle c_padhole="1" cx="4079" cy="3058" r="2.1654" stroke-width="0" /></g><g c_partid="part_pad" c_etype="pinpart" c_origin="4079,3068" layerid="11" number="2" net="NANO_1_2" plated ="Y" c_shapetype="group" id="gge206" locked="0" c_rotation="270" c_width="6.6929" c_height="6.6929" title="NANO_1_2" c_shape="ELLIPSE" pasteExpansion="0" solderExpansion="0.4"><ellipse cx="4079" cy="3068" rx="3.34645" ry="3.34645" stroke-width="0" /><circle c_padhole="1" cx="4079" cy="3068" r="2.1654" stroke-width="0" /></g><g c_partid="part_pad" c_etype="pinpart" c_origin="4079,3078" layerid="11" number="3" net="NANO_1_3" plated ="Y" c_shapetype="group" id="gge207" locked="0" c_rotation="270" c_width="6.6929" c_height="6.6929" title="NANO_1_3" c_shape="ELLIPSE" pasteExpansion="0" solderExpansion="0.4"><ellipse cx="4079" cy="3078" rx="3.34645" ry="3.34645" stroke-width="0" /><circle c_padhole="1" cx="4079" cy="3078" r="2.1654" stroke-width="0" /></g><g c_partid="part_pad" c_etype="pinpart" c_origin="4079,3088" layerid="11" number="4" net="NANO_1_4" plated ="Y" c_shapetype="group" id="gge208" locked="0" c_rotation="270" c_width="6.6929" c_height="6.6929" title="NANO_1_4" c_shape="ELLIPSE" pasteExpansion="0" solderExpansion="0.4"><ellipse cx="4079" cy="3088" rx="3.34645" ry="3.34645" stroke-width="0" /><circle c_padhole="1" cx="4079" cy="3088" r="2.1654" stroke-width="0" /></g><g c_partid="part_pad" c_etype="pinpart" c_origin="4079,3098" layerid="11" number="5" net="NANO_1_5" plated ="Y" c_shapetype="group" id="gge209" locked="0" c_rotation="270" c_width="6.6929" c_height="6.6929" title="NANO_1_5" c_shape="ELLIPSE" pasteExpansion="0" solderExpansion="0.4"><ellipse cx="4079" cy="3098" rx="3.34645" ry="3.34645" stroke-width="0" /><circle c_padhole="1" cx="4079" cy="3098" r="2.1654" stroke-width="0" /></g><g c_partid="part_pad" c_etype="pinpart" c_origin="4079,3108" layerid="11" number="6" net="POT_IN_1" plated ="Y" c_shapetype="group" id="gge210" locked="0" c_rotation="270" c_width="6.6929" c_height="6.6929" title="POT_IN_1" c_shape="ELLIPSE" pasteExpansion="0" solderExpansion="0.4"><ellipse cx="4079" cy="3108" rx="3.34645" ry="3.34645" stroke-width="0" /><circle c_padhole="1" cx="4079" cy="3108" r="2.1654" stroke-width="0" /></g><g c_partid="part_pad" c_etype="pinpart" c_origin="4079,3118" layerid="11" number="7" net="POT_OUT_1" plated ="Y" c_shapetype="group" id="gge211" locked="0" c_rotation="270" c_width="6.6929" c_height="6.6929" title="POT_OUT_1" c_shape="ELLIPSE" pasteExpansion="0" solderExpansion="0.4"><ellipse cx="4079" cy="3118" rx="3.34645" ry="3.34645" stroke-width="0" /><circle c_padhole="1" cx="4079" cy="3118" r="2.1654" stroke-width="0" /></g><g c_partid="part_pad" c_etype="pinpart" c_origin="4079,3128" layerid="11" number="8" net="DISP_2" plated ="Y" c_shapetype="group" id="gge212" locked="0" c_rotation="270" c_width="6.6929" c_height="6.6929" title="DISP_2" c_shape="ELLIPSE" pasteExpansion="0" solderExpansion="0.4"><ellipse cx="4079" cy="3128" rx="3.34645" ry="3.34645" stroke-width="0" /><circle c_padhole="1" cx="4079" cy="3128" r="2.1654" stroke-width="0" /></g><g c_partid="part_pad" c_etype="pinpart" c_origin="4079,3138" layerid="11" number="9" net="DISP_1" plated ="Y" c_shapetype="group" id="gge213" locked="0" c_rotation="270" c_width="6.6929" c_height="6.6929" title="DISP_1" c_shape="ELLIPSE" pasteExpansion="0" solderExpansion="0.4"><ellipse cx="4079" cy="3138" rx="3.34645" ry="3.34645" stroke-width="0" /><circle c_padhole="1" cx="4079" cy="3138" r="2.1654" stroke-width="0" /></g><g c_partid="part_pad" c_etype="pinpart" c_origin="4079,3148" layerid="11" number="10" net="NANO_1_10" plated ="Y" c_shapetype="group" id="gge214" locked="0" c_rotation="270" c_width="6.6929" c_height="6.6929" title="NANO_1_10" c_shape="ELLIPSE" pasteExpansion="0" solderExpansion="0.4"><ellipse cx="4079" cy="3148" rx="3.34645" ry="3.34645" stroke-width="0" /><circle c_padhole="1" cx="4079" cy="3148" r="2.1654" stroke-width="0" /></g><g c_partid="part_pad" c_etype="pinpart" c_origin="4079,3158" layerid="11" number="11" net="NANO_1_11" plated ="Y" c_shapetype="group" id="gge215" locked="0" c_rotation="270" c_width="6.6929" c_height="6.6929" title="NANO_1_11" c_shape="ELLIPSE" pasteExpansion="0" solderExpansion="0.4"><ellipse cx="4079" cy="3158" rx="3.34645" ry="3.34645" stroke-width="0" /><circle c_padhole="1" cx="4079" cy="3158" r="2.1654" stroke-width="0" /></g><g c_partid="part_pad" c_etype="pinpart" c_origin="4079,3168" layerid="11" number="12" net="+5V" plated ="Y" c_shapetype="group" id="gge216" locked="0" c_rotation="270" c_width="6.6929" c_height="6.6929" title="+5V" c_shape="ELLIPSE" pasteExpansion="0" solderExpansion="0.4"><ellipse cx="4079" cy="3168" rx="3.34645" ry="3.34645" stroke-width="0" /><circle c_padhole="1" cx="4079" cy="3168" r="2.1654" stroke-width="0" /></g><g c_partid="part_pad" c_etype="pinpart" c_origin="4079,3178" layerid="11" number="13" net="NANO_1_13" plated ="Y" c_shapetype="group" id="gge217" locked="0" c_rotation="270" c_width="6.6929" c_height="6.6929" title="NANO_1_13" c_shape="ELLIPSE" pasteExpansion="0" solderExpansion="0.4"><ellipse cx="4079" cy="3178" rx="3.34645" ry="3.34645" stroke-width="0" /><circle c_padhole="1" cx="4079" cy="3178" r="2.1654" stroke-width="0" /></g><g c_partid="part_pad" c_etype="pinpart" c_origin="4079,3188" layerid="11" number="14" net="GND" plated ="Y" c_shapetype="group" id="gge218" locked="0" c_rotation="270" c_width="6.6929" c_height="6.6929" title="GND" c_shape="ELLIPSE" pasteExpansion="0" solderExpansion="0.4"><ellipse cx="4079" cy="3188" rx="3.34645" ry="3.34645" stroke-width="0" /><circle c_padhole="1" cx="4079" cy="3188" r="2.1654" stroke-width="0" /></g><g c_partid="part_pad" c_etype="pinpart" c_origin="4079,3198" layerid="11" number="15" net="NANO_1_15" plated ="Y" c_shapetype="group" id="gge219" locked="0" c_rotation="270" c_width="6.6929" c_height="6.6929" title="NANO_1_15" c_shape="ELLIPSE" pasteExpansion="0" solderExpansion="0.4"><ellipse cx="4079" cy="3198" rx="3.34645" ry="3.34645" stroke-width="0" /><circle c_padhole="1" cx="4079" cy="3198" r="2.1654" stroke-width="0" /></g></g><g xmlns="http://www.w3.org/2000/svg" c_origin="4168,3093" c_para="package`PJ-002A`" c_partid="part_import_gge220" id="gge220" c_shapetype="group" c_etype="pinpart" layerid="1" c_rotation="270"><g c_partid="part_pad" c_etype="pinpart" c_origin="4177.25,3104.81" layerid="11" number="1" net="DC1_1" plated ="Y" c_shapetype="group" id="gge232" locked="0" c_rotation="270" c_width="7.0866" c_height="16.5354" title="DC1_1" c_shape="OVAL" pasteExpansion="0" solderExpansion="0.4"><polyline points="4181.974 3104.81 4172.526 3104.81" stroke-width="7.0866" /><polyline c_padhole="1" points="4172.331 3104.81 4182.174 3104.81" stroke-width="4.7244"></polyline></g><g c_partid="part_pad" c_etype="pinpart" c_origin="4177.25,3081.19" layerid="11" number="2" net="GND" plated ="Y" c_shapetype="group" id="gge235" locked="0" c_rotation="90" c_width="7.0866" c_height="16.5354" title="GND" c_shape="OVAL" pasteExpansion="0" solderExpansion="0.4"><polyline points="4172.526 3081.19 4181.974 3081.19" stroke-width="7.0866" /><polyline c_padhole="1" points="4182.174 3081.19 4172.331 3081.19" stroke-width="4.7244"></polyline></g><g c_partid="part_pad" c_etype="pinpart" c_origin="4158.75,3093" layerid="11" number="3" net="GND" plated ="Y" c_shapetype="group" id="gge240" locked="0" c_rotation="180" c_width="7.0866" c_height="16.5354" title="GND" c_shape="OVAL" pasteExpansion="0" solderExpansion="0.4"><polyline points="4158.75 3097.724 4158.75 3088.276" stroke-width="7.0866" /><polyline c_padhole="1" points="4158.747 3088.079 4158.747 3097.921" stroke-width="4.7244"></polyline></g></g><g xmlns="http://www.w3.org/2000/svg" c_origin="4176.5,3126" c_para="package`HDR-1X2/2.54`" c_partid="part_import_gge245" id="gge245" c_shapetype="group" c_etype="pinpart" layerid="1" ><g c_partid="part_pad" c_etype="pinpart" c_origin="4171.5,3126" layerid="11" number="1" net="NANO_1_15" plated ="Y" c_shapetype="group" id="gge251" locked="0" c_rotation="270" c_width="6.2" c_height="6.2" title="NANO_1_15" c_shape="RECT" pasteExpansion="0" solderExpansion="0.4"><polygon points="4174.6 3122.9 4174.6 3129.1 4168.4 3129.1 4168.4 3122.9" stroke-width="0" /><circle c_padhole="1" cx="4171.5" cy="3126" r="1.75" stroke-width="0" /></g><g c_partid="part_pad" c_etype="pinpart" c_origin="4181.5,3126" layerid="11" number="2" net="DC1_1" plated ="Y" c_shapetype="group" id="gge254" locked="0" c_rotation="270" c_width="6.2" c_height="6.2" title="DC1_1" c_shape="ELLIPSE" pasteExpansion="0" solderExpansion="0.4"><ellipse cx="4181.5" cy="3126" rx="3.1" ry="3.1" stroke-width="0" /><circle c_padhole="1" cx="4181.5" cy="3126" r="1.75" stroke-width="0" /></g></g><g xmlns="http://www.w3.org/2000/svg" c_origin="4248.5,3233" c_para="package`HDR-2X2/2.54`" c_partid="part_import_gge259" id="gge259" c_shapetype="group" c_etype="pinpart" layerid="1" ><g c_partid="part_pad" c_etype="pinpart" c_origin="4243.5,3228" layerid="11" number="1" net="NANO_2_14" plated ="Y" c_shapetype="group" id="gge264" locked="0" c_rotation="270" c_width="6.2" c_height="6.2" title="NANO_2_14" c_shape="RECT" pasteExpansion="0" solderExpansion="0.4"><polygon points="4246.6 3224.9 4246.6 3231.1 4240.4 3231.1 4240.4 3224.9" stroke-width="0" /><circle c_padhole="1" cx="4243.5" cy="3228" r="1.75" stroke-width="0" /></g><g c_partid="part_pad" c_etype="pinpart" c_origin="4253.5,3228" layerid="11" number="2" net="U1_6" plated ="Y" c_shapetype="group" id="gge267" locked="0" c_rotation="270" c_width="6.2" c_height="6.2" title="U1_6" c_shape="ELLIPSE" pasteExpansion="0" solderExpansion="0.4"><ellipse cx="4253.5" cy="3228" rx="3.1" ry="3.1" stroke-width="0" /><circle c_padhole="1" cx="4253.5" cy="3228" r="1.75" stroke-width="0" /></g><g c_partid="part_pad" c_etype="pinpart" c_origin="4243.5,3238" layerid="11" number="3" net="NANO_2_15" plated ="Y" c_shapetype="group" id="gge272" locked="0" c_rotation="270" c_width="6.2" c_height="6.2" title="NANO_2_15" c_shape="ELLIPSE" pasteExpansion="0" solderExpansion="0.4"><ellipse cx="4243.5" cy="3238" rx="3.1" ry="3.1" stroke-width="0" /><circle c_padhole="1" cx="4243.5" cy="3238" r="1.75" stroke-width="0" /></g><g c_partid="part_pad" c_etype="pinpart" c_origin="4253.5,3238" layerid="11" number="4" net="R2_1" plated ="Y" c_shapetype="group" id="gge277" locked="0" c_rotation="270" c_width="6.2" c_height="6.2" title="R2_1" c_shape="ELLIPSE" pasteExpansion="0" solderExpansion="0.4"><ellipse cx="4253.5" cy="3238" rx="3.1" ry="3.1" stroke-width="0" /><circle c_padhole="1" cx="4253.5" cy="3238" r="1.75" stroke-width="0" /></g></g><polyline points="4048 3048 4398.394 3048 4398.394 3252.724 4048 3252.724 4048 3048" stroke-width="1" c_shapetype="line" stroke-linecap="round" fill="none" layerid="10" net="" id="gge288" /><g c_partid="part_hole" c_etype="pinpart" c_shapetype="group" c_origin="4060.5,3239.25" layerid="11" id="gge297" ><circle cx="4060.5" cy="3239.25" r="4"   stroke-width="0" /></g><g c_partid="part_hole" c_etype="pinpart" c_shapetype="group" c_origin="4060.5,3059.25" layerid="11" id="gge301" ><circle cx="4060.5" cy="3059.25" r="4"   stroke-width="0" /></g><g c_partid="part_hole" c_etype="pinpart" c_shapetype="group" c_origin="4387,3059.25" layerid="11" id="gge305" ><circle cx="4387" cy="3059.25" r="4"   stroke-width="0" /></g><g c_partid="part_hole" c_etype="pinpart" c_shapetype="group" c_origin="4387,3239.25" layerid="11" id="gge309" ><circle cx="4387" cy="3239.25" r="4"   stroke-width="0" /></g><g c_partid="part_via" c_etype="pinpart" c_shapetype="group" net="SAVE_BTN_2" c_origin="4101.44,3154.53" layerid="11" id="gge437" locked="" solderExpansion=""><circle cx="4101.44" cy="3154.53" r="1.2008" stroke-width="0" /><circle cx="4101.44" cy="3154.53" r="0.6102"  stroke-width="0" /></g><g c_partid="part_via" c_etype="pinpart" c_shapetype="group" net="NANO_1_15" c_origin="4115.96,3198" layerid="11" id="gge452" locked="" solderExpansion=""><circle cx="4115.96" cy="3198" r="1.2008" stroke-width="0" /><circle cx="4115.96" cy="3198" r="0.6102"  stroke-width="0" /></g></g></svg>