<svg xmlns="http://www.w3.org/2000/svg" xmlns:xlink="http://www.w3.org/1999/xlink" width="100.584mm" height="61.976mm" viewBox="4027.5 3028 396 244"><title></title><style type="text/css">
*[layerid="1"] {stroke:#FF0000;fill:#FF0000;}
*[layerid="2"] {stroke:#0000FF;fill:#0000FF;}
*[layerid="3"] {stroke:#FFCC00;fill:#FFCC00;}
*[layerid="4"] {stroke:#66CC33;fill:#66CC33;}
*[layerid="5"] {stroke:#808080;fill:#808080;}
*[layerid="6"] {stroke:#800000;fill:#800000;}
*[layerid="7"] {stroke:#800080;fill:#800080;stroke-opacity:0.7;fill-opacity:0.7;}
*[layerid="8"] {stroke:#AA00FF;fill:#AA00FF;stroke-opacity:0.7;fill-opacity:0.7;}
*[layerid="9"] {stroke:#6464FF;fill:#6464FF;}
*[layerid="10"] {stroke:#FF00FF;fill:#FF00FF;}
*[layerid="11"] {stroke:#C0C0C0;fill:#C0C0C0;}
*[layerid="12"] {stroke:#FFFFFF;fill:#FFFFFF;}
*[layerid="13"] {stroke:#33CC99;fill:#33CC99;}
*[layerid="14"] {stroke:#5555FF;fill:#5555FF;}
*[layerid="15"] {stroke:#F022F0;fill:#F022F0;}
*[layerid="21"] {stroke:#800000;fill:#800000;}
*[layerid="22"] {stroke:#008000;fill:#008000;}
*[layerid="23"] {stroke:#00FF00;fill:#00FF00;}
*[layerid="24"] {stroke:#BC8E00;fill:#BC8E00;}
*[layerid="25"] {stroke:#70DBFA;fill:#70DBFA;}
*[layerid="26"] {stroke:#00CC66;fill:#00CC66;}
*[layerid="27"] {stroke:#9966FF;fill:#9966FF;}
*[layerid="28"] {stroke:#800080;fill:#800080;}
*[layerid="29"] {stroke:#008080;fill:#008080;}
*[layerid="30"] {stroke:#15935F;fill:#15935F;}
*[layerid="31"] {stroke:#000080;fill:#000080;}
*[layerid="32"] {stroke:#00B400;fill:#00B400;}
*[layerid="33"] {stroke:#2E4756;fill:#2E4756;}
*[layerid="34"] {stroke:#99842F;fill:#99842F;}
*[layerid="35"] {stroke:#FFFFAA;fill:#FFFFAA;}
*[layerid="36"] {stroke:#99842F;fill:#99842F;}
*[layerid="37"] {stroke:#2E4756;fill:#2E4756;}
*[layerid="38"] {stroke:#3535FF;fill:#3535FF;}
*[layerid="39"] {stroke:#8000BC;fill:#8000BC;}
*[layerid="40"] {stroke:#43AE5F;fill:#43AE5F;}
*[layerid="41"] {stroke:#C3ECCE;fill:#C3ECCE;}
*[layerid="42"] {stroke:#728978;fill:#728978;}
*[layerid="43"] {stroke:#39503F;fill:#39503F;}
*[layerid="44"] {stroke:#0C715D;fill:#0C715D;}
*[layerid="45"] {stroke:#5A8A80;fill:#5A8A80;}
*[layerid="46"] {stroke:#2B937E;fill:#2B937E;}
*[layerid="47"] {stroke:#23999D;fill:#23999D;}
*[layerid="48"] {stroke:#45B4E3;fill:#45B4E3;}
*[layerid="49"] {stroke:#215DA1;fill:#215DA1;}
*[layerid="50"] {stroke:#4564D7;fill:#4564D7;}
*[layerid="51"] {stroke:#6969E9;fill:#6969E9;}
*[layerid="52"] {stroke:#9069E9;fill:#9069E9;}
*[fill="none"] {fill: none;}
*[stroke="none"] {stroke: none;}
path, polyline, polygon, line {stroke-linecap:round;}
g[c_partid="part_pad"][layerid="1"] ellipse:not([c_padid]) {fill:#FF0000;}
g[c_partid="part_pad"][layerid="1"]  polygon:not([c_padid]) {fill:#FF0000;}
g[c_partid="part_pad"][layerid="1"]  polyline:not([c_padid]) {stroke:#FF0000;}
g[c_partid="part_pad"][layerid="1"]  circle {fill:#FF0000;}
g[c_partid="part_pad"][layerid="2"]  ellipse:not([c_padid]) {fill:#0000FF;}
g[c_partid="part_pad"][layerid="2"]  polygon:not([c_padid]) {fill:#0000FF;}
g[c_partid="part_pad"][layerid="2"]  polyline:not([c_padid]) {stroke:#0000FF;}
g[c_partid="part_pad"][layerid="2"]  circle {fill:#0000FF;}
g[c_partid="part_pad"][layerid="11"]  ellipse:not([c_padid]) {fill:#C0C0C0;}
g[c_partid="part_pad"][layerid="11"]  polygon:not([c_padid]) {fill:#C0C0C0;}
g[c_partid="part_pad"][layerid="11"]  polyline:not([c_padid]) {stroke:#C0C0C0;}
g[c_partid="part_pad"][layerid="11"]  circle {fill:#C0C0C0;}
g[c_partid="part_pad"][layerid] > circle[c_padhole] {fill: #222222;}
g[c_partid="part_pad"][layerid] > polyline[c_padhole] {stroke:#222222;}
g[c_partid="part_via"][layerid] > * + circle {fill: #222222;}
g[c_partid="part_pad"] > polygon[c_padid] {stroke-linejoin: miter;stroke-miterlimit: 100;}
g[c_partid="part_hole"] > circle {fill: #222222;}path, polyline, polygon {stroke-linejoin:round;}
rect, circle, ellipse, polyline, line, polygon, path {shape-rendering:crispEdges;}
</style>
<rect x="4027.5" y="3028" width="396" height="244" fill="#000000" stroke="none"/><g id="g1" cpara="package`HDR-2X2/2.54`" c_transformList="" importFlag="0" xmlns="http://www.w3.org/2000/svg"><path d="M 4049.46 3251.6644 A 0.4 0.4 0 0 1 4049.06 3251.2644 L 4049.06 3049.46 A 0.4 0.4 0 0 1 4049.46 3049.06 L 4396.9337 3049.06 A 0.4 0.4 0 0 1 4397.3337 3049.46 L 4397.3337 3251.2644 A 0.4 0.4 0 0 1 4396.9337 3251.6644 L 4049.46 3251.6644 Z M 4090.72497 3232.35503 A 2.26985 2.26985 0 0 0 4092.33 3233.01985 L 4186.63 3233.01985 A 2.26985 2.26985 0 0 0 4188.23503 3232.35503 L 4188.23503 3232.35503 4192.70305 3227.88701 A 0.4 0.4 0 0 1 4192.98589 3227.76985 L 4192.99 3227.76985 A 0.4 0.4 0 0 1 4193.39 3228.16985 L 4193.39 3228.6 A 1.01 1.01 0 0 0 4194.4 3229.61 L 4194.4 3229.61 4200.6 3229.61 4200.6 3229.61 A 1.01 1.01 0 0 0 4201.61 3228.6 L 4201.61 3222.4 A 1.01 1.01 0 0 0 4200.6 3221.39 L 4200.6 3221.39 4194.4 3221.39 4194.4 3221.39 A 1.01 1.01 0 0 0 4193.39 3222.4 L 4193.39 3222.83015 A 0.4 0.4 0 0 1 4192.99 3223.23015 L 4191.88 3223.23015 A 2.26985 2.26985 0 0 0 4190.27497 3223.89497 L 4190.27497 3223.89497 4185.80695 3228.36299 A 0.4 0.4 0 0 1 4185.52411 3228.48015 L 4178.29436 3228.48015 A 0.4 0.4 0 0 1 4177.89436 3228.08015 0.4 0.4 0 0 1 4178.00217 3227.80697 4.11 4.11 0 0 0 4179.11 3225.0 4.11 4.11 0 0 0 4175.0 3220.89 4.11 4.11 0 0 0 4174.37817 3220.93731 L 4174.37817 3220.93731 A 0.4 0.4 0 0 1 4174.31765 3220.94192 0.4 0.4 0 0 1 4174.03481 3220.82476 L 4171.01503 3217.80497 4171.01503 3217.80497 A 2.26985 2.26985 0 0 0 4169.41 3217.14015 L 4153.07589 3217.14015 A 0.4 0.4 0 0 1 4152.79305 3217.02299 L 4138.80847 3203.03842 A 0.4 0.4 0 0 1 4138.69131 3202.75557 0.4 0.4 0 0 1 4139.08363 3202.35565 L 4139.08363 3202.35565 A 4.35645 4.35645 0 0 0 4142.60542 3200.44533 0.4 0.4 0 0 1 4142.93646 3200.26985 L 4306.03411 3200.26985 A 0.4 0.4 0 0 1 4306.31695 3200.38701 L 4306.31695 3200.38701 4306.82499 3200.89505 4306.82499 3200.89505 A 0.4 0.4 0 0 1 4306.94215 3201.17789 0.4 0.4 0 0 1 4306.68566 3201.55126 L 4306.68566 3201.55126 A 2.26985 2.26985 0 0 0 4305.23015 3203.67 L 4305.23015 3203.67 4305.23015 3221.0 4305.23015 3221.0 A 2.26985 2.26985 0 0 0 4305.89497 3222.60503 L 4305.89497 3222.60503 4307.40866 3224.11871 A 0.4 0.4 0 0 1 4307.52581 3224.40155 0.4 0.4 0 0 1 4307.51377 3224.49897 4.11 4.11 0 0 0 4307.39 3225.5 4.11 4.11 0 0 0 4311.5 3229.61 4.11 4.11 0 0 0 4315.61 3225.5 4.11 4.11 0 0 0 4311.5 3221.39 4.11 4.11 0 0 0 4311.29179 3221.39528 L 4311.29179 3221.39528 A 0.4 0.4 0 0 1 4311.27153 3221.39579 0.4 0.4 0 0 1 4310.98869 3221.27863 L 4309.88701 3220.17695 A 0.4 0.4 0 0 1 4309.76985 3219.89411 L 4309.76985 3207.94559 A 0.4 0.4 0 0 1 4310.16985 3207.54559 0.4 0.4 0 0 1 4310.45269 3207.66275 L 4327.32476 3224.53481 A 0.4 0.4 0 0 1 4327.44192 3224.81765 0.4 0.4 0 0 1 4327.43731 3224.87817 L 4327.43731 3224.87817 A 4.11 4.11 0 0 0 4327.39 3225.5 4.11 4.11 0 0 0 4331.5 3229.61 4.11 4.11 0 0 0 4335.61 3225.5 4.11 4.11 0 0 0 4331.5 3221.39 4.11 4.11 0 0 0 4330.87817 3221.43731 L 4330.87817 3221.43731 A 0.4 0.4 0 0 1 4330.81765 3221.44192 0.4 0.4 0 0 1 4330.53481 3221.32476 L 4329.5029 3220.29284 A 0.4 0.4 0 0 1 4329.38574 3220.01 0.4 0.4 0 0 1 4329.78574 3219.61 L 4334.6 3219.61 4334.6 3219.61 A 1.01 1.01 0 0 0 4335.61 3218.6 L 4335.61 3212.78574 A 0.4 0.4 0 0 1 4336.01 3212.38574 0.4 0.4 0 0 1 4336.29284 3212.5029 L 4336.29284 3212.5029 4337.52376 3213.73381 4337.52376 3213.73381 A 0.4 0.4 0 0 1 4337.64092 3214.01666 0.4 0.4 0 0 1 4337.61866 3214.14822 L 4337.61866 3214.14822 A 4.11 4.11 0 0 0 4337.39 3215.5 4.11 4.11 0 0 0 4341.5 3219.61 4.11 4.11 0 0 0 4344.41632 3218.39606 L 4344.41632 3218.39606 A 0.4 0.4 0 0 1 4344.70015 3218.27791 0.4 0.4 0 0 1 4345.10015 3218.67791 L 4345.10015 3219.52411 A 0.4 0.4 0 0 1 4344.98299 3219.80695 L 4344.98299 3219.80695 4343.26619 3221.52376 4343.26619 3221.52376 A 0.4 0.4 0 0 1 4342.98334 3221.64092 0.4 0.4 0 0 1 4342.85178 3221.61866 4.11 4.11 0 0 0 4341.5 3221.39 4.11 4.11 0 0 0 4337.39 3225.5 4.11 4.11 0 0 0 4341.5 3229.61 4.11 4.11 0 0 0 4345.6024 3225.74977 0.4 0.4 0 0 1 4345.71882 3225.49123 L 4345.71882 3225.49123 4348.97503 3222.23503 A 2.26985 2.26985 0 0 0 4349.63985 3220.63 L 4349.63985 3220.63 4349.63985 3199.37 4349.63985 3199.37 A 2.26985 2.26985 0 0 0 4348.97503 3197.76497 L 4348.97503 3197.76497 4343.68594 3192.47588 A 0.4 0.4 0 0 1 4343.56878 3192.19304 0.4 0.4 0 0 1 4343.57983 3192.09965 L 4343.57983 3192.09965 A 4.71 4.71 0 0 0 4343.71 3191.0 4.71 4.71 0 0 0 4339.0 3186.29 4.71 4.71 0 0 0 4334.29 3191.0 4.71 4.71 0 0 0 4339.0 3195.71 4.71 4.71 0 0 0 4340.09965 3195.57983 L 4340.09965 3195.57983 A 0.4 0.4 0 0 1 4340.19304 3195.56878 0.4 0.4 0 0 1 4340.47588 3195.68594 L 4344.98299 3200.19305 A 0.4 0.4 0 0 1 4345.10015 3200.47589 L 4345.10015 3212.32209 A 0.4 0.4 0 0 1 4344.70015 3212.72209 0.4 0.4 0 0 1 4344.41632 3212.60394 4.11 4.11 0 0 0 4341.74977 3211.3976 L 4341.74977 3211.3976 A 0.4 0.4 0 0 1 4341.49123 3211.28118 L 4332.98503 3202.77497 4332.98503 3202.77497 A 2.26985 2.26985 0 0 0 4331.38 3202.11015 L 4321.13589 3202.11015 A 0.4 0.4 0 0 1 4320.85305 3201.99299 L 4314.4181 3195.55805 A 0.4 0.4 0 0 1 4314.30094 3195.27521 0.4 0.4 0 0 1 4314.70094 3194.87521 0.4 0.4 0 0 1 4314.92005 3194.94055 4.71 4.71 0 0 0 4317.5 3195.71 4.71 4.71 0 0 0 4322.21 3191.0 4.71 4.71 0 0 0 4317.5 3186.29 4.71 4.71 0 0 0 4312.79 3191.0 4.71 4.71 0 0 0 4313.55945 3193.57995 0.4 0.4 0 0 1 4313.62479 3193.79906 0.4 0.4 0 0 1 4313.22479 3194.19906 0.4 0.4 0 0 1 4312.94195 3194.0819 L 4308.25503 3189.39497 4308.25503 3189.39497 A 2.26985 2.26985 0 0 0 4306.65 3188.73015 L 4300.85706 3188.73015 A 0.4 0.4 0 0 1 4300.516 3188.53914 4.71 4.71 0 0 0 4296.5 3186.29 4.71 4.71 0 0 0 4291.79 3191.0 4.71 4.71 0 0 0 4293.99911 3194.9912 L 4293.99911 3194.9912 A 0.4 0.4 0 0 1 4294.18672 3195.33015 0.4 0.4 0 0 1 4293.78672 3195.73015 L 4198.66786 3195.73015 A 0.4 0.4 0 0 1 4198.26786 3195.33015 0.4 0.4 0 0 1 4198.5373 3194.95206 4.71 4.71 0 0 0 4201.71 3190.5 4.71 4.71 0 0 0 4199.46086 3186.484 L 4199.46086 3186.484 A 0.4 0.4 0 0 1 4199.26985 3186.14294 L 4199.26985 3173.60589 A 0.4 0.4 0 0 1 4199.38701 3173.32305 L 4217.48273 3155.22733 A 0.4 0.4 0 0 1 4217.76557 3155.11017 0.4 0.4 0 0 1 4217.86126 3155.12178 4.76 4.76 0 0 0 4219.0 3155.26 4.76 4.76 0 0 0 4220.13874 3155.12178 L 4220.13874 3155.12178 A 0.4 0.4 0 0 1 4220.23443 3155.11017 0.4 0.4 0 0 1 4220.51727 3155.22733 L 4227.89497 3162.60503 4227.89497 3162.60503 A 2.26985 2.26985 0 0 0 4229.5 3163.26985 L 4232.80331 3163.26985 A 0.4 0.4 0 0 1 4233.12758 3163.43565 4.16 4.16 0 0 0 4236.5 3165.16 4.16 4.16 0 0 0 4238.57256 3164.60695 L 4238.57256 3164.60695 A 0.4 0.4 0 0 1 4238.77184 3164.55377 0.4 0.4 0 0 1 4239.17184 3164.95377 0.4 0.4 0 0 1 4239.05464 3165.23666 L 4237.50961 3166.78119 A 0.4 0.4 0 0 1 4237.22682 3166.8983 0.4 0.4 0 0 1 4237.16306 3166.89318 4.16 4.16 0 0 0 4236.5 3166.84 4.16 4.16 0 0 0 4232.34 3171.0 4.16 4.16 0 0 0 4232.39307 3171.66239 0.4 0.4 0 0 1 4232.39818 3171.72608 0.4 0.4 0 0 1 4232.28102 3172.00893 L 4226.17695 3178.11299 A 0.4 0.4 0 0 1 4225.89411 3178.23015 L 4223.4156 3178.23015 A 0.4 0.4 0 0 1 4223.0733 3178.03712 L 4223.0733 3178.03712 A 4.76 4.76 0 0 0 4219.0 3175.74 4.76 4.76 0 0 0 4214.24 3180.5 4.76 4.76 0 0 0 4219.0 3185.26 4.76 4.76 0 0 0 4223.0733 3182.96288 L 4223.0733 3182.96288 A 0.4 0.4 0 0 1 4223.4156 3182.76985 L 4227.0 3182.76985 A 2.26985 2.26985 0 0 0 4228.60503 3182.10503 L 4228.60503 3182.10503 4232.26156 3178.4485 A 0.4 0.4 0 0 1 4232.5444 3178.33134 0.4 0.4 0 0 1 4232.9444 3178.73134 0.4 0.4 0 0 1 4232.89138 3178.93034 4.16 4.16 0 0 0 4232.34 3181.0 4.16 4.16 0 0 0 4236.5 3185.16 4.16 4.16 0 0 0 4240.66 3181.0 4.16 4.16 0 0 0 4236.5 3176.84 4.16 4.16 0 0 0 4234.43034 3177.39138 0.4 0.4 0 0 1 4234.23134 3177.4444 0.4 0.4 0 0 1 4233.83134 3177.0444 0.4 0.4 0 0 1 4233.9485 3176.76156 L 4235.49107 3175.21898 A 0.4 0.4 0 0 1 4235.77392 3175.10182 0.4 0.4 0 0 1 4235.83761 3175.10693 4.16 4.16 0 0 0 4236.5 3175.16 4.16 4.16 0 0 0 4240.66 3171.0 4.16 4.16 0 0 0 4240.60703 3170.33828 L 4240.60703 3170.33828 A 0.4 0.4 0 0 1 4240.60194 3170.27465 0.4 0.4 0 0 1 4240.71914 3169.99176 L 4262.25115 3148.46677 A 0.4 0.4 0 0 1 4262.53395 3148.34966 0.4 0.4 0 0 1 4262.93395 3148.74966 0.4 0.4 0 0 1 4262.88185 3148.94705 4.16 4.16 0 0 0 4262.34 3151.0 4.16 4.16 0 0 0 4266.5 3155.16 4.16 4.16 0 0 0 4270.66 3151.0 4.16 4.16 0 0 0 4266.5 3146.84 4.16 4.16 0 0 0 4264.44823 3147.38118 0.4 0.4 0 0 1 4264.25095 3147.43322 0.4 0.4 0 0 1 4263.85095 3147.03322 0.4 0.4 0 0 1 4263.96815 3146.75033 L 4268.79476 3141.92529 A 2.26985 2.26985 0 0 0 4269.45985 3140.32 L 4269.45985 3140.32 4269.45985 3113.35774 A 0.4 0.4 0 0 1 4269.65599 3113.01359 4.8485 4.8485 0 0 0 4272.0335 3108.842 4.8485 4.8485 0 0 0 4267.185 3103.9935 4.8485 4.8485 0 0 0 4262.3365 3108.842 4.8485 4.8485 0 0 0 4264.72324 3113.01905 L 4264.72324 3113.01905 A 0.4 0.4 0 0 1 4264.92015 3113.36365 L 4264.92015 3139.21386 A 0.4 0.4 0 0 1 4264.80295 3139.49675 L 4240.73583 3163.55602 A 0.4 0.4 0 0 1 4240.45303 3163.67313 0.4 0.4 0 0 1 4240.05303 3163.27313 0.4 0.4 0 0 1 4240.10628 3163.07373 L 4240.10628 3163.07373 A 4.16 4.16 0 0 0 4240.66 3161.0 4.16 4.16 0 0 0 4236.5 3156.84 4.16 4.16 0 0 0 4233.12758 3158.56435 0.4 0.4 0 0 1 4232.80331 3158.73015 L 4230.60589 3158.73015 A 0.4 0.4 0 0 1 4230.32305 3158.61299 L 4223.72733 3152.01727 A 0.4 0.4 0 0 1 4223.61017 3151.73443 0.4 0.4 0 0 1 4223.62178 3151.63874 4.76 4.76 0 0 0 4223.76 3150.5 4.76 4.76 0 0 0 4219.0 3145.74 4.76 4.76 0 0 0 4214.24 3150.5 4.76 4.76 0 0 0 4214.37822 3151.63874 L 4214.37822 3151.63874 A 0.4 0.4 0 0 1 4214.38983 3151.73443 0.4 0.4 0 0 1 4214.27267 3152.01727 L 4195.39497 3170.89497 4195.39497 3170.89497 A 2.26985 2.26985 0 0 0 4194.73015 3172.5 L 4194.73015 3172.5 4194.73015 3186.14294 A 0.4 0.4 0 0 1 4194.53914 3186.484 4.71 4.71 0 0 0 4192.29 3190.5 4.71 4.71 0 0 0 4195.4627 3194.95206 0.4 0.4 0 0 1 4195.73214 3195.33015 0.4 0.4 0 0 1 4195.33214 3195.73015 L 4174.66786 3195.73015 4171.33214 3195.73015 4142.93646 3195.73015 A 0.4 0.4 0 0 1 4142.60542 3195.55467 4.35645 4.35645 0 0 0 4139.0 3193.64355 4.35645 4.35645 0 0 0 4135.86747 3194.97247 0.4 0.4 0 0 1 4135.57985 3195.09449 0.4 0.4 0 0 1 4135.17985 3194.69449 L 4135.17985 3191.30551 A 0.4 0.4 0 0 1 4135.57985 3190.90551 0.4 0.4 0 0 1 4135.86747 3191.02753 4.35645 4.35645 0 0 0 4139.0 3192.35645 4.35645 4.35645 0 0 0 4143.35645 3188.0 4.35645 4.35645 0 0 0 4139.0 3183.64355 4.35645 4.35645 0 0 0 4135.86747 3184.97247 0.4 0.4 0 0 1 4135.57985 3185.09449 0.4 0.4 0 0 1 4135.17985 3184.69449 L 4135.17985 3181.30551 A 0.4 0.4 0 0 1 4135.57985 3180.90551 0.4 0.4 0 0 1 4135.86747 3181.02753 4.35645 4.35645 0 0 0 4139.0 3182.35645 4.35645 4.35645 0 0 0 4143.35645 3178.0 4.35645 4.35645 0 0 0 4139.0 3173.64355 4.35645 4.35645 0 0 0 4135.86747 3174.97247 0.4 0.4 0 0 1 4135.57985 3175.09449 0.4 0.4 0 0 1 4135.17985 3174.69449 L 4135.17985 3171.30551 A 0.4 0.4 0 0 1 4135.57985 3170.90551 0.4 0.4 0 0 1 4135.86747 3171.02753 4.35645 4.35645 0 0 0 4137.07678 3171.90895 L 4137.07678 3169.92323 4135.57985 3169.92323 A 0.4 0.4 0 0 1 4135.17985 3169.52322 L 4135.17985 3166.47678 A 0.4 0.4 0 0 1 4135.57985 3166.07677 L 4137.07678 3166.07677 4137.07678 3164.09105 A 4.35645 4.35645 0 0 0 4135.86747 3164.97247 0.4 0.4 0 0 1 4135.57985 3165.09449 0.4 0.4 0 0 1 4135.17985 3164.69449 L 4135.17985 3161.30551 A 0.4 0.4 0 0 1 4135.57985 3160.90551 0.4 0.4 0 0 1 4135.86747 3161.02753 4.35645 4.35645 0 0 0 4139.0 3162.35645 4.35645 4.35645 0 0 0 4143.35645 3158.0 4.35645 4.35645 0 0 0 4139.0 3153.64355 4.35645 4.35645 0 0 0 4135.86747 3154.97247 0.4 0.4 0 0 1 4135.57985 3155.09449 0.4 0.4 0 0 1 4135.17985 3154.69449 L 4135.17985 3151.30551 A 0.4 0.4 0 0 1 4135.57985 3150.90551 0.4 0.4 0 0 1 4135.86747 3151.02753 4.35645 4.35645 0 0 0 4139.0 3152.35645 4.35645 4.35645 0 0 0 4143.35645 3148.0 4.35645 4.35645 0 0 0 4139.0 3143.64355 4.35645 4.35645 0 0 0 4137.3177 3143.98148 L 4137.3177 3143.98148 A 0.4 0.4 0 0 1 4137.16323 3144.01251 0.4 0.4 0 0 1 4136.76323 3143.61251 0.4 0.4 0 0 1 4136.88039 3143.32966 L 4137.82153 3142.38852 A 0.4 0.4 0 0 1 4138.10437 3142.27137 0.4 0.4 0 0 1 4138.17969 3142.27852 L 4138.17969 3142.27852 A 4.35645 4.35645 0 0 0 4139.0 3142.35645 4.35645 4.35645 0 0 0 4143.35645 3138.0 4.35645 4.35645 0 0 0 4139.0 3133.64355 4.35645 4.35645 0 0 0 4134.64355 3138.0 4.35645 4.35645 0 0 0 4134.72148 3138.82031 L 4134.72148 3138.82031 A 0.4 0.4 0 0 1 4134.72863 3138.89563 0.4 0.4 0 0 1 4134.61148 3139.17847 L 4131.30497 3142.48497 4131.30497 3142.48497 A 2.26985 2.26985 0 0 0 4130.64015 3144.09 L 4130.64015 3144.09 4130.64015 3200.35 4130.64015 3200.35 A 2.26985 2.26985 0 0 0 4131.30497 3201.95503 L 4131.30497 3201.95503 4150.36497 3221.01503 4150.36497 3221.01503 A 2.26985 2.26985 0 0 0 4151.97 3221.67985 L 4160.49 3221.67985 A 0.4 0.4 0 0 1 4160.89 3222.07985 L 4160.89 3223.2 4163.2 3223.2 4163.2 3222.07985 A 0.4 0.4 0 0 1 4163.6 3221.67985 L 4166.4 3221.67985 A 0.4 0.4 0 0 1 4166.8 3222.07985 L 4166.8 3223.2 4169.1193 3223.2 A 0.4 0.4 0 0 1 4169.51 3222.88574 0.4 0.4 0 0 1 4169.79284 3223.0029 L 4170.82476 3224.03481 A 0.4 0.4 0 0 1 4170.94192 3224.31765 0.4 0.4 0 0 1 4170.93731 3224.37817 L 4170.93731 3224.37817 A 4.11 4.11 0 0 0 4170.89 3225.0 4.11 4.11 0 0 0 4171.99783 3227.80697 L 4171.99783 3227.80697 A 0.4 0.4 0 0 1 4172.10564 3228.08015 0.4 0.4 0 0 1 4171.70564 3228.48015 L 4169.51 3228.48015 A 0.4 0.4 0 0 1 4169.11 3228.08015 L 4169.11 3226.8 4166.8 3226.8 4166.8 3228.08015 A 0.4 0.4 0 0 1 4166.4 3228.48015 L 4163.6 3228.48015 A 0.4 0.4 0 0 1 4163.2 3228.08015 L 4163.2 3226.8 4160.89 3226.8 4160.89 3228.08015 A 0.4 0.4 0 0 1 4160.49 3228.48015 L 4109.59267 3228.48015 A 0.4 0.4 0 0 1 4109.19267 3228.08015 0.4 0.4 0 0 1 4109.34956 3227.76251 L 4109.34956 3227.76251 A 2.26985 2.26985 0 0 0 4110.23985 3225.96 L 4110.23985 3225.96 4110.23985 3223.88 4110.23985 3223.88 A 2.26985 2.26985 0 0 0 4109.57503 3222.27497 L 4109.57503 3222.27497 4089.78503 3202.48497 A 2.26985 2.26985 0 0 0 4088.18 3201.82015 L 4082.30551 3201.82015 A 0.4 0.4 0 0 1 4081.90551 3201.42015 0.4 0.4 0 0 1 4082.02753 3201.13253 4.35645 4.35645 0 0 0 4083.35645 3198.0 4.35645 4.35645 0 0 0 4079.0 3193.64355 4.35645 4.35645 0 0 0 4075.95906 3194.88049 L 4075.95906 3194.88049 A 0.4 0.4 0 0 1 4075.67985 3194.99406 0.4 0.4 0 0 1 4075.27985 3194.59406 L 4075.27985 3191.40594 A 0.4 0.4 0 0 1 4075.67985 3191.00594 0.4 0.4 0 0 1 4075.95906 3191.11951 L 4075.95906 3191.11951 A 4.35645 4.35645 0 0 0 4077.07677 3191.90895 L 4077.07677 3189.92323 4075.67985 3189.92323 A 0.4 0.4 0 0 1 4075.27985 3189.52322 L 4075.27985 3186.47678 A 0.4 0.4 0 0 1 4075.67985 3186.07677 L 4077.07677 3186.07677 4077.07677 3184.09105 A 4.35645 4.35645 0 0 0 4075.95906 3184.88049 L 4075.95906 3184.88049 A 0.4 0.4 0 0 1 4075.67985 3184.99406 0.4 0.4 0 0 1 4075.27985 3184.59406 L 4075.27985 3181.40594 A 0.4 0.4 0 0 1 4075.67985 3181.00594 0.4 0.4 0 0 1 4075.95906 3181.11951 L 4075.95906 3181.11951 A 4.35645 4.35645 0 0 0 4079.0 3182.35645 4.35645 4.35645 0 0 0 4083.35645 3178.0 4.35645 4.35645 0 0 0 4079.0 3173.64355 4.35645 4.35645 0 0 0 4075.95906 3174.88049 L 4075.95906 3174.88049 A 0.4 0.4 0 0 1 4075.67985 3174.99406 0.4 0.4 0 0 1 4075.27985 3174.59406 L 4075.27985 3171.40594 A 0.4 0.4 0 0 1 4075.67985 3171.00594 0.4 0.4 0 0 1 4075.95906 3171.11951 L 4075.95906 3171.11951 A 4.35645 4.35645 0 0 0 4079.0 3172.35645 4.35645 4.35645 0 0 0 4083.35645 3168.0 4.35645 4.35645 0 0 0 4079.0 3163.64355 4.35645 4.35645 0 0 0 4075.95906 3164.88049 L 4075.95906 3164.88049 A 0.4 0.4 0 0 1 4075.67985 3164.99406 0.4 0.4 0 0 1 4075.27985 3164.59406 L 4075.27985 3161.40594 A 0.4 0.4 0 0 1 4075.67985 3161.00594 0.4 0.4 0 0 1 4075.95906 3161.11951 L 4075.95906 3161.11951 A 4.35645 4.35645 0 0 0 4079.0 3162.35645 4.35645 4.35645 0 0 0 4083.35645 3158.0 4.35645 4.35645 0 0 0 4079.0 3153.64355 4.35645 4.35645 0 0 0 4075.95906 3154.88049 L 4075.95906 3154.88049 A 0.4 0.4 0 0 1 4075.67985 3154.99406 0.4 0.4 0 0 1 4075.27985 3154.59406 L 4075.27985 3151.40594 A 0.4 0.4 0 0 1 4075.67985 3151.00594 0.4 0.4 0 0 1 4075.95906 3151.11951 L 4075.95906 3151.11951 A 4.35645 4.35645 0 0 0 4079.0 3152.35645 4.35645 4.35645 0 0 0 4083.35645 3148.0 4.35645 4.35645 0 0 0 4079.0 3143.64355 4.35645 4.35645 0 0 0 4077.3177 3143.98148 L 4077.3177 3143.98148 A 0.4 0.4 0 0 1 4077.16323 3144.01251 0.4 0.4 0 0 1 4076.76323 3143.61251 0.4 0.4 0 0 1 4076.88039 3143.32966 L 4077.82153 3142.38852 A 0.4 0.4 0 0 1 4078.10437 3142.27137 0.4 0.4 0 0 1 4078.17969 3142.27852 L 4078.17969 3142.27852 A 4.35645 4.35645 0 0 0 4079.0 3142.35645 4.35645 4.35645 0 0 0 4083.35645 3138.0 4.35645 4.35645 0 0 0 4079.0 3133.64355 4.35645 4.35645 0 0 0 4077.3237 3133.97897 L 4077.3237 3133.97897 A 0.4 0.4 0 0 1 4077.16979 3134.00977 0.4 0.4 0 0 1 4076.76979 3133.60977 0.4 0.4 0 0 1 4076.8868 3133.32707 L 4077.82378 3132.38913 A 0.4 0.4 0 0 1 4078.10677 3132.27183 0.4 0.4 0 0 1 4078.18189 3132.27894 L 4078.18189 3132.27894 A 4.35645 4.35645 0 0 0 4079.0 3132.35645 4.35645 4.35645 0 0 0 4083.35645 3128.0 4.35645 4.35645 0 0 0 4083.01852 3126.3177 L 4083.01852 3126.3177 A 0.4 0.4 0 0 1 4082.98749 3126.16323 0.4 0.4 0 0 1 4083.38749 3125.76323 0.4 0.4 0 0 1 4083.67034 3125.88039 L 4093.36299 3135.57305 A 0.4 0.4 0 0 1 4093.48015 3135.85589 L 4093.48015 3198.79 A 2.26985 2.26985 0 0 0 4094.14497 3200.39503 L 4115.57497 3221.82503 4115.57497 3221.82503 A 2.26985 2.26985 0 0 0 4117.18 3222.48985 2.26985 2.26985 0 0 0 4119.44985 3220.22 2.26985 2.26985 0 0 0 4118.78503 3218.61497 L 4118.78503 3218.61497 4101.01111 3200.84106 A 0.4 0.4 0 0 1 4100.89395 3200.55822 0.4 0.4 0 0 1 4101.1795 3200.17494 2.26985 2.26985 0 0 0 4102.79985 3198.0 L 4102.79985 3198.0 4102.79985 3087.03566 A 0.4 0.4 0 0 1 4102.91697 3086.75286 L 4133.96062 3055.70001 A 0.4 0.4 0 0 1 4134.2435 3055.58281 0.4 0.4 0 0 1 4134.6435 3055.98281 L 4134.6435 3061.3465 A 1.01 1.01 0 0 0 4135.6535 3062.3565 L 4135.6535 3062.3565 4142.3465 3062.3565 4142.3465 3062.3565 A 1.01 1.01 0 0 0 4143.3565 3061.3465 L 4143.3565 3054.82985 A 0.4 0.4 0 0 1 4143.7565 3054.42985 L 4160.42411 3054.42985 A 0.4 0.4 0 0 1 4160.70695 3054.54701 L 4182.1138 3075.95386 A 0.4 0.4 0 0 1 4182.23096 3076.2367 0.4 0.4 0 0 1 4181.83096 3076.6367 L 4181.55014 3076.6367 4181.55014 3079.16835 4185.16261 3079.16835 A 0.4 0.4 0 0 1 4185.44545 3079.28551 L 4185.44545 3079.28551 4185.82299 3079.66305 4185.82299 3079.66305 A 0.4 0.4 0 0 1 4185.94015 3079.94589 L 4185.94015 3082.81165 A 0.4 0.4 0 0 1 4185.54015 3083.21165 L 4181.55014 3083.21165 4181.55014 3085.7433 4181.9774 3085.7433 4181.9774 3085.7433 A 4.5533 4.5533 0 0 0 4182.26558 3085.73417 L 4182.26558 3085.73417 A 0.4 0.4 0 0 1 4182.29089 3085.73337 0.4 0.4 0 0 1 4182.69089 3086.13337 0.4 0.4 0 0 1 4182.57373 3086.41621 L 4178.37695 3090.61299 A 0.4 0.4 0 0 1 4178.09411 3090.73015 L 4175.59 3090.73015 A 2.26985 2.26985 0 0 0 4173.98497 3091.39497 L 4173.98497 3091.39497 4164.21497 3101.16497 4164.21497 3101.16497 A 2.26985 2.26985 0 0 0 4163.55015 3102.77 L 4163.55015 3102.77 4163.55015 3114.7 4163.55015 3114.7 A 2.26985 2.26985 0 0 0 4164.21497 3116.30503 L 4164.21497 3116.30503 4169.11299 3121.20305 A 0.4 0.4 0 0 1 4169.23015 3121.48589 L 4169.23015 3121.49 A 0.4 0.4 0 0 1 4168.83015 3121.89 L 4168.4 3121.89 4168.4 3121.89 A 1.01 1.01 0 0 0 4167.39 3122.9 L 4167.39 3129.1 A 1.01 1.01 0 0 0 4168.4 3130.11 L 4168.4 3130.11 4174.6 3130.11 4174.6 3130.11 A 1.01 1.01 0 0 0 4175.61 3129.1 L 4175.61 3122.9 A 1.01 1.01 0 0 0 4174.6 3121.89 L 4174.6 3121.89 4174.16985 3121.89 A 0.4 0.4 0 0 1 4173.76985 3121.49 L 4173.76985 3120.38 4173.76985 3120.38 A 2.26985 2.26985 0 0 0 4173.10503 3118.77497 L 4173.10503 3118.77497 4168.20701 3113.87695 A 0.4 0.4 0 0 1 4168.08985 3113.59411 L 4168.08985 3107.6777 A 0.4 0.4 0 0 1 4168.48985 3107.2777 0.4 0.4 0 0 1 4168.816 3107.44612 4.5533 4.5533 0 0 0 4172.5286 3109.3633 L 4172.5286 3109.3633 4178.42756 3109.3633 A 0.4 0.4 0 0 1 4178.7104 3109.48046 L 4179.11299 3109.88305 A 0.4 0.4 0 0 1 4179.23015 3110.16589 L 4179.23015 3122.36517 A 0.4 0.4 0 0 1 4179.06694 3122.68755 4.11 4.11 0 0 0 4177.39 3126.0 4.11 4.11 0 0 0 4181.5 3130.11 4.11 4.11 0 0 0 4185.61 3126.0 4.11 4.11 0 0 0 4183.93306 3122.68755 0.4 0.4 0 0 1 4183.76985 3122.36517 L 4183.76985 3109.25166 A 0.4 0.4 0 0 1 4183.9928 3108.89298 L 4183.9928 3108.89298 A 4.5533 4.5533 0 0 0 4186.5307 3104.81 4.5533 4.5533 0 0 0 4181.9774 3100.2567 L 4181.9774 3100.2567 4172.5286 3100.2567 4172.5286 3100.2567 A 4.5533 4.5533 0 0 0 4172.51058 3100.25674 0.4 0.4 0 0 1 4172.51109 3100.25673 L 4172.509 3100.25674 A 0.4 0.4 0 0 1 4172.109 3099.85674 0.4 0.4 0 0 1 4172.22616 3099.5739 L 4172.22616 3099.5739 4176.41305 3095.38701 4176.41305 3095.38701 A 0.4 0.4 0 0 1 4176.69589 3095.26985 L 4179.2 3095.26985 A 2.26985 2.26985 0 0 0 4180.80503 3094.60503 L 4180.80503 3094.60503 4189.81503 3085.59503 4189.81503 3085.59503 A 2.26985 2.26985 0 0 0 4190.47985 3083.99 L 4190.47985 3083.99 4190.47985 3078.84 4190.47985 3078.84 A 2.26985 2.26985 0 0 0 4189.81503 3077.23497 L 4189.81503 3077.23497 4163.13503 3050.55497 4163.13503 3050.55497 A 2.26985 2.26985 0 0 0 4161.53 3049.89015 L 4134.29 3049.89015 A 2.26985 2.26985 0 0 0 4132.68474 3050.55521 L 4132.68474 3050.55521 4098.92474 3084.32521 4098.92474 3084.32521 A 2.26985 2.26985 0 0 0 4098.26015 3085.93 L 4098.26015 3085.93 4098.26015 3133.11435 A 0.4 0.4 0 0 1 4097.86015 3133.51435 0.4 0.4 0 0 1 4097.544 3133.3594 L 4097.544 3133.3594 A 2.26985 2.26985 0 0 0 4097.35503 3133.14497 L 4097.35503 3133.14497 4083.38852 3119.17847 A 0.4 0.4 0 0 1 4083.27137 3118.89563 0.4 0.4 0 0 1 4083.27852 3118.82031 L 4083.27852 3118.82031 A 4.35645 4.35645 0 0 0 4083.35645 3118.0 4.35645 4.35645 0 0 0 4079.0 3113.64355 4.35645 4.35645 0 0 0 4077.3177 3113.98148 L 4077.3177 3113.98148 A 0.4 0.4 0 0 1 4077.16323 3114.01251 0.4 0.4 0 0 1 4076.76323 3113.61251 0.4 0.4 0 0 1 4076.88039 3113.32966 L 4077.82153 3112.38852 A 0.4 0.4 0 0 1 4078.10437 3112.27137 0.4 0.4 0 0 1 4078.17969 3112.27852 L 4078.17969 3112.27852 A 4.35645 4.35645 0 0 0 4079.0 3112.35645 4.35645 4.35645 0 0 0 4083.35645 3108.0 4.35645 4.35645 0 0 0 4079.0 3103.64355 4.35645 4.35645 0 0 0 4074.64355 3108.0 4.35645 4.35645 0 0 0 4074.72148 3108.82031 0.4 0.4 0 0 1 4074.72863 3108.89563 0.4 0.4 0 0 1 4074.61148 3109.17847 L 4063.89497 3119.89497 A 2.26985 2.26985 0 0 0 4063.23015 3121.5 L 4063.23015 3121.5 4063.23015 3203.92 A 2.26985 2.26985 0 0 0 4063.89497 3205.52503 L 4090.72497 3232.35503 Z M 4197.0 3145.21 A 4.71 4.71 0 0 0 4201.71 3140.5 4.71 4.71 0 0 0 4201.39624 3138.80969 0.4 0.4 0 0 1 4201.3696 3138.66614 0.4 0.4 0 0 1 4201.48675 3138.3833 L 4226.22721 3113.64284 A 0.4 0.4 0 0 1 4226.51005 3113.52569 0.4 0.4 0 0 1 4226.60951 3113.53825 L 4226.60951 3113.53825 A 4.8485 4.8485 0 0 0 4227.815 3113.6905 4.8485 4.8485 0 0 0 4232.6635 3108.842 4.8485 4.8485 0 0 0 4227.815 3103.9935 4.8485 4.8485 0 0 0 4222.9665 3108.842 4.8485 4.8485 0 0 0 4223.11989 3110.0519 0.4 0.4 0 0 1 4223.13254 3110.15172 0.4 0.4 0 0 1 4223.01538 3110.43456 L 4197.75522 3135.69472 A 0.4 0.4 0 0 1 4197.47238 3135.81188 0.4 0.4 0 0 1 4197.4354 3135.81017 4.71 4.71 0 0 0 4197.0 3135.79 4.71 4.71 0 0 0 4192.29 3140.5 4.71 4.71 0 0 0 4197.0 3145.21 Z M 4339.0 3145.71 A 4.71 4.71 0 0 0 4343.71 3141.0 4.71 4.71 0 0 0 4341.46086 3136.984 L 4341.46086 3136.984 A 0.4 0.4 0 0 1 4341.26985 3136.64294 L 4341.26985 3123.13589 A 0.4 0.4 0 0 1 4341.38701 3122.85305 L 4350.59721 3113.64284 A 0.4 0.4 0 0 1 4350.88005 3113.52569 0.4 0.4 0 0 1 4350.97951 3113.53825 L 4350.97951 3113.53825 A 4.8485 4.8485 0 0 0 4352.185 3113.6905 4.8485 4.8485 0 0 0 4357.0335 3108.842 4.8485 4.8485 0 0 0 4352.185 3103.9935 4.8485 4.8485 0 0 0 4347.3365 3108.842 4.8485 4.8485 0 0 0 4347.48989 3110.0519 0.4 0.4 0 0 1 4347.50254 3110.15172 0.4 0.4 0 0 1 4347.38538 3110.43456 L 4337.39497 3120.42497 4337.39497 3120.42497 A 2.26985 2.26985 0 0 0 4336.73015 3122.03 L 4336.73015 3122.03 4336.73015 3136.64294 A 0.4 0.4 0 0 1 4336.53914 3136.984 4.71 4.71 0 0 0 4334.29 3141.0 4.71 4.71 0 0 0 4339.0 3145.71 Z M 4312.79 3141.0 A 4.71 4.71 0 0 0 4317.5 3145.71 4.71 4.71 0 0 0 4322.21 3141.0 4.71 4.71 0 0 0 4319.96086 3136.984 L 4319.96086 3136.984 A 0.4 0.4 0 0 1 4319.76985 3136.64294 L 4319.76985 3113.53 4319.76985 3113.53 A 2.26985 2.26985 0 0 0 4319.10674 3111.92669 L 4319.10674 3111.92669 4317.61497 3110.43173 A 0.4 0.4 0 0 1 4317.49811 3110.14919 0.4 0.4 0 0 1 4317.51072 3110.04956 L 4317.51072 3110.04956 A 4.8485 4.8485 0 0 0 4317.6635 3108.842 4.8485 4.8485 0 0 0 4312.815 3103.9935 4.8485 4.8485 0 0 0 4307.9665 3108.842 4.8485 4.8485 0 0 0 4312.815 3113.6905 4.8485 4.8485 0 0 0 4314.02283 3113.53765 L 4314.02283 3113.53765 A 0.4 0.4 0 0 1 4314.12248 3113.52504 0.4 0.4 0 0 1 4314.40562 3113.6425 L 4314.40562 3113.6425 4315.11329 3114.35168 4315.11329 3114.35168 A 0.4 0.4 0 0 1 4315.23015 3114.63422 L 4315.23015 3136.64294 A 0.4 0.4 0 0 1 4315.03914 3136.984 4.71 4.71 0 0 0 4312.79 3141.0 Z M 4267.18015 3237.05 A 2.26985 2.26985 0 0 0 4269.45 3239.31985 2.26985 2.26985 0 0 0 4271.05503 3238.65503 L 4271.05503 3238.65503 4277.48503 3232.22503 4277.48503 3232.22503 A 2.26985 2.26985 0 0 0 4278.14985 3230.62 L 4278.14985 3230.62 4278.14985 3230.01 A 0.4 0.4 0 0 1 4278.54985 3229.61 L 4284.6 3229.61 4284.6 3229.61 A 1.01 1.01 0 0 0 4285.61 3228.6 L 4285.61 3222.4 A 1.01 1.01 0 0 0 4284.6 3221.39 L 4284.6 3221.39 4278.4 3221.39 4278.4 3221.39 A 1.01 1.01 0 0 0 4277.39124 3222.34997 0.4 0.4 0 0 1 4276.99173 3222.73015 L 4275.88 3222.73015 A 2.26985 2.26985 0 0 0 4273.61015 3225.0 L 4273.61015 3225.0 4273.61015 3229.51411 A 0.4 0.4 0 0 1 4273.49299 3229.79695 L 4267.84497 3235.44497 4267.84497 3235.44497 A 2.26985 2.26985 0 0 0 4267.18015 3237.05 Z M 4356.293 3079.315 A 5.734 5.734 0 0 0 4362.027 3085.049 5.734 5.734 0 0 0 4367.761 3079.315 5.734 5.734 0 0 0 4362.027 3073.581 5.734 5.734 0 0 0 4356.293 3079.315 Z M 4212.239 3079.315 A 5.734 5.734 0 0 0 4217.973 3085.049 5.734 5.734 0 0 0 4223.707 3079.315 5.734 5.734 0 0 0 4217.973 3073.581 5.734 5.734 0 0 0 4212.239 3079.315 Z M 4297.239 3079.315 A 5.734 5.734 0 0 0 4302.973 3085.049 5.734 5.734 0 0 0 4308.707 3079.315 5.734 5.734 0 0 0 4302.973 3073.581 5.734 5.734 0 0 0 4297.239 3079.315 Z M 4277.027 3085.049 A 5.734 5.734 0 0 0 4282.761 3079.315 5.734 5.734 0 0 0 4277.027 3073.581 5.734 5.734 0 0 0 4271.293 3079.315 5.734 5.734 0 0 0 4277.027 3085.049 Z M 4055.49 3239.25 A 5.01 5.01 0 0 0 4060.5 3244.26 5.01 5.01 0 0 0 4065.51 3239.25 5.01 5.01 0 0 0 4060.5 3234.24 5.01 5.01 0 0 0 4055.49 3239.25 Z M 4387.0 3244.26 A 5.01 5.01 0 0 0 4392.01 3239.25 5.01 5.01 0 0 0 4387.0 3234.24 5.01 5.01 0 0 0 4381.99 3239.25 5.01 5.01 0 0 0 4387.0 3244.26 Z M 4055.49 3059.25 A 5.01 5.01 0 0 0 4060.5 3064.26 5.01 5.01 0 0 0 4065.51 3059.25 5.01 5.01 0 0 0 4060.5 3054.24 5.01 5.01 0 0 0 4055.49 3059.25 Z M 4381.99 3059.25 A 5.01 5.01 0 0 0 4387.0 3064.26 5.01 5.01 0 0 0 4392.01 3059.25 5.01 5.01 0 0 0 4387.0 3054.24 5.01 5.01 0 0 0 4381.99 3059.25 Z M 4357.1785 3099.0 A 4.8485 4.8485 0 0 0 4362.027 3103.8485 4.8485 4.8485 0 0 0 4366.8755 3099.0 4.8485 4.8485 0 0 0 4362.027 3094.1515 4.8485 4.8485 0 0 0 4357.1785 3099.0 Z M 4242.6515 3099.0 A 4.8485 4.8485 0 0 0 4247.5 3103.8485 4.8485 4.8485 0 0 0 4252.3485 3099.0 4.8485 4.8485 0 0 0 4247.5 3094.1515 4.8485 4.8485 0 0 0 4242.6515 3099.0 Z M 4337.4935 3059.63 A 4.8485 4.8485 0 0 0 4342.342 3064.4785 4.8485 4.8485 0 0 0 4347.1905 3059.63 4.8485 4.8485 0 0 0 4342.342 3054.7815 4.8485 4.8485 0 0 0 4337.4935 3059.63 Z M 4213.1245 3099.0 A 4.8485 4.8485 0 0 0 4217.973 3103.8485 4.8485 4.8485 0 0 0 4222.8215 3099.0 4.8485 4.8485 0 0 0 4217.973 3094.1515 4.8485 4.8485 0 0 0 4213.1245 3099.0 Z M 4322.658 3064.4785 A 4.8485 4.8485 0 0 0 4327.5065 3059.63 4.8485 4.8485 0 0 0 4322.658 3054.7815 4.8485 4.8485 0 0 0 4317.8095 3059.63 4.8485 4.8485 0 0 0 4322.658 3064.4785 Z M 4252.4935 3059.63 A 4.8485 4.8485 0 0 0 4257.342 3064.4785 4.8485 4.8485 0 0 0 4262.1905 3059.63 4.8485 4.8485 0 0 0 4257.342 3054.7815 4.8485 4.8485 0 0 0 4252.4935 3059.63 Z M 4298.1245 3099.0 A 4.8485 4.8485 0 0 0 4302.973 3103.8485 4.8485 4.8485 0 0 0 4307.8215 3099.0 4.8485 4.8485 0 0 0 4302.973 3094.1515 4.8485 4.8485 0 0 0 4298.1245 3099.0 Z M 4232.8095 3059.63 A 4.8485 4.8485 0 0 0 4237.658 3064.4785 4.8485 4.8485 0 0 0 4242.5065 3059.63 4.8485 4.8485 0 0 0 4237.658 3054.7815 4.8485 4.8485 0 0 0 4232.8095 3059.63 Z M 4272.1785 3099.0 A 4.8485 4.8485 0 0 0 4277.027 3103.8485 4.8485 4.8485 0 0 0 4281.8755 3099.0 4.8485 4.8485 0 0 0 4277.027 3094.1515 4.8485 4.8485 0 0 0 4272.1785 3099.0 Z M 4291.79 3141.0 A 4.71 4.71 0 0 0 4296.5 3145.71 4.71 4.71 0 0 0 4301.21 3141.0 4.71 4.71 0 0 0 4296.5 3136.29 4.71 4.71 0 0 0 4291.79 3141.0 Z M 4168.29 3140.5 A 4.71 4.71 0 0 0 4173.0 3145.21 4.71 4.71 0 0 0 4177.71 3140.5 4.71 4.71 0 0 0 4173.0 3135.79 4.71 4.71 0 0 0 4168.29 3140.5 Z M 4082.3465 3062.3565 A 1.01 1.01 0 0 0 4083.3565 3061.3465 L 4083.3565 3061.3465 4083.3565 3054.6536 4083.3565 3054.6536 A 1.01 1.01 0 0 0 4082.3465 3053.6436 L 4082.3465 3053.6436 4075.6535 3053.6436 4075.6535 3053.6436 A 1.01 1.01 0 0 0 4074.6435 3054.6536 L 4074.6435 3054.6536 4074.6435 3061.3465 4074.6435 3061.3465 A 1.01 1.01 0 0 0 4075.6535 3062.3565 L 4075.6535 3062.3565 4082.3465 3062.3565 Z M 4079.0 3102.35645 A 4.35645 4.35645 0 0 0 4083.35645 3098.0 4.35645 4.35645 0 0 0 4079.0 3093.64355 4.35645 4.35645 0 0 0 4074.64355 3098.0 4.35645 4.35645 0 0 0 4079.0 3102.35645 Z M 4134.64355 3078.0 A 4.35645 4.35645 0 0 0 4139.0 3082.35645 4.35645 4.35645 0 0 0 4143.35645 3078.0 4.35645 4.35645 0 0 0 4139.0 3073.64355 4.35645 4.35645 0 0 0 4134.64355 3078.0 Z M 4074.64355 3078.0 A 4.35645 4.35645 0 0 0 4079.0 3082.35645 4.35645 4.35645 0 0 0 4083.35645 3078.0 4.35645 4.35645 0 0 0 4079.0 3073.64355 4.35645 4.35645 0 0 0 4074.64355 3078.0 Z M 4134.64355 3068.0 A 4.35645 4.35645 0 0 0 4139.0 3072.35645 4.35645 4.35645 0 0 0 4143.35645 3068.0 4.35645 4.35645 0 0 0 4139.0 3063.64355 4.35645 4.35645 0 0 0 4134.64355 3068.0 Z M 4079.0 3072.35645 A 4.35645 4.35645 0 0 0 4083.35645 3068.0 4.35645 4.35645 0 0 0 4079.0 3063.64355 4.35645 4.35645 0 0 0 4074.64355 3068.0 4.35645 4.35645 0 0 0 4079.0 3072.35645 Z M 4134.64355 3128.0 A 4.35645 4.35645 0 0 0 4139.0 3132.35645 4.35645 4.35645 0 0 0 4143.35645 3128.0 4.35645 4.35645 0 0 0 4139.0 3123.64355 4.35645 4.35645 0 0 0 4134.64355 3128.0 Z M 4074.64355 3088.0 A 4.35645 4.35645 0 0 0 4079.0 3092.35645 4.35645 4.35645 0 0 0 4083.35645 3088.0 4.35645 4.35645 0 0 0 4079.0 3083.64355 4.35645 4.35645 0 0 0 4074.64355 3088.0 Z M 4139.0 3122.35645 A 4.35645 4.35645 0 0 0 4143.35645 3118.0 4.35645 4.35645 0 0 0 4139.0 3113.64355 4.35645 4.35645 0 0 0 4134.64355 3118.0 4.35645 4.35645 0 0 0 4139.0 3122.35645 Z M 4134.64355 3108.0 A 4.35645 4.35645 0 0 0 4139.0 3112.35645 4.35645 4.35645 0 0 0 4143.35645 3108.0 4.35645 4.35645 0 0 0 4139.0 3103.64355 4.35645 4.35645 0 0 0 4134.64355 3108.0 Z M 4134.64355 3098.0 A 4.35645 4.35645 0 0 0 4139.0 3102.35645 4.35645 4.35645 0 0 0 4143.35645 3098.0 4.35645 4.35645 0 0 0 4139.0 3093.64355 4.35645 4.35645 0 0 0 4134.64355 3098.0 Z M 4139.0 3092.35645 A 4.35645 4.35645 0 0 0 4143.35645 3088.0 4.35645 4.35645 0 0 0 4139.0 3083.64355 4.35645 4.35645 0 0 0 4134.64355 3088.0 4.35645 4.35645 0 0 0 4139.0 3092.35645 Z M 4232.34 3154.15 A 1.01 1.01 0 0 0 4233.35 3155.16 L 4233.35 3155.16 4239.65 3155.16 4239.65 3155.16 A 1.01 1.01 0 0 0 4240.66 3154.15 L 4240.66 3147.85 A 1.01 1.01 0 0 0 4239.65 3146.84 L 4239.65 3146.84 4233.35 3146.84 4233.35 3146.84 A 1.01 1.01 0 0 0 4232.34 3147.85 L 4232.34 3154.15 Z M 4266.5 3175.16 A 4.16 4.16 0 0 0 4270.66 3171.0 4.16 4.16 0 0 0 4266.5 3166.84 4.16 4.16 0 0 0 4262.34 3171.0 4.16 4.16 0 0 0 4266.5 3175.16 Z M 4266.5 3165.16 A 4.16 4.16 0 0 0 4270.66 3161.0 4.16 4.16 0 0 0 4266.5 3156.84 4.16 4.16 0 0 0 4262.34 3161.0 4.16 4.16 0 0 0 4266.5 3165.16 Z M 4235.89 3228.6 A 1.01 1.01 0 0 0 4236.9 3229.61 L 4236.9 3229.61 4243.1 3229.61 4243.1 3229.61 A 1.01 1.01 0 0 0 4244.11 3228.6 L 4244.11 3222.4 A 1.01 1.01 0 0 0 4243.1 3221.39 L 4243.1 3221.39 4236.9 3221.39 4236.9 3221.39 A 1.01 1.01 0 0 0 4235.89 3222.4 L 4235.89 3228.6 Z M 4260.0 3229.61 A 4.11 4.11 0 0 0 4264.11 3225.5 4.11 4.11 0 0 0 4260.0 3221.39 4.11 4.11 0 0 0 4255.89 3225.5 4.11 4.11 0 0 0 4260.0 3229.61 Z M 4217.5 3229.61 A 4.11 4.11 0 0 0 4221.61 3225.5 4.11 4.11 0 0 0 4217.5 3221.39 4.11 4.11 0 0 0 4213.39 3225.5 4.11 4.11 0 0 0 4217.5 3229.61 Z M 4291.5 3229.61 A 4.11 4.11 0 0 0 4295.61 3225.5 4.11 4.11 0 0 0 4291.5 3221.39 4.11 4.11 0 0 0 4287.39 3225.5 4.11 4.11 0 0 0 4291.5 3229.61 Z M 4168.44871 3083.21165 A 4.5533 4.5533 0 0 0 4172.5286 3085.7433 L 4172.5286 3085.7433 4172.95586 3085.7433 4172.95586 3083.21165 4168.44871 3083.21165 Z M 4156.72635 3101.80429 L 4156.72635 3097.29714 4154.1947 3097.29714 4154.1947 3097.7244 4154.1947 3097.7244 A 4.5533 4.5533 0 0 0 4156.72635 3101.80429 Z M 4160.76965 3101.80429 A 4.5533 4.5533 0 0 0 4163.3013 3097.7244 L 4163.3013 3097.7244 4163.3013 3097.29714 4160.76965 3097.29714 4160.76965 3101.80429 Z M 4160.76965 3084.19571 L 4160.76965 3088.70286 4163.3013 3088.70286 4163.3013 3088.2756 4163.3013 3088.2756 A 4.5533 4.5533 0 0 0 4160.76965 3084.19571 Z M 4156.72635 3088.70286 L 4156.72635 3084.19571 A 4.5533 4.5533 0 0 0 4154.1947 3088.2756 L 4154.1947 3088.2756 4154.1947 3088.70286 4156.72635 3088.70286 Z M 4172.5286 3076.6367 A 4.5533 4.5533 0 0 0 4168.44871 3079.16835 L 4172.95586 3079.16835 4172.95586 3076.6367 4172.5286 3076.6367 Z M 4330.33075 3096.83075 L 4330.33075 3094.66384 A 4.8485 4.8485 0 0 0 4328.16384 3096.83075 L 4330.33075 3096.83075 Z M 4328.16384 3101.16925 A 4.8485 4.8485 0 0 0 4330.33075 3103.33616 L 4330.33075 3101.16925 4328.16384 3101.16925 Z M 4336.83616 3096.83075 A 4.8485 4.8485 0 0 0 4334.66925 3094.66384 L 4334.66925 3096.83075 4336.83616 3096.83075 Z M 4334.66925 3101.16925 L 4334.66925 3103.33616 A 4.8485 4.8485 0 0 0 4336.83616 3101.16925 L 4334.66925 3101.16925 Z M 4175.1 3186.28407 L 4175.1 3188.4 4177.21593 3188.4 A 4.71 4.71 0 0 0 4175.1 3186.28407 Z M 4175.1 3194.71593 A 4.71 4.71 0 0 0 4177.21593 3192.6 L 4175.1 3192.6 4175.1 3194.71593 Z M 4170.9 3188.4 L 4170.9 3186.28407 A 4.71 4.71 0 0 0 4168.78407 3188.4 L 4170.9 3188.4 Z M 4168.78407 3192.6 A 4.71 4.71 0 0 0 4170.9 3194.71593 L 4170.9 3192.6 4168.78407 3192.6 Z M 4140.92322 3169.92323 L 4140.92322 3171.90895 A 4.35645 4.35645 0 0 0 4142.90895 3169.92323 L 4140.92322 3169.92323 Z M 4140.92322 3164.09105 L 4140.92322 3166.07677 4142.90895 3166.07677 A 4.35645 4.35645 0 0 0 4140.92322 3164.09105 Z M 4080.92323 3189.92323 L 4080.92323 3191.90895 A 4.35645 4.35645 0 0 0 4082.90895 3189.92323 L 4080.92323 3189.92323 Z M 4082.90895 3186.07677 A 4.35645 4.35645 0 0 0 4080.92323 3184.09105 L 4080.92323 3186.07677 4082.90895 3186.07677 Z M 4268.325 3177.26169 L 4268.325 3179.175 4270.23831 3179.175 A 4.16 4.16 0 0 0 4268.325 3177.26169 Z M 4262.76169 3182.825 A 4.16 4.16 0 0 0 4264.675 3184.73831 L 4264.675 3182.825 4262.76169 3182.825 Z M 4264.675 3179.175 L 4264.675 3177.26169 A 4.16 4.16 0 0 0 4262.76169 3179.175 L 4264.675 3179.175 Z M 4268.325 3182.825 L 4268.325 3184.73831 A 4.16 4.16 0 0 0 4270.23831 3182.825 L 4268.325 3182.825 Z M 4305.19487 3223.7 A 4.11 4.11 0 0 0 4303.3 3221.80513 L 4303.3 3223.7 4305.19487 3223.7 Z M 4253.69487 3223.7 A 4.11 4.11 0 0 0 4251.8 3221.80513 L 4251.8 3223.7 4253.69487 3223.7 Z M 4205.7 3229.19487 L 4205.7 3227.3 4203.80513 3227.3 A 4.11 4.11 0 0 0 4205.7 3229.19487 Z M 4209.3 3229.19487 A 4.11 4.11 0 0 0 4211.19487 3227.3 L 4209.3 3227.3 4209.3 3229.19487 Z M 4205.7 3223.7 L 4205.7 3221.80513 A 4.11 4.11 0 0 0 4203.80513 3223.7 L 4205.7 3223.7 Z M 4251.8 3229.19487 A 4.11 4.11 0 0 0 4253.69487 3227.3 L 4251.8 3227.3 4251.8 3229.19487 Z M 4303.3 3229.19487 A 4.11 4.11 0 0 0 4305.19487 3227.3 L 4303.3 3227.3 4303.3 3229.19487 Z M 4299.7 3221.80513 A 4.11 4.11 0 0 0 4297.80513 3223.7 L 4299.7 3223.7 4299.7 3221.80513 Z M 4209.3 3221.80513 L 4209.3 3223.7 4211.19487 3223.7 A 4.11 4.11 0 0 0 4209.3 3221.80513 Z M 4299.7 3229.19487 L 4299.7 3227.3 4297.80513 3227.3 A 4.11 4.11 0 0 0 4299.7 3229.19487 Z M 4246.30513 3227.3 A 4.11 4.11 0 0 0 4248.2 3229.19487 L 4248.2 3227.3 4246.30513 3227.3 Z M 4248.2 3223.7 L 4248.2 3221.80513 A 4.11 4.11 0 0 0 4246.30513 3223.7 L 4248.2 3223.7 Z " layerid="2" stroke-width="0"></path><polyline points="4139 3138 4132.91 3144.09 4132.91 3200.35 4151.97 3219.41 4169.41 3219.41 4169.41 3219.41 4175 3225" stroke-width="2.5197" c_shapetype="line" stroke-linecap="round" fill="none" layerid="2" net="SAVE_BTN_2" id="gge697" /><polyline points="4191.88 3225.5 4186.63 3230.75 4092.33 3230.75 4065.5 3203.92 4065.5 3121.5 4079 3108" stroke-width="2.5197" c_shapetype="line" stroke-linecap="round" fill="none" layerid="2" net="POT_IN_1" id="gge698" /><polyline points="4197.5 3225.5 4191.88 3225.5" stroke-width="2.5197" c_shapetype="line" stroke-linecap="round" fill="none" layerid="2" net="POT_IN_1" id="gge699" /><polyline points="4079 3128 4069.26 3137.75 4069.26 3202.37 4077.63 3210.74 4089.52 3210.74 4089.52 3210.74" stroke-width="2.5197" c_shapetype="line" stroke-linecap="round" fill="none" layerid="2" net="DISP_2" id="gge701" /><polyline points="4171.5 3120.38 4165.82 3114.7 4165.82 3102.77 4175.59 3093 4179.2 3093 4188.21 3083.99 4188.21 3078.84 4161.53 3052.16 4134.29 3052.16 4100.53 3085.93 4100.53 3198" stroke-width="2.5197" c_shapetype="line" stroke-linecap="round" fill="none" layerid="2" net="NANO_1_15" id="gge704" /><polyline points="4171.5 3126 4171.5 3120.38" stroke-width="2.5197" c_shapetype="line" stroke-linecap="round" fill="none" layerid="2" net="NANO_1_15" id="gge705" /><polyline points="4332.5 3099 4332.5 3135.39 4286.89 3181 4266.5 3181" stroke-width="2.5197" c_shapetype="line" stroke-linecap="round" fill="none" layerid="2" net="GND" id="gge708" /><polyline points="4165 3225 4116 3225 4079 3188" stroke-width="2.5197" c_shapetype="line" stroke-linecap="round" fill="none" layerid="2" net="GND" id="gge709" /><polyline points="4301.5 3225 4295.91 3219.41 4256.09 3219.41 4250 3225.5" stroke-width="2.5197" c_shapetype="line" stroke-linecap="round" fill="none" layerid="2" net="GND" id="gge711" /><polyline points="4250 3225.5 4243.91 3219.41 4235.2 3219.41 4223.53 3231.09 4213.09 3231.09 4207.5 3225.5" stroke-width="2.5197" c_shapetype="line" stroke-linecap="round" fill="none" layerid="2" net="GND" id="gge712" /><polyline points="4144.75 3162.25 4139 3168" stroke-width="2.5197" c_shapetype="line" stroke-linecap="round" fill="none" layerid="2" net="GND" id="gge713" /><polyline points="4158.75 3093 4158.75 3148.25 4144.75 3162.25" stroke-width="2.5197" c_shapetype="line" stroke-linecap="round" fill="none" layerid="2" net="GND" id="gge714" /><polyline points="4144.75 3162.25 4173 3190.5" stroke-width="2.5197" c_shapetype="line" stroke-linecap="round" fill="none" layerid="2" net="GND" id="gge715" /><polyline points="4197 3190.5 4197 3172.5 4219 3150.5" stroke-width="2.5197" c_shapetype="line" stroke-linecap="round" fill="none" layerid="2" net="U1_2" id="gge718" /><polyline points="4219 3150.5 4229.5 3161 4236.5 3161" stroke-width="2.5197" c_shapetype="line" stroke-linecap="round" fill="none" layerid="2" net="U1_2" id="gge719" /><polyline points="4219 3180.5 4227 3180.5 4236.5 3171" stroke-width="2.5197" c_shapetype="line" stroke-linecap="round" fill="none" layerid="2" net="U1_3" id="gge720" /><polyline points="4267.19 3108.84 4267.19 3140.32 4236.5 3171" stroke-width="2.5197" c_shapetype="line" stroke-linecap="round" fill="none" layerid="2" net="U1_3" id="gge721" /><polyline points="4341.5 3214.5 4331.38 3204.38 4320.03 3204.38 4306.65 3191 4296.5 3191" stroke-width="2.5197" c_shapetype="line" stroke-linecap="round" fill="none" layerid="2" net="U1_6" id="gge723" /><polyline points="4311.5 3225 4307.5 3221 4307.5 3203.67" stroke-width="2.5197" c_shapetype="line" stroke-linecap="round" fill="none" layerid="2" net="+5V" id="gge728" /><polyline points="4312.82 3108.84 4317.5 3113.53 4317.5 3141" stroke-width="2.5197" c_shapetype="line" stroke-linecap="round" fill="none" layerid="2" net="R3_2" id="gge732" /><polyline points="4227.82 3108.84 4197 3139.66 4197 3140.5" stroke-width="2.5197" c_shapetype="line" stroke-linecap="round" fill="none" layerid="2" net="R5_2" id="gge733" /><polyline points="4341.5 3224.5 4343.5 3224.5 4347.37 3220.63 4347.37 3199.37 4339 3191" stroke-width="2.5197" c_shapetype="line" stroke-linecap="round" fill="none" layerid="2" net="R2_1" id="gge734" /><polyline points="4352.19 3108.84 4339 3122.03 4339 3141" stroke-width="2.5197" c_shapetype="line" stroke-linecap="round" fill="none" layerid="2" net="R2_2" id="gge735" /><polyline points="4079 3118 4095.75 3134.75 4095.75 3198.79 4117.18 3220.22" stroke-width="2.5197" c_shapetype="line" stroke-linecap="round" fill="none" layerid="2" net="POT_OUT_1" id="gge737" /><polyline points="4181.5 3126 4181.5 3109.06 4177.25 3104.81" stroke-width="2.5197" c_shapetype="line" stroke-linecap="round" fill="none" layerid="2" net="DC1_1" id="gge740" /><polyline points="4079 3138 4073.01 3143.99 4073.01 3200.81 4076.28 3204.09 4088.18 3204.09 4107.97 3223.88 4107.97 3225.96" stroke-width="2.5197" c_shapetype="line" stroke-linecap="round" fill="none" layerid="2" net="DISP_1" id="gge743" /><polyline points="4281.5 3225 4275.88 3225" stroke-width="2.5197" c_shapetype="line" stroke-linecap="round" fill="none" layerid="2" net="DISP_1" id="gge744" /><polyline points="4269.45 3237.05 4275.88 3230.62 4275.88 3225" stroke-width="2.5197" c_shapetype="line" stroke-linecap="round" fill="none" layerid="2" net="DISP_1" id="gge745" /><polyline points="4139 3198 4307.14 3198 4311.25 3202.11 4311.25 3205.25 4330.5 3224.5 4331.5 3224.5" stroke-width="2.5197" c_shapetype="line" stroke-linecap="round" fill="none" layerid="2" net="NANO_2_15" id="gge752" /><g c_partid="part_pad" c_etype="pinpart" c_origin="4236.5,3151" layerid="11" number="1" net="U1_1" plated ="Y" c_shapetype="group" id="gge50" locked="0" c_rotation="270" c_width="6.3" c_height="6.3" title="U1_1" c_shape="RECT" pasteExpansion="0" solderExpansion="0.4"><polygon points="4239.65 3147.85 4239.65 3154.15 4233.35 3154.15 4233.35 3147.85" stroke-width="0" /><circle c_padhole="1" cx="4236.5" cy="3151" r="1.75" stroke-width="0" /></g><g c_partid="part_pad" c_etype="pinpart" c_origin="4236.5,3161" layerid="11" number="2" net="U1_2" plated ="Y" c_shapetype="group" id="gge51" locked="0" c_rotation="270" c_width="6.3" c_height="6.3" title="U1_2" c_shape="ELLIPSE" pasteExpansion="0" solderExpansion="0.4"><ellipse cx="4236.5" cy="3161" rx="3.15" ry="3.15" stroke-width="0" /><circle c_padhole="1" cx="4236.5" cy="3161" r="1.75" stroke-width="0" /></g><g c_partid="part_pad" c_etype="pinpart" c_origin="4236.5,3171" layerid="11" number="3" net="U1_3" plated ="Y" c_shapetype="group" id="gge52" locked="0" c_rotation="270" c_width="6.3" c_height="6.3" title="U1_3" c_shape="ELLIPSE" pasteExpansion="0" solderExpansion="0.4"><ellipse cx="4236.5" cy="3171" rx="3.15" ry="3.15" stroke-width="0" /><circle c_padhole="1" cx="4236.5" cy="3171" r="1.75" stroke-width="0" /></g><g c_partid="part_pad" c_etype="pinpart" c_origin="4236.5,3181" layerid="11" number="4" net="U1_4" plated ="Y" c_shapetype="group" id="gge53" locked="0" c_rotation="270" c_width="6.3" c_height="6.3" title="U1_4" c_shape="ELLIPSE" pasteExpansion="0" solderExpansion="0.4"><ellipse cx="4236.5" cy="3181" rx="3.15" ry="3.15" stroke-width="0" /><circle c_padhole="1" cx="4236.5" cy="3181" r="1.75" stroke-width="0" /></g><g c_partid="part_pad" c_etype="pinpart" c_origin="4266.5,3181" layerid="11" number="5" net="GND" plated ="Y" c_shapetype="group" id="gge54" locked="0" c_rotation="270" c_width="6.3" c_height="6.3" title="GND" c_shape="ELLIPSE" pasteExpansion="0" solderExpansion="0.4"><ellipse cx="4266.5" cy="3181" rx="3.15" ry="3.15" stroke-width="0" /><circle c_padhole="1" cx="4266.5" cy="3181" r="1.75" stroke-width="0" /></g><g c_partid="part_pad" c_etype="pinpart" c_origin="4266.5,3171" layerid="11" number="6" net="U1_6" plated ="Y" c_shapetype="group" id="gge55" locked="0" c_rotation="270" c_width="6.3" c_height="6.3" title="U1_6" c_shape="ELLIPSE" pasteExpansion="0" solderExpansion="0.4"><ellipse cx="4266.5" cy="3171" rx="3.15" ry="3.15" stroke-width="0" /><circle c_padhole="1" cx="4266.5" cy="3171" r="1.75" stroke-width="0" /></g><g c_partid="part_pad" c_etype="pinpart" c_origin="4266.5,3161" layerid="11" number="7" net="U1_7" plated ="Y" c_shapetype="group" id="gge56" locked="0" c_rotation="270" c_width="6.3" c_height="6.3" title="U1_7" c_shape="ELLIPSE" pasteExpansion="0" solderExpansion="0.4"><ellipse cx="4266.5" cy="3161" rx="3.15" ry="3.15" stroke-width="0" /><circle c_padhole="1" cx="4266.5" cy="3161" r="1.75" stroke-width="0" /></g><g c_partid="part_pad" c_etype="pinpart" c_origin="4266.5,3151" layerid="11" number="8" net="+5V" plated ="Y" c_shapetype="group" id="gge57" locked="0" c_rotation="270" c_width="6.3" c_height="6.3" title="+5V" c_shape="ELLIPSE" pasteExpansion="0" solderExpansion="0.4"><ellipse cx="4266.5" cy="3151" rx="3.15" ry="3.15" stroke-width="0" /><circle c_padhole="1" cx="4266.5" cy="3151" r="1.75" stroke-width="0" /></g><g c_partid="part_pad" c_etype="pinpart" c_origin="4317.5,3191" layerid="11" number="1" net="+5V" plated ="Y" c_shapetype="group" id="gge66" locked="0" c_rotation="90" c_width="7.4" c_height="7.4" title="+5V" c_shape="ELLIPSE" pasteExpansion="0" solderExpansion="0.4"><ellipse cx="4317.5" cy="3191" rx="3.7" ry="3.7" stroke-width="0" /><circle c_padhole="1" cx="4317.5" cy="3191" r="1.77" stroke-width="0" /></g><g c_partid="part_pad" c_etype="pinpart" c_origin="4317.5,3141" layerid="11" number="2" net="R3_2" plated ="Y" c_shapetype="group" id="gge67" locked="0" c_rotation="90" c_width="7.4" c_height="7.4" title="R3_2" c_shape="ELLIPSE" pasteExpansion="0" solderExpansion="0.4"><ellipse cx="4317.5" cy="3141" rx="3.7" ry="3.7" stroke-width="0" /><circle c_padhole="1" cx="4317.5" cy="3141" r="1.77" stroke-width="0" /></g><g c_partid="part_pad" c_etype="pinpart" c_origin="4296.5,3191" layerid="11" number="1" net="U1_6" plated ="Y" c_shapetype="group" id="gge75" locked="0" c_rotation="90" c_width="7.4" c_height="7.4" title="U1_6" c_shape="ELLIPSE" pasteExpansion="0" solderExpansion="0.4"><ellipse cx="4296.5" cy="3191" rx="3.7" ry="3.7" stroke-width="0" /><circle c_padhole="1" cx="4296.5" cy="3191" r="1.77" stroke-width="0" /></g><g c_partid="part_pad" c_etype="pinpart" c_origin="4296.5,3141" layerid="11" number="2" net="+5V" plated ="Y" c_shapetype="group" id="gge76" locked="0" c_rotation="90" c_width="7.4" c_height="7.4" title="+5V" c_shape="ELLIPSE" pasteExpansion="0" solderExpansion="0.4"><ellipse cx="4296.5" cy="3141" rx="3.7" ry="3.7" stroke-width="0" /><circle c_padhole="1" cx="4296.5" cy="3141" r="1.77" stroke-width="0" /></g><g c_partid="part_pad" c_etype="pinpart" c_origin="4197,3190.5" layerid="11" number="1" net="U1_2" plated ="Y" c_shapetype="group" id="gge84" locked="0" c_rotation="90" c_width="7.4" c_height="7.4" title="U1_2" c_shape="ELLIPSE" pasteExpansion="0" solderExpansion="0.4"><ellipse cx="4197" cy="3190.5" rx="3.7" ry="3.7" stroke-width="0" /><circle c_padhole="1" cx="4197" cy="3190.5" r="1.77" stroke-width="0" /></g><g c_partid="part_pad" c_etype="pinpart" c_origin="4197,3140.5" layerid="11" number="2" net="R5_2" plated ="Y" c_shapetype="group" id="gge85" locked="0" c_rotation="90" c_width="7.4" c_height="7.4" title="R5_2" c_shape="ELLIPSE" pasteExpansion="0" solderExpansion="0.4"><ellipse cx="4197" cy="3140.5" rx="3.7" ry="3.7" stroke-width="0" /><circle c_padhole="1" cx="4197" cy="3140.5" r="1.77" stroke-width="0" /></g><g c_partid="part_pad" c_etype="pinpart" c_origin="4339,3191" layerid="11" number="1" net="R2_1" plated ="Y" c_shapetype="group" id="gge93" locked="0" c_rotation="90" c_width="7.4" c_height="7.4" title="R2_1" c_shape="ELLIPSE" pasteExpansion="0" solderExpansion="0.4"><ellipse cx="4339" cy="3191" rx="3.7" ry="3.7" stroke-width="0" /><circle c_padhole="1" cx="4339" cy="3191" r="1.77" stroke-width="0" /></g><g c_partid="part_pad" c_etype="pinpart" c_origin="4339,3141" layerid="11" number="2" net="R2_2" plated ="Y" c_shapetype="group" id="gge94" locked="0" c_rotation="90" c_width="7.4" c_height="7.4" title="R2_2" c_shape="ELLIPSE" pasteExpansion="0" solderExpansion="0.4"><ellipse cx="4339" cy="3141" rx="3.7" ry="3.7" stroke-width="0" /><circle c_padhole="1" cx="4339" cy="3141" r="1.77" stroke-width="0" /></g><g c_partid="part_pad" c_etype="pinpart" c_origin="4173,3190.5" layerid="11" number="1" net="GND" plated ="Y" c_shapetype="group" id="gge102" locked="0" c_rotation="90" c_width="7.4" c_height="7.4" title="GND" c_shape="ELLIPSE" pasteExpansion="0" solderExpansion="0.4"><ellipse cx="4173" cy="3190.5" rx="3.7" ry="3.7" stroke-width="0" /><circle c_padhole="1" cx="4173" cy="3190.5" r="1.77" stroke-width="0" /></g><g c_partid="part_pad" c_etype="pinpart" c_origin="4173,3140.5" layerid="11" number="2" net="U1_7" plated ="Y" c_shapetype="group" id="gge103" locked="0" c_rotation="90" c_width="7.4" c_height="7.4" title="U1_7" c_shape="ELLIPSE" pasteExpansion="0" solderExpansion="0.4"><ellipse cx="4173" cy="3140.5" rx="3.7" ry="3.7" stroke-width="0" /><circle c_padhole="1" cx="4173" cy="3140.5" r="1.77" stroke-width="0" /></g><g c_partid="part_pad" c_etype="pinpart" c_origin="4219,3180.5" layerid="11" number="1" net="U1_3" plated ="Y" c_shapetype="group" id="gge109" locked="0" c_rotation="90" c_width="7.5" c_height="7.5" title="U1_3" c_shape="ELLIPSE" pasteExpansion="0" solderExpansion="0.4"><ellipse cx="4219" cy="3180.5" rx="3.75" ry="3.75" stroke-width="0" /><circle c_padhole="1" cx="4219" cy="3180.5" r="2.1654" stroke-width="0" /></g><g c_partid="part_pad" c_etype="pinpart" c_origin="4219,3150.5" layerid="11" number="2" net="U1_2" plated ="Y" c_shapetype="group" id="gge110" locked="0" c_rotation="90" c_width="7.5" c_height="7.5" title="U1_2" c_shape="ELLIPSE" pasteExpansion="0" solderExpansion="0.4"><ellipse cx="4219" cy="3150.5" rx="3.75" ry="3.75" stroke-width="0" /><circle c_padhole="1" cx="4219" cy="3150.5" r="2.1654" stroke-width="0" /></g><g c_partid="part_pad" c_etype="pinpart" c_origin="4247.5,3099" layerid="11" number="2" net="MIDI_IN_2" plated ="Y" c_shapetype="group" id="gge121" locked="0" c_rotation="180" c_width="7.677" c_height="7.677" title="MIDI_IN_2" c_shape="ELLIPSE" pasteExpansion="0" solderExpansion="0.4"><ellipse cx="4247.5" cy="3099" rx="3.8385" ry="3.8385" stroke-width="0" /><polyline c_padhole="1" points="4247.51 3099 4247.49 3099" stroke-width="5.118"></polyline></g><g c_partid="part_pad" c_etype="pinpart" c_origin="4227.81,3108.84" layerid="11" number="4" net="R5_2" plated ="Y" c_shapetype="group" id="gge122" locked="0" c_rotation="180" c_width="7.677" c_height="7.677" title="R5_2" c_shape="ELLIPSE" pasteExpansion="0" solderExpansion="0.4"><ellipse cx="4227.81" cy="3108.84" rx="3.8385" ry="3.8385" stroke-width="0" /><polyline c_padhole="1" points="4227.825 3108.842 4227.805 3108.842" stroke-width="5.118"></polyline></g><g c_partid="part_pad" c_etype="pinpart" c_origin="4217.97,3099" layerid="11" number="1" net="MIDI_IN_1" plated ="Y" c_shapetype="group" id="gge123" locked="0" c_rotation="180" c_width="7.677" c_height="7.677" title="MIDI_IN_1" c_shape="ELLIPSE" pasteExpansion="0" solderExpansion="0.4"><ellipse cx="4217.97" cy="3099" rx="3.8385" ry="3.8385" stroke-width="0" /><polyline c_padhole="1" points="4217.983 3099 4217.963 3099" stroke-width="5.118"></polyline></g><g c_partid="part_pad" c_etype="pinpart" c_origin="4267.19,3108.84" layerid="11" number="5" net="U1_3" plated ="Y" c_shapetype="group" id="gge124" locked="0" c_rotation="180" c_width="7.677" c_height="7.677" title="U1_3" c_shape="ELLIPSE" pasteExpansion="0" solderExpansion="0.4"><ellipse cx="4267.19" cy="3108.84" rx="3.8385" ry="3.8385" stroke-width="0" /><polyline c_padhole="1" points="4267.195 3108.842 4267.175 3108.842" stroke-width="5.118"></polyline></g><g c_partid="part_pad" c_etype="pinpart" c_origin="4277.03,3099" layerid="11" number="3" net="MIDI_IN_3" plated ="Y" c_shapetype="group" id="gge125" locked="0" c_rotation="180" c_width="7.677" c_height="7.677" title="MIDI_IN_3" c_shape="ELLIPSE" pasteExpansion="0" solderExpansion="0.4"><ellipse cx="4277.03" cy="3099" rx="3.8385" ry="3.8385" stroke-width="0" /><polyline c_padhole="1" points="4277.037 3099 4277.017 3099" stroke-width="5.118"></polyline></g><g c_partid="part_pad" c_etype="pinpart" c_origin="4257.34,3059.63" layerid="11" number="S1" net="MIDI_IN_S1" plated ="Y" c_shapetype="group" id="gge126" locked="0" c_rotation="180" c_width="7.677" c_height="7.677" title="MIDI_IN_S1" c_shape="ELLIPSE" pasteExpansion="0" solderExpansion="0.4"><ellipse cx="4257.34" cy="3059.63" rx="3.8385" ry="3.8385" stroke-width="0" /><polyline c_padhole="1" points="4257.352 3059.63 4257.332 3059.63" stroke-width="5.118"></polyline></g><g c_partid="part_pad" c_etype="pinpart" c_origin="4237.66,3059.63" layerid="11" number="S2" net="MIDI_IN_S1" plated ="Y" c_shapetype="group" id="gge127" locked="0" c_rotation="180" c_width="7.677" c_height="7.677" title="MIDI_IN_S1" c_shape="ELLIPSE" pasteExpansion="0" solderExpansion="0.4"><ellipse cx="4237.66" cy="3059.63" rx="3.8385" ry="3.8385" stroke-width="0" /><polyline c_padhole="1" points="4237.668 3059.63 4237.648 3059.63" stroke-width="5.118"></polyline></g><g c_partid="part_pad" c_etype="pinpart" c_origin="4332.5,3099" layerid="11" number="2" net="GND" plated ="Y" c_shapetype="group" id="gge140" locked="0" c_rotation="180" c_width="7.677" c_height="7.677" title="GND" c_shape="ELLIPSE" pasteExpansion="0" solderExpansion="0.4"><ellipse cx="4332.5" cy="3099" rx="3.8385" ry="3.8385" stroke-width="0" /><polyline c_padhole="1" points="4332.51 3099 4332.49 3099" stroke-width="5.118"></polyline></g><g c_partid="part_pad" c_etype="pinpart" c_origin="4312.81,3108.84" layerid="11" number="4" net="R3_2" plated ="Y" c_shapetype="group" id="gge141" locked="0" c_rotation="180" c_width="7.677" c_height="7.677" title="R3_2" c_shape="ELLIPSE" pasteExpansion="0" solderExpansion="0.4"><ellipse cx="4312.81" cy="3108.84" rx="3.8385" ry="3.8385" stroke-width="0" /><polyline c_padhole="1" points="4312.825 3108.842 4312.805 3108.842" stroke-width="5.118"></polyline></g><g c_partid="part_pad" c_etype="pinpart" c_origin="4302.97,3099" layerid="11" number="1" net="MIDI_OUT_1" plated ="Y" c_shapetype="group" id="gge142" locked="0" c_rotation="180" c_width="7.677" c_height="7.677" title="MIDI_OUT_1" c_shape="ELLIPSE" pasteExpansion="0" solderExpansion="0.4"><ellipse cx="4302.97" cy="3099" rx="3.8385" ry="3.8385" stroke-width="0" /><polyline c_padhole="1" points="4302.983 3099 4302.963 3099" stroke-width="5.118"></polyline></g><g c_partid="part_pad" c_etype="pinpart" c_origin="4352.19,3108.84" layerid="11" number="5" net="R2_2" plated ="Y" c_shapetype="group" id="gge143" locked="0" c_rotation="180" c_width="7.677" c_height="7.677" title="R2_2" c_shape="ELLIPSE" pasteExpansion="0" solderExpansion="0.4"><ellipse cx="4352.19" cy="3108.84" rx="3.8385" ry="3.8385" stroke-width="0" /><polyline c_padhole="1" points="4352.195 3108.842 4352.175 3108.842" stroke-width="5.118"></polyline></g><g c_partid="part_pad" c_etype="pinpart" c_origin="4362.03,3099" layerid="11" number="3" net="MIDI_OUT_3" plated ="Y" c_shapetype="group" id="gge144" locked="0" c_rotation="180" c_width="7.677" c_height="7.677" title="MIDI_OUT_3" c_shape="ELLIPSE" pasteExpansion="0" solderExpansion="0.4"><ellipse cx="4362.03" cy="3099" rx="3.8385" ry="3.8385" stroke-width="0" /><polyline c_padhole="1" points="4362.037 3099 4362.017 3099" stroke-width="5.118"></polyline></g><g c_partid="part_pad" c_etype="pinpart" c_origin="4342.34,3059.63" layerid="11" number="S1" net="MIDI_OUT_S1" plated ="Y" c_shapetype="group" id="gge145" locked="0" c_rotation="180" c_width="7.677" c_height="7.677" title="MIDI_OUT_S1" c_shape="ELLIPSE" pasteExpansion="0" solderExpansion="0.4"><ellipse cx="4342.34" cy="3059.63" rx="3.8385" ry="3.8385" stroke-width="0" /><polyline c_padhole="1" points="4342.352 3059.63 4342.332 3059.63" stroke-width="5.118"></polyline></g><g c_partid="part_pad" c_etype="pinpart" c_origin="4322.66,3059.63" layerid="11" number="S2" net="MIDI_OUT_S1" plated ="Y" c_shapetype="group" id="gge146" locked="0" c_rotation="180" c_width="7.677" c_height="7.677" title="MIDI_OUT_S1" c_shape="ELLIPSE" pasteExpansion="0" solderExpansion="0.4"><ellipse cx="4322.66" cy="3059.63" rx="3.8385" ry="3.8385" stroke-width="0" /><polyline c_padhole="1" points="4322.668 3059.63 4322.648 3059.63" stroke-width="5.118"></polyline></g><g c_partid="part_pad" c_etype="pinpart" c_origin="4165,3225" layerid="11" number="1" net="GND" plated ="Y" c_shapetype="group" id="gge153" locked="0" c_rotation="270" c_width="6.2" c_height="6.2" title="GND" c_shape="RECT" pasteExpansion="0" solderExpansion="0.4"><polygon points="4168.1 3221.9 4168.1 3228.1 4161.9 3228.1 4161.9 3221.9" stroke-width="0" /><circle c_padhole="1" cx="4165" cy="3225" r="1.75" stroke-width="0" /></g><g c_partid="part_pad" c_etype="pinpart" c_origin="4175,3225" layerid="11" number="2" net="SAVE_BTN_2" plated ="Y" c_shapetype="group" id="gge154" locked="0" c_rotation="270" c_width="6.2" c_height="6.2" title="SAVE_BTN_2" c_shape="ELLIPSE" pasteExpansion="0" solderExpansion="0.4"><ellipse cx="4175" cy="3225" rx="3.1" ry="3.1" stroke-width="0" /><circle c_padhole="1" cx="4175" cy="3225" r="1.75" stroke-width="0" /></g><g c_partid="part_pad" c_etype="pinpart" c_origin="4217.5,3225.5" layerid="11" number="3" net="+5V" plated ="Y" c_shapetype="group" id="gge160" locked="0" c_rotation="0" c_width="6.2" c_height="6.2" title="+5V" c_shape="ELLIPSE" pasteExpansion="0" solderExpansion="0.4"><ellipse cx="4217.5" cy="3225.5" rx="3.1" ry="3.1" stroke-width="0" /><circle c_padhole="1" cx="4217.5" cy="3225.5" r="1.75" stroke-width="0" /></g><g c_partid="part_pad" c_etype="pinpart" c_origin="4207.5,3225.5" layerid="11" number="2" net="GND" plated ="Y" c_shapetype="group" id="gge161" locked="0" c_rotation="0" c_width="6.2" c_height="6.2" title="GND" c_shape="ELLIPSE" pasteExpansion="0" solderExpansion="0.4"><ellipse cx="4207.5" cy="3225.5" rx="3.1" ry="3.1" stroke-width="0" /><circle c_padhole="1" cx="4207.5" cy="3225.5" r="1.75" stroke-width="0" /></g><g c_partid="part_pad" c_etype="pinpart" c_origin="4197.5,3225.5" layerid="11" number="1" net="POT_IN_1" plated ="Y" c_shapetype="group" id="gge162" locked="0" c_rotation="0" c_width="6.2" c_height="6.2" title="POT_IN_1" c_shape="RECT" pasteExpansion="0" solderExpansion="0.4"><polygon points="4194.4 3222.4 4200.6 3222.4 4200.6 3228.6 4194.4 3228.6" stroke-width="0" /><circle c_padhole="1" cx="4197.5" cy="3225.5" r="1.75" stroke-width="0" /></g><g c_partid="part_pad" c_etype="pinpart" c_origin="4260,3225.5" layerid="11" number="3" net="+5V" plated ="Y" c_shapetype="group" id="gge168" locked="0" c_rotation="0" c_width="6.2" c_height="6.2" title="+5V" c_shape="ELLIPSE" pasteExpansion="0" solderExpansion="0.4"><ellipse cx="4260" cy="3225.5" rx="3.1" ry="3.1" stroke-width="0" /><circle c_padhole="1" cx="4260" cy="3225.5" r="1.75" stroke-width="0" /></g><g c_partid="part_pad" c_etype="pinpart" c_origin="4250,3225.5" layerid="11" number="2" net="GND" plated ="Y" c_shapetype="group" id="gge169" locked="0" c_rotation="0" c_width="6.2" c_height="6.2" title="GND" c_shape="ELLIPSE" pasteExpansion="0" solderExpansion="0.4"><ellipse cx="4250" cy="3225.5" rx="3.1" ry="3.1" stroke-width="0" /><circle c_padhole="1" cx="4250" cy="3225.5" r="1.75" stroke-width="0" /></g><g c_partid="part_pad" c_etype="pinpart" c_origin="4240,3225.5" layerid="11" number="1" net="POT_OUT_1" plated ="Y" c_shapetype="group" id="gge170" locked="0" c_rotation="0" c_width="6.2" c_height="6.2" title="POT_OUT_1" c_shape="RECT" pasteExpansion="0" solderExpansion="0.4"><polygon points="4236.9 3222.4 4243.1 3222.4 4243.1 3228.6 4236.9 3228.6" stroke-width="0" /><circle c_padhole="1" cx="4240" cy="3225.5" r="1.75" stroke-width="0" /></g><g c_partid="part_pad" c_etype="pinpart" c_origin="4281.5,3225.5" layerid="11" number="1" net="DISP_1" plated ="Y" c_shapetype="group" id="gge176" locked="0" c_rotation="0" c_width="6.2" c_height="6.2" title="DISP_1" c_shape="RECT" pasteExpansion="0" solderExpansion="0.4"><polygon points="4278.4 3222.4 4284.6 3222.4 4284.6 3228.6 4278.4 3228.6" stroke-width="0" /><circle c_padhole="1" cx="4281.5" cy="3225.5" r="1.75" stroke-width="0" /></g><g c_partid="part_pad" c_etype="pinpart" c_origin="4291.5,3225.5" layerid="11" number="2" net="DISP_2" plated ="Y" c_shapetype="group" id="gge177" locked="0" c_rotation="0" c_width="6.2" c_height="6.2" title="DISP_2" c_shape="ELLIPSE" pasteExpansion="0" solderExpansion="0.4"><ellipse cx="4291.5" cy="3225.5" rx="3.1" ry="3.1" stroke-width="0" /><circle c_padhole="1" cx="4291.5" cy="3225.5" r="1.75" stroke-width="0" /></g><g c_partid="part_pad" c_etype="pinpart" c_origin="4301.5,3225.5" layerid="11" number="3" net="GND" plated ="Y" c_shapetype="group" id="gge178" locked="0" c_rotation="0" c_width="6.2" c_height="6.2" title="GND" c_shape="ELLIPSE" pasteExpansion="0" solderExpansion="0.4"><ellipse cx="4301.5" cy="3225.5" rx="3.1" ry="3.1" stroke-width="0" /><circle c_padhole="1" cx="4301.5" cy="3225.5" r="1.75" stroke-width="0" /></g><g c_partid="part_pad" c_etype="pinpart" c_origin="4311.5,3225.5" layerid="11" number="4" net="+5V" plated ="Y" c_shapetype="group" id="gge179" locked="0" c_rotation="0" c_width="6.2" c_height="6.2" title="+5V" c_shape="ELLIPSE" pasteExpansion="0" solderExpansion="0.4"><ellipse cx="4311.5" cy="3225.5" rx="3.1" ry="3.1" stroke-width="0" /><circle c_padhole="1" cx="4311.5" cy="3225.5" r="1.75" stroke-width="0" /></g><g c_partid="part_pad" c_etype="pinpart" c_origin="4139,3058" layerid="11" number="1" net="NANO_2_1" plated ="Y" c_shapetype="group" id="gge185" locked="0" c_rotation="0" c_width="6.6929" c_height="6.6929" title="NANO_2_1" c_shape="RECT" pasteExpansion="0" solderExpansion="0.4"><polygon points="4135.654 3054.654 4142.346 3054.654 4142.346 3061.347 4135.654 3061.347" stroke-width="0" /><circle c_padhole="1" cx="4139" cy="3058" r="2.1654" stroke-width="0" /></g><g c_partid="part_pad" c_etype="pinpart" c_origin="4139,3068" layerid="11" number="2" net="NANO_2_2" plated ="Y" c_shapetype="group" id="gge186" locked="0" c_rotation="270" c_width="6.6929" c_height="6.6929" title="NANO_2_2" c_shape="ELLIPSE" pasteExpansion="0" solderExpansion="0.4"><ellipse cx="4139" cy="3068" rx="3.34645" ry="3.34645" stroke-width="0" /><circle c_padhole="1" cx="4139" cy="3068" r="2.1654" stroke-width="0" /></g><g c_partid="part_pad" c_etype="pinpart" c_origin="4139,3078" layerid="11" number="3" net="NANO_2_3" plated ="Y" c_shapetype="group" id="gge187" locked="0" c_rotation="270" c_width="6.6929" c_height="6.6929" title="NANO_2_3" c_shape="ELLIPSE" pasteExpansion="0" solderExpansion="0.4"><ellipse cx="4139" cy="3078" rx="3.34645" ry="3.34645" stroke-width="0" /><circle c_padhole="1" cx="4139" cy="3078" r="2.1654" stroke-width="0" /></g><g c_partid="part_pad" c_etype="pinpart" c_origin="4139,3088" layerid="11" number="4" net="NANO_2_4" plated ="Y" c_shapetype="group" id="gge188" locked="0" c_rotation="270" c_width="6.6929" c_height="6.6929" title="NANO_2_4" c_shape="ELLIPSE" pasteExpansion="0" solderExpansion="0.4"><ellipse cx="4139" cy="3088" rx="3.34645" ry="3.34645" stroke-width="0" /><circle c_padhole="1" cx="4139" cy="3088" r="2.1654" stroke-width="0" /></g><g c_partid="part_pad" c_etype="pinpart" c_origin="4139,3098" layerid="11" number="5" net="NANO_2_5" plated ="Y" c_shapetype="group" id="gge189" locked="0" c_rotation="270" c_width="6.6929" c_height="6.6929" title="NANO_2_5" c_shape="ELLIPSE" pasteExpansion="0" solderExpansion="0.4"><ellipse cx="4139" cy="3098" rx="3.34645" ry="3.34645" stroke-width="0" /><circle c_padhole="1" cx="4139" cy="3098" r="2.1654" stroke-width="0" /></g><g c_partid="part_pad" c_etype="pinpart" c_origin="4139,3108" layerid="11" number="6" net="NANO_2_6" plated ="Y" c_shapetype="group" id="gge190" locked="0" c_rotation="270" c_width="6.6929" c_height="6.6929" title="NANO_2_6" c_shape="ELLIPSE" pasteExpansion="0" solderExpansion="0.4"><ellipse cx="4139" cy="3108" rx="3.34645" ry="3.34645" stroke-width="0" /><circle c_padhole="1" cx="4139" cy="3108" r="2.1654" stroke-width="0" /></g><g c_partid="part_pad" c_etype="pinpart" c_origin="4139,3118" layerid="11" number="7" net="NANO_2_7" plated ="Y" c_shapetype="group" id="gge191" locked="0" c_rotation="270" c_width="6.6929" c_height="6.6929" title="NANO_2_7" c_shape="ELLIPSE" pasteExpansion="0" solderExpansion="0.4"><ellipse cx="4139" cy="3118" rx="3.34645" ry="3.34645" stroke-width="0" /><circle c_padhole="1" cx="4139" cy="3118" r="2.1654" stroke-width="0" /></g><g c_partid="part_pad" c_etype="pinpart" c_origin="4139,3128" layerid="11" number="8" net="NANO_2_8" plated ="Y" c_shapetype="group" id="gge192" locked="0" c_rotation="270" c_width="6.6929" c_height="6.6929" title="NANO_2_8" c_shape="ELLIPSE" pasteExpansion="0" solderExpansion="0.4"><ellipse cx="4139" cy="3128" rx="3.34645" ry="3.34645" stroke-width="0" /><circle c_padhole="1" cx="4139" cy="3128" r="2.1654" stroke-width="0" /></g><g c_partid="part_pad" c_etype="pinpart" c_origin="4139,3138" layerid="11" number="9" net="SAVE_BTN_2" plated ="Y" c_shapetype="group" id="gge193" locked="0" c_rotation="270" c_width="6.6929" c_height="6.6929" title="SAVE_BTN_2" c_shape="ELLIPSE" pasteExpansion="0" solderExpansion="0.4"><ellipse cx="4139" cy="3138" rx="3.34645" ry="3.34645" stroke-width="0" /><circle c_padhole="1" cx="4139" cy="3138" r="2.1654" stroke-width="0" /></g><g c_partid="part_pad" c_etype="pinpart" c_origin="4139,3148" layerid="11" number="10" net="NANO_2_10" plated ="Y" c_shapetype="group" id="gge194" locked="0" c_rotation="270" c_width="6.6929" c_height="6.6929" title="NANO_2_10" c_shape="ELLIPSE" pasteExpansion="0" solderExpansion="0.4"><ellipse cx="4139" cy="3148" rx="3.34645" ry="3.34645" stroke-width="0" /><circle c_padhole="1" cx="4139" cy="3148" r="2.1654" stroke-width="0" /></g><g c_partid="part_pad" c_etype="pinpart" c_origin="4139,3158" layerid="11" number="11" net="NANO_2_11" plated ="Y" c_shapetype="group" id="gge195" locked="0" c_rotation="270" c_width="6.6929" c_height="6.6929" title="NANO_2_11" c_shape="ELLIPSE" pasteExpansion="0" solderExpansion="0.4"><ellipse cx="4139" cy="3158" rx="3.34645" ry="3.34645" stroke-width="0" /><circle c_padhole="1" cx="4139" cy="3158" r="2.1654" stroke-width="0" /></g><g c_partid="part_pad" c_etype="pinpart" c_origin="4139,3168" layerid="11" number="12" net="GND" plated ="Y" c_shapetype="group" id="gge196" locked="0" c_rotation="270" c_width="6.6929" c_height="6.6929" title="GND" c_shape="ELLIPSE" pasteExpansion="0" solderExpansion="0.4"><ellipse cx="4139" cy="3168" rx="3.34645" ry="3.34645" stroke-width="0" /><circle c_padhole="1" cx="4139" cy="3168" r="2.1654" stroke-width="0" /></g><g c_partid="part_pad" c_etype="pinpart" c_origin="4139,3178" layerid="11" number="13" net="NANO_2_13" plated ="Y" c_shapetype="group" id="gge197" locked="0" c_rotation="270" c_width="6.6929" c_height="6.6929" title="NANO_2_13" c_shape="ELLIPSE" pasteExpansion="0" solderExpansion="0.4"><ellipse cx="4139" cy="3178" rx="3.34645" ry="3.34645" stroke-width="0" /><circle c_padhole="1" cx="4139" cy="3178" r="2.1654" stroke-width="0" /></g><g c_partid="part_pad" c_etype="pinpart" c_origin="4139,3188" layerid="11" number="14" net="NANO_2_14" plated ="Y" c_shapetype="group" id="gge198" locked="0" c_rotation="270" c_width="6.6929" c_height="6.6929" title="NANO_2_14" c_shape="ELLIPSE" pasteExpansion="0" solderExpansion="0.4"><ellipse cx="4139" cy="3188" rx="3.34645" ry="3.34645" stroke-width="0" /><circle c_padhole="1" cx="4139" cy="3188" r="2.1654" stroke-width="0" /></g><g c_partid="part_pad" c_etype="pinpart" c_origin="4139,3198" layerid="11" number="15" net="NANO_2_15" plated ="Y" c_shapetype="group" id="gge199" locked="0" c_rotation="270" c_width="6.6929" c_height="6.6929" title="NANO_2_15" c_shape="ELLIPSE" pasteExpansion="0" solderExpansion="0.4"><ellipse cx="4139" cy="3198" rx="3.34645" ry="3.34645" stroke-width="0" /><circle c_padhole="1" cx="4139" cy="3198" r="2.1654" stroke-width="0" /></g><g c_partid="part_pad" c_etype="pinpart" c_origin="4079,3058" layerid="11" number="1" net="NANO_1_1" plated ="Y" c_shapetype="group" id="gge205" locked="0" c_rotation="0" c_width="6.6929" c_height="6.6929" title="NANO_1_1" c_shape="RECT" pasteExpansion="0" solderExpansion="0.4"><polygon points="4075.654 3054.654 4082.347 3054.654 4082.347 3061.347 4075.654 3061.347" stroke-width="0" /><circle c_padhole="1" cx="4079" cy="3058" r="2.1654" stroke-width="0" /></g><g c_partid="part_pad" c_etype="pinpart" c_origin="4079,3068" layerid="11" number="2" net="NANO_1_2" plated ="Y" c_shapetype="group" id="gge206" locked="0" c_rotation="270" c_width="6.6929" c_height="6.6929" title="NANO_1_2" c_shape="ELLIPSE" pasteExpansion="0" solderExpansion="0.4"><ellipse cx="4079" cy="3068" rx="3.34645" ry="3.34645" stroke-width="0" /><circle c_padhole="1" cx="4079" cy="3068" r="2.1654" stroke-width="0" /></g><g c_partid="part_pad" c_etype="pinpart" c_origin="4079,3078" layerid="11" number="3" net="NANO_1_3" plated ="Y" c_shapetype="group" id="gge207" locked="0" c_rotation="270" c_width="6.6929" c_height="6.6929" title="NANO_1_3" c_shape="ELLIPSE" pasteExpansion="0" solderExpansion="0.4"><ellipse cx="4079" cy="3078" rx="3.34645" ry="3.34645" stroke-width="0" /><circle c_padhole="1" cx="4079" cy="3078" r="2.1654" stroke-width="0" /></g><g c_partid="part_pad" c_etype="pinpart" c_origin="4079,3088" layerid="11" number="4" net="NANO_1_4" plated ="Y" c_shapetype="group" id="gge208" locked="0" c_rotation="270" c_width="6.6929" c_height="6.6929" title="NANO_1_4" c_shape="ELLIPSE" pasteExpansion="0" solderExpansion="0.4"><ellipse cx="4079" cy="3088" rx="3.34645" ry="3.34645" stroke-width="0" /><circle c_padhole="1" cx="4079" cy="3088" r="2.1654" stroke-width="0" /></g><g c_partid="part_pad" c_etype="pinpart" c_origin="4079,3098" layerid="11" number="5" net="NANO_1_5" plated ="Y" c_shapetype="group" id="gge209" locked="0" c_rotation="270" c_width="6.6929" c_height="6.6929" title="NANO_1_5" c_shape="ELLIPSE" pasteExpansion="0" solderExpansion="0.4"><ellipse cx="4079" cy="3098" rx="3.34645" ry="3.34645" stroke-width="0" /><circle c_padhole="1" cx="4079" cy="3098" r="2.1654" stroke-width="0" /></g><g c_partid="part_pad" c_etype="pinpart" c_origin="4079,3108" layerid="11" number="6" net="POT_IN_1" plated ="Y" c_shapetype="group" id="gge210" locked="0" c_rotation="270" c_width="6.6929" c_height="6.6929" title="POT_IN_1" c_shape="ELLIPSE" pasteExpansion="0" solderExpansion="0.4"><ellipse cx="4079" cy="3108" rx="3.34645" ry="3.34645" stroke-width="0" /><circle c_padhole="1" cx="4079" cy="3108" r="2.1654" stroke-width="0" /></g><g c_partid="part_pad" c_etype="pinpart" c_origin="4079,3118" layerid="11" number="7" net="POT_OUT_1" plated ="Y" c_shapetype="group" id="gge211" locked="0" c_rotation="270" c_width="6.6929" c_height="6.6929" title="POT_OUT_1" c_shape="ELLIPSE" pasteExpansion="0" solderExpansion="0.4"><ellipse cx="4079" cy="3118" rx="3.34645" ry="3.34645" stroke-width="0" /><circle c_padhole="1" cx="4079" cy="3118" r="2.1654" stroke-width="0" /></g><g c_partid="part_pad" c_etype="pinpart" c_origin="4079,3128" layerid="11" number="8" net="DISP_2" plated ="Y" c_shapetype="group" id="gge212" locked="0" c_rotation="270" c_width="6.6929" c_height="6.6929" title="DISP_2" c_shape="ELLIPSE" pasteExpansion="0" solderExpansion="0.4"><ellipse cx="4079" cy="3128" rx="3.34645" ry="3.34645" stroke-width="0" /><circle c_padhole="1" cx="4079" cy="3128" r="2.1654" stroke-width="0" /></g><g c_partid="part_pad" c_etype="pinpart" c_origin="4079,3138" layerid="11" number="9" net="DISP_1" plated ="Y" c_shapetype="group" id="gge213" locked="0" c_rotation="270" c_width="6.6929" c_height="6.6929" title="DISP_1" c_shape="ELLIPSE" pasteExpansion="0" solderExpansion="0.4"><ellipse cx="4079" cy="3138" rx="3.34645" ry="3.34645" stroke-width="0" /><circle c_padhole="1" cx="4079" cy="3138" r="2.1654" stroke-width="0" /></g><g c_partid="part_pad" c_etype="pinpart" c_origin="4079,3148" layerid="11" number="10" net="NANO_1_10" plated ="Y" c_shapetype="group" id="gge214" locked="0" c_rotation="270" c_width="6.6929" c_height="6.6929" title="NANO_1_10" c_shape="ELLIPSE" pasteExpansion="0" solderExpansion="0.4"><ellipse cx="4079" cy="3148" rx="3.34645" ry="3.34645" stroke-width="0" /><circle c_padhole="1" cx="4079" cy="3148" r="2.1654" stroke-width="0" /></g><g c_partid="part_pad" c_etype="pinpart" c_origin="4079,3158" layerid="11" number="11" net="NANO_1_11" plated ="Y" c_shapetype="group" id="gge215" locked="0" c_rotation="270" c_width="6.6929" c_height="6.6929" title="NANO_1_11" c_shape="ELLIPSE" pasteExpansion="0" solderExpansion="0.4"><ellipse cx="4079" cy="3158" rx="3.34645" ry="3.34645" stroke-width="0" /><circle c_padhole="1" cx="4079" cy="3158" r="2.1654" stroke-width="0" /></g><g c_partid="part_pad" c_etype="pinpart" c_origin="4079,3168" layerid="11" number="12" net="+5V" plated ="Y" c_shapetype="group" id="gge216" locked="0" c_rotation="270" c_width="6.6929" c_height="6.6929" title="+5V" c_shape="ELLIPSE" pasteExpansion="0" solderExpansion="0.4"><ellipse cx="4079" cy="3168" rx="3.34645" ry="3.34645" stroke-width="0" /><circle c_padhole="1" cx="4079" cy="3168" r="2.1654" stroke-width="0" /></g><g c_partid="part_pad" c_etype="pinpart" c_origin="4079,3178" layerid="11" number="13" net="NANO_1_13" plated ="Y" c_shapetype="group" id="gge217" locked="0" c_rotation="270" c_width="6.6929" c_height="6.6929" title="NANO_1_13" c_shape="ELLIPSE" pasteExpansion="0" solderExpansion="0.4"><ellipse cx="4079" cy="3178" rx="3.34645" ry="3.34645" stroke-width="0" /><circle c_padhole="1" cx="4079" cy="3178" r="2.1654" stroke-width="0" /></g><g c_partid="part_pad" c_etype="pinpart" c_origin="4079,3188" layerid="11" number="14" net="GND" plated ="Y" c_shapetype="group" id="gge218" locked="0" c_rotation="270" c_width="6.6929" c_height="6.6929" title="GND" c_shape="ELLIPSE" pasteExpansion="0" solderExpansion="0.4"><ellipse cx="4079" cy="3188" rx="3.34645" ry="3.34645" stroke-width="0" /><circle c_padhole="1" cx="4079" cy="3188" r="2.1654" stroke-width="0" /></g><g c_partid="part_pad" c_etype="pinpart" c_origin="4079,3198" layerid="11" number="15" net="NANO_1_15" plated ="Y" c_shapetype="group" id="gge219" locked="0" c_rotation="270" c_width="6.6929" c_height="6.6929" title="NANO_1_15" c_shape="ELLIPSE" pasteExpansion="0" solderExpansion="0.4"><ellipse cx="4079" cy="3198" rx="3.34645" ry="3.34645" stroke-width="0" /><circle c_padhole="1" cx="4079" cy="3198" r="2.1654" stroke-width="0" /></g><g c_partid="part_pad" c_etype="pinpart" c_origin="4177.25,3104.81" layerid="11" number="1" net="DC1_1" plated ="Y" c_shapetype="group" id="gge232" locked="0" c_rotation="270" c_width="7.0866" c_height="16.5354" title="DC1_1" c_shape="OVAL" pasteExpansion="0" solderExpansion="0.4"><polyline points="4181.974 3104.81 4172.526 3104.81" stroke-width="7.0866" /><polyline c_padhole="1" points="4172.331 3104.81 4182.174 3104.81" stroke-width="4.7244"></polyline></g><g c_partid="part_pad" c_etype="pinpart" c_origin="4177.25,3081.19" layerid="11" number="2" net="GND" plated ="Y" c_shapetype="group" id="gge235" locked="0" c_rotation="90" c_width="7.0866" c_height="16.5354" title="GND" c_shape="OVAL" pasteExpansion="0" solderExpansion="0.4"><polyline points="4172.526 3081.19 4181.974 3081.19" stroke-width="7.0866" /><polyline c_padhole="1" points="4182.174 3081.19 4172.331 3081.19" stroke-width="4.7244"></polyline></g><g c_partid="part_pad" c_etype="pinpart" c_origin="4158.75,3093" layerid="11" number="3" net="GND" plated ="Y" c_shapetype="group" id="gge240" locked="0" c_rotation="180" c_width="7.0866" c_height="16.5354" title="GND" c_shape="OVAL" pasteExpansion="0" solderExpansion="0.4"><polyline points="4158.75 3097.724 4158.75 3088.276" stroke-width="7.0866" /><polyline c_padhole="1" points="4158.747 3088.079 4158.747 3097.921" stroke-width="4.7244"></polyline></g><g c_partid="part_pad" c_etype="pinpart" c_origin="4171.5,3126" layerid="11" number="1" net="NANO_1_15" plated ="Y" c_shapetype="group" id="gge251" locked="0" c_rotation="270" c_width="6.2" c_height="6.2" title="NANO_1_15" c_shape="RECT" pasteExpansion="0" solderExpansion="0.4"><polygon points="4174.6 3122.9 4174.6 3129.1 4168.4 3129.1 4168.4 3122.9" stroke-width="0" /><circle c_padhole="1" cx="4171.5" cy="3126" r="1.75" stroke-width="0" /></g><g c_partid="part_pad" c_etype="pinpart" c_origin="4181.5,3126" layerid="11" number="2" net="DC1_1" plated ="Y" c_shapetype="group" id="gge254" locked="0" c_rotation="270" c_width="6.2" c_height="6.2" title="DC1_1" c_shape="ELLIPSE" pasteExpansion="0" solderExpansion="0.4"><ellipse cx="4181.5" cy="3126" rx="3.1" ry="3.1" stroke-width="0" /><circle c_padhole="1" cx="4181.5" cy="3126" r="1.75" stroke-width="0" /></g><g c_partid="part_pad" c_etype="pinpart" c_origin="4331.5,3215.5" layerid="11" number="1" net="NANO_2_14" plated ="Y" c_shapetype="group" id="gge264" locked="0" c_rotation="270" c_width="6.2" c_height="6.2" title="NANO_2_14" c_shape="RECT" pasteExpansion="0" solderExpansion="0.4"><polygon points="4334.6 3212.4 4334.6 3218.6 4328.4 3218.6 4328.4 3212.4" stroke-width="0" /><circle c_padhole="1" cx="4331.5" cy="3215.5" r="1.75" stroke-width="0" /></g><g c_partid="part_pad" c_etype="pinpart" c_origin="4341.5,3215.5" layerid="11" number="2" net="U1_6" plated ="Y" c_shapetype="group" id="gge267" locked="0" c_rotation="270" c_width="6.2" c_height="6.2" title="U1_6" c_shape="ELLIPSE" pasteExpansion="0" solderExpansion="0.4"><ellipse cx="4341.5" cy="3215.5" rx="3.1" ry="3.1" stroke-width="0" /><circle c_padhole="1" cx="4341.5" cy="3215.5" r="1.75" stroke-width="0" /></g><g c_partid="part_pad" c_etype="pinpart" c_origin="4331.5,3225.5" layerid="11" number="3" net="NANO_2_15" plated ="Y" c_shapetype="group" id="gge272" locked="0" c_rotation="270" c_width="6.2" c_height="6.2" title="NANO_2_15" c_shape="ELLIPSE" pasteExpansion="0" solderExpansion="0.4"><ellipse cx="4331.5" cy="3225.5" rx="3.1" ry="3.1" stroke-width="0" /><circle c_padhole="1" cx="4331.5" cy="3225.5" r="1.75" stroke-width="0" /></g><g c_partid="part_pad" c_etype="pinpart" c_origin="4341.5,3225.5" layerid="11" number="4" net="R2_1" plated ="Y" c_shapetype="group" id="gge277" locked="0" c_rotation="270" c_width="6.2" c_height="6.2" title="R2_1" c_shape="ELLIPSE" pasteExpansion="0" solderExpansion="0.4"><ellipse cx="4341.5" cy="3225.5" rx="3.1" ry="3.1" stroke-width="0" /><circle c_padhole="1" cx="4341.5" cy="3225.5" r="1.75" stroke-width="0" /></g><g c_partid="part_via" c_etype="pinpart" c_shapetype="group" net="DISP_2" c_origin="4089.52,3210.74" layerid="11" id="gge702" locked="" solderExpansion=""><circle cx="4089.52" cy="3210.74" r="1.2008" stroke-width="0" /><circle cx="4089.52" cy="3210.74" r="0.6102"  stroke-width="0" /></g><g c_partid="part_via" c_etype="pinpart" c_shapetype="group" net="NANO_1_15" c_origin="4100.53,3198" layerid="11" id="gge706" locked="" solderExpansion=""><circle cx="4100.53" cy="3198" r="1.2008" stroke-width="0" /><circle cx="4100.53" cy="3198" r="0.6102"  stroke-width="0" /></g><g c_partid="part_via" c_etype="pinpart" c_shapetype="group" net="+5V" c_origin="4307.5,3203.67" layerid="11" id="gge731" locked="" solderExpansion=""><circle cx="4307.5" cy="3203.67" r="1.2008" stroke-width="0" /><circle cx="4307.5" cy="3203.67" r="0.6102"  stroke-width="0" /></g><g c_partid="part_via" c_etype="pinpart" c_shapetype="group" net="POT_OUT_1" c_origin="4117.18,3220.22" layerid="11" id="gge739" locked="" solderExpansion=""><circle cx="4117.18" cy="3220.22" r="1.2008" stroke-width="0" /><circle cx="4117.18" cy="3220.22" r="0.6102"  stroke-width="0" /></g><g c_partid="part_via" c_etype="pinpart" c_shapetype="group" net="DISP_1" c_origin="4269.45,3237.05" layerid="11" id="gge746" locked="" solderExpansion=""><circle cx="4269.45" cy="3237.05" r="1.2008" stroke-width="0" /><circle cx="4269.45" cy="3237.05" r="0.6102"  stroke-width="0" /></g><g c_partid="part_via" c_etype="pinpart" c_shapetype="group" net="DISP_1" c_origin="4107.97,3225.96" layerid="11" id="gge747" locked="" solderExpansion=""><circle cx="4107.97" cy="3225.96" r="1.2008" stroke-width="0" /><circle cx="4107.97" cy="3225.96" r="0.6102"  stroke-width="0" /></g><g c_partid="part_hole" c_etype="pinpart" c_shapetype="group" c_origin="4060.5,3239.25" layerid="11" id="gge297" ><circle cx="4060.5" cy="3239.25" r="4"   stroke-width="0" /></g><g c_partid="part_hole" c_etype="pinpart" c_shapetype="group" c_origin="4060.5,3059.25" layerid="11" id="gge301" ><circle cx="4060.5" cy="3059.25" r="4"   stroke-width="0" /></g><g c_partid="part_hole" c_etype="pinpart" c_shapetype="group" c_origin="4387,3059.25" layerid="11" id="gge305" ><circle cx="4387" cy="3059.25" r="4"   stroke-width="0" /></g><g c_partid="part_hole" c_etype="pinpart" c_shapetype="group" c_origin="4387,3239.25" layerid="11" id="gge309" ><circle cx="4387" cy="3239.25" r="4"   stroke-width="0" /></g><g c_partid="part_hole" c_etype="pinpart" c_shapetype="group" c_origin="4277.03,3079.32" layerid="11" id="gge128" ><circle cx="4277.03" cy="3079.32" r="4.724"   stroke-width="0" /></g><g c_partid="part_hole" c_etype="pinpart" c_shapetype="group" c_origin="4217.97,3079.32" layerid="11" id="gge129" ><circle cx="4217.97" cy="3079.32" r="4.724"   stroke-width="0" /></g><g c_partid="part_hole" c_etype="pinpart" c_shapetype="group" c_origin="4362.03,3079.32" layerid="11" id="gge147" ><circle cx="4362.03" cy="3079.32" r="4.724"   stroke-width="0" /></g><g c_partid="part_hole" c_etype="pinpart" c_shapetype="group" c_origin="4302.97,3079.32" layerid="11" id="gge148" ><circle cx="4302.97" cy="3079.32" r="4.724"   stroke-width="0" /></g><polyline points="4048 3048 4398.394 3048 4398.394 3252.724 4048 3252.724 4048 3048" stroke-width="1" c_shapetype="line" stroke-linecap="round" fill="none" layerid="10" net="" id="gge288" /></g></svg>