<svg xmlns="http://www.w3.org/2000/svg" xmlns:xlink="http://www.w3.org/1999/xlink" width="99.06mm" height="61.341mm" viewBox="4026.5 3028.5 390 241.5"><title></title><style type="text/css">
*[layerid="1"] {stroke:#FF0000;fill:#FF0000;}
*[layerid="2"] {stroke:#0000FF;fill:#0000FF;}
*[layerid="3"] {stroke:#FFCC00;fill:#FFCC00;}
*[layerid="4"] {stroke:#66CC33;fill:#66CC33;}
*[layerid="5"] {stroke:#808080;fill:#808080;}
*[layerid="6"] {stroke:#800000;fill:#800000;}
*[layerid="7"] {stroke:#800080;fill:#800080;stroke-opacity:0.7;fill-opacity:0.7;}
*[layerid="8"] {stroke:#AA00FF;fill:#AA00FF;stroke-opacity:0.7;fill-opacity:0.7;}
*[layerid="9"] {stroke:#6464FF;fill:#6464FF;}
*[layerid="10"] {stroke:#FF00FF;fill:#FF00FF;}
*[layerid="11"] {stroke:#C0C0C0;fill:#C0C0C0;}
*[layerid="12"] {stroke:#FFFFFF;fill:#FFFFFF;}
*[layerid="13"] {stroke:#33CC99;fill:#33CC99;}
*[layerid="14"] {stroke:#5555FF;fill:#5555FF;}
*[layerid="15"] {stroke:#F022F0;fill:#F022F0;}
*[layerid="21"] {stroke:#800000;fill:#800000;}
*[layerid="22"] {stroke:#008000;fill:#008000;}
*[layerid="23"] {stroke:#00FF00;fill:#00FF00;}
*[layerid="24"] {stroke:#BC8E00;fill:#BC8E00;}
*[layerid="25"] {stroke:#70DBFA;fill:#70DBFA;}
*[layerid="26"] {stroke:#00CC66;fill:#00CC66;}
*[layerid="27"] {stroke:#9966FF;fill:#9966FF;}
*[layerid="28"] {stroke:#800080;fill:#800080;}
*[layerid="29"] {stroke:#008080;fill:#008080;}
*[layerid="30"] {stroke:#15935F;fill:#15935F;}
*[layerid="31"] {stroke:#000080;fill:#000080;}
*[layerid="32"] {stroke:#00B400;fill:#00B400;}
*[layerid="33"] {stroke:#2E4756;fill:#2E4756;}
*[layerid="34"] {stroke:#99842F;fill:#99842F;}
*[layerid="35"] {stroke:#FFFFAA;fill:#FFFFAA;}
*[layerid="36"] {stroke:#99842F;fill:#99842F;}
*[layerid="37"] {stroke:#2E4756;fill:#2E4756;}
*[layerid="38"] {stroke:#3535FF;fill:#3535FF;}
*[layerid="39"] {stroke:#8000BC;fill:#8000BC;}
*[layerid="40"] {stroke:#43AE5F;fill:#43AE5F;}
*[layerid="41"] {stroke:#C3ECCE;fill:#C3ECCE;}
*[layerid="42"] {stroke:#728978;fill:#728978;}
*[layerid="43"] {stroke:#39503F;fill:#39503F;}
*[layerid="44"] {stroke:#0C715D;fill:#0C715D;}
*[layerid="45"] {stroke:#5A8A80;fill:#5A8A80;}
*[layerid="46"] {stroke:#2B937E;fill:#2B937E;}
*[layerid="47"] {stroke:#23999D;fill:#23999D;}
*[layerid="48"] {stroke:#45B4E3;fill:#45B4E3;}
*[layerid="49"] {stroke:#215DA1;fill:#215DA1;}
*[layerid="50"] {stroke:#4564D7;fill:#4564D7;}
*[layerid="51"] {stroke:#6969E9;fill:#6969E9;}
*[layerid="52"] {stroke:#9069E9;fill:#9069E9;}
*[fill="none"] {fill: none;}
*[stroke="none"] {stroke: none;}
path, polyline, polygon, line {stroke-linecap:round;}
g[c_partid="part_pad"][layerid="1"] ellipse:not([c_padid]) {fill:#FF0000;}
g[c_partid="part_pad"][layerid="1"]  polygon:not([c_padid]) {fill:#FF0000;}
g[c_partid="part_pad"][layerid="1"]  polyline:not([c_padid]) {stroke:#FF0000;}
g[c_partid="part_pad"][layerid="1"]  circle {fill:#FF0000;}
g[c_partid="part_pad"][layerid="2"]  ellipse:not([c_padid]) {fill:#0000FF;}
g[c_partid="part_pad"][layerid="2"]  polygon:not([c_padid]) {fill:#0000FF;}
g[c_partid="part_pad"][layerid="2"]  polyline:not([c_padid]) {stroke:#0000FF;}
g[c_partid="part_pad"][layerid="2"]  circle {fill:#0000FF;}
g[c_partid="part_pad"][layerid="11"]  ellipse:not([c_padid]) {fill:#C0C0C0;}
g[c_partid="part_pad"][layerid="11"]  polygon:not([c_padid]) {fill:#C0C0C0;}
g[c_partid="part_pad"][layerid="11"]  polyline:not([c_padid]) {stroke:#C0C0C0;}
g[c_partid="part_pad"][layerid="11"]  circle {fill:#C0C0C0;}
g[c_partid="part_pad"][layerid] > circle[c_padhole] {fill: #222222;}
g[c_partid="part_pad"][layerid] > polyline[c_padhole] {stroke:#222222;}
g[c_partid="part_via"][layerid] > * + circle {fill: #222222;}
g[c_partid="part_pad"] > polygon[c_padid] {stroke-linejoin: miter;stroke-miterlimit: 100;}
g[c_partid="part_hole"] > circle {fill: #222222;}path, polyline, polygon {stroke-linejoin:round;}
rect, circle, ellipse, polyline, line, polygon, path {shape-rendering:crispEdges;}
</style>
<rect x="4026.5" y="3028.5" width="390" height="241.5" fill="#000000" stroke="none"/><g id="g1" cpara="" c_transformList="" importFlag="0" xmlns="http://www.w3.org/2000/svg"><path d="M 4049.46 3251.6644 A 0.4 0.4 0 0 1 4049.06 3251.2644 L 4049.06 3049.46 A 0.4 0.4 0 0 1 4049.46 3049.06 L 4396.9337 3049.06 A 0.4 0.4 0 0 1 4397.3337 3049.46 L 4397.3337 3251.2644 A 0.4 0.4 0 0 1 4396.9337 3251.6644 L 4049.46 3251.6644 Z M 4218.32 3245.94985 A 2.26985 2.26985 0 0 0 4219.92503 3245.28503 L 4219.92503 3245.28503 4222.53481 3242.67524 A 0.4 0.4 0 0 1 4222.81765 3242.55808 0.4 0.4 0 0 1 4222.87817 3242.56269 L 4222.87817 3242.56269 A 4.11 4.11 0 0 0 4223.5 3242.61 4.11 4.11 0 0 0 4227.61 3238.5 4.11 4.11 0 0 0 4223.5 3234.39 4.11 4.11 0 0 0 4219.39 3238.5 4.11 4.11 0 0 0 4219.43731 3239.12183 0.4 0.4 0 0 1 4219.44192 3239.18235 0.4 0.4 0 0 1 4219.32476 3239.46519 L 4217.59117 3241.19878 A 0.4 0.4 0 0 1 4217.30833 3241.31593 0.4 0.4 0 0 1 4216.90833 3240.91593 0.4 0.4 0 0 1 4216.97056 3240.70166 4.11 4.11 0 0 0 4217.30652 3240.05 L 4215.05 3240.05 4215.05 3241.01015 A 0.4 0.4 0 0 1 4214.65 3241.41015 L 4212.35 3241.41015 A 0.4 0.4 0 0 1 4211.95 3241.01015 L 4211.95 3240.05 4209.69348 3240.05 A 4.11 4.11 0 0 0 4210.08542 3240.78752 L 4210.08542 3240.78752 A 0.4 0.4 0 0 1 4210.1531 3241.01015 0.4 0.4 0 0 1 4209.7531 3241.41015 L 4207.2469 3241.41015 A 0.4 0.4 0 0 1 4206.8469 3241.01015 0.4 0.4 0 0 1 4206.91458 3240.78752 4.11 4.11 0 0 0 4207.61 3238.5 4.11 4.11 0 0 0 4203.5 3234.39 4.11 4.11 0 0 0 4199.39 3238.5 4.11 4.11 0 0 0 4200.08542 3240.78752 L 4200.08542 3240.78752 A 0.4 0.4 0 0 1 4200.1531 3241.01015 0.4 0.4 0 0 1 4199.7531 3241.41015 L 4198.01 3241.41015 A 0.4 0.4 0 0 1 4197.61 3241.01015 L 4197.61 3235.4 A 1.01 1.01 0 0 0 4196.6 3234.39 L 4196.6 3234.39 4190.4 3234.39 4190.4 3234.39 A 1.01 1.01 0 0 0 4189.39 3235.4 L 4189.39 3235.83015 A 0.4 0.4 0 0 1 4188.99 3236.23015 L 4188.98529 3236.23015 A 0.4 0.4 0 0 1 4188.70255 3236.1131 L 4176.47441 3223.89436 4176.47441 3223.89436 A 2.26985 2.26985 0 0 0 4174.87 3223.23015 L 4160.11589 3223.23015 A 0.4 0.4 0 0 1 4159.83305 3223.11299 L 4146.19931 3209.47926 A 0.4 0.4 0 0 1 4146.08215 3209.19642 0.4 0.4 0 0 1 4146.48215 3208.79642 0.4 0.4 0 0 1 4146.70956 3208.86735 2.26985 2.26985 0 0 0 4148.0 3209.26985 L 4204.89411 3209.26985 A 0.4 0.4 0 0 1 4205.17695 3209.38701 L 4235.39497 3239.60503 4235.39497 3239.60503 A 2.26985 2.26985 0 0 0 4237.0 3240.26985 L 4239.86517 3240.26985 A 0.4 0.4 0 0 1 4240.18755 3240.43306 L 4240.18755 3240.43306 A 4.11 4.11 0 0 0 4243.5 3242.11 4.11 4.11 0 0 0 4247.61 3238.0 4.11 4.11 0 0 0 4243.5 3233.89 4.11 4.11 0 0 0 4240.18755 3235.56694 0.4 0.4 0 0 1 4239.86517 3235.73015 L 4238.10589 3235.73015 A 0.4 0.4 0 0 1 4237.82305 3235.61299 L 4207.60503 3205.39497 4207.60503 3205.39497 A 2.26985 2.26985 0 0 0 4206.0 3204.73015 L 4149.10589 3204.73015 A 0.4 0.4 0 0 1 4148.82305 3204.61299 L 4143.38852 3199.17847 A 0.4 0.4 0 0 1 4143.27137 3198.89563 0.4 0.4 0 0 1 4143.27852 3198.82031 L 4143.27852 3198.82031 A 4.35645 4.35645 0 0 0 4143.35645 3198.0 4.35645 4.35645 0 0 0 4139.0 3193.64355 4.35645 4.35645 0 0 0 4134.73076 3197.13267 0.4 0.4 0 0 1 4134.33877 3197.45303 0.4 0.4 0 0 1 4134.05593 3197.33587 L 4119.09701 3182.37695 A 0.4 0.4 0 0 1 4118.97985 3182.09411 L 4118.97985 3175.71 4118.97985 3175.71 A 2.26985 2.26985 0 0 0 4118.31503 3174.10497 L 4118.31503 3174.10497 4101.64736 3157.43731 A 0.4 0.4 0 0 1 4101.5302 3157.15446 0.4 0.4 0 0 1 4101.85676 3156.76126 L 4101.85676 3156.76126 A 2.26985 2.26985 0 0 0 4103.04503 3156.13503 L 4103.04503 3156.13503 4118.79305 3140.38701 A 0.4 0.4 0 0 1 4119.07589 3140.26985 L 4135.06354 3140.26985 A 0.4 0.4 0 0 1 4135.39458 3140.44533 4.35645 4.35645 0 0 0 4139.0 3142.35645 4.35645 4.35645 0 0 0 4143.35645 3138.0 4.35645 4.35645 0 0 0 4139.0 3133.64355 4.35645 4.35645 0 0 0 4135.39458 3135.55467 0.4 0.4 0 0 1 4135.06354 3135.73015 L 4117.97 3135.73015 A 2.26985 2.26985 0 0 0 4116.36497 3136.39497 L 4116.36497 3136.39497 4099.83497 3152.92497 4099.83497 3152.92497 A 2.26985 2.26985 0 0 0 4099.20874 3154.11324 0.4 0.4 0 0 1 4098.81554 3154.4398 0.4 0.4 0 0 1 4098.53269 3154.32264 L 4083.38852 3139.17847 A 0.4 0.4 0 0 1 4083.27137 3138.89563 0.4 0.4 0 0 1 4083.27852 3138.82031 L 4083.27852 3138.82031 A 4.35645 4.35645 0 0 0 4083.35645 3138.0 4.35645 4.35645 0 0 0 4079.0 3133.64355 4.35645 4.35645 0 0 0 4074.64355 3138.0 4.35645 4.35645 0 0 0 4079.0 3142.35645 4.35645 4.35645 0 0 0 4079.82031 3142.27852 0.4 0.4 0 0 1 4079.89563 3142.27137 0.4 0.4 0 0 1 4080.17847 3142.38852 L 4081.11961 3143.32966 A 0.4 0.4 0 0 1 4081.23677 3143.61251 0.4 0.4 0 0 1 4080.83677 3144.01251 0.4 0.4 0 0 1 4080.6823 3143.98148 4.35645 4.35645 0 0 0 4079.0 3143.64355 4.35645 4.35645 0 0 0 4074.64355 3148.0 4.35645 4.35645 0 0 0 4079.0 3152.35645 4.35645 4.35645 0 0 0 4083.35645 3148.0 4.35645 4.35645 0 0 0 4083.01852 3146.3177 L 4083.01852 3146.3177 A 0.4 0.4 0 0 1 4082.98749 3146.16323 0.4 0.4 0 0 1 4083.38749 3145.76323 0.4 0.4 0 0 1 4083.67034 3145.88039 L 4114.32299 3176.53305 A 0.4 0.4 0 0 1 4114.44015 3176.81589 L 4114.44015 3183.2 4114.44015 3183.2 A 2.26985 2.26985 0 0 0 4115.10497 3184.80503 L 4115.10497 3184.80503 4157.40497 3227.10503 4157.40497 3227.10503 A 2.26985 2.26985 0 0 0 4159.01 3227.76985 L 4173.76471 3227.76985 A 0.4 0.4 0 0 1 4174.04745 3227.8869 L 4186.27559 3240.10564 A 2.26985 2.26985 0 0 0 4187.10674 3240.63408 L 4187.10674 3240.63408 A 0.4 0.4 0 0 1 4187.37047 3241.01015 0.4 0.4 0 0 1 4186.97047 3241.41015 L 4177.78589 3241.41015 A 0.4 0.4 0 0 1 4177.50305 3241.29299 L 4177.50305 3241.29299 4176.17524 3239.96519 4176.17524 3239.96519 A 0.4 0.4 0 0 1 4176.05808 3239.68235 0.4 0.4 0 0 1 4176.06269 3239.62183 L 4176.06269 3239.62183 A 4.11 4.11 0 0 0 4176.11 3239.0 4.11 4.11 0 0 0 4172.0 3234.89 4.11 4.11 0 0 0 4171.37817 3234.93731 L 4171.37817 3234.93731 A 0.4 0.4 0 0 1 4171.31765 3234.94192 0.4 0.4 0 0 1 4171.03481 3234.82476 L 4168.60503 3232.39497 4168.60503 3232.39497 A 2.26985 2.26985 0 0 0 4167.0 3231.73015 L 4137.16985 3231.73015 A 0.4 0.4 0 0 1 4136.76985 3231.33015 L 4136.76985 3211.0 4136.76985 3211.0 A 2.26985 2.26985 0 0 0 4136.10503 3209.39497 L 4136.10503 3209.39497 4093.10503 3166.39497 A 2.26985 2.26985 0 0 0 4091.5 3165.73015 L 4082.93646 3165.73015 A 0.4 0.4 0 0 1 4082.60542 3165.55467 4.35645 4.35645 0 0 0 4079.0 3163.64355 4.35645 4.35645 0 0 0 4074.64355 3168.0 4.35645 4.35645 0 0 0 4079.0 3172.35645 4.35645 4.35645 0 0 0 4082.60542 3170.44533 L 4082.60542 3170.44533 A 0.4 0.4 0 0 1 4082.93646 3170.26985 L 4090.39411 3170.26985 A 0.4 0.4 0 0 1 4090.67695 3170.38701 L 4115.33725 3195.04731 A 0.4 0.4 0 0 1 4115.45441 3195.33015 0.4 0.4 0 0 1 4115.05441 3195.73015 L 4082.93646 3195.73015 A 0.4 0.4 0 0 1 4082.60542 3195.55467 4.35645 4.35645 0 0 0 4079.0 3193.64355 4.35645 4.35645 0 0 0 4074.64355 3198.0 4.35645 4.35645 0 0 0 4079.0 3202.35645 4.35645 4.35645 0 0 0 4082.60542 3200.44533 L 4082.60542 3200.44533 A 0.4 0.4 0 0 1 4082.93646 3200.26985 L 4115.96 3200.26985 A 2.26985 2.26985 0 0 0 4118.129 3198.66906 L 4118.129 3198.66906 A 0.4 0.4 0 0 1 4118.51123 3198.38697 0.4 0.4 0 0 1 4118.79407 3198.50413 L 4132.11299 3211.82305 A 0.4 0.4 0 0 1 4132.23015 3212.10589 L 4132.23015 3232.89411 A 0.4 0.4 0 0 1 4132.11299 3233.17695 L 4130.46519 3234.82476 A 0.4 0.4 0 0 1 4130.18235 3234.94192 0.4 0.4 0 0 1 4130.12183 3234.93731 L 4130.12183 3234.93731 A 4.11 4.11 0 0 0 4129.5 3234.89 4.11 4.11 0 0 0 4125.39 3239.0 4.11 4.11 0 0 0 4129.5 3243.11 4.11 4.11 0 0 0 4133.61 3239.0 4.11 4.11 0 0 0 4133.56269 3238.37817 L 4133.56269 3238.37817 A 0.4 0.4 0 0 1 4133.55808 3238.31765 0.4 0.4 0 0 1 4133.67524 3238.03481 L 4133.67524 3238.03481 4135.32305 3236.38701 4135.32305 3236.38701 A 0.4 0.4 0 0 1 4135.60589 3236.26985 L 4147.49 3236.26985 A 0.4 0.4 0 0 1 4147.89 3236.66985 L 4147.89 3242.1 A 1.01 1.01 0 0 0 4148.9 3243.11 L 4148.9 3243.11 4155.1 3243.11 4155.1 3243.11 A 1.01 1.01 0 0 0 4156.11 3242.1 L 4156.11 3236.66985 A 0.4 0.4 0 0 1 4156.51 3236.26985 L 4158.13859 3236.26985 A 0.4 0.4 0 0 1 4158.53859 3236.66985 0.4 0.4 0 0 1 4158.48106 3236.87652 4.11 4.11 0 0 0 4158.19348 3237.45 L 4160.45 3237.45 4160.45 3236.66985 A 0.4 0.4 0 0 1 4160.85 3236.26985 L 4163.15 3236.26985 A 0.4 0.4 0 0 1 4163.55 3236.66985 L 4163.55 3237.45 4165.80652 3237.45 A 4.11 4.11 0 0 0 4165.51894 3236.87652 L 4165.51894 3236.87652 A 0.4 0.4 0 0 1 4165.46141 3236.66985 0.4 0.4 0 0 1 4165.86141 3236.26985 L 4165.89411 3236.26985 A 0.4 0.4 0 0 1 4166.17695 3236.38701 L 4166.17695 3236.38701 4167.82476 3238.03481 4167.82476 3238.03481 A 0.4 0.4 0 0 1 4167.94192 3238.31765 0.4 0.4 0 0 1 4167.93731 3238.37817 L 4167.93731 3238.37817 A 4.11 4.11 0 0 0 4167.89 3239.0 4.11 4.11 0 0 0 4172.0 3243.11 4.11 4.11 0 0 0 4172.62183 3243.06269 L 4172.62183 3243.06269 A 0.4 0.4 0 0 1 4172.68235 3243.05808 0.4 0.4 0 0 1 4172.96519 3243.17524 L 4172.96519 3243.17524 4175.07497 3245.28503 A 2.26985 2.26985 0 0 0 4176.68 3245.94985 L 4218.32 3245.94985 Z M 4239.39 3231.1 A 1.01 1.01 0 0 0 4240.4 3232.11 L 4240.4 3232.11 4246.6 3232.11 4246.6 3232.11 A 1.01 1.01 0 0 0 4247.61 3231.1 L 4247.61 3224.9 A 1.01 1.01 0 0 0 4246.6 3223.89 L 4246.6 3223.89 4242.76574 3223.89 A 0.4 0.4 0 0 1 4242.4829 3223.77284 L 4217.60503 3198.89497 4217.60503 3198.89497 A 2.26985 2.26985 0 0 0 4216.0 3198.23015 L 4161.60589 3198.23015 A 0.4 0.4 0 0 1 4161.32305 3198.11299 L 4149.60503 3186.39497 4149.60503 3186.39497 A 2.26985 2.26985 0 0 0 4148.0 3185.73015 L 4142.93646 3185.73015 A 0.4 0.4 0 0 1 4142.60542 3185.55467 4.35645 4.35645 0 0 0 4139.0 3183.64355 4.35645 4.35645 0 0 0 4134.64355 3188.0 4.35645 4.35645 0 0 0 4139.0 3192.35645 4.35645 4.35645 0 0 0 4142.60542 3190.44533 0.4 0.4 0 0 1 4142.93646 3190.26985 L 4146.89411 3190.26985 A 0.4 0.4 0 0 1 4147.17695 3190.38701 L 4158.89497 3202.10503 4158.89497 3202.10503 A 2.26985 2.26985 0 0 0 4160.5 3202.76985 L 4214.89411 3202.76985 A 0.4 0.4 0 0 1 4215.17695 3202.88701 L 4239.27284 3226.9829 A 0.4 0.4 0 0 1 4239.39 3227.26574 L 4239.39 3231.1 Z M 4266.5 3165.16 A 4.16 4.16 0 0 0 4270.66 3161.0 4.16 4.16 0 0 0 4266.5 3156.84 4.16 4.16 0 0 0 4265.83761 3156.89307 L 4265.83761 3156.89307 A 0.4 0.4 0 0 1 4265.77392 3156.89818 0.4 0.4 0 0 1 4265.49107 3156.78102 L 4263.9485 3155.23844 A 0.4 0.4 0 0 1 4263.83134 3154.9556 0.4 0.4 0 0 1 4264.23134 3154.5556 0.4 0.4 0 0 1 4264.43034 3154.60862 4.16 4.16 0 0 0 4266.5 3155.16 4.16 4.16 0 0 0 4270.66 3151.0 4.16 4.16 0 0 0 4270.60693 3150.33761 0.4 0.4 0 0 1 4270.60182 3150.27392 0.4 0.4 0 0 1 4270.71898 3149.99107 L 4277.32305 3143.38701 A 0.4 0.4 0 0 1 4277.60589 3143.26985 L 4292.14294 3143.26985 A 0.4 0.4 0 0 1 4292.484 3143.46086 4.71 4.71 0 0 0 4296.5 3145.71 4.71 4.71 0 0 0 4301.21 3141.0 4.71 4.71 0 0 0 4296.5 3136.29 4.71 4.71 0 0 0 4292.484 3138.53914 0.4 0.4 0 0 1 4292.14294 3138.73015 L 4276.5 3138.73015 A 2.26985 2.26985 0 0 0 4274.89497 3139.39497 L 4274.89497 3139.39497 4267.50893 3146.78102 A 0.4 0.4 0 0 1 4267.22608 3146.89818 0.4 0.4 0 0 1 4267.16239 3146.89307 4.16 4.16 0 0 0 4266.5 3146.84 4.16 4.16 0 0 0 4262.34 3151.0 4.16 4.16 0 0 0 4262.89138 3153.06966 L 4262.89138 3153.06966 A 0.4 0.4 0 0 1 4262.9444 3153.26866 0.4 0.4 0 0 1 4262.5444 3153.66866 0.4 0.4 0 0 1 4262.26156 3153.5515 L 4253.00503 3144.29497 4253.00503 3144.29497 A 2.26985 2.26985 0 0 0 4251.4 3143.63015 L 4228.84 3143.63015 A 2.26985 2.26985 0 0 0 4227.23497 3144.29497 L 4227.23497 3144.29497 4225.77695 3145.75299 A 0.4 0.4 0 0 1 4225.49411 3145.87015 L 4222.81886 3145.87015 A 0.4 0.4 0 0 1 4222.41886 3145.47015 0.4 0.4 0 0 1 4222.52282 3145.20115 4.76 4.76 0 0 0 4223.76 3142.0 4.76 4.76 0 0 0 4219.0 3137.24 4.76 4.76 0 0 0 4214.24 3142.0 4.76 4.76 0 0 0 4215.47718 3145.20115 L 4215.47718 3145.20115 A 0.4 0.4 0 0 1 4215.58114 3145.47015 0.4 0.4 0 0 1 4215.18114 3145.87015 L 4198.18731 3145.87015 A 0.4 0.4 0 0 1 4197.78731 3145.47015 0.4 0.4 0 0 1 4198.09437 3145.0811 4.71 4.71 0 0 0 4201.71 3140.5 4.71 4.71 0 0 0 4197.0 3135.79 4.71 4.71 0 0 0 4192.29 3140.5 4.71 4.71 0 0 0 4195.90563 3145.0811 0.4 0.4 0 0 1 4196.21269 3145.47015 0.4 0.4 0 0 1 4195.81269 3145.87015 L 4181.74589 3145.87015 A 0.4 0.4 0 0 1 4181.46305 3145.75299 L 4177.68594 3141.97588 A 0.4 0.4 0 0 1 4177.56878 3141.69304 0.4 0.4 0 0 1 4177.57983 3141.59965 L 4177.57983 3141.59965 A 4.71 4.71 0 0 0 4177.71 3140.5 4.71 4.71 0 0 0 4173.0 3135.79 4.71 4.71 0 0 0 4168.29 3140.5 4.71 4.71 0 0 0 4173.0 3145.21 4.71 4.71 0 0 0 4174.09965 3145.07983 L 4174.09965 3145.07983 A 0.4 0.4 0 0 1 4174.19304 3145.06878 0.4 0.4 0 0 1 4174.47588 3145.18594 L 4179.03497 3149.74503 4179.03497 3149.74503 A 2.26985 2.26985 0 0 0 4180.64 3150.40985 L 4226.6 3150.40985 A 2.26985 2.26985 0 0 0 4228.20503 3149.74503 L 4228.20503 3149.74503 4229.66305 3148.28701 A 0.4 0.4 0 0 1 4229.94589 3148.16985 L 4231.94 3148.16985 A 0.4 0.4 0 0 1 4232.34 3148.56985 L 4232.34 3154.15 A 1.01 1.01 0 0 0 4233.35 3155.16 L 4233.35 3155.16 4239.65 3155.16 4239.65 3155.16 A 1.01 1.01 0 0 0 4240.66 3154.15 L 4240.66 3148.56985 A 0.4 0.4 0 0 1 4241.06 3148.16985 L 4250.29411 3148.16985 A 0.4 0.4 0 0 1 4250.57695 3148.28701 L 4262.28102 3159.99107 A 0.4 0.4 0 0 1 4262.39818 3160.27392 0.4 0.4 0 0 1 4262.39307 3160.33761 L 4262.39307 3160.33761 A 4.16 4.16 0 0 0 4262.34 3161.0 4.16 4.16 0 0 0 4266.5 3165.16 Z M 4342.342 3064.4785 A 4.8485 4.8485 0 0 0 4347.1905 3059.63 4.8485 4.8485 0 0 0 4342.342 3054.7815 4.8485 4.8485 0 0 0 4338.24101 3057.04353 0.4 0.4 0 0 1 4337.90268 3057.23015 L 4327.09732 3057.23015 A 0.4 0.4 0 0 1 4326.75899 3057.04353 4.8485 4.8485 0 0 0 4322.658 3054.7815 4.8485 4.8485 0 0 0 4317.8095 3059.63 4.8485 4.8485 0 0 0 4322.658 3064.4785 4.8485 4.8485 0 0 0 4326.90098 3061.97628 0.4 0.4 0 0 1 4327.25103 3061.76985 L 4337.74897 3061.76985 A 0.4 0.4 0 0 1 4338.09902 3061.97628 4.8485 4.8485 0 0 0 4342.342 3064.4785 Z M 4232.8095 3059.63 A 4.8485 4.8485 0 0 0 4237.658 3064.4785 4.8485 4.8485 0 0 0 4241.90098 3061.97628 0.4 0.4 0 0 1 4242.25103 3061.76985 L 4252.74897 3061.76985 A 0.4 0.4 0 0 1 4253.09902 3061.97628 4.8485 4.8485 0 0 0 4257.342 3064.4785 4.8485 4.8485 0 0 0 4262.1905 3059.63 4.8485 4.8485 0 0 0 4257.342 3054.7815 4.8485 4.8485 0 0 0 4253.24101 3057.04353 0.4 0.4 0 0 1 4252.90268 3057.23015 L 4242.09732 3057.23015 A 0.4 0.4 0 0 1 4241.75899 3057.04353 4.8485 4.8485 0 0 0 4237.658 3054.7815 4.8485 4.8485 0 0 0 4232.8095 3059.63 Z M 4219.0 3176.76 A 4.76 4.76 0 0 0 4223.0733 3174.46288 L 4223.0733 3174.46288 A 0.4 0.4 0 0 1 4223.4156 3174.26985 L 4233.79338 3174.26985 A 0.4 0.4 0 0 1 4234.0308 3174.34793 L 4234.0308 3174.34793 A 4.16 4.16 0 0 0 4236.5 3175.16 4.16 4.16 0 0 0 4240.66 3171.0 4.16 4.16 0 0 0 4236.5 3166.84 4.16 4.16 0 0 0 4232.62896 3169.47663 0.4 0.4 0 0 1 4232.25675 3169.73015 L 4223.4156 3169.73015 A 0.4 0.4 0 0 1 4223.0733 3169.53712 L 4223.0733 3169.53712 A 4.76 4.76 0 0 0 4219.0 3167.24 4.76 4.76 0 0 0 4214.24 3172.0 4.76 4.76 0 0 0 4219.0 3176.76 Z M 4167.975 3104.81 A 4.5533 4.5533 0 0 0 4172.5283 3109.3633 L 4172.5283 3109.3633 4181.9771 3109.3633 4181.9771 3109.3633 A 4.5533 4.5533 0 0 0 4186.5304 3104.81 4.5533 4.5533 0 0 0 4181.9771 3100.2567 L 4181.9771 3100.2567 4172.5283 3100.2567 4172.5283 3100.2567 A 4.5533 4.5533 0 0 0 4167.975 3104.81 Z M 4362.027 3085.049 A 5.734 5.734 0 0 0 4367.761 3079.315 5.734 5.734 0 0 0 4362.027 3073.581 5.734 5.734 0 0 0 4356.293 3079.315 5.734 5.734 0 0 0 4362.027 3085.049 Z M 4271.293 3079.315 A 5.734 5.734 0 0 0 4277.027 3085.049 5.734 5.734 0 0 0 4282.761 3079.315 5.734 5.734 0 0 0 4277.027 3073.581 5.734 5.734 0 0 0 4271.293 3079.315 Z M 4212.239 3079.315 A 5.734 5.734 0 0 0 4217.973 3085.049 5.734 5.734 0 0 0 4223.707 3079.315 5.734 5.734 0 0 0 4217.973 3073.581 5.734 5.734 0 0 0 4212.239 3079.315 Z M 4302.973 3085.049 A 5.734 5.734 0 0 0 4308.707 3079.315 5.734 5.734 0 0 0 4302.973 3073.581 5.734 5.734 0 0 0 4297.239 3079.315 5.734 5.734 0 0 0 4302.973 3085.049 Z M 4387.0 3244.26 A 5.01 5.01 0 0 0 4392.01 3239.25 5.01 5.01 0 0 0 4387.0 3234.24 5.01 5.01 0 0 0 4381.99 3239.25 5.01 5.01 0 0 0 4387.0 3244.26 Z M 4055.49 3239.25 A 5.01 5.01 0 0 0 4060.5 3244.26 5.01 5.01 0 0 0 4065.51 3239.25 5.01 5.01 0 0 0 4060.5 3234.24 5.01 5.01 0 0 0 4055.49 3239.25 Z M 4055.49 3059.25 A 5.01 5.01 0 0 0 4060.5 3064.26 5.01 5.01 0 0 0 4065.51 3059.25 5.01 5.01 0 0 0 4060.5 3054.24 5.01 5.01 0 0 0 4055.49 3059.25 Z M 4387.0 3064.26 A 5.01 5.01 0 0 0 4392.01 3059.25 5.01 5.01 0 0 0 4387.0 3054.24 5.01 5.01 0 0 0 4381.99 3059.25 5.01 5.01 0 0 0 4387.0 3064.26 Z M 4362.027 3103.8485 A 4.8485 4.8485 0 0 0 4366.8755 3099.0 4.8485 4.8485 0 0 0 4362.027 3094.1515 4.8485 4.8485 0 0 0 4357.1785 3099.0 4.8485 4.8485 0 0 0 4362.027 3103.8485 Z M 4227.815 3113.6905 A 4.8485 4.8485 0 0 0 4232.6635 3108.842 4.8485 4.8485 0 0 0 4227.815 3103.9935 4.8485 4.8485 0 0 0 4222.9665 3108.842 4.8485 4.8485 0 0 0 4227.815 3113.6905 Z M 4347.3365 3108.842 A 4.8485 4.8485 0 0 0 4352.185 3113.6905 4.8485 4.8485 0 0 0 4357.0335 3108.842 4.8485 4.8485 0 0 0 4352.185 3103.9935 4.8485 4.8485 0 0 0 4347.3365 3108.842 Z M 4213.1245 3099.0 A 4.8485 4.8485 0 0 0 4217.973 3103.8485 4.8485 4.8485 0 0 0 4222.8215 3099.0 4.8485 4.8485 0 0 0 4217.973 3094.1515 4.8485 4.8485 0 0 0 4213.1245 3099.0 Z M 4298.1245 3099.0 A 4.8485 4.8485 0 0 0 4302.973 3103.8485 4.8485 4.8485 0 0 0 4307.8215 3099.0 4.8485 4.8485 0 0 0 4302.973 3094.1515 4.8485 4.8485 0 0 0 4298.1245 3099.0 Z M 4312.815 3113.6905 A 4.8485 4.8485 0 0 0 4317.6635 3108.842 4.8485 4.8485 0 0 0 4312.815 3103.9935 4.8485 4.8485 0 0 0 4307.9665 3108.842 4.8485 4.8485 0 0 0 4312.815 3113.6905 Z M 4267.185 3113.6905 A 4.8485 4.8485 0 0 0 4272.0335 3108.842 4.8485 4.8485 0 0 0 4267.185 3103.9935 4.8485 4.8485 0 0 0 4262.3365 3108.842 4.8485 4.8485 0 0 0 4267.185 3113.6905 Z M 4272.1785 3099.0 A 4.8485 4.8485 0 0 0 4277.027 3103.8485 4.8485 4.8485 0 0 0 4281.8755 3099.0 4.8485 4.8485 0 0 0 4277.027 3094.1515 4.8485 4.8485 0 0 0 4272.1785 3099.0 Z M 4242.6515 3099.0 A 4.8485 4.8485 0 0 0 4247.5 3103.8485 4.8485 4.8485 0 0 0 4252.3485 3099.0 4.8485 4.8485 0 0 0 4247.5 3094.1515 4.8485 4.8485 0 0 0 4242.6515 3099.0 Z M 4334.29 3141.0 A 4.71 4.71 0 0 0 4339.0 3145.71 4.71 4.71 0 0 0 4343.71 3141.0 4.71 4.71 0 0 0 4339.0 3136.29 4.71 4.71 0 0 0 4334.29 3141.0 Z M 4317.5 3145.71 A 4.71 4.71 0 0 0 4322.21 3141.0 4.71 4.71 0 0 0 4317.5 3136.29 4.71 4.71 0 0 0 4312.79 3141.0 4.71 4.71 0 0 0 4317.5 3145.71 Z M 4334.29 3191.0 A 4.71 4.71 0 0 0 4339.0 3195.71 4.71 4.71 0 0 0 4343.71 3191.0 4.71 4.71 0 0 0 4339.0 3186.29 4.71 4.71 0 0 0 4334.29 3191.0 Z M 4317.5 3195.71 A 4.71 4.71 0 0 0 4322.21 3191.0 4.71 4.71 0 0 0 4317.5 3186.29 4.71 4.71 0 0 0 4312.79 3191.0 4.71 4.71 0 0 0 4317.5 3195.71 Z M 4192.29 3190.5 A 4.71 4.71 0 0 0 4197.0 3195.21 4.71 4.71 0 0 0 4201.71 3190.5 4.71 4.71 0 0 0 4197.0 3185.79 4.71 4.71 0 0 0 4192.29 3190.5 Z M 4296.5 3195.71 A 4.71 4.71 0 0 0 4301.21 3191.0 4.71 4.71 0 0 0 4296.5 3186.29 4.71 4.71 0 0 0 4291.79 3191.0 4.71 4.71 0 0 0 4296.5 3195.71 Z M 4082.3465 3062.3565 A 1.01 1.01 0 0 0 4083.3565 3061.3465 L 4083.3565 3061.3465 4083.3565 3054.6536 4083.3565 3054.6536 A 1.01 1.01 0 0 0 4082.3465 3053.6436 L 4082.3465 3053.6436 4075.6535 3053.6436 4075.6535 3053.6436 A 1.01 1.01 0 0 0 4074.6435 3054.6536 L 4074.6435 3054.6536 4074.6435 3061.3465 4074.6435 3061.3465 A 1.01 1.01 0 0 0 4075.6535 3062.3565 L 4075.6535 3062.3565 4082.3465 3062.3565 Z M 4134.6435 3061.3465 A 1.01 1.01 0 0 0 4135.6535 3062.3565 L 4135.6535 3062.3565 4142.3465 3062.3565 4142.3465 3062.3565 A 1.01 1.01 0 0 0 4143.3565 3061.3465 L 4143.3565 3054.6536 A 1.01 1.01 0 0 0 4142.3465 3053.6436 L 4142.3465 3053.6436 4135.6535 3053.6436 4135.6535 3053.6436 A 1.01 1.01 0 0 0 4134.6435 3054.6536 L 4134.6435 3061.3465 Z M 4079.0 3082.35645 A 4.35645 4.35645 0 0 0 4083.35645 3078.0 4.35645 4.35645 0 0 0 4079.0 3073.64355 4.35645 4.35645 0 0 0 4074.64355 3078.0 4.35645 4.35645 0 0 0 4079.0 3082.35645 Z M 4134.64355 3148.0 A 4.35645 4.35645 0 0 0 4139.0 3152.35645 4.35645 4.35645 0 0 0 4143.35645 3148.0 4.35645 4.35645 0 0 0 4139.0 3143.64355 4.35645 4.35645 0 0 0 4134.64355 3148.0 Z M 4134.64355 3068.0 A 4.35645 4.35645 0 0 0 4139.0 3072.35645 4.35645 4.35645 0 0 0 4143.35645 3068.0 4.35645 4.35645 0 0 0 4139.0 3063.64355 4.35645 4.35645 0 0 0 4134.64355 3068.0 Z M 4139.0 3082.35645 A 4.35645 4.35645 0 0 0 4143.35645 3078.0 4.35645 4.35645 0 0 0 4139.0 3073.64355 4.35645 4.35645 0 0 0 4134.64355 3078.0 4.35645 4.35645 0 0 0 4139.0 3082.35645 Z M 4074.64355 3158.0 A 4.35645 4.35645 0 0 0 4079.0 3162.35645 4.35645 4.35645 0 0 0 4083.35645 3158.0 4.35645 4.35645 0 0 0 4079.0 3153.64355 4.35645 4.35645 0 0 0 4074.64355 3158.0 Z M 4134.64355 3158.0 A 4.35645 4.35645 0 0 0 4139.0 3162.35645 4.35645 4.35645 0 0 0 4143.35645 3158.0 4.35645 4.35645 0 0 0 4139.0 3153.64355 4.35645 4.35645 0 0 0 4134.64355 3158.0 Z M 4074.64355 3068.0 A 4.35645 4.35645 0 0 0 4079.0 3072.35645 4.35645 4.35645 0 0 0 4083.35645 3068.0 4.35645 4.35645 0 0 0 4079.0 3063.64355 4.35645 4.35645 0 0 0 4074.64355 3068.0 Z M 4139.0 3112.35645 A 4.35645 4.35645 0 0 0 4143.35645 3108.0 4.35645 4.35645 0 0 0 4139.0 3103.64355 4.35645 4.35645 0 0 0 4134.64355 3108.0 4.35645 4.35645 0 0 0 4139.0 3112.35645 Z M 4139.0 3132.35645 A 4.35645 4.35645 0 0 0 4143.35645 3128.0 4.35645 4.35645 0 0 0 4139.0 3123.64355 4.35645 4.35645 0 0 0 4134.64355 3128.0 4.35645 4.35645 0 0 0 4139.0 3132.35645 Z M 4074.64355 3128.0 A 4.35645 4.35645 0 0 0 4079.0 3132.35645 4.35645 4.35645 0 0 0 4083.35645 3128.0 4.35645 4.35645 0 0 0 4079.0 3123.64355 4.35645 4.35645 0 0 0 4074.64355 3128.0 Z M 4134.64355 3088.0 A 4.35645 4.35645 0 0 0 4139.0 3092.35645 4.35645 4.35645 0 0 0 4143.35645 3088.0 4.35645 4.35645 0 0 0 4139.0 3083.64355 4.35645 4.35645 0 0 0 4134.64355 3088.0 Z M 4079.0 3092.35645 A 4.35645 4.35645 0 0 0 4083.35645 3088.0 4.35645 4.35645 0 0 0 4079.0 3083.64355 4.35645 4.35645 0 0 0 4074.64355 3088.0 4.35645 4.35645 0 0 0 4079.0 3092.35645 Z M 4139.0 3122.35645 A 4.35645 4.35645 0 0 0 4143.35645 3118.0 4.35645 4.35645 0 0 0 4139.0 3113.64355 4.35645 4.35645 0 0 0 4134.64355 3118.0 4.35645 4.35645 0 0 0 4139.0 3122.35645 Z M 4079.0 3122.35645 A 4.35645 4.35645 0 0 0 4083.35645 3118.0 4.35645 4.35645 0 0 0 4079.0 3113.64355 4.35645 4.35645 0 0 0 4074.64355 3118.0 4.35645 4.35645 0 0 0 4079.0 3122.35645 Z M 4079.0 3182.35645 A 4.35645 4.35645 0 0 0 4083.35645 3178.0 4.35645 4.35645 0 0 0 4079.0 3173.64355 4.35645 4.35645 0 0 0 4074.64355 3178.0 4.35645 4.35645 0 0 0 4079.0 3182.35645 Z M 4074.64355 3108.0 A 4.35645 4.35645 0 0 0 4079.0 3112.35645 4.35645 4.35645 0 0 0 4083.35645 3108.0 4.35645 4.35645 0 0 0 4079.0 3103.64355 4.35645 4.35645 0 0 0 4074.64355 3108.0 Z M 4139.0 3182.35645 A 4.35645 4.35645 0 0 0 4143.35645 3178.0 4.35645 4.35645 0 0 0 4139.0 3173.64355 4.35645 4.35645 0 0 0 4134.64355 3178.0 4.35645 4.35645 0 0 0 4139.0 3182.35645 Z M 4139.0 3102.35645 A 4.35645 4.35645 0 0 0 4143.35645 3098.0 4.35645 4.35645 0 0 0 4139.0 3093.64355 4.35645 4.35645 0 0 0 4134.64355 3098.0 4.35645 4.35645 0 0 0 4139.0 3102.35645 Z M 4074.64355 3098.0 A 4.35645 4.35645 0 0 0 4079.0 3102.35645 4.35645 4.35645 0 0 0 4083.35645 3098.0 4.35645 4.35645 0 0 0 4079.0 3093.64355 4.35645 4.35645 0 0 0 4074.64355 3098.0 Z M 4266.5 3175.16 A 4.16 4.16 0 0 0 4270.66 3171.0 4.16 4.16 0 0 0 4266.5 3166.84 4.16 4.16 0 0 0 4262.34 3171.0 4.16 4.16 0 0 0 4266.5 3175.16 Z M 4232.34 3161.0 A 4.16 4.16 0 0 0 4236.5 3165.16 4.16 4.16 0 0 0 4240.66 3161.0 4.16 4.16 0 0 0 4236.5 3156.84 4.16 4.16 0 0 0 4232.34 3161.0 Z M 4236.5 3185.16 A 4.16 4.16 0 0 0 4240.66 3181.0 4.16 4.16 0 0 0 4236.5 3176.84 4.16 4.16 0 0 0 4232.34 3181.0 4.16 4.16 0 0 0 4236.5 3185.16 Z M 4105.39 3242.1 A 1.01 1.01 0 0 0 4106.4 3243.11 L 4106.4 3243.11 4112.6 3243.11 4112.6 3243.11 A 1.01 1.01 0 0 0 4113.61 3242.1 L 4113.61 3235.9 A 1.01 1.01 0 0 0 4112.6 3234.89 L 4112.6 3234.89 4106.4 3234.89 4106.4 3234.89 A 1.01 1.01 0 0 0 4105.39 3235.9 L 4105.39 3242.1 Z M 4167.39 3129.1 A 1.01 1.01 0 0 0 4168.4 3130.11 L 4168.4 3130.11 4174.6 3130.11 4174.6 3130.11 A 1.01 1.01 0 0 0 4175.61 3129.1 L 4175.61 3122.9 A 1.01 1.01 0 0 0 4174.6 3121.89 L 4174.6 3121.89 4168.4 3121.89 4168.4 3121.89 A 1.01 1.01 0 0 0 4167.39 3122.9 L 4167.39 3129.1 Z M 4082.89 3238.5 A 4.11 4.11 0 0 0 4087.0 3242.61 4.11 4.11 0 0 0 4091.11 3238.5 4.11 4.11 0 0 0 4087.0 3234.39 4.11 4.11 0 0 0 4082.89 3238.5 Z M 4177.39 3126.0 A 4.11 4.11 0 0 0 4181.5 3130.11 4.11 4.11 0 0 0 4185.61 3126.0 4.11 4.11 0 0 0 4181.5 3121.89 4.11 4.11 0 0 0 4177.39 3126.0 Z M 4249.39 3238.0 A 4.11 4.11 0 0 0 4253.5 3242.11 4.11 4.11 0 0 0 4257.61 3238.0 4.11 4.11 0 0 0 4253.5 3233.89 4.11 4.11 0 0 0 4249.39 3238.0 Z M 4253.5 3232.11 A 4.11 4.11 0 0 0 4257.61 3228.0 4.11 4.11 0 0 0 4253.5 3223.89 4.11 4.11 0 0 0 4249.39 3228.0 4.11 4.11 0 0 0 4253.5 3232.11 Z M 4181.9771 3085.7433 A 4.5533 4.5533 0 0 0 4186.1716 3082.96165 L 4181.29984 3082.96165 4181.29984 3085.7433 4181.9771 3085.7433 Z M 4168.3338 3082.96165 A 4.5533 4.5533 0 0 0 4172.5283 3085.7433 L 4172.5283 3085.7433 4173.20556 3085.7433 4173.20556 3082.96165 4168.3338 3082.96165 Z M 4160.51935 3101.9189 A 4.5533 4.5533 0 0 0 4163.301 3097.7244 L 4163.301 3097.7244 4163.301 3097.04714 4160.51935 3097.04714 4160.51935 3101.9189 Z M 4154.1944 3097.7244 A 4.5533 4.5533 0 0 0 4156.97605 3101.9189 L 4156.97605 3097.04714 4154.1944 3097.04714 4154.1944 3097.7244 Z M 4163.301 3088.95286 L 4163.301 3088.2756 4163.301 3088.2756 A 4.5533 4.5533 0 0 0 4160.51935 3084.0811 L 4160.51935 3088.95286 4163.301 3088.95286 Z M 4154.1944 3088.2756 L 4154.1944 3088.95286 4156.97605 3088.95286 4156.97605 3084.0811 A 4.5533 4.5533 0 0 0 4154.1944 3088.2756 Z M 4181.29984 3076.6367 L 4181.29984 3079.41835 4186.1716 3079.41835 A 4.5533 4.5533 0 0 0 4181.9771 3076.6367 L 4181.9771 3076.6367 4181.29984 3076.6367 Z M 4173.20556 3079.41835 L 4173.20556 3076.6367 4172.5283 3076.6367 4172.5283 3076.6367 A 4.5533 4.5533 0 0 0 4168.3338 3079.41835 L 4173.20556 3079.41835 Z M 4075.45 3236.95 L 4075.45 3234.39 4073.9 3234.39 4073.9 3234.39 A 1.01 1.01 0 0 0 4072.89 3235.4 L 4072.89 3235.4 4072.89 3236.95 4075.45 3236.95 Z M 4080.1 3242.61 A 1.01 1.01 0 0 0 4081.11 3241.6 L 4081.11 3241.6 4081.11 3240.05 4078.55 3240.05 4078.55 3242.61 4080.1 3242.61 Z M 4072.89 3241.6 A 1.01 1.01 0 0 0 4073.9 3242.61 L 4073.9 3242.61 4075.45 3242.61 4075.45 3240.05 4072.89 3240.05 4072.89 3241.6 Z M 4078.55 3234.39 L 4078.55 3236.95 4081.11 3236.95 4081.11 3235.4 4081.11 3235.4 A 1.01 1.01 0 0 0 4080.1 3234.39 L 4080.1 3234.39 4078.55 3234.39 Z M 4334.41925 3103.45246 A 4.8485 4.8485 0 0 0 4336.95246 3100.91925 L 4334.41925 3100.91925 4334.41925 3103.45246 Z M 4336.95246 3097.08075 A 4.8485 4.8485 0 0 0 4334.41925 3094.54754 L 4334.41925 3097.08075 4336.95246 3097.08075 Z M 4330.58075 3094.54754 A 4.8485 4.8485 0 0 0 4328.04754 3097.08075 L 4330.58075 3097.08075 4330.58075 3094.54754 Z M 4330.58075 3103.45246 L 4330.58075 3100.91925 4328.04754 3100.91925 A 4.8485 4.8485 0 0 0 4330.58075 3103.45246 Z M 4174.85 3194.83147 A 4.71 4.71 0 0 0 4177.33147 3192.35 L 4174.85 3192.35 4174.85 3194.83147 Z M 4171.15 3186.16853 A 4.71 4.71 0 0 0 4168.66853 3188.65 L 4171.15 3188.65 4171.15 3186.16853 Z M 4177.33147 3188.65 A 4.71 4.71 0 0 0 4174.85 3186.16853 L 4174.85 3188.65 4177.33147 3188.65 Z M 4171.15 3194.83147 L 4171.15 3192.35 4168.66853 3192.35 A 4.71 4.71 0 0 0 4171.15 3194.83147 Z M 4143.02231 3166.32677 A 4.35645 4.35645 0 0 0 4140.67322 3163.97769 L 4140.67322 3166.32677 4143.02231 3166.32677 Z M 4134.97769 3169.67323 A 4.35645 4.35645 0 0 0 4137.32678 3172.02231 L 4137.32678 3169.67323 4134.97769 3169.67323 Z M 4137.32678 3166.32677 L 4137.32678 3163.97769 A 4.35645 4.35645 0 0 0 4134.97769 3166.32677 L 4137.32678 3166.32677 Z M 4140.67322 3169.67323 L 4140.67322 3172.02231 A 4.35645 4.35645 0 0 0 4143.02231 3169.67323 L 4140.67322 3169.67323 Z M 4074.97769 3189.67323 A 4.35645 4.35645 0 0 0 4077.32677 3192.02231 L 4077.32677 3189.67323 4074.97769 3189.67323 Z M 4083.02231 3186.32677 A 4.35645 4.35645 0 0 0 4080.67323 3183.97769 L 4080.67323 3186.32677 4083.02231 3186.32677 Z M 4077.32677 3183.97769 A 4.35645 4.35645 0 0 0 4074.97769 3186.32677 L 4077.32677 3186.32677 4077.32677 3183.97769 Z M 4080.67323 3189.67323 L 4080.67323 3192.02231 A 4.35645 4.35645 0 0 0 4083.02231 3189.67323 L 4080.67323 3189.67323 Z M 4268.075 3182.575 L 4268.075 3184.85032 A 4.16 4.16 0 0 0 4270.35032 3182.575 L 4268.075 3182.575 Z M 4264.925 3177.14968 A 4.16 4.16 0 0 0 4262.64968 3179.425 L 4264.925 3179.425 4264.925 3177.14968 Z M 4270.35032 3179.425 A 4.16 4.16 0 0 0 4268.075 3177.14968 L 4268.075 3179.425 4270.35032 3179.425 Z M 4262.64968 3182.575 A 4.16 4.16 0 0 0 4264.925 3184.85032 L 4264.925 3182.575 4262.64968 3182.575 Z M 4121.05 3242.80652 A 4.11 4.11 0 0 0 4123.30652 3240.55 L 4121.05 3240.55 4121.05 3242.80652 Z M 4211.95 3236.95 L 4211.95 3234.69348 A 4.11 4.11 0 0 0 4209.69348 3236.95 L 4211.95 3236.95 Z M 4163.55 3242.80652 A 4.11 4.11 0 0 0 4165.80652 3240.55 L 4163.55 3240.55 4163.55 3242.80652 Z M 4117.95 3237.45 L 4117.95 3235.19348 A 4.11 4.11 0 0 0 4115.69348 3237.45 L 4117.95 3237.45 Z M 4217.30652 3236.95 A 4.11 4.11 0 0 0 4215.05 3234.69348 L 4215.05 3236.95 4217.30652 3236.95 Z M 4117.95 3242.80652 L 4117.95 3240.55 4115.69348 3240.55 A 4.11 4.11 0 0 0 4117.95 3242.80652 Z M 4123.30652 3237.45 A 4.11 4.11 0 0 0 4121.05 3235.19348 L 4121.05 3237.45 4123.30652 3237.45 Z M 4158.19348 3240.55 A 4.11 4.11 0 0 0 4160.45 3242.80652 L 4160.45 3240.55 4158.19348 3240.55 Z " layerid="1" stroke-width="0"></path><polyline points="4219 3172 4235.5 3172 4236.5 3171" stroke-width="2.5197" c_shapetype="line" stroke-linecap="round" fill="none" layerid="1" net="U1_3" id="gge405" /><polyline points="4173 3190.5 4178.92 3196.42 4251.08 3196.42 4266.5 3181" stroke-width="2.5197" c_shapetype="line" stroke-linecap="round" fill="none" layerid="1" net="GND" id="gge407" /><polyline points="4332.5 3102 4321.5 3091 4187.07 3091 4177.25 3081.19" stroke-width="2.5197" c_shapetype="line" stroke-linecap="round" fill="none" layerid="1" net="GND" id="gge408" /><polyline points="4119.5 3244.11 4082.61 3244.11 4077 3238.5" stroke-width="2.5197" c_shapetype="line" stroke-linecap="round" fill="none" layerid="1" net="GND" id="gge410" /><polyline points="4162 3239 4156.89 3244.11 4119.5 3244.11" stroke-width="2.5197" c_shapetype="line" stroke-linecap="round" fill="none" layerid="1" net="GND" id="gge411" /><polyline points="4119.5 3244.11 4119.5 3239" stroke-width="2.5197" c_shapetype="line" stroke-linecap="round" fill="none" layerid="1" net="GND" id="gge412" /><polyline points="4173 3140.5 4180.64 3148.14 4226.6 3148.14 4228.84 3145.9 4251.4 3145.9 4266.5 3161" stroke-width="2.5197" c_shapetype="line" stroke-linecap="round" fill="none" layerid="1" net="U1_7" id="gge423" /><polyline points="4134.5 3234 4129.5 3239" stroke-width="2.5197" c_shapetype="line" stroke-linecap="round" fill="none" layerid="1" net="+5V" id="gge424" /><polyline points="4172 3239 4167 3234 4134.5 3234" stroke-width="2.5197" c_shapetype="line" stroke-linecap="round" fill="none" layerid="1" net="+5V" id="gge425" /><polyline points="4079 3168 4091.5 3168 4134.5 3211 4134.5 3234" stroke-width="2.5197" c_shapetype="line" stroke-linecap="round" fill="none" layerid="1" net="+5V" id="gge426" /><polyline points="4296.5 3141 4276.5 3141 4266.5 3151" stroke-width="2.5197" c_shapetype="line" stroke-linecap="round" fill="none" layerid="1" net="+5V" id="gge428" /><polyline points="4223.5 3238.5 4218.32 3243.68 4176.68 3243.68 4172 3239" stroke-width="2.5197" c_shapetype="line" stroke-linecap="round" fill="none" layerid="1" net="+5V" id="gge430" /><polyline points="4139 3138 4117.97 3138 4101.44 3154.53" stroke-width="2.5197" c_shapetype="line" stroke-linecap="round" fill="none" layerid="1" net="SAVE_BTN_2" id="gge435" /><polyline points="4079 3138 4116.71 3175.71 4116.71 3183.2 4159.01 3225.5 4174.87 3225.5 4187.88 3238.5" stroke-width="2.5197" c_shapetype="line" stroke-linecap="round" fill="none" layerid="1" net="DISP_1" id="gge442" /><polyline points="4193.5 3238.5 4187.88 3238.5" stroke-width="2.5197" c_shapetype="line" stroke-linecap="round" fill="none" layerid="1" net="DISP_1" id="gge443" /><polyline points="4237.5 3059.5 4257.18 3059.5" stroke-width="2.5197" c_shapetype="line" stroke-linecap="round" fill="none" layerid="1" net="MIDI_IN_S1" id="gge444" /><polyline points="4322.5 3059.5 4342.18 3059.5" stroke-width="2.5197" c_shapetype="line" stroke-linecap="round" fill="none" layerid="1" net="MIDI_OUT_S1" id="gge445" /><polyline points="4243.5 3228 4216 3200.5 4160.5 3200.5 4148 3188 4139 3188" stroke-width="2.5197" c_shapetype="line" stroke-linecap="round" fill="none" layerid="1" net="NANO_2_14" id="gge447" /><polyline points="4243.5 3238 4237 3238 4206 3207 4148 3207 4139 3198" stroke-width="2.5197" c_shapetype="line" stroke-linecap="round" fill="none" layerid="1" net="NANO_2_15" id="gge448" /><polyline points="4079 3198 4115.96 3198" stroke-width="2.5197" c_shapetype="line" stroke-linecap="round" fill="none" layerid="1" net="NANO_1_15" id="gge450" /><g xmlns="http://www.w3.org/2000/svg" c_origin="4246.5,3161" c_para="package`DIP-8`" c_partid="part_import_gge42" id="gge42" c_shapetype="group" c_etype="pinpart" layerid="1" c_rotation="270"><g c_partid="part_pad" c_etype="pinpart" c_origin="4236.5,3151" layerid="11" number="1" net="U1_1" plated ="Y" c_shapetype="group" id="gge50" locked="0" c_rotation="270" c_width="6.3" c_height="6.3" title="U1_1" c_shape="RECT" pasteExpansion="0" solderExpansion="0.4"><polygon points="4239.65 3147.85 4239.65 3154.15 4233.35 3154.15 4233.35 3147.85" stroke-width="0" /><circle c_padhole="1" cx="4236.5" cy="3151" r="1.75" stroke-width="0" /></g><g c_partid="part_pad" c_etype="pinpart" c_origin="4236.5,3161" layerid="11" number="2" net="U1_2" plated ="Y" c_shapetype="group" id="gge51" locked="0" c_rotation="270" c_width="6.3" c_height="6.3" title="U1_2" c_shape="ELLIPSE" pasteExpansion="0" solderExpansion="0.4"><ellipse cx="4236.5" cy="3161" rx="3.15" ry="3.15" stroke-width="0" /><circle c_padhole="1" cx="4236.5" cy="3161" r="1.75" stroke-width="0" /></g><g c_partid="part_pad" c_etype="pinpart" c_origin="4236.5,3171" layerid="11" number="3" net="U1_3" plated ="Y" c_shapetype="group" id="gge52" locked="0" c_rotation="270" c_width="6.3" c_height="6.3" title="U1_3" c_shape="ELLIPSE" pasteExpansion="0" solderExpansion="0.4"><ellipse cx="4236.5" cy="3171" rx="3.15" ry="3.15" stroke-width="0" /><circle c_padhole="1" cx="4236.5" cy="3171" r="1.75" stroke-width="0" /></g><g c_partid="part_pad" c_etype="pinpart" c_origin="4236.5,3181" layerid="11" number="4" net="U1_4" plated ="Y" c_shapetype="group" id="gge53" locked="0" c_rotation="270" c_width="6.3" c_height="6.3" title="U1_4" c_shape="ELLIPSE" pasteExpansion="0" solderExpansion="0.4"><ellipse cx="4236.5" cy="3181" rx="3.15" ry="3.15" stroke-width="0" /><circle c_padhole="1" cx="4236.5" cy="3181" r="1.75" stroke-width="0" /></g><g c_partid="part_pad" c_etype="pinpart" c_origin="4266.5,3181" layerid="11" number="5" net="GND" plated ="Y" c_shapetype="group" id="gge54" locked="0" c_rotation="270" c_width="6.3" c_height="6.3" title="GND" c_shape="ELLIPSE" pasteExpansion="0" solderExpansion="0.4"><ellipse cx="4266.5" cy="3181" rx="3.15" ry="3.15" stroke-width="0" /><circle c_padhole="1" cx="4266.5" cy="3181" r="1.75" stroke-width="0" /></g><g c_partid="part_pad" c_etype="pinpart" c_origin="4266.5,3171" layerid="11" number="6" net="U1_6" plated ="Y" c_shapetype="group" id="gge55" locked="0" c_rotation="270" c_width="6.3" c_height="6.3" title="U1_6" c_shape="ELLIPSE" pasteExpansion="0" solderExpansion="0.4"><ellipse cx="4266.5" cy="3171" rx="3.15" ry="3.15" stroke-width="0" /><circle c_padhole="1" cx="4266.5" cy="3171" r="1.75" stroke-width="0" /></g><g c_partid="part_pad" c_etype="pinpart" c_origin="4266.5,3161" layerid="11" number="7" net="U1_7" plated ="Y" c_shapetype="group" id="gge56" locked="0" c_rotation="270" c_width="6.3" c_height="6.3" title="U1_7" c_shape="ELLIPSE" pasteExpansion="0" solderExpansion="0.4"><ellipse cx="4266.5" cy="3161" rx="3.15" ry="3.15" stroke-width="0" /><circle c_padhole="1" cx="4266.5" cy="3161" r="1.75" stroke-width="0" /></g><g c_partid="part_pad" c_etype="pinpart" c_origin="4266.5,3151" layerid="11" number="8" net="+5V" plated ="Y" c_shapetype="group" id="gge57" locked="0" c_rotation="270" c_width="6.3" c_height="6.3" title="+5V" c_shape="ELLIPSE" pasteExpansion="0" solderExpansion="0.4"><ellipse cx="4266.5" cy="3151" rx="3.15" ry="3.15" stroke-width="0" /><circle c_padhole="1" cx="4266.5" cy="3151" r="1.75" stroke-width="0" /></g></g><g xmlns="http://www.w3.org/2000/svg" c_origin="4317.5,3166" c_para="package`AXIAL-0.5`" c_partid="part_import_gge59" id="gge59" c_shapetype="group" c_etype="pinpart" layerid="1" c_rotation="90"><g c_partid="part_pad" c_etype="pinpart" c_origin="4317.5,3191" layerid="11" number="1" net="+5V" plated ="Y" c_shapetype="group" id="gge66" locked="0" c_rotation="90" c_width="7.4" c_height="7.4" title="+5V" c_shape="ELLIPSE" pasteExpansion="0" solderExpansion="0.4"><ellipse cx="4317.5" cy="3191" rx="3.7" ry="3.7" stroke-width="0" /><circle c_padhole="1" cx="4317.5" cy="3191" r="1.77" stroke-width="0" /></g><g c_partid="part_pad" c_etype="pinpart" c_origin="4317.5,3141" layerid="11" number="2" net="R3_2" plated ="Y" c_shapetype="group" id="gge67" locked="0" c_rotation="90" c_width="7.4" c_height="7.4" title="R3_2" c_shape="ELLIPSE" pasteExpansion="0" solderExpansion="0.4"><ellipse cx="4317.5" cy="3141" rx="3.7" ry="3.7" stroke-width="0" /><circle c_padhole="1" cx="4317.5" cy="3141" r="1.77" stroke-width="0" /></g></g><g xmlns="http://www.w3.org/2000/svg" c_origin="4296.5,3166" c_para="package`AXIAL-0.5`" c_partid="part_import_gge68" id="gge68" c_shapetype="group" c_etype="pinpart" layerid="1" c_rotation="90"><g c_partid="part_pad" c_etype="pinpart" c_origin="4296.5,3191" layerid="11" number="1" net="U1_6" plated ="Y" c_shapetype="group" id="gge75" locked="0" c_rotation="90" c_width="7.4" c_height="7.4" title="U1_6" c_shape="ELLIPSE" pasteExpansion="0" solderExpansion="0.4"><ellipse cx="4296.5" cy="3191" rx="3.7" ry="3.7" stroke-width="0" /><circle c_padhole="1" cx="4296.5" cy="3191" r="1.77" stroke-width="0" /></g><g c_partid="part_pad" c_etype="pinpart" c_origin="4296.5,3141" layerid="11" number="2" net="+5V" plated ="Y" c_shapetype="group" id="gge76" locked="0" c_rotation="90" c_width="7.4" c_height="7.4" title="+5V" c_shape="ELLIPSE" pasteExpansion="0" solderExpansion="0.4"><ellipse cx="4296.5" cy="3141" rx="3.7" ry="3.7" stroke-width="0" /><circle c_padhole="1" cx="4296.5" cy="3141" r="1.77" stroke-width="0" /></g></g><g xmlns="http://www.w3.org/2000/svg" c_origin="4197,3165.5" c_para="package`AXIAL-0.5`" c_partid="part_import_gge77" id="gge77" c_shapetype="group" c_etype="pinpart" layerid="1" c_rotation="90"><g c_partid="part_pad" c_etype="pinpart" c_origin="4197,3190.5" layerid="11" number="1" net="U1_2" plated ="Y" c_shapetype="group" id="gge84" locked="0" c_rotation="90" c_width="7.4" c_height="7.4" title="U1_2" c_shape="ELLIPSE" pasteExpansion="0" solderExpansion="0.4"><ellipse cx="4197" cy="3190.5" rx="3.7" ry="3.7" stroke-width="0" /><circle c_padhole="1" cx="4197" cy="3190.5" r="1.77" stroke-width="0" /></g><g c_partid="part_pad" c_etype="pinpart" c_origin="4197,3140.5" layerid="11" number="2" net="R5_2" plated ="Y" c_shapetype="group" id="gge85" locked="0" c_rotation="90" c_width="7.4" c_height="7.4" title="R5_2" c_shape="ELLIPSE" pasteExpansion="0" solderExpansion="0.4"><ellipse cx="4197" cy="3140.5" rx="3.7" ry="3.7" stroke-width="0" /><circle c_padhole="1" cx="4197" cy="3140.5" r="1.77" stroke-width="0" /></g></g><g xmlns="http://www.w3.org/2000/svg" c_origin="4339,3166" c_para="package`AXIAL-0.5`" c_partid="part_import_gge86" id="gge86" c_shapetype="group" c_etype="pinpart" layerid="1" c_rotation="90"><g c_partid="part_pad" c_etype="pinpart" c_origin="4339,3191" layerid="11" number="1" net="R2_1" plated ="Y" c_shapetype="group" id="gge93" locked="0" c_rotation="90" c_width="7.4" c_height="7.4" title="R2_1" c_shape="ELLIPSE" pasteExpansion="0" solderExpansion="0.4"><ellipse cx="4339" cy="3191" rx="3.7" ry="3.7" stroke-width="0" /><circle c_padhole="1" cx="4339" cy="3191" r="1.77" stroke-width="0" /></g><g c_partid="part_pad" c_etype="pinpart" c_origin="4339,3141" layerid="11" number="2" net="R2_2" plated ="Y" c_shapetype="group" id="gge94" locked="0" c_rotation="90" c_width="7.4" c_height="7.4" title="R2_2" c_shape="ELLIPSE" pasteExpansion="0" solderExpansion="0.4"><ellipse cx="4339" cy="3141" rx="3.7" ry="3.7" stroke-width="0" /><circle c_padhole="1" cx="4339" cy="3141" r="1.77" stroke-width="0" /></g></g><g xmlns="http://www.w3.org/2000/svg" c_origin="4173,3165.5" c_para="package`AXIAL-0.5`" c_partid="part_import_gge95" id="gge95" c_shapetype="group" c_etype="pinpart" layerid="1" c_rotation="90"><g c_partid="part_pad" c_etype="pinpart" c_origin="4173,3190.5" layerid="11" number="1" net="GND" plated ="Y" c_shapetype="group" id="gge102" locked="0" c_rotation="90" c_width="7.4" c_height="7.4" title="GND" c_shape="ELLIPSE" pasteExpansion="0" solderExpansion="0.4"><ellipse cx="4173" cy="3190.5" rx="3.7" ry="3.7" stroke-width="0" /><circle c_padhole="1" cx="4173" cy="3190.5" r="1.77" stroke-width="0" /></g><g c_partid="part_pad" c_etype="pinpart" c_origin="4173,3140.5" layerid="11" number="2" net="U1_7" plated ="Y" c_shapetype="group" id="gge103" locked="0" c_rotation="90" c_width="7.4" c_height="7.4" title="U1_7" c_shape="ELLIPSE" pasteExpansion="0" solderExpansion="0.4"><ellipse cx="4173" cy="3140.5" rx="3.7" ry="3.7" stroke-width="0" /><circle c_padhole="1" cx="4173" cy="3140.5" r="1.77" stroke-width="0" /></g></g><g xmlns="http://www.w3.org/2000/svg" c_origin="4219,3157" c_para="package`DO-35`" c_partid="part_import_gge104" id="gge104" c_shapetype="group" c_etype="pinpart" layerid="1" c_rotation="90"><g c_partid="part_pad" c_etype="pinpart" c_origin="4219,3172" layerid="11" number="1" net="U1_3" plated ="Y" c_shapetype="group" id="gge109" locked="0" c_rotation="90" c_width="7.5" c_height="7.5" title="U1_3" c_shape="ELLIPSE" pasteExpansion="0" solderExpansion="0.4"><ellipse cx="4219" cy="3172" rx="3.75" ry="3.75" stroke-width="0" /><circle c_padhole="1" cx="4219" cy="3172" r="2.1654" stroke-width="0" /></g><g c_partid="part_pad" c_etype="pinpart" c_origin="4219,3142" layerid="11" number="2" net="U1_2" plated ="Y" c_shapetype="group" id="gge110" locked="0" c_rotation="90" c_width="7.5" c_height="7.5" title="U1_2" c_shape="ELLIPSE" pasteExpansion="0" solderExpansion="0.4"><ellipse cx="4219" cy="3142" rx="3.75" ry="3.75" stroke-width="0" /><circle c_padhole="1" cx="4219" cy="3142" r="2.1654" stroke-width="0" /></g></g><g xmlns="http://www.w3.org/2000/svg" c_origin="4247.5,3099" c_para="package`CUI_SDS-50J`" c_partid="part_import_gge111" id="gge111" c_shapetype="group" c_etype="pinpart" layerid="1" c_rotation="180"><g c_partid="part_pad" c_etype="pinpart" c_origin="4247.5,3099" layerid="11" number="2" net="MIDI_IN_2" plated ="Y" c_shapetype="group" id="gge121" locked="0" c_rotation="180" c_width="7.677" c_height="7.677" title="MIDI_IN_2" c_shape="ELLIPSE" pasteExpansion="0" solderExpansion="0.4"><ellipse cx="4247.5" cy="3099" rx="3.8385" ry="3.8385" stroke-width="0" /><polyline c_padhole="1" points="4247.51 3099 4247.49 3099" stroke-width="5.118"></polyline></g><g c_partid="part_pad" c_etype="pinpart" c_origin="4227.81,3108.84" layerid="11" number="4" net="R5_2" plated ="Y" c_shapetype="group" id="gge122" locked="0" c_rotation="180" c_width="7.677" c_height="7.677" title="R5_2" c_shape="ELLIPSE" pasteExpansion="0" solderExpansion="0.4"><ellipse cx="4227.81" cy="3108.84" rx="3.8385" ry="3.8385" stroke-width="0" /><polyline c_padhole="1" points="4227.825 3108.842 4227.805 3108.842" stroke-width="5.118"></polyline></g><g c_partid="part_pad" c_etype="pinpart" c_origin="4217.97,3099" layerid="11" number="1" net="MIDI_IN_1" plated ="Y" c_shapetype="group" id="gge123" locked="0" c_rotation="180" c_width="7.677" c_height="7.677" title="MIDI_IN_1" c_shape="ELLIPSE" pasteExpansion="0" solderExpansion="0.4"><ellipse cx="4217.97" cy="3099" rx="3.8385" ry="3.8385" stroke-width="0" /><polyline c_padhole="1" points="4217.983 3099 4217.963 3099" stroke-width="5.118"></polyline></g><g c_partid="part_pad" c_etype="pinpart" c_origin="4267.19,3108.84" layerid="11" number="5" net="U1_3" plated ="Y" c_shapetype="group" id="gge124" locked="0" c_rotation="180" c_width="7.677" c_height="7.677" title="U1_3" c_shape="ELLIPSE" pasteExpansion="0" solderExpansion="0.4"><ellipse cx="4267.19" cy="3108.84" rx="3.8385" ry="3.8385" stroke-width="0" /><polyline c_padhole="1" points="4267.195 3108.842 4267.175 3108.842" stroke-width="5.118"></polyline></g><g c_partid="part_pad" c_etype="pinpart" c_origin="4277.03,3099" layerid="11" number="3" net="MIDI_IN_3" plated ="Y" c_shapetype="group" id="gge125" locked="0" c_rotation="180" c_width="7.677" c_height="7.677" title="MIDI_IN_3" c_shape="ELLIPSE" pasteExpansion="0" solderExpansion="0.4"><ellipse cx="4277.03" cy="3099" rx="3.8385" ry="3.8385" stroke-width="0" /><polyline c_padhole="1" points="4277.037 3099 4277.017 3099" stroke-width="5.118"></polyline></g><g c_partid="part_pad" c_etype="pinpart" c_origin="4257.34,3059.63" layerid="11" number="S1" net="MIDI_IN_S1" plated ="Y" c_shapetype="group" id="gge126" locked="0" c_rotation="180" c_width="7.677" c_height="7.677" title="MIDI_IN_S1" c_shape="ELLIPSE" pasteExpansion="0" solderExpansion="0.4"><ellipse cx="4257.34" cy="3059.63" rx="3.8385" ry="3.8385" stroke-width="0" /><polyline c_padhole="1" points="4257.352 3059.63 4257.332 3059.63" stroke-width="5.118"></polyline></g><g c_partid="part_pad" c_etype="pinpart" c_origin="4237.66,3059.63" layerid="11" number="S2" net="MIDI_IN_S1" plated ="Y" c_shapetype="group" id="gge127" locked="0" c_rotation="180" c_width="7.677" c_height="7.677" title="MIDI_IN_S1" c_shape="ELLIPSE" pasteExpansion="0" solderExpansion="0.4"><ellipse cx="4237.66" cy="3059.63" rx="3.8385" ry="3.8385" stroke-width="0" /><polyline c_padhole="1" points="4237.668 3059.63 4237.648 3059.63" stroke-width="5.118"></polyline></g><g c_partid="part_hole" c_etype="pinpart" c_shapetype="group" c_origin="4277.03,3079.32" layerid="11" id="gge128" ><circle cx="4277.03" cy="3079.32" r="4.724"   stroke-width="0" /></g><g c_partid="part_hole" c_etype="pinpart" c_shapetype="group" c_origin="4217.97,3079.32" layerid="11" id="gge129" ><circle cx="4217.97" cy="3079.32" r="4.724"   stroke-width="0" /></g></g><g xmlns="http://www.w3.org/2000/svg" c_origin="4332.5,3099" c_para="package`CUI_SDS-50J`" c_partid="part_import_gge130" id="gge130" c_shapetype="group" c_etype="pinpart" layerid="1" c_rotation="180"><g c_partid="part_pad" c_etype="pinpart" c_origin="4332.5,3099" layerid="11" number="2" net="GND" plated ="Y" c_shapetype="group" id="gge140" locked="0" c_rotation="180" c_width="7.677" c_height="7.677" title="GND" c_shape="ELLIPSE" pasteExpansion="0" solderExpansion="0.4"><ellipse cx="4332.5" cy="3099" rx="3.8385" ry="3.8385" stroke-width="0" /><polyline c_padhole="1" points="4332.51 3099 4332.49 3099" stroke-width="5.118"></polyline></g><g c_partid="part_pad" c_etype="pinpart" c_origin="4312.81,3108.84" layerid="11" number="4" net="R3_2" plated ="Y" c_shapetype="group" id="gge141" locked="0" c_rotation="180" c_width="7.677" c_height="7.677" title="R3_2" c_shape="ELLIPSE" pasteExpansion="0" solderExpansion="0.4"><ellipse cx="4312.81" cy="3108.84" rx="3.8385" ry="3.8385" stroke-width="0" /><polyline c_padhole="1" points="4312.825 3108.842 4312.805 3108.842" stroke-width="5.118"></polyline></g><g c_partid="part_pad" c_etype="pinpart" c_origin="4302.97,3099" layerid="11" number="1" net="MIDI_OUT_1" plated ="Y" c_shapetype="group" id="gge142" locked="0" c_rotation="180" c_width="7.677" c_height="7.677" title="MIDI_OUT_1" c_shape="ELLIPSE" pasteExpansion="0" solderExpansion="0.4"><ellipse cx="4302.97" cy="3099" rx="3.8385" ry="3.8385" stroke-width="0" /><polyline c_padhole="1" points="4302.983 3099 4302.963 3099" stroke-width="5.118"></polyline></g><g c_partid="part_pad" c_etype="pinpart" c_origin="4352.19,3108.84" layerid="11" number="5" net="R2_2" plated ="Y" c_shapetype="group" id="gge143" locked="0" c_rotation="180" c_width="7.677" c_height="7.677" title="R2_2" c_shape="ELLIPSE" pasteExpansion="0" solderExpansion="0.4"><ellipse cx="4352.19" cy="3108.84" rx="3.8385" ry="3.8385" stroke-width="0" /><polyline c_padhole="1" points="4352.195 3108.842 4352.175 3108.842" stroke-width="5.118"></polyline></g><g c_partid="part_pad" c_etype="pinpart" c_origin="4362.03,3099" layerid="11" number="3" net="MIDI_OUT_3" plated ="Y" c_shapetype="group" id="gge144" locked="0" c_rotation="180" c_width="7.677" c_height="7.677" title="MIDI_OUT_3" c_shape="ELLIPSE" pasteExpansion="0" solderExpansion="0.4"><ellipse cx="4362.03" cy="3099" rx="3.8385" ry="3.8385" stroke-width="0" /><polyline c_padhole="1" points="4362.037 3099 4362.017 3099" stroke-width="5.118"></polyline></g><g c_partid="part_pad" c_etype="pinpart" c_origin="4342.34,3059.63" layerid="11" number="S1" net="MIDI_OUT_S1" plated ="Y" c_shapetype="group" id="gge145" locked="0" c_rotation="180" c_width="7.677" c_height="7.677" title="MIDI_OUT_S1" c_shape="ELLIPSE" pasteExpansion="0" solderExpansion="0.4"><ellipse cx="4342.34" cy="3059.63" rx="3.8385" ry="3.8385" stroke-width="0" /><polyline c_padhole="1" points="4342.352 3059.63 4342.332 3059.63" stroke-width="5.118"></polyline></g><g c_partid="part_pad" c_etype="pinpart" c_origin="4322.66,3059.63" layerid="11" number="S2" net="MIDI_OUT_S1" plated ="Y" c_shapetype="group" id="gge146" locked="0" c_rotation="180" c_width="7.677" c_height="7.677" title="MIDI_OUT_S1" c_shape="ELLIPSE" pasteExpansion="0" solderExpansion="0.4"><ellipse cx="4322.66" cy="3059.63" rx="3.8385" ry="3.8385" stroke-width="0" /><polyline c_padhole="1" points="4322.668 3059.63 4322.648 3059.63" stroke-width="5.118"></polyline></g><g c_partid="part_hole" c_etype="pinpart" c_shapetype="group" c_origin="4362.03,3079.32" layerid="11" id="gge147" ><circle cx="4362.03" cy="3079.32" r="4.724"   stroke-width="0" /></g><g c_partid="part_hole" c_etype="pinpart" c_shapetype="group" c_origin="4302.97,3079.32" layerid="11" id="gge148" ><circle cx="4302.97" cy="3079.32" r="4.724"   stroke-width="0" /></g></g><g xmlns="http://www.w3.org/2000/svg" c_origin="4082,3238.5" c_para="package`HDR-1X2/2.54`" c_partid="part_import_gge149" id="gge149" c_shapetype="group" c_etype="pinpart" layerid="1" ><g c_partid="part_pad" c_etype="pinpart" c_origin="4077,3238.5" layerid="11" number="1" net="GND" plated ="Y" c_shapetype="group" id="gge153" locked="0" c_rotation="270" c_width="6.2" c_height="6.2" title="GND" c_shape="RECT" pasteExpansion="0" solderExpansion="0.4"><polygon points="4080.1 3235.4 4080.1 3241.6 4073.9 3241.6 4073.9 3235.4" stroke-width="0" /><circle c_padhole="1" cx="4077" cy="3238.5" r="1.75" stroke-width="0" /></g><g c_partid="part_pad" c_etype="pinpart" c_origin="4087,3238.5" layerid="11" number="2" net="SAVE_BTN_2" plated ="Y" c_shapetype="group" id="gge154" locked="0" c_rotation="270" c_width="6.2" c_height="6.2" title="SAVE_BTN_2" c_shape="ELLIPSE" pasteExpansion="0" solderExpansion="0.4"><ellipse cx="4087" cy="3238.5" rx="3.1" ry="3.1" stroke-width="0" /><circle c_padhole="1" cx="4087" cy="3238.5" r="1.75" stroke-width="0" /></g></g><g xmlns="http://www.w3.org/2000/svg" c_origin="4119.5,3239" c_para="package`HDR-3X1/2.54`" c_partid="part_import_gge155" id="gge155" c_shapetype="group" c_etype="pinpart" layerid="1" ><g c_partid="part_pad" c_etype="pinpart" c_origin="4129.5,3239" layerid="11" number="3" net="+5V" plated ="Y" c_shapetype="group" id="gge160" locked="0" c_rotation="0" c_width="6.2" c_height="6.2" title="+5V" c_shape="ELLIPSE" pasteExpansion="0" solderExpansion="0.4"><ellipse cx="4129.5" cy="3239" rx="3.1" ry="3.1" stroke-width="0" /><circle c_padhole="1" cx="4129.5" cy="3239" r="1.75" stroke-width="0" /></g><g c_partid="part_pad" c_etype="pinpart" c_origin="4119.5,3239" layerid="11" number="2" net="GND" plated ="Y" c_shapetype="group" id="gge161" locked="0" c_rotation="0" c_width="6.2" c_height="6.2" title="GND" c_shape="ELLIPSE" pasteExpansion="0" solderExpansion="0.4"><ellipse cx="4119.5" cy="3239" rx="3.1" ry="3.1" stroke-width="0" /><circle c_padhole="1" cx="4119.5" cy="3239" r="1.75" stroke-width="0" /></g><g c_partid="part_pad" c_etype="pinpart" c_origin="4109.5,3239" layerid="11" number="1" net="POT_IN_1" plated ="Y" c_shapetype="group" id="gge162" locked="0" c_rotation="0" c_width="6.2" c_height="6.2" title="POT_IN_1" c_shape="RECT" pasteExpansion="0" solderExpansion="0.4"><polygon points="4106.4 3235.9 4112.6 3235.9 4112.6 3242.1 4106.4 3242.1" stroke-width="0" /><circle c_padhole="1" cx="4109.5" cy="3239" r="1.75" stroke-width="0" /></g></g><g xmlns="http://www.w3.org/2000/svg" c_origin="4162,3239" c_para="package`HDR-3X1/2.54`" c_partid="part_import_gge163" id="gge163" c_shapetype="group" c_etype="pinpart" layerid="1" ><g c_partid="part_pad" c_etype="pinpart" c_origin="4172,3239" layerid="11" number="3" net="+5V" plated ="Y" c_shapetype="group" id="gge168" locked="0" c_rotation="0" c_width="6.2" c_height="6.2" title="+5V" c_shape="ELLIPSE" pasteExpansion="0" solderExpansion="0.4"><ellipse cx="4172" cy="3239" rx="3.1" ry="3.1" stroke-width="0" /><circle c_padhole="1" cx="4172" cy="3239" r="1.75" stroke-width="0" /></g><g c_partid="part_pad" c_etype="pinpart" c_origin="4162,3239" layerid="11" number="2" net="GND" plated ="Y" c_shapetype="group" id="gge169" locked="0" c_rotation="0" c_width="6.2" c_height="6.2" title="GND" c_shape="ELLIPSE" pasteExpansion="0" solderExpansion="0.4"><ellipse cx="4162" cy="3239" rx="3.1" ry="3.1" stroke-width="0" /><circle c_padhole="1" cx="4162" cy="3239" r="1.75" stroke-width="0" /></g><g c_partid="part_pad" c_etype="pinpart" c_origin="4152,3239" layerid="11" number="1" net="POT_OUT_1" plated ="Y" c_shapetype="group" id="gge170" locked="0" c_rotation="0" c_width="6.2" c_height="6.2" title="POT_OUT_1" c_shape="RECT" pasteExpansion="0" solderExpansion="0.4"><polygon points="4148.9 3235.9 4155.1 3235.9 4155.1 3242.1 4148.9 3242.1" stroke-width="0" /><circle c_padhole="1" cx="4152" cy="3239" r="1.75" stroke-width="0" /></g></g><g xmlns="http://www.w3.org/2000/svg" c_origin="4208.5,3238.5" c_para="package`HDR-4X1/2.54`" c_partid="part_import_gge171" id="gge171" c_shapetype="group" c_etype="pinpart" layerid="1" ><g c_partid="part_pad" c_etype="pinpart" c_origin="4193.5,3238.5" layerid="11" number="1" net="DISP_1" plated ="Y" c_shapetype="group" id="gge176" locked="0" c_rotation="0" c_width="6.2" c_height="6.2" title="DISP_1" c_shape="RECT" pasteExpansion="0" solderExpansion="0.4"><polygon points="4190.4 3235.4 4196.6 3235.4 4196.6 3241.6 4190.4 3241.6" stroke-width="0" /><circle c_padhole="1" cx="4193.5" cy="3238.5" r="1.75" stroke-width="0" /></g><g c_partid="part_pad" c_etype="pinpart" c_origin="4203.5,3238.5" layerid="11" number="2" net="DISP_2" plated ="Y" c_shapetype="group" id="gge177" locked="0" c_rotation="0" c_width="6.2" c_height="6.2" title="DISP_2" c_shape="ELLIPSE" pasteExpansion="0" solderExpansion="0.4"><ellipse cx="4203.5" cy="3238.5" rx="3.1" ry="3.1" stroke-width="0" /><circle c_padhole="1" cx="4203.5" cy="3238.5" r="1.75" stroke-width="0" /></g><g c_partid="part_pad" c_etype="pinpart" c_origin="4213.5,3238.5" layerid="11" number="3" net="GND" plated ="Y" c_shapetype="group" id="gge178" locked="0" c_rotation="0" c_width="6.2" c_height="6.2" title="GND" c_shape="ELLIPSE" pasteExpansion="0" solderExpansion="0.4"><ellipse cx="4213.5" cy="3238.5" rx="3.1" ry="3.1" stroke-width="0" /><circle c_padhole="1" cx="4213.5" cy="3238.5" r="1.75" stroke-width="0" /></g><g c_partid="part_pad" c_etype="pinpart" c_origin="4223.5,3238.5" layerid="11" number="4" net="+5V" plated ="Y" c_shapetype="group" id="gge179" locked="0" c_rotation="0" c_width="6.2" c_height="6.2" title="+5V" c_shape="ELLIPSE" pasteExpansion="0" solderExpansion="0.4"><ellipse cx="4223.5" cy="3238.5" rx="3.1" ry="3.1" stroke-width="0" /><circle c_padhole="1" cx="4223.5" cy="3238.5" r="1.75" stroke-width="0" /></g></g><g xmlns="http://www.w3.org/2000/svg" c_origin="4139,3128" c_para="package`DIP-1X15P2.54`" c_partid="part_import_gge180" id="gge180" c_shapetype="group" c_etype="pinpart" layerid="1" c_rotation="270"><g c_partid="part_pad" c_etype="pinpart" c_origin="4139,3058" layerid="11" number="1" net="NANO_2_1" plated ="Y" c_shapetype="group" id="gge185" locked="0" c_rotation="0" c_width="6.6929" c_height="6.6929" title="NANO_2_1" c_shape="RECT" pasteExpansion="0" solderExpansion="0.4"><polygon points="4135.654 3054.654 4142.346 3054.654 4142.346 3061.347 4135.654 3061.347" stroke-width="0" /><circle c_padhole="1" cx="4139" cy="3058" r="2.1654" stroke-width="0" /></g><g c_partid="part_pad" c_etype="pinpart" c_origin="4139,3068" layerid="11" number="2" net="NANO_2_2" plated ="Y" c_shapetype="group" id="gge186" locked="0" c_rotation="270" c_width="6.6929" c_height="6.6929" title="NANO_2_2" c_shape="ELLIPSE" pasteExpansion="0" solderExpansion="0.4"><ellipse cx="4139" cy="3068" rx="3.34645" ry="3.34645" stroke-width="0" /><circle c_padhole="1" cx="4139" cy="3068" r="2.1654" stroke-width="0" /></g><g c_partid="part_pad" c_etype="pinpart" c_origin="4139,3078" layerid="11" number="3" net="NANO_2_3" plated ="Y" c_shapetype="group" id="gge187" locked="0" c_rotation="270" c_width="6.6929" c_height="6.6929" title="NANO_2_3" c_shape="ELLIPSE" pasteExpansion="0" solderExpansion="0.4"><ellipse cx="4139" cy="3078" rx="3.34645" ry="3.34645" stroke-width="0" /><circle c_padhole="1" cx="4139" cy="3078" r="2.1654" stroke-width="0" /></g><g c_partid="part_pad" c_etype="pinpart" c_origin="4139,3088" layerid="11" number="4" net="NANO_2_4" plated ="Y" c_shapetype="group" id="gge188" locked="0" c_rotation="270" c_width="6.6929" c_height="6.6929" title="NANO_2_4" c_shape="ELLIPSE" pasteExpansion="0" solderExpansion="0.4"><ellipse cx="4139" cy="3088" rx="3.34645" ry="3.34645" stroke-width="0" /><circle c_padhole="1" cx="4139" cy="3088" r="2.1654" stroke-width="0" /></g><g c_partid="part_pad" c_etype="pinpart" c_origin="4139,3098" layerid="11" number="5" net="NANO_2_5" plated ="Y" c_shapetype="group" id="gge189" locked="0" c_rotation="270" c_width="6.6929" c_height="6.6929" title="NANO_2_5" c_shape="ELLIPSE" pasteExpansion="0" solderExpansion="0.4"><ellipse cx="4139" cy="3098" rx="3.34645" ry="3.34645" stroke-width="0" /><circle c_padhole="1" cx="4139" cy="3098" r="2.1654" stroke-width="0" /></g><g c_partid="part_pad" c_etype="pinpart" c_origin="4139,3108" layerid="11" number="6" net="NANO_2_6" plated ="Y" c_shapetype="group" id="gge190" locked="0" c_rotation="270" c_width="6.6929" c_height="6.6929" title="NANO_2_6" c_shape="ELLIPSE" pasteExpansion="0" solderExpansion="0.4"><ellipse cx="4139" cy="3108" rx="3.34645" ry="3.34645" stroke-width="0" /><circle c_padhole="1" cx="4139" cy="3108" r="2.1654" stroke-width="0" /></g><g c_partid="part_pad" c_etype="pinpart" c_origin="4139,3118" layerid="11" number="7" net="NANO_2_7" plated ="Y" c_shapetype="group" id="gge191" locked="0" c_rotation="270" c_width="6.6929" c_height="6.6929" title="NANO_2_7" c_shape="ELLIPSE" pasteExpansion="0" solderExpansion="0.4"><ellipse cx="4139" cy="3118" rx="3.34645" ry="3.34645" stroke-width="0" /><circle c_padhole="1" cx="4139" cy="3118" r="2.1654" stroke-width="0" /></g><g c_partid="part_pad" c_etype="pinpart" c_origin="4139,3128" layerid="11" number="8" net="NANO_2_8" plated ="Y" c_shapetype="group" id="gge192" locked="0" c_rotation="270" c_width="6.6929" c_height="6.6929" title="NANO_2_8" c_shape="ELLIPSE" pasteExpansion="0" solderExpansion="0.4"><ellipse cx="4139" cy="3128" rx="3.34645" ry="3.34645" stroke-width="0" /><circle c_padhole="1" cx="4139" cy="3128" r="2.1654" stroke-width="0" /></g><g c_partid="part_pad" c_etype="pinpart" c_origin="4139,3138" layerid="11" number="9" net="SAVE_BTN_2" plated ="Y" c_shapetype="group" id="gge193" locked="0" c_rotation="270" c_width="6.6929" c_height="6.6929" title="SAVE_BTN_2" c_shape="ELLIPSE" pasteExpansion="0" solderExpansion="0.4"><ellipse cx="4139" cy="3138" rx="3.34645" ry="3.34645" stroke-width="0" /><circle c_padhole="1" cx="4139" cy="3138" r="2.1654" stroke-width="0" /></g><g c_partid="part_pad" c_etype="pinpart" c_origin="4139,3148" layerid="11" number="10" net="NANO_2_10" plated ="Y" c_shapetype="group" id="gge194" locked="0" c_rotation="270" c_width="6.6929" c_height="6.6929" title="NANO_2_10" c_shape="ELLIPSE" pasteExpansion="0" solderExpansion="0.4"><ellipse cx="4139" cy="3148" rx="3.34645" ry="3.34645" stroke-width="0" /><circle c_padhole="1" cx="4139" cy="3148" r="2.1654" stroke-width="0" /></g><g c_partid="part_pad" c_etype="pinpart" c_origin="4139,3158" layerid="11" number="11" net="NANO_2_11" plated ="Y" c_shapetype="group" id="gge195" locked="0" c_rotation="270" c_width="6.6929" c_height="6.6929" title="NANO_2_11" c_shape="ELLIPSE" pasteExpansion="0" solderExpansion="0.4"><ellipse cx="4139" cy="3158" rx="3.34645" ry="3.34645" stroke-width="0" /><circle c_padhole="1" cx="4139" cy="3158" r="2.1654" stroke-width="0" /></g><g c_partid="part_pad" c_etype="pinpart" c_origin="4139,3168" layerid="11" number="12" net="GND" plated ="Y" c_shapetype="group" id="gge196" locked="0" c_rotation="270" c_width="6.6929" c_height="6.6929" title="GND" c_shape="ELLIPSE" pasteExpansion="0" solderExpansion="0.4"><ellipse cx="4139" cy="3168" rx="3.34645" ry="3.34645" stroke-width="0" /><circle c_padhole="1" cx="4139" cy="3168" r="2.1654" stroke-width="0" /></g><g c_partid="part_pad" c_etype="pinpart" c_origin="4139,3178" layerid="11" number="13" net="NANO_2_13" plated ="Y" c_shapetype="group" id="gge197" locked="0" c_rotation="270" c_width="6.6929" c_height="6.6929" title="NANO_2_13" c_shape="ELLIPSE" pasteExpansion="0" solderExpansion="0.4"><ellipse cx="4139" cy="3178" rx="3.34645" ry="3.34645" stroke-width="0" /><circle c_padhole="1" cx="4139" cy="3178" r="2.1654" stroke-width="0" /></g><g c_partid="part_pad" c_etype="pinpart" c_origin="4139,3188" layerid="11" number="14" net="NANO_2_14" plated ="Y" c_shapetype="group" id="gge198" locked="0" c_rotation="270" c_width="6.6929" c_height="6.6929" title="NANO_2_14" c_shape="ELLIPSE" pasteExpansion="0" solderExpansion="0.4"><ellipse cx="4139" cy="3188" rx="3.34645" ry="3.34645" stroke-width="0" /><circle c_padhole="1" cx="4139" cy="3188" r="2.1654" stroke-width="0" /></g><g c_partid="part_pad" c_etype="pinpart" c_origin="4139,3198" layerid="11" number="15" net="NANO_2_15" plated ="Y" c_shapetype="group" id="gge199" locked="0" c_rotation="270" c_width="6.6929" c_height="6.6929" title="NANO_2_15" c_shape="ELLIPSE" pasteExpansion="0" solderExpansion="0.4"><ellipse cx="4139" cy="3198" rx="3.34645" ry="3.34645" stroke-width="0" /><circle c_padhole="1" cx="4139" cy="3198" r="2.1654" stroke-width="0" /></g></g><g xmlns="http://www.w3.org/2000/svg" c_origin="4079,3128" c_para="package`DIP-1X15P2.54`" c_partid="part_import_gge200" id="gge200" c_shapetype="group" c_etype="pinpart" layerid="1" c_rotation="270"><g c_partid="part_pad" c_etype="pinpart" c_origin="4079,3058" layerid="11" number="1" net="NANO_1_1" plated ="Y" c_shapetype="group" id="gge205" locked="0" c_rotation="0" c_width="6.6929" c_height="6.6929" title="NANO_1_1" c_shape="RECT" pasteExpansion="0" solderExpansion="0.4"><polygon points="4075.654 3054.654 4082.347 3054.654 4082.347 3061.347 4075.654 3061.347" stroke-width="0" /><circle c_padhole="1" cx="4079" cy="3058" r="2.1654" stroke-width="0" /></g><g c_partid="part_pad" c_etype="pinpart" c_origin="4079,3068" layerid="11" number="2" net="NANO_1_2" plated ="Y" c_shapetype="group" id="gge206" locked="0" c_rotation="270" c_width="6.6929" c_height="6.6929" title="NANO_1_2" c_shape="ELLIPSE" pasteExpansion="0" solderExpansion="0.4"><ellipse cx="4079" cy="3068" rx="3.34645" ry="3.34645" stroke-width="0" /><circle c_padhole="1" cx="4079" cy="3068" r="2.1654" stroke-width="0" /></g><g c_partid="part_pad" c_etype="pinpart" c_origin="4079,3078" layerid="11" number="3" net="NANO_1_3" plated ="Y" c_shapetype="group" id="gge207" locked="0" c_rotation="270" c_width="6.6929" c_height="6.6929" title="NANO_1_3" c_shape="ELLIPSE" pasteExpansion="0" solderExpansion="0.4"><ellipse cx="4079" cy="3078" rx="3.34645" ry="3.34645" stroke-width="0" /><circle c_padhole="1" cx="4079" cy="3078" r="2.1654" stroke-width="0" /></g><g c_partid="part_pad" c_etype="pinpart" c_origin="4079,3088" layerid="11" number="4" net="NANO_1_4" plated ="Y" c_shapetype="group" id="gge208" locked="0" c_rotation="270" c_width="6.6929" c_height="6.6929" title="NANO_1_4" c_shape="ELLIPSE" pasteExpansion="0" solderExpansion="0.4"><ellipse cx="4079" cy="3088" rx="3.34645" ry="3.34645" stroke-width="0" /><circle c_padhole="1" cx="4079" cy="3088" r="2.1654" stroke-width="0" /></g><g c_partid="part_pad" c_etype="pinpart" c_origin="4079,3098" layerid="11" number="5" net="NANO_1_5" plated ="Y" c_shapetype="group" id="gge209" locked="0" c_rotation="270" c_width="6.6929" c_height="6.6929" title="NANO_1_5" c_shape="ELLIPSE" pasteExpansion="0" solderExpansion="0.4"><ellipse cx="4079" cy="3098" rx="3.34645" ry="3.34645" stroke-width="0" /><circle c_padhole="1" cx="4079" cy="3098" r="2.1654" stroke-width="0" /></g><g c_partid="part_pad" c_etype="pinpart" c_origin="4079,3108" layerid="11" number="6" net="POT_IN_1" plated ="Y" c_shapetype="group" id="gge210" locked="0" c_rotation="270" c_width="6.6929" c_height="6.6929" title="POT_IN_1" c_shape="ELLIPSE" pasteExpansion="0" solderExpansion="0.4"><ellipse cx="4079" cy="3108" rx="3.34645" ry="3.34645" stroke-width="0" /><circle c_padhole="1" cx="4079" cy="3108" r="2.1654" stroke-width="0" /></g><g c_partid="part_pad" c_etype="pinpart" c_origin="4079,3118" layerid="11" number="7" net="POT_OUT_1" plated ="Y" c_shapetype="group" id="gge211" locked="0" c_rotation="270" c_width="6.6929" c_height="6.6929" title="POT_OUT_1" c_shape="ELLIPSE" pasteExpansion="0" solderExpansion="0.4"><ellipse cx="4079" cy="3118" rx="3.34645" ry="3.34645" stroke-width="0" /><circle c_padhole="1" cx="4079" cy="3118" r="2.1654" stroke-width="0" /></g><g c_partid="part_pad" c_etype="pinpart" c_origin="4079,3128" layerid="11" number="8" net="DISP_2" plated ="Y" c_shapetype="group" id="gge212" locked="0" c_rotation="270" c_width="6.6929" c_height="6.6929" title="DISP_2" c_shape="ELLIPSE" pasteExpansion="0" solderExpansion="0.4"><ellipse cx="4079" cy="3128" rx="3.34645" ry="3.34645" stroke-width="0" /><circle c_padhole="1" cx="4079" cy="3128" r="2.1654" stroke-width="0" /></g><g c_partid="part_pad" c_etype="pinpart" c_origin="4079,3138" layerid="11" number="9" net="DISP_1" plated ="Y" c_shapetype="group" id="gge213" locked="0" c_rotation="270" c_width="6.6929" c_height="6.6929" title="DISP_1" c_shape="ELLIPSE" pasteExpansion="0" solderExpansion="0.4"><ellipse cx="4079" cy="3138" rx="3.34645" ry="3.34645" stroke-width="0" /><circle c_padhole="1" cx="4079" cy="3138" r="2.1654" stroke-width="0" /></g><g c_partid="part_pad" c_etype="pinpart" c_origin="4079,3148" layerid="11" number="10" net="NANO_1_10" plated ="Y" c_shapetype="group" id="gge214" locked="0" c_rotation="270" c_width="6.6929" c_height="6.6929" title="NANO_1_10" c_shape="ELLIPSE" pasteExpansion="0" solderExpansion="0.4"><ellipse cx="4079" cy="3148" rx="3.34645" ry="3.34645" stroke-width="0" /><circle c_padhole="1" cx="4079" cy="3148" r="2.1654" stroke-width="0" /></g><g c_partid="part_pad" c_etype="pinpart" c_origin="4079,3158" layerid="11" number="11" net="NANO_1_11" plated ="Y" c_shapetype="group" id="gge215" locked="0" c_rotation="270" c_width="6.6929" c_height="6.6929" title="NANO_1_11" c_shape="ELLIPSE" pasteExpansion="0" solderExpansion="0.4"><ellipse cx="4079" cy="3158" rx="3.34645" ry="3.34645" stroke-width="0" /><circle c_padhole="1" cx="4079" cy="3158" r="2.1654" stroke-width="0" /></g><g c_partid="part_pad" c_etype="pinpart" c_origin="4079,3168" layerid="11" number="12" net="+5V" plated ="Y" c_shapetype="group" id="gge216" locked="0" c_rotation="270" c_width="6.6929" c_height="6.6929" title="+5V" c_shape="ELLIPSE" pasteExpansion="0" solderExpansion="0.4"><ellipse cx="4079" cy="3168" rx="3.34645" ry="3.34645" stroke-width="0" /><circle c_padhole="1" cx="4079" cy="3168" r="2.1654" stroke-width="0" /></g><g c_partid="part_pad" c_etype="pinpart" c_origin="4079,3178" layerid="11" number="13" net="NANO_1_13" plated ="Y" c_shapetype="group" id="gge217" locked="0" c_rotation="270" c_width="6.6929" c_height="6.6929" title="NANO_1_13" c_shape="ELLIPSE" pasteExpansion="0" solderExpansion="0.4"><ellipse cx="4079" cy="3178" rx="3.34645" ry="3.34645" stroke-width="0" /><circle c_padhole="1" cx="4079" cy="3178" r="2.1654" stroke-width="0" /></g><g c_partid="part_pad" c_etype="pinpart" c_origin="4079,3188" layerid="11" number="14" net="GND" plated ="Y" c_shapetype="group" id="gge218" locked="0" c_rotation="270" c_width="6.6929" c_height="6.6929" title="GND" c_shape="ELLIPSE" pasteExpansion="0" solderExpansion="0.4"><ellipse cx="4079" cy="3188" rx="3.34645" ry="3.34645" stroke-width="0" /><circle c_padhole="1" cx="4079" cy="3188" r="2.1654" stroke-width="0" /></g><g c_partid="part_pad" c_etype="pinpart" c_origin="4079,3198" layerid="11" number="15" net="NANO_1_15" plated ="Y" c_shapetype="group" id="gge219" locked="0" c_rotation="270" c_width="6.6929" c_height="6.6929" title="NANO_1_15" c_shape="ELLIPSE" pasteExpansion="0" solderExpansion="0.4"><ellipse cx="4079" cy="3198" rx="3.34645" ry="3.34645" stroke-width="0" /><circle c_padhole="1" cx="4079" cy="3198" r="2.1654" stroke-width="0" /></g></g><g xmlns="http://www.w3.org/2000/svg" c_origin="4168,3093" c_para="package`PJ-002A`" c_partid="part_import_gge220" id="gge220" c_shapetype="group" c_etype="pinpart" layerid="1" c_rotation="270"><g c_partid="part_pad" c_etype="pinpart" c_origin="4177.25,3104.81" layerid="11" number="1" net="DC1_1" plated ="Y" c_shapetype="group" id="gge232" locked="0" c_rotation="270" c_width="7.0866" c_height="16.5354" title="DC1_1" c_shape="OVAL" pasteExpansion="0" solderExpansion="0.4"><polyline points="4181.974 3104.81 4172.526 3104.81" stroke-width="7.0866" /><polyline c_padhole="1" points="4172.331 3104.81 4182.174 3104.81" stroke-width="4.7244"></polyline></g><g c_partid="part_pad" c_etype="pinpart" c_origin="4177.25,3081.19" layerid="11" number="2" net="GND" plated ="Y" c_shapetype="group" id="gge235" locked="0" c_rotation="90" c_width="7.0866" c_height="16.5354" title="GND" c_shape="OVAL" pasteExpansion="0" solderExpansion="0.4"><polyline points="4172.526 3081.19 4181.974 3081.19" stroke-width="7.0866" /><polyline c_padhole="1" points="4182.174 3081.19 4172.331 3081.19" stroke-width="4.7244"></polyline></g><g c_partid="part_pad" c_etype="pinpart" c_origin="4158.75,3093" layerid="11" number="3" net="GND" plated ="Y" c_shapetype="group" id="gge240" locked="0" c_rotation="180" c_width="7.0866" c_height="16.5354" title="GND" c_shape="OVAL" pasteExpansion="0" solderExpansion="0.4"><polyline points="4158.75 3097.724 4158.75 3088.276" stroke-width="7.0866" /><polyline c_padhole="1" points="4158.747 3088.079 4158.747 3097.921" stroke-width="4.7244"></polyline></g></g><g xmlns="http://www.w3.org/2000/svg" c_origin="4176.5,3126" c_para="package`HDR-1X2/2.54`" c_partid="part_import_gge245" id="gge245" c_shapetype="group" c_etype="pinpart" layerid="1" ><g c_partid="part_pad" c_etype="pinpart" c_origin="4171.5,3126" layerid="11" number="1" net="NANO_1_15" plated ="Y" c_shapetype="group" id="gge251" locked="0" c_rotation="270" c_width="6.2" c_height="6.2" title="NANO_1_15" c_shape="RECT" pasteExpansion="0" solderExpansion="0.4"><polygon points="4174.6 3122.9 4174.6 3129.1 4168.4 3129.1 4168.4 3122.9" stroke-width="0" /><circle c_padhole="1" cx="4171.5" cy="3126" r="1.75" stroke-width="0" /></g><g c_partid="part_pad" c_etype="pinpart" c_origin="4181.5,3126" layerid="11" number="2" net="DC1_1" plated ="Y" c_shapetype="group" id="gge254" locked="0" c_rotation="270" c_width="6.2" c_height="6.2" title="DC1_1" c_shape="ELLIPSE" pasteExpansion="0" solderExpansion="0.4"><ellipse cx="4181.5" cy="3126" rx="3.1" ry="3.1" stroke-width="0" /><circle c_padhole="1" cx="4181.5" cy="3126" r="1.75" stroke-width="0" /></g></g><g xmlns="http://www.w3.org/2000/svg" c_origin="4248.5,3233" c_para="package`HDR-2X2/2.54`" c_partid="part_import_gge259" id="gge259" c_shapetype="group" c_etype="pinpart" layerid="1" ><g c_partid="part_pad" c_etype="pinpart" c_origin="4243.5,3228" layerid="11" number="1" net="NANO_2_14" plated ="Y" c_shapetype="group" id="gge264" locked="0" c_rotation="270" c_width="6.2" c_height="6.2" title="NANO_2_14" c_shape="RECT" pasteExpansion="0" solderExpansion="0.4"><polygon points="4246.6 3224.9 4246.6 3231.1 4240.4 3231.1 4240.4 3224.9" stroke-width="0" /><circle c_padhole="1" cx="4243.5" cy="3228" r="1.75" stroke-width="0" /></g><g c_partid="part_pad" c_etype="pinpart" c_origin="4253.5,3228" layerid="11" number="2" net="U1_6" plated ="Y" c_shapetype="group" id="gge267" locked="0" c_rotation="270" c_width="6.2" c_height="6.2" title="U1_6" c_shape="ELLIPSE" pasteExpansion="0" solderExpansion="0.4"><ellipse cx="4253.5" cy="3228" rx="3.1" ry="3.1" stroke-width="0" /><circle c_padhole="1" cx="4253.5" cy="3228" r="1.75" stroke-width="0" /></g><g c_partid="part_pad" c_etype="pinpart" c_origin="4243.5,3238" layerid="11" number="3" net="NANO_2_15" plated ="Y" c_shapetype="group" id="gge272" locked="0" c_rotation="270" c_width="6.2" c_height="6.2" title="NANO_2_15" c_shape="ELLIPSE" pasteExpansion="0" solderExpansion="0.4"><ellipse cx="4243.5" cy="3238" rx="3.1" ry="3.1" stroke-width="0" /><circle c_padhole="1" cx="4243.5" cy="3238" r="1.75" stroke-width="0" /></g><g c_partid="part_pad" c_etype="pinpart" c_origin="4253.5,3238" layerid="11" number="4" net="R2_1" plated ="Y" c_shapetype="group" id="gge277" locked="0" c_rotation="270" c_width="6.2" c_height="6.2" title="R2_1" c_shape="ELLIPSE" pasteExpansion="0" solderExpansion="0.4"><ellipse cx="4253.5" cy="3238" rx="3.1" ry="3.1" stroke-width="0" /><circle c_padhole="1" cx="4253.5" cy="3238" r="1.75" stroke-width="0" /></g></g><polyline points="4048 3048 4398.394 3048 4398.394 3252.724 4048 3252.724 4048 3048" stroke-width="1" c_shapetype="line" stroke-linecap="round" fill="none" layerid="10" net="" id="gge288" /><g c_partid="part_hole" c_etype="pinpart" c_shapetype="group" c_origin="4060.5,3239.25" layerid="11" id="gge297" ><circle cx="4060.5" cy="3239.25" r="4"   stroke-width="0" /></g><g c_partid="part_hole" c_etype="pinpart" c_shapetype="group" c_origin="4060.5,3059.25" layerid="11" id="gge301" ><circle cx="4060.5" cy="3059.25" r="4"   stroke-width="0" /></g><g c_partid="part_hole" c_etype="pinpart" c_shapetype="group" c_origin="4387,3059.25" layerid="11" id="gge305" ><circle cx="4387" cy="3059.25" r="4"   stroke-width="0" /></g><g c_partid="part_hole" c_etype="pinpart" c_shapetype="group" c_origin="4387,3239.25" layerid="11" id="gge309" ><circle cx="4387" cy="3239.25" r="4"   stroke-width="0" /></g><g c_partid="part_via" c_etype="pinpart" c_shapetype="group" net="SAVE_BTN_2" c_origin="4101.44,3154.53" layerid="11" id="gge437" locked="" solderExpansion=""><circle cx="4101.44" cy="3154.53" r="1.2008" stroke-width="0" /><circle cx="4101.44" cy="3154.53" r="0.6102"  stroke-width="0" /></g><g c_partid="part_via" c_etype="pinpart" c_shapetype="group" net="NANO_1_15" c_origin="4115.96,3198" layerid="11" id="gge452" locked="" solderExpansion=""><circle cx="4115.96" cy="3198" r="1.2008" stroke-width="0" /><circle cx="4115.96" cy="3198" r="0.6102"  stroke-width="0" /></g></g></svg>