<svg xmlns="http://www.w3.org/2000/svg" xmlns:xlink="http://www.w3.org/1999/xlink" width="100.584mm" height="61.976mm" viewBox="4027.5 3028 396 244"><title></title><style type="text/css">
*[layerid="1"] {stroke:#FF0000;fill:#FF0000;}
*[layerid="2"] {stroke:#0000FF;fill:#0000FF;}
*[layerid="3"] {stroke:#FFCC00;fill:#FFCC00;}
*[layerid="4"] {stroke:#66CC33;fill:#66CC33;}
*[layerid="5"] {stroke:#808080;fill:#808080;}
*[layerid="6"] {stroke:#800000;fill:#800000;}
*[layerid="7"] {stroke:#800080;fill:#800080;stroke-opacity:0.7;fill-opacity:0.7;}
*[layerid="8"] {stroke:#AA00FF;fill:#AA00FF;stroke-opacity:0.7;fill-opacity:0.7;}
*[layerid="9"] {stroke:#6464FF;fill:#6464FF;}
*[layerid="10"] {stroke:#FF00FF;fill:#FF00FF;}
*[layerid="11"] {stroke:#C0C0C0;fill:#C0C0C0;}
*[layerid="12"] {stroke:#FFFFFF;fill:#FFFFFF;}
*[layerid="13"] {stroke:#33CC99;fill:#33CC99;}
*[layerid="14"] {stroke:#5555FF;fill:#5555FF;}
*[layerid="15"] {stroke:#F022F0;fill:#F022F0;}
*[layerid="21"] {stroke:#800000;fill:#800000;}
*[layerid="22"] {stroke:#008000;fill:#008000;}
*[layerid="23"] {stroke:#00FF00;fill:#00FF00;}
*[layerid="24"] {stroke:#BC8E00;fill:#BC8E00;}
*[layerid="25"] {stroke:#70DBFA;fill:#70DBFA;}
*[layerid="26"] {stroke:#00CC66;fill:#00CC66;}
*[layerid="27"] {stroke:#9966FF;fill:#9966FF;}
*[layerid="28"] {stroke:#800080;fill:#800080;}
*[layerid="29"] {stroke:#008080;fill:#008080;}
*[layerid="30"] {stroke:#15935F;fill:#15935F;}
*[layerid="31"] {stroke:#000080;fill:#000080;}
*[layerid="32"] {stroke:#00B400;fill:#00B400;}
*[layerid="33"] {stroke:#2E4756;fill:#2E4756;}
*[layerid="34"] {stroke:#99842F;fill:#99842F;}
*[layerid="35"] {stroke:#FFFFAA;fill:#FFFFAA;}
*[layerid="36"] {stroke:#99842F;fill:#99842F;}
*[layerid="37"] {stroke:#2E4756;fill:#2E4756;}
*[layerid="38"] {stroke:#3535FF;fill:#3535FF;}
*[layerid="39"] {stroke:#8000BC;fill:#8000BC;}
*[layerid="40"] {stroke:#43AE5F;fill:#43AE5F;}
*[layerid="41"] {stroke:#C3ECCE;fill:#C3ECCE;}
*[layerid="42"] {stroke:#728978;fill:#728978;}
*[layerid="43"] {stroke:#39503F;fill:#39503F;}
*[layerid="44"] {stroke:#0C715D;fill:#0C715D;}
*[layerid="45"] {stroke:#5A8A80;fill:#5A8A80;}
*[layerid="46"] {stroke:#2B937E;fill:#2B937E;}
*[layerid="47"] {stroke:#23999D;fill:#23999D;}
*[layerid="48"] {stroke:#45B4E3;fill:#45B4E3;}
*[layerid="49"] {stroke:#215DA1;fill:#215DA1;}
*[layerid="50"] {stroke:#4564D7;fill:#4564D7;}
*[layerid="51"] {stroke:#6969E9;fill:#6969E9;}
*[layerid="52"] {stroke:#9069E9;fill:#9069E9;}
*[fill="none"] {fill: none;}
*[stroke="none"] {stroke: none;}
path, polyline, polygon, line {stroke-linecap:round;}
g[c_partid="part_pad"][layerid="1"] ellipse:not([c_padid]) {fill:#FF0000;}
g[c_partid="part_pad"][layerid="1"]  polygon:not([c_padid]) {fill:#FF0000;}
g[c_partid="part_pad"][layerid="1"]  polyline:not([c_padid]) {stroke:#FF0000;}
g[c_partid="part_pad"][layerid="1"]  circle {fill:#FF0000;}
g[c_partid="part_pad"][layerid="2"]  ellipse:not([c_padid]) {fill:#0000FF;}
g[c_partid="part_pad"][layerid="2"]  polygon:not([c_padid]) {fill:#0000FF;}
g[c_partid="part_pad"][layerid="2"]  polyline:not([c_padid]) {stroke:#0000FF;}
g[c_partid="part_pad"][layerid="2"]  circle {fill:#0000FF;}
g[c_partid="part_pad"][layerid="11"]  ellipse:not([c_padid]) {fill:#C0C0C0;}
g[c_partid="part_pad"][layerid="11"]  polygon:not([c_padid]) {fill:#C0C0C0;}
g[c_partid="part_pad"][layerid="11"]  polyline:not([c_padid]) {stroke:#C0C0C0;}
g[c_partid="part_pad"][layerid="11"]  circle {fill:#C0C0C0;}
g[c_partid="part_pad"][layerid] > circle[c_padhole] {fill: #222222;}
g[c_partid="part_pad"][layerid] > polyline[c_padhole] {stroke:#222222;}
g[c_partid="part_via"][layerid] > * + circle {fill: #222222;}
g[c_partid="part_pad"] > polygon[c_padid] {stroke-linejoin: miter;stroke-miterlimit: 100;}
g[c_partid="part_hole"] > circle {fill: #222222;}path, polyline, polygon {stroke-linejoin:round;}
rect, circle, ellipse, polyline, line, polygon, path {shape-rendering:crispEdges;}
</style>
<rect x="4027.5" y="3028" width="396" height="244" fill="#000000" stroke="none"/><g id="g1" cpara="package`HDR-2X2/2.54`" c_transformList="" importFlag="0" xmlns="http://www.w3.org/2000/svg"><path d="M 4160.93417 3228.45015 A 0.4 0.4 0 0 1 4160.53417 3228.85015 L 4129.18589 3228.85015 A 0.4 0.4 0 0 1 4128.90305 3228.73299 L 4118.78503 3218.61497 4118.78503 3218.61497 A 2.26985 2.26985 0 0 0 4118.0618 3218.12843 L 4118.0618 3218.12843 A 0.4 0.4 0 0 1 4117.81719 3217.75985 0.4 0.4 0 0 1 4118.21719 3217.35985 L 4205.98411 3217.35985 A 0.4 0.4 0 0 1 4206.26695 3217.47701 L 4210.19878 3221.40883 A 0.4 0.4 0 0 1 4210.31593 3221.69167 0.4 0.4 0 0 1 4209.91593 3222.09167 0.4 0.4 0 0 1 4209.70166 3222.02944 4.11 4.11 0 0 0 4209.3 3221.80513 L 4209.3 3223.7 4211.19487 3223.7 A 4.11 4.11 0 0 0 4210.97056 3223.29834 L 4210.97056 3223.29834 A 0.4 0.4 0 0 1 4210.90833 3223.08407 0.4 0.4 0 0 1 4211.30833 3222.68407 0.4 0.4 0 0 1 4211.59117 3222.80122 L 4211.59117 3222.80122 4213.32476 3224.53481 4213.32476 3224.53481 A 0.4 0.4 0 0 1 4213.44192 3224.81765 0.4 0.4 0 0 1 4213.43731 3224.87817 L 4213.43731 3224.87817 A 4.11 4.11 0 0 0 4213.39 3225.5 4.11 4.11 0 0 0 4214.39129 3228.1885 0.4 0.4 0 0 1 4214.48874 3228.45015 0.4 0.4 0 0 1 4214.08874 3228.85015 L 4210.91126 3228.85015 A 0.4 0.4 0 0 1 4210.51126 3228.45015 0.4 0.4 0 0 1 4210.60871 3228.1885 4.11 4.11 0 0 0 4211.19487 3227.3 L 4209.3 3227.3 4209.3 3228.45015 A 0.4 0.4 0 0 1 4208.9 3228.85015 L 4206.1 3228.85015 A 0.4 0.4 0 0 1 4205.7 3228.45015 L 4205.7 3227.3 4203.80513 3227.3 A 4.11 4.11 0 0 0 4204.39129 3228.1885 0.4 0.4 0 0 1 4204.48874 3228.45015 0.4 0.4 0 0 1 4204.08874 3228.85015 L 4202.01 3228.85015 A 0.4 0.4 0 0 1 4201.61 3228.45015 L 4201.61 3222.4 A 1.01 1.01 0 0 0 4200.6 3221.39 L 4200.6 3221.39 4194.4 3221.39 4194.4 3221.39 A 1.01 1.01 0 0 0 4193.39 3222.4 L 4193.39 3228.45015 A 0.4 0.4 0 0 1 4192.99 3228.85015 L 4177.90458 3228.85015 A 0.4 0.4 0 0 1 4177.50458 3228.45015 0.4 0.4 0 0 1 4177.64696 3228.14415 L 4177.64696 3228.14415 A 4.11 4.11 0 0 0 4179.11 3225.0 4.11 4.11 0 0 0 4175.0 3220.89 4.11 4.11 0 0 0 4170.89 3225.0 4.11 4.11 0 0 0 4172.35304 3228.14415 L 4172.35304 3228.14415 A 0.4 0.4 0 0 1 4172.49542 3228.45015 0.4 0.4 0 0 1 4172.09542 3228.85015 L 4169.46583 3228.85015 A 0.4 0.4 0 0 1 4169.06583 3228.45015 0.4 0.4 0 0 1 4169.07836 3228.35082 1.01 1.01 0 0 0 4169.11 3228.1 L 4169.11 3226.8 4166.8 3226.8 4166.8 3228.45015 A 0.4 0.4 0 0 1 4166.4 3228.85015 L 4163.6 3228.85015 A 0.4 0.4 0 0 1 4163.2 3228.45015 L 4163.2 3226.8 4160.89 3226.8 4160.89 3228.1 A 1.01 1.01 0 0 0 4160.92164 3228.35082 0.4 0.4 0 0 1 4160.93417 3228.45015 Z M 4166.8 3220.89 L 4166.8 3223.2 4169.11 3223.2 4169.11 3221.9 A 1.01 1.01 0 0 0 4168.1 3220.89 L 4168.1 3220.89 4166.8 3220.89 Z M 4163.2 3223.2 L 4163.2 3220.89 4161.9 3220.89 4161.9 3220.89 A 1.01 1.01 0 0 0 4160.89 3221.9 L 4160.89 3223.2 4163.2 3223.2 Z M 4205.7 3223.7 L 4205.7 3221.80513 A 4.11 4.11 0 0 0 4203.80513 3223.7 L 4205.7 3223.7 Z M 4049.46 3251.6644 A 0.4 0.4 0 0 1 4049.06 3251.2644 L 4049.06 3049.46 A 0.4 0.4 0 0 1 4049.46 3049.06 L 4396.9337 3049.06 A 0.4 0.4 0 0 1 4397.3337 3049.46 L 4397.3337 3251.2644 A 0.4 0.4 0 0 1 4396.9337 3251.6644 L 4049.46 3251.6644 Z M 4228.75 3233.38985 A 2.26985 2.26985 0 0 0 4230.3536 3232.72645 L 4230.3536 3232.72645 4235.20191 3227.88676 A 0.4 0.4 0 0 1 4235.4845 3227.76985 L 4235.49 3227.76985 A 0.4 0.4 0 0 1 4235.89 3228.16985 L 4235.89 3228.6 A 1.01 1.01 0 0 0 4236.9 3229.61 L 4236.9 3229.61 4243.1 3229.61 4243.1 3229.61 A 1.01 1.01 0 0 0 4244.11 3228.6 L 4244.11 3222.4 A 1.01 1.01 0 0 0 4244.08362 3222.17067 L 4244.08362 3222.17067 A 0.4 0.4 0 0 1 4244.07317 3222.07985 0.4 0.4 0 0 1 4244.47317 3221.67985 L 4247.06016 3221.67985 A 0.4 0.4 0 0 1 4247.46016 3222.07985 0.4 0.4 0 0 1 4247.3209 3222.38319 4.11 4.11 0 0 0 4246.30513 3223.7 L 4248.2 3223.7 4248.2 3222.07985 A 0.4 0.4 0 0 1 4248.6 3221.67985 L 4251.4 3221.67985 A 0.4 0.4 0 0 1 4251.8 3222.07985 L 4251.8 3223.7 4253.69487 3223.7 A 4.11 4.11 0 0 0 4253.47056 3223.29834 0.4 0.4 0 0 1 4253.40833 3223.08407 0.4 0.4 0 0 1 4253.80833 3222.68407 0.4 0.4 0 0 1 4254.09117 3222.80122 L 4255.82476 3224.53481 A 0.4 0.4 0 0 1 4255.94192 3224.81765 0.4 0.4 0 0 1 4255.93731 3224.87817 L 4255.93731 3224.87817 A 4.11 4.11 0 0 0 4255.89 3225.5 4.11 4.11 0 0 0 4260.0 3229.61 4.11 4.11 0 0 0 4260.62183 3229.56269 L 4260.62183 3229.56269 A 0.4 0.4 0 0 1 4260.68235 3229.55808 0.4 0.4 0 0 1 4260.96519 3229.67524 L 4263.48497 3232.19503 4263.48497 3232.19503 A 2.26985 2.26985 0 0 0 4265.09 3232.85985 L 4305.91 3232.85985 A 2.26985 2.26985 0 0 0 4307.51503 3232.19503 L 4307.51503 3232.19503 4310.11871 3229.59134 A 0.4 0.4 0 0 1 4310.40155 3229.47419 0.4 0.4 0 0 1 4310.49897 3229.48623 L 4310.49897 3229.48623 A 4.11 4.11 0 0 0 4311.5 3229.61 4.11 4.11 0 0 0 4315.61 3225.5 4.11 4.11 0 0 0 4311.5 3221.39 4.11 4.11 0 0 0 4307.39 3225.5 4.11 4.11 0 0 0 4307.39528 3225.70821 0.4 0.4 0 0 1 4307.39579 3225.72847 0.4 0.4 0 0 1 4307.27863 3226.01131 L 4306.05148 3227.23847 A 0.4 0.4 0 0 1 4305.76864 3227.35563 0.4 0.4 0 0 1 4305.56515 3227.3 L 4303.3 3227.3 4303.3 3227.92015 A 0.4 0.4 0 0 1 4302.9 3228.32015 L 4300.1 3228.32015 A 0.4 0.4 0 0 1 4299.7 3227.92015 L 4299.7 3227.3 4297.80513 3227.3 A 4.11 4.11 0 0 0 4298.03188 3227.7055 L 4298.03188 3227.7055 A 0.4 0.4 0 0 1 4298.09435 3227.92015 0.4 0.4 0 0 1 4297.69435 3228.32015 L 4295.30565 3228.32015 A 0.4 0.4 0 0 1 4294.90565 3227.92015 0.4 0.4 0 0 1 4294.96812 3227.7055 4.11 4.11 0 0 0 4295.61 3225.5 4.11 4.11 0 0 0 4291.5 3221.39 4.11 4.11 0 0 0 4291.29179 3221.39528 0.4 0.4 0 0 1 4291.27153 3221.39579 0.4 0.4 0 0 1 4290.98869 3221.27863 L 4279.66275 3209.95269 A 0.4 0.4 0 0 1 4279.54559 3209.66985 0.4 0.4 0 0 1 4279.94559 3209.26985 L 4304.42411 3209.26985 A 0.4 0.4 0 0 1 4304.70695 3209.38701 L 4312.42497 3217.10503 4312.42497 3217.10503 A 2.26985 2.26985 0 0 0 4314.03 3217.76985 L 4325.88 3217.76985 4326.99 3217.76985 A 0.4 0.4 0 0 1 4327.39 3218.16985 L 4327.39 3218.6 A 1.01 1.01 0 0 0 4328.4 3219.61 L 4328.4 3219.61 4334.6 3219.61 4334.6 3219.61 A 1.01 1.01 0 0 0 4335.61 3218.6 L 4335.61 3212.4 A 1.01 1.01 0 0 0 4334.6 3211.39 L 4334.6 3211.39 4328.4 3211.39 4328.4 3211.39 A 1.01 1.01 0 0 0 4327.39 3212.4 L 4327.39 3212.83015 A 0.4 0.4 0 0 1 4326.99 3213.23015 L 4325.88 3213.23015 4315.13589 3213.23015 A 0.4 0.4 0 0 1 4314.85305 3213.11299 L 4308.18222 3206.44217 A 0.4 0.4 0 0 1 4308.06507 3206.15933 0.4 0.4 0 0 1 4308.32048 3205.78637 L 4308.32048 3205.78637 A 2.26985 2.26985 0 0 0 4309.10503 3205.27503 L 4309.10503 3205.27503 4318.80627 3195.57378 A 0.4 0.4 0 0 1 4318.96472 3195.47646 4.71 4.71 0 0 0 4322.21 3191.0 4.71 4.71 0 0 0 4317.5 3186.29 4.71 4.71 0 0 0 4316.40035 3186.42017 L 4316.40035 3186.42017 A 0.4 0.4 0 0 1 4316.30696 3186.43122 0.4 0.4 0 0 1 4316.02412 3186.31406 L 4316.02412 3186.31406 4279.10503 3149.39497 4279.10503 3149.39497 A 2.26985 2.26985 0 0 0 4277.5 3148.73015 L 4272.94559 3148.73015 A 0.4 0.4 0 0 1 4272.54559 3148.33015 0.4 0.4 0 0 1 4272.66275 3148.04731 L 4277.32305 3143.38701 A 0.4 0.4 0 0 1 4277.60589 3143.26985 L 4292.14294 3143.26985 A 0.4 0.4 0 0 1 4292.484 3143.46086 4.71 4.71 0 0 0 4296.5 3145.71 4.71 4.71 0 0 0 4301.21 3141.0 4.71 4.71 0 0 0 4296.5 3136.29 4.71 4.71 0 0 0 4292.484 3138.53914 0.4 0.4 0 0 1 4292.14294 3138.73015 L 4276.5 3138.73015 A 2.26985 2.26985 0 0 0 4274.89497 3139.39497 L 4274.89497 3139.39497 4267.50893 3146.78102 A 0.4 0.4 0 0 1 4267.22608 3146.89818 0.4 0.4 0 0 1 4267.16239 3146.89307 4.16 4.16 0 0 0 4266.5 3146.84 4.16 4.16 0 0 0 4262.34 3151.0 4.16 4.16 0 0 0 4262.89138 3153.06966 0.4 0.4 0 0 1 4262.9444 3153.26866 0.4 0.4 0 0 1 4262.5444 3153.66866 0.4 0.4 0 0 1 4262.26156 3153.5515 L 4241.11503 3132.40497 4241.11503 3132.40497 A 2.26985 2.26985 0 0 0 4239.51 3131.74015 L 4179.49 3131.74015 A 2.26985 2.26985 0 0 0 4177.88497 3132.40497 L 4177.88497 3132.40497 4174.47588 3135.81406 A 0.4 0.4 0 0 1 4174.19304 3135.93122 0.4 0.4 0 0 1 4174.09965 3135.92017 4.71 4.71 0 0 0 4173.0 3135.79 4.71 4.71 0 0 0 4168.29 3140.5 4.71 4.71 0 0 0 4173.0 3145.21 4.71 4.71 0 0 0 4177.71 3140.5 4.71 4.71 0 0 0 4177.57983 3139.40035 L 4177.57983 3139.40035 A 0.4 0.4 0 0 1 4177.56878 3139.30696 0.4 0.4 0 0 1 4177.68594 3139.02412 L 4180.31305 3136.39701 A 0.4 0.4 0 0 1 4180.59589 3136.27985 L 4193.6061 3136.27985 A 0.4 0.4 0 0 1 4194.0061 3136.67985 0.4 0.4 0 0 1 4193.87177 3136.97888 L 4193.87177 3136.97888 A 4.71 4.71 0 0 0 4192.29 3140.5 4.71 4.71 0 0 0 4197.0 3145.21 4.71 4.71 0 0 0 4201.71 3140.5 4.71 4.71 0 0 0 4200.12823 3136.97888 L 4200.12823 3136.97888 A 0.4 0.4 0 0 1 4199.9939 3136.67985 0.4 0.4 0 0 1 4200.3939 3136.27985 L 4238.40411 3136.27985 A 0.4 0.4 0 0 1 4238.68695 3136.39701 L 4262.28102 3159.99107 A 0.4 0.4 0 0 1 4262.39818 3160.27392 0.4 0.4 0 0 1 4262.39307 3160.33761 L 4262.39307 3160.33761 A 4.16 4.16 0 0 0 4262.34 3161.0 4.16 4.16 0 0 0 4266.5 3165.16 4.16 4.16 0 0 0 4270.66 3161.0 4.16 4.16 0 0 0 4266.5 3156.84 4.16 4.16 0 0 0 4265.83761 3156.89307 L 4265.83761 3156.89307 A 0.4 0.4 0 0 1 4265.77392 3156.89818 0.4 0.4 0 0 1 4265.49107 3156.78102 L 4265.49107 3156.78102 4263.9485 3155.23844 4263.9485 3155.23844 A 0.4 0.4 0 0 1 4263.83134 3154.9556 0.4 0.4 0 0 1 4264.23134 3154.5556 0.4 0.4 0 0 1 4264.43034 3154.60862 L 4264.43034 3154.60862 A 4.16 4.16 0 0 0 4266.5 3155.16 4.16 4.16 0 0 0 4269.87242 3153.43565 0.4 0.4 0 0 1 4270.19669 3153.26985 L 4276.39411 3153.26985 A 0.4 0.4 0 0 1 4276.67695 3153.38701 L 4312.81406 3189.52412 A 0.4 0.4 0 0 1 4312.93122 3189.80696 0.4 0.4 0 0 1 4312.92017 3189.90035 L 4312.92017 3189.90035 A 4.71 4.71 0 0 0 4312.79 3191.0 4.71 4.71 0 0 0 4313.69915 3193.78166 0.4 0.4 0 0 1 4313.77636 3194.0179 0.4 0.4 0 0 1 4313.65921 3194.30074 L 4305.89497 3202.06497 4305.89497 3202.06497 A 2.26985 2.26985 0 0 0 4305.23015 3203.67 2.26985 2.26985 0 0 0 4305.30063 3204.23125 L 4305.30063 3204.23125 A 0.4 0.4 0 0 1 4305.31305 3204.33015 0.4 0.4 0 0 1 4304.91305 3204.73015 L 4159.10589 3204.73015 A 0.4 0.4 0 0 1 4158.82305 3204.61299 L 4143.38852 3189.17847 A 0.4 0.4 0 0 1 4143.27137 3188.89563 0.4 0.4 0 0 1 4143.27852 3188.82031 4.35645 4.35645 0 0 0 4143.35645 3188.0 4.35645 4.35645 0 0 0 4139.0 3183.64355 4.35645 4.35645 0 0 0 4134.64355 3188.0 4.35645 4.35645 0 0 0 4139.0 3192.35645 4.35645 4.35645 0 0 0 4139.82031 3192.27852 0.4 0.4 0 0 1 4139.89563 3192.27137 0.4 0.4 0 0 1 4140.17847 3192.38852 L 4141.11961 3193.32966 A 0.4 0.4 0 0 1 4141.23677 3193.61251 0.4 0.4 0 0 1 4140.83677 3194.01251 0.4 0.4 0 0 1 4140.6823 3193.98148 4.35645 4.35645 0 0 0 4139.0 3193.64355 4.35645 4.35645 0 0 0 4134.64355 3198.0 4.35645 4.35645 0 0 0 4139.0 3202.35645 4.35645 4.35645 0 0 0 4143.35645 3198.0 4.35645 4.35645 0 0 0 4143.01852 3196.3177 L 4143.01852 3196.3177 A 0.4 0.4 0 0 1 4142.98749 3196.16323 0.4 0.4 0 0 1 4143.38749 3195.76323 0.4 0.4 0 0 1 4143.67034 3195.88039 L 4155.58725 3207.79731 4155.58725 3207.79731 A 0.4 0.4 0 0 1 4155.70441 3208.08015 0.4 0.4 0 0 1 4155.30441 3208.48015 L 4089.75086 3208.48015 A 0.4 0.4 0 0 1 4089.71627 3208.47865 2.26985 2.26985 0 0 0 4089.52 3208.47015 2.26985 2.26985 0 0 0 4087.25015 3210.74 2.26985 2.26985 0 0 0 4087.27052 3211.04342 0.4 0.4 0 0 1 4087.27411 3211.09689 0.4 0.4 0 0 1 4086.87411 3211.49689 0.4 0.4 0 0 1 4086.59117 3211.37963 L 4078.23181 3203.01438 A 0.4 0.4 0 0 1 4078.11475 3202.73163 0.4 0.4 0 0 1 4078.51475 3202.33163 0.4 0.4 0 0 1 4078.55556 3202.33372 4.35645 4.35645 0 0 0 4079.0 3202.35645 4.35645 4.35645 0 0 0 4082.60542 3200.44533 L 4082.60542 3200.44533 A 0.4 0.4 0 0 1 4082.93646 3200.26985 L 4100.53 3200.26985 A 2.26985 2.26985 0 0 0 4102.79985 3198.0 2.26985 2.26985 0 0 0 4100.53 3195.73015 L 4082.93646 3195.73015 A 0.4 0.4 0 0 1 4082.60542 3195.55467 4.35645 4.35645 0 0 0 4079.0 3193.64355 4.35645 4.35645 0 0 0 4075.86747 3194.97247 0.4 0.4 0 0 1 4075.57985 3195.09449 0.4 0.4 0 0 1 4075.17985 3194.69449 L 4075.17985 3191.30551 A 0.4 0.4 0 0 1 4075.57985 3190.90551 0.4 0.4 0 0 1 4075.86747 3191.02753 4.35645 4.35645 0 0 0 4077.07677 3191.90895 L 4077.07677 3189.92323 4075.57985 3189.92323 A 0.4 0.4 0 0 1 4075.17985 3189.52322 L 4075.17985 3186.47678 A 0.4 0.4 0 0 1 4075.57985 3186.07677 L 4077.07677 3186.07677 4077.07677 3184.09105 A 4.35645 4.35645 0 0 0 4075.86747 3184.97247 0.4 0.4 0 0 1 4075.57985 3185.09449 0.4 0.4 0 0 1 4075.17985 3184.69449 L 4075.17985 3181.30551 A 0.4 0.4 0 0 1 4075.57985 3180.90551 0.4 0.4 0 0 1 4075.86747 3181.02753 4.35645 4.35645 0 0 0 4079.0 3182.35645 4.35645 4.35645 0 0 0 4083.35645 3178.0 4.35645 4.35645 0 0 0 4079.0 3173.64355 4.35645 4.35645 0 0 0 4077.3177 3173.98148 L 4077.3177 3173.98148 A 0.4 0.4 0 0 1 4077.16323 3174.01251 0.4 0.4 0 0 1 4076.76323 3173.61251 0.4 0.4 0 0 1 4076.88039 3173.32966 L 4077.82153 3172.38852 A 0.4 0.4 0 0 1 4078.10437 3172.27137 0.4 0.4 0 0 1 4078.17969 3172.27852 L 4078.17969 3172.27852 A 4.35645 4.35645 0 0 0 4079.0 3172.35645 4.35645 4.35645 0 0 0 4083.35645 3168.0 4.35645 4.35645 0 0 0 4079.0 3163.64355 4.35645 4.35645 0 0 0 4074.64355 3168.0 4.35645 4.35645 0 0 0 4074.72148 3168.82031 0.4 0.4 0 0 1 4074.72863 3168.89563 0.4 0.4 0 0 1 4074.61148 3169.17847 L 4071.30497 3172.48497 A 2.26985 2.26985 0 0 0 4070.64015 3174.09 L 4070.64015 3200.9 A 2.26985 2.26985 0 0 0 4071.30441 3202.50446 L 4071.30441 3202.50446 4085.48441 3216.69446 A 2.26985 2.26985 0 0 0 4087.09 3217.35985 L 4116.14281 3217.35985 A 0.4 0.4 0 0 1 4116.54281 3217.75985 0.4 0.4 0 0 1 4116.2982 3218.12843 L 4116.2982 3218.12843 A 2.26985 2.26985 0 0 0 4114.91015 3220.22 2.26985 2.26985 0 0 0 4115.57497 3221.82503 L 4115.57497 3221.82503 4126.47497 3232.72503 4126.47497 3232.72503 A 2.26985 2.26985 0 0 0 4128.08 3233.38985 L 4228.75 3233.38985 Z M 4269.45 3239.31985 A 2.26985 2.26985 0 0 0 4271.71985 3237.05 2.26985 2.26985 0 0 0 4269.45 3234.78015 L 4120.16589 3234.78015 A 0.4 0.4 0 0 1 4119.88305 3234.66299 L 4109.57503 3224.35497 4109.57503 3224.35497 A 2.26985 2.26985 0 0 0 4107.97 3223.69015 2.26985 2.26985 0 0 0 4105.70015 3225.96 2.26985 2.26985 0 0 0 4106.36497 3227.56503 L 4106.36497 3227.56503 4117.45497 3238.65503 4117.45497 3238.65503 A 2.26985 2.26985 0 0 0 4119.06 3239.31985 L 4269.45 3239.31985 Z M 4296.5 3195.71 A 4.71 4.71 0 0 0 4301.21 3191.0 4.71 4.71 0 0 0 4296.5 3186.29 4.71 4.71 0 0 0 4295.40035 3186.42017 L 4295.40035 3186.42017 A 0.4 0.4 0 0 1 4295.30696 3186.43122 0.4 0.4 0 0 1 4295.02412 3186.31406 L 4278.10503 3169.39497 4278.10503 3169.39497 A 2.26985 2.26985 0 0 0 4276.5 3168.73015 L 4270.19669 3168.73015 A 0.4 0.4 0 0 1 4269.87242 3168.56435 4.16 4.16 0 0 0 4266.5 3166.84 4.16 4.16 0 0 0 4262.34 3171.0 4.16 4.16 0 0 0 4266.5 3175.16 4.16 4.16 0 0 0 4269.87242 3173.43565 0.4 0.4 0 0 1 4270.19669 3173.26985 L 4275.39411 3173.26985 A 0.4 0.4 0 0 1 4275.67695 3173.38701 L 4291.81406 3189.52412 A 0.4 0.4 0 0 1 4291.93122 3189.80696 0.4 0.4 0 0 1 4291.92017 3189.90035 L 4291.92017 3189.90035 A 4.71 4.71 0 0 0 4291.79 3191.0 4.71 4.71 0 0 0 4296.5 3195.71 Z M 4342.342 3064.4785 A 4.8485 4.8485 0 0 0 4347.1905 3059.63 4.8485 4.8485 0 0 0 4342.342 3054.7815 4.8485 4.8485 0 0 0 4338.16768 3057.16363 L 4338.16768 3057.16363 A 0.4 0.4 0 0 1 4337.8233 3057.36015 L 4327.1767 3057.36015 A 0.4 0.4 0 0 1 4326.83232 3057.16363 4.8485 4.8485 0 0 0 4322.658 3054.7815 4.8485 4.8485 0 0 0 4317.8095 3059.63 4.8485 4.8485 0 0 0 4322.658 3064.4785 4.8485 4.8485 0 0 0 4326.83232 3062.09637 0.4 0.4 0 0 1 4327.1767 3061.89985 L 4337.8233 3061.89985 A 0.4 0.4 0 0 1 4338.16768 3062.09637 L 4338.16768 3062.09637 A 4.8485 4.8485 0 0 0 4342.342 3064.4785 Z M 4237.658 3064.4785 A 4.8485 4.8485 0 0 0 4241.83232 3062.09637 0.4 0.4 0 0 1 4242.1767 3061.89985 L 4252.8233 3061.89985 A 0.4 0.4 0 0 1 4253.16768 3062.09637 L 4253.16768 3062.09637 A 4.8485 4.8485 0 0 0 4257.342 3064.4785 4.8485 4.8485 0 0 0 4262.1905 3059.63 4.8485 4.8485 0 0 0 4257.342 3054.7815 4.8485 4.8485 0 0 0 4253.16768 3057.16363 L 4253.16768 3057.16363 A 0.4 0.4 0 0 1 4252.8233 3057.36015 L 4242.1767 3057.36015 A 0.4 0.4 0 0 1 4241.83232 3057.16363 4.8485 4.8485 0 0 0 4237.658 3054.7815 4.8485 4.8485 0 0 0 4232.8095 3059.63 4.8485 4.8485 0 0 0 4237.658 3064.4785 Z M 4181.9774 3109.3633 A 4.5533 4.5533 0 0 0 4186.5307 3104.81 4.5533 4.5533 0 0 0 4181.9774 3100.2567 L 4181.9774 3100.2567 4172.5286 3100.2567 4172.5286 3100.2567 A 4.5533 4.5533 0 0 0 4167.9753 3104.81 4.5533 4.5533 0 0 0 4172.5286 3109.3633 L 4172.5286 3109.3633 4181.9774 3109.3633 Z M 4356.293 3079.315 A 5.734 5.734 0 0 0 4362.027 3085.049 5.734 5.734 0 0 0 4367.761 3079.315 5.734 5.734 0 0 0 4362.027 3073.581 5.734 5.734 0 0 0 4356.293 3079.315 Z M 4297.239 3079.315 A 5.734 5.734 0 0 0 4302.973 3085.049 5.734 5.734 0 0 0 4308.707 3079.315 5.734 5.734 0 0 0 4302.973 3073.581 5.734 5.734 0 0 0 4297.239 3079.315 Z M 4217.973 3085.049 A 5.734 5.734 0 0 0 4223.707 3079.315 5.734 5.734 0 0 0 4217.973 3073.581 5.734 5.734 0 0 0 4212.239 3079.315 5.734 5.734 0 0 0 4217.973 3085.049 Z M 4271.293 3079.315 A 5.734 5.734 0 0 0 4277.027 3085.049 5.734 5.734 0 0 0 4282.761 3079.315 5.734 5.734 0 0 0 4277.027 3073.581 5.734 5.734 0 0 0 4271.293 3079.315 Z M 4381.99 3239.25 A 5.01 5.01 0 0 0 4387.0 3244.26 5.01 5.01 0 0 0 4392.01 3239.25 5.01 5.01 0 0 0 4387.0 3234.24 5.01 5.01 0 0 0 4381.99 3239.25 Z M 4055.49 3239.25 A 5.01 5.01 0 0 0 4060.5 3244.26 5.01 5.01 0 0 0 4065.51 3239.25 5.01 5.01 0 0 0 4060.5 3234.24 5.01 5.01 0 0 0 4055.49 3239.25 Z M 4055.49 3059.25 A 5.01 5.01 0 0 0 4060.5 3064.26 5.01 5.01 0 0 0 4065.51 3059.25 5.01 5.01 0 0 0 4060.5 3054.24 5.01 5.01 0 0 0 4055.49 3059.25 Z M 4387.0 3064.26 A 5.01 5.01 0 0 0 4392.01 3059.25 5.01 5.01 0 0 0 4387.0 3054.24 5.01 5.01 0 0 0 4381.99 3059.25 5.01 5.01 0 0 0 4387.0 3064.26 Z M 4362.027 3103.8485 A 4.8485 4.8485 0 0 0 4366.8755 3099.0 4.8485 4.8485 0 0 0 4362.027 3094.1515 4.8485 4.8485 0 0 0 4357.1785 3099.0 4.8485 4.8485 0 0 0 4362.027 3103.8485 Z M 4242.6515 3099.0 A 4.8485 4.8485 0 0 0 4247.5 3103.8485 4.8485 4.8485 0 0 0 4252.3485 3099.0 4.8485 4.8485 0 0 0 4247.5 3094.1515 4.8485 4.8485 0 0 0 4242.6515 3099.0 Z M 4227.815 3113.6905 A 4.8485 4.8485 0 0 0 4232.6635 3108.842 4.8485 4.8485 0 0 0 4227.815 3103.9935 4.8485 4.8485 0 0 0 4222.9665 3108.842 4.8485 4.8485 0 0 0 4227.815 3113.6905 Z M 4272.1785 3099.0 A 4.8485 4.8485 0 0 0 4277.027 3103.8485 4.8485 4.8485 0 0 0 4281.8755 3099.0 4.8485 4.8485 0 0 0 4277.027 3094.1515 4.8485 4.8485 0 0 0 4272.1785 3099.0 Z M 4347.3365 3108.842 A 4.8485 4.8485 0 0 0 4352.185 3113.6905 4.8485 4.8485 0 0 0 4357.0335 3108.842 4.8485 4.8485 0 0 0 4352.185 3103.9935 4.8485 4.8485 0 0 0 4347.3365 3108.842 Z M 4302.973 3103.8485 A 4.8485 4.8485 0 0 0 4307.8215 3099.0 4.8485 4.8485 0 0 0 4302.973 3094.1515 4.8485 4.8485 0 0 0 4298.1245 3099.0 4.8485 4.8485 0 0 0 4302.973 3103.8485 Z M 4262.3365 3108.842 A 4.8485 4.8485 0 0 0 4267.185 3113.6905 4.8485 4.8485 0 0 0 4272.0335 3108.842 4.8485 4.8485 0 0 0 4267.185 3103.9935 4.8485 4.8485 0 0 0 4262.3365 3108.842 Z M 4307.9665 3108.842 A 4.8485 4.8485 0 0 0 4312.815 3113.6905 4.8485 4.8485 0 0 0 4317.6635 3108.842 4.8485 4.8485 0 0 0 4312.815 3103.9935 4.8485 4.8485 0 0 0 4307.9665 3108.842 Z M 4217.973 3103.8485 A 4.8485 4.8485 0 0 0 4222.8215 3099.0 4.8485 4.8485 0 0 0 4217.973 3094.1515 4.8485 4.8485 0 0 0 4213.1245 3099.0 4.8485 4.8485 0 0 0 4217.973 3103.8485 Z M 4214.24 3150.5 A 4.76 4.76 0 0 0 4219.0 3155.26 4.76 4.76 0 0 0 4223.76 3150.5 4.76 4.76 0 0 0 4219.0 3145.74 4.76 4.76 0 0 0 4214.24 3150.5 Z M 4214.24 3180.5 A 4.76 4.76 0 0 0 4219.0 3185.26 4.76 4.76 0 0 0 4223.76 3180.5 4.76 4.76 0 0 0 4219.0 3175.74 4.76 4.76 0 0 0 4214.24 3180.5 Z M 4339.0 3145.71 A 4.71 4.71 0 0 0 4343.71 3141.0 4.71 4.71 0 0 0 4339.0 3136.29 4.71 4.71 0 0 0 4334.29 3141.0 4.71 4.71 0 0 0 4339.0 3145.71 Z M 4197.0 3195.21 A 4.71 4.71 0 0 0 4201.71 3190.5 4.71 4.71 0 0 0 4197.0 3185.79 4.71 4.71 0 0 0 4192.29 3190.5 4.71 4.71 0 0 0 4197.0 3195.21 Z M 4334.29 3191.0 A 4.71 4.71 0 0 0 4339.0 3195.71 4.71 4.71 0 0 0 4343.71 3191.0 4.71 4.71 0 0 0 4339.0 3186.29 4.71 4.71 0 0 0 4334.29 3191.0 Z M 4317.5 3145.71 A 4.71 4.71 0 0 0 4322.21 3141.0 4.71 4.71 0 0 0 4317.5 3136.29 4.71 4.71 0 0 0 4312.79 3141.0 4.71 4.71 0 0 0 4317.5 3145.71 Z M 4074.6435 3061.3465 A 1.01 1.01 0 0 0 4075.6535 3062.3565 L 4075.6535 3062.3565 4082.3465 3062.3565 4082.3465 3062.3565 A 1.01 1.01 0 0 0 4083.3565 3061.3465 L 4083.3565 3061.3465 4083.3565 3054.6536 4083.3565 3054.6536 A 1.01 1.01 0 0 0 4082.3465 3053.6436 L 4082.3465 3053.6436 4075.6535 3053.6436 4075.6535 3053.6436 A 1.01 1.01 0 0 0 4074.6435 3054.6536 L 4074.6435 3054.6536 4074.6435 3061.3465 Z M 4142.3465 3062.3565 A 1.01 1.01 0 0 0 4143.3565 3061.3465 L 4143.3565 3054.6536 A 1.01 1.01 0 0 0 4142.3465 3053.6436 L 4142.3465 3053.6436 4135.6535 3053.6436 4135.6535 3053.6436 A 1.01 1.01 0 0 0 4134.6435 3054.6536 L 4134.6435 3061.3465 A 1.01 1.01 0 0 0 4135.6535 3062.3565 L 4135.6535 3062.3565 4142.3465 3062.3565 Z M 4079.0 3122.35645 A 4.35645 4.35645 0 0 0 4083.35645 3118.0 4.35645 4.35645 0 0 0 4079.0 3113.64355 4.35645 4.35645 0 0 0 4074.64355 3118.0 4.35645 4.35645 0 0 0 4079.0 3122.35645 Z M 4139.0 3162.35645 A 4.35645 4.35645 0 0 0 4143.35645 3158.0 4.35645 4.35645 0 0 0 4139.0 3153.64355 4.35645 4.35645 0 0 0 4134.64355 3158.0 4.35645 4.35645 0 0 0 4139.0 3162.35645 Z M 4139.0 3122.35645 A 4.35645 4.35645 0 0 0 4143.35645 3118.0 4.35645 4.35645 0 0 0 4139.0 3113.64355 4.35645 4.35645 0 0 0 4134.64355 3118.0 4.35645 4.35645 0 0 0 4139.0 3122.35645 Z M 4134.64355 3078.0 A 4.35645 4.35645 0 0 0 4139.0 3082.35645 4.35645 4.35645 0 0 0 4143.35645 3078.0 4.35645 4.35645 0 0 0 4139.0 3073.64355 4.35645 4.35645 0 0 0 4134.64355 3078.0 Z M 4139.0 3132.35645 A 4.35645 4.35645 0 0 0 4143.35645 3128.0 4.35645 4.35645 0 0 0 4139.0 3123.64355 4.35645 4.35645 0 0 0 4134.64355 3128.0 4.35645 4.35645 0 0 0 4139.0 3132.35645 Z M 4134.64355 3148.0 A 4.35645 4.35645 0 0 0 4139.0 3152.35645 4.35645 4.35645 0 0 0 4143.35645 3148.0 4.35645 4.35645 0 0 0 4139.0 3143.64355 4.35645 4.35645 0 0 0 4134.64355 3148.0 Z M 4074.64355 3108.0 A 4.35645 4.35645 0 0 0 4079.0 3112.35645 4.35645 4.35645 0 0 0 4083.35645 3108.0 4.35645 4.35645 0 0 0 4079.0 3103.64355 4.35645 4.35645 0 0 0 4074.64355 3108.0 Z M 4139.0 3112.35645 A 4.35645 4.35645 0 0 0 4143.35645 3108.0 4.35645 4.35645 0 0 0 4139.0 3103.64355 4.35645 4.35645 0 0 0 4134.64355 3108.0 4.35645 4.35645 0 0 0 4139.0 3112.35645 Z M 4074.64355 3128.0 A 4.35645 4.35645 0 0 0 4079.0 3132.35645 4.35645 4.35645 0 0 0 4083.35645 3128.0 4.35645 4.35645 0 0 0 4079.0 3123.64355 4.35645 4.35645 0 0 0 4074.64355 3128.0 Z M 4139.0 3142.35645 A 4.35645 4.35645 0 0 0 4143.35645 3138.0 4.35645 4.35645 0 0 0 4139.0 3133.64355 4.35645 4.35645 0 0 0 4134.64355 3138.0 4.35645 4.35645 0 0 0 4139.0 3142.35645 Z M 4079.0 3142.35645 A 4.35645 4.35645 0 0 0 4083.35645 3138.0 4.35645 4.35645 0 0 0 4079.0 3133.64355 4.35645 4.35645 0 0 0 4074.64355 3138.0 4.35645 4.35645 0 0 0 4079.0 3142.35645 Z M 4139.0 3182.35645 A 4.35645 4.35645 0 0 0 4143.35645 3178.0 4.35645 4.35645 0 0 0 4139.0 3173.64355 4.35645 4.35645 0 0 0 4134.64355 3178.0 4.35645 4.35645 0 0 0 4139.0 3182.35645 Z M 4134.64355 3098.0 A 4.35645 4.35645 0 0 0 4139.0 3102.35645 4.35645 4.35645 0 0 0 4143.35645 3098.0 4.35645 4.35645 0 0 0 4139.0 3093.64355 4.35645 4.35645 0 0 0 4134.64355 3098.0 Z M 4079.0 3102.35645 A 4.35645 4.35645 0 0 0 4083.35645 3098.0 4.35645 4.35645 0 0 0 4079.0 3093.64355 4.35645 4.35645 0 0 0 4074.64355 3098.0 4.35645 4.35645 0 0 0 4079.0 3102.35645 Z M 4134.64355 3088.0 A 4.35645 4.35645 0 0 0 4139.0 3092.35645 4.35645 4.35645 0 0 0 4143.35645 3088.0 4.35645 4.35645 0 0 0 4139.0 3083.64355 4.35645 4.35645 0 0 0 4134.64355 3088.0 Z M 4074.64355 3088.0 A 4.35645 4.35645 0 0 0 4079.0 3092.35645 4.35645 4.35645 0 0 0 4083.35645 3088.0 4.35645 4.35645 0 0 0 4079.0 3083.64355 4.35645 4.35645 0 0 0 4074.64355 3088.0 Z M 4074.64355 3148.0 A 4.35645 4.35645 0 0 0 4079.0 3152.35645 4.35645 4.35645 0 0 0 4083.35645 3148.0 4.35645 4.35645 0 0 0 4079.0 3143.64355 4.35645 4.35645 0 0 0 4074.64355 3148.0 Z M 4074.64355 3158.0 A 4.35645 4.35645 0 0 0 4079.0 3162.35645 4.35645 4.35645 0 0 0 4083.35645 3158.0 4.35645 4.35645 0 0 0 4079.0 3153.64355 4.35645 4.35645 0 0 0 4074.64355 3158.0 Z M 4079.0 3072.35645 A 4.35645 4.35645 0 0 0 4083.35645 3068.0 4.35645 4.35645 0 0 0 4079.0 3063.64355 4.35645 4.35645 0 0 0 4074.64355 3068.0 4.35645 4.35645 0 0 0 4079.0 3072.35645 Z M 4074.64355 3078.0 A 4.35645 4.35645 0 0 0 4079.0 3082.35645 4.35645 4.35645 0 0 0 4083.35645 3078.0 4.35645 4.35645 0 0 0 4079.0 3073.64355 4.35645 4.35645 0 0 0 4074.64355 3078.0 Z M 4134.64355 3068.0 A 4.35645 4.35645 0 0 0 4139.0 3072.35645 4.35645 4.35645 0 0 0 4143.35645 3068.0 4.35645 4.35645 0 0 0 4139.0 3063.64355 4.35645 4.35645 0 0 0 4134.64355 3068.0 Z M 4239.65 3155.16 A 1.01 1.01 0 0 0 4240.66 3154.15 L 4240.66 3147.85 A 1.01 1.01 0 0 0 4239.65 3146.84 L 4239.65 3146.84 4233.35 3146.84 4233.35 3146.84 A 1.01 1.01 0 0 0 4232.34 3147.85 L 4232.34 3154.15 A 1.01 1.01 0 0 0 4233.35 3155.16 L 4233.35 3155.16 4239.65 3155.16 Z M 4236.5 3165.16 A 4.16 4.16 0 0 0 4240.66 3161.0 4.16 4.16 0 0 0 4236.5 3156.84 4.16 4.16 0 0 0 4232.34 3161.0 4.16 4.16 0 0 0 4236.5 3165.16 Z M 4236.5 3175.16 A 4.16 4.16 0 0 0 4240.66 3171.0 4.16 4.16 0 0 0 4236.5 3166.84 4.16 4.16 0 0 0 4232.34 3171.0 4.16 4.16 0 0 0 4236.5 3175.16 Z M 4232.34 3181.0 A 4.16 4.16 0 0 0 4236.5 3185.16 4.16 4.16 0 0 0 4240.66 3181.0 4.16 4.16 0 0 0 4236.5 3176.84 4.16 4.16 0 0 0 4232.34 3181.0 Z M 4167.39 3129.1 A 1.01 1.01 0 0 0 4168.4 3130.11 L 4168.4 3130.11 4174.6 3130.11 4174.6 3130.11 A 1.01 1.01 0 0 0 4175.61 3129.1 L 4175.61 3122.9 A 1.01 1.01 0 0 0 4174.6 3121.89 L 4174.6 3121.89 4168.4 3121.89 4168.4 3121.89 A 1.01 1.01 0 0 0 4167.39 3122.9 L 4167.39 3129.1 Z M 4337.39 3215.5 A 4.11 4.11 0 0 0 4341.5 3219.61 4.11 4.11 0 0 0 4345.61 3215.5 4.11 4.11 0 0 0 4341.5 3211.39 4.11 4.11 0 0 0 4337.39 3215.5 Z M 4341.5 3229.61 A 4.11 4.11 0 0 0 4345.61 3225.5 4.11 4.11 0 0 0 4341.5 3221.39 4.11 4.11 0 0 0 4337.39 3225.5 4.11 4.11 0 0 0 4341.5 3229.61 Z M 4177.39 3126.0 A 4.11 4.11 0 0 0 4181.5 3130.11 4.11 4.11 0 0 0 4185.61 3126.0 4.11 4.11 0 0 0 4181.5 3121.89 4.11 4.11 0 0 0 4177.39 3126.0 Z M 4327.39 3225.5 A 4.11 4.11 0 0 0 4331.5 3229.61 4.11 4.11 0 0 0 4335.61 3225.5 4.11 4.11 0 0 0 4331.5 3221.39 4.11 4.11 0 0 0 4327.39 3225.5 Z M 4181.9774 3085.7433 A 4.5533 4.5533 0 0 0 4186.05729 3083.21165 L 4181.55014 3083.21165 4181.55014 3085.7433 4181.9774 3085.7433 Z M 4168.44871 3083.21165 A 4.5533 4.5533 0 0 0 4172.5286 3085.7433 L 4172.5286 3085.7433 4172.95586 3085.7433 4172.95586 3083.21165 4168.44871 3083.21165 Z M 4160.76965 3101.80429 A 4.5533 4.5533 0 0 0 4163.3013 3097.7244 L 4163.3013 3097.7244 4163.3013 3097.29714 4160.76965 3097.29714 4160.76965 3101.80429 Z M 4156.72635 3101.80429 L 4156.72635 3097.29714 4154.1947 3097.29714 4154.1947 3097.7244 4154.1947 3097.7244 A 4.5533 4.5533 0 0 0 4156.72635 3101.80429 Z M 4160.76965 3084.19571 L 4160.76965 3088.70286 4163.3013 3088.70286 4163.3013 3088.2756 4163.3013 3088.2756 A 4.5533 4.5533 0 0 0 4160.76965 3084.19571 Z M 4154.1947 3088.2756 L 4154.1947 3088.70286 4156.72635 3088.70286 4156.72635 3084.19571 A 4.5533 4.5533 0 0 0 4154.1947 3088.2756 Z M 4172.95586 3079.16835 L 4172.95586 3076.6367 4172.5286 3076.6367 4172.5286 3076.6367 A 4.5533 4.5533 0 0 0 4168.44871 3079.16835 L 4172.95586 3079.16835 Z M 4181.55014 3076.6367 L 4181.55014 3079.16835 4186.05729 3079.16835 A 4.5533 4.5533 0 0 0 4181.9774 3076.6367 L 4181.9774 3076.6367 4181.55014 3076.6367 Z M 4334.66925 3101.16925 L 4334.66925 3103.33616 A 4.8485 4.8485 0 0 0 4336.83616 3101.16925 L 4334.66925 3101.16925 Z M 4336.83616 3096.83075 A 4.8485 4.8485 0 0 0 4334.66925 3094.66384 L 4334.66925 3096.83075 4336.83616 3096.83075 Z M 4330.33075 3094.66384 A 4.8485 4.8485 0 0 0 4328.16384 3096.83075 L 4330.33075 3096.83075 4330.33075 3094.66384 Z M 4328.16384 3101.16925 A 4.8485 4.8485 0 0 0 4330.33075 3103.33616 L 4330.33075 3101.16925 4328.16384 3101.16925 Z M 4175.1 3192.6 L 4175.1 3194.71593 A 4.71 4.71 0 0 0 4177.21593 3192.6 L 4175.1 3192.6 Z M 4175.1 3186.28407 L 4175.1 3188.4 4177.21593 3188.4 A 4.71 4.71 0 0 0 4175.1 3186.28407 Z M 4170.9 3186.28407 A 4.71 4.71 0 0 0 4168.78407 3188.4 L 4170.9 3188.4 4170.9 3186.28407 Z M 4168.78407 3192.6 A 4.71 4.71 0 0 0 4170.9 3194.71593 L 4170.9 3192.6 4168.78407 3192.6 Z M 4137.07678 3171.90895 L 4137.07678 3169.92323 4135.09105 3169.92323 A 4.35645 4.35645 0 0 0 4137.07678 3171.90895 Z M 4137.07678 3164.09105 A 4.35645 4.35645 0 0 0 4135.09105 3166.07677 L 4137.07678 3166.07677 4137.07678 3164.09105 Z M 4142.90895 3166.07677 A 4.35645 4.35645 0 0 0 4140.92322 3164.09105 L 4140.92322 3166.07677 4142.90895 3166.07677 Z M 4140.92322 3171.90895 A 4.35645 4.35645 0 0 0 4142.90895 3169.92323 L 4140.92322 3169.92323 4140.92322 3171.90895 Z M 4080.92323 3189.92323 L 4080.92323 3191.90895 A 4.35645 4.35645 0 0 0 4082.90895 3189.92323 L 4080.92323 3189.92323 Z M 4080.92323 3184.09105 L 4080.92323 3186.07677 4082.90895 3186.07677 A 4.35645 4.35645 0 0 0 4080.92323 3184.09105 Z M 4268.325 3182.825 L 4268.325 3184.73831 A 4.16 4.16 0 0 0 4270.23831 3182.825 L 4268.325 3182.825 Z M 4268.325 3177.26169 L 4268.325 3179.175 4270.23831 3179.175 A 4.16 4.16 0 0 0 4268.325 3177.26169 Z M 4264.675 3177.26169 A 4.16 4.16 0 0 0 4262.76169 3179.175 L 4264.675 3179.175 4264.675 3177.26169 Z M 4264.675 3184.73831 L 4264.675 3182.825 4262.76169 3182.825 A 4.16 4.16 0 0 0 4264.675 3184.73831 Z M 4251.8 3229.19487 A 4.11 4.11 0 0 0 4253.69487 3227.3 L 4251.8 3227.3 4251.8 3229.19487 Z M 4303.3 3221.80513 L 4303.3 3223.7 4305.19487 3223.7 A 4.11 4.11 0 0 0 4303.3 3221.80513 Z M 4246.30513 3227.3 A 4.11 4.11 0 0 0 4248.2 3229.19487 L 4248.2 3227.3 4246.30513 3227.3 Z M 4299.7 3223.7 L 4299.7 3221.80513 A 4.11 4.11 0 0 0 4297.80513 3223.7 L 4299.7 3223.7 Z " layerid="1" stroke-width="0"></path><polyline points="4089.52 3210.74 4089.54 3210.75 4277.25 3210.75 4291.5 3225" stroke-width="2.5197" c_shapetype="line" stroke-linecap="round" fill="none" layerid="1" net="DISP_2" id="gge700" /><polyline points="4079 3198 4100.53 3198" stroke-width="2.5197" c_shapetype="line" stroke-linecap="round" fill="none" layerid="1" net="NANO_1_15" id="gge703" /><polyline points="4173 3190.5 4179.61 3197.11 4250.39 3197.11 4266.5 3181" stroke-width="2.5197" c_shapetype="line" stroke-linecap="round" fill="none" layerid="1" net="GND" id="gge707" /><polyline points="4207.5 3225.5 4201.19 3219.19 4170.81 3219.19 4165 3225" stroke-width="2.5197" c_shapetype="line" stroke-linecap="round" fill="none" layerid="1" net="GND" id="gge710" /><polyline points="4079 3188 4099 3168 4139 3168" stroke-width="2.5197" c_shapetype="line" stroke-linecap="round" fill="none" layerid="1" net="GND" id="gge716" /><polyline points="4158.75 3093 4165.44 3093 4177.25 3081.19" stroke-width="2.5197" c_shapetype="line" stroke-linecap="round" fill="none" layerid="1" net="GND" id="gge717" /><polyline points="4296.5 3191 4276.5 3171 4266.5 3171" stroke-width="2.5197" c_shapetype="line" stroke-linecap="round" fill="none" layerid="1" net="U1_6" id="gge722" /><polyline points="4079 3168 4072.91 3174.09 4072.91 3200.9 4087.09 3215.09 4207.09 3215.09 4217.5 3225.5" stroke-width="2.5197" c_shapetype="line" stroke-linecap="round" fill="none" layerid="1" net="+5V" id="gge724" /><polyline points="4317.5 3191 4277.5 3151 4266.5 3151" stroke-width="2.5197" c_shapetype="line" stroke-linecap="round" fill="none" layerid="1" net="+5V" id="gge725" /><polyline points="4307.5 3203.67 4317.5 3193.67 4317.5 3191" stroke-width="2.5197" c_shapetype="line" stroke-linecap="round" fill="none" layerid="1" net="+5V" id="gge726" /><polyline points="4296.5 3141 4276.5 3141 4266.5 3151" stroke-width="2.5197" c_shapetype="line" stroke-linecap="round" fill="none" layerid="1" net="+5V" id="gge727" /><polyline points="4260 3225.5 4253.91 3219.41 4223.59 3219.41 4217.5 3225.5" stroke-width="2.5197" c_shapetype="line" stroke-linecap="round" fill="none" layerid="1" net="+5V" id="gge729" /><polyline points="4311.5 3225 4305.91 3230.59 4265.09 3230.59 4260 3225.5" stroke-width="2.5197" c_shapetype="line" stroke-linecap="round" fill="none" layerid="1" net="+5V" id="gge730" /><polyline points="4117.18 3220.22 4128.08 3231.12 4228.75 3231.12 4234.38 3225.5" stroke-width="2.5197" c_shapetype="line" stroke-linecap="round" fill="none" layerid="1" net="POT_OUT_1" id="gge736" /><polyline points="4240 3225.5 4234.38 3225.5" stroke-width="2.5197" c_shapetype="line" stroke-linecap="round" fill="none" layerid="1" net="POT_OUT_1" id="gge738" /><polyline points="4173 3140.5 4179.49 3134.01 4239.51 3134.01 4266.5 3161" stroke-width="2.5197" c_shapetype="line" stroke-linecap="round" fill="none" layerid="1" net="U1_7" id="gge741" /><polyline points="4107.97 3225.96 4119.06 3237.05 4269.45 3237.05" stroke-width="2.5197" c_shapetype="line" stroke-linecap="round" fill="none" layerid="1" net="DISP_1" id="gge742" /><polyline points="4237.66 3059.63 4257.34 3059.63" stroke-width="2.5197" c_shapetype="line" stroke-linecap="round" fill="none" layerid="1" net="MIDI_IN_S1" id="gge748" /><polyline points="4322.66 3059.63 4342.34 3059.63" stroke-width="2.5197" c_shapetype="line" stroke-linecap="round" fill="none" layerid="1" net="MIDI_OUT_S1" id="gge749" /><polyline points="4325.88 3215.5 4314.03 3215.5 4305.53 3207 4158 3207 4139 3188" stroke-width="2.5197" c_shapetype="line" stroke-linecap="round" fill="none" layerid="1" net="NANO_2_14" id="gge750" /><polyline points="4331.5 3215.5 4325.88 3215.5" stroke-width="2.5197" c_shapetype="line" stroke-linecap="round" fill="none" layerid="1" net="NANO_2_14" id="gge751" /><g c_partid="part_pad" c_etype="pinpart" c_origin="4236.5,3151" layerid="11" number="1" net="U1_1" plated ="Y" c_shapetype="group" id="gge50" locked="0" c_rotation="270" c_width="6.3" c_height="6.3" title="U1_1" c_shape="RECT" pasteExpansion="0" solderExpansion="0.4"><polygon points="4239.65 3147.85 4239.65 3154.15 4233.35 3154.15 4233.35 3147.85" stroke-width="0" /><circle c_padhole="1" cx="4236.5" cy="3151" r="1.75" stroke-width="0" /></g><g c_partid="part_pad" c_etype="pinpart" c_origin="4236.5,3161" layerid="11" number="2" net="U1_2" plated ="Y" c_shapetype="group" id="gge51" locked="0" c_rotation="270" c_width="6.3" c_height="6.3" title="U1_2" c_shape="ELLIPSE" pasteExpansion="0" solderExpansion="0.4"><ellipse cx="4236.5" cy="3161" rx="3.15" ry="3.15" stroke-width="0" /><circle c_padhole="1" cx="4236.5" cy="3161" r="1.75" stroke-width="0" /></g><g c_partid="part_pad" c_etype="pinpart" c_origin="4236.5,3171" layerid="11" number="3" net="U1_3" plated ="Y" c_shapetype="group" id="gge52" locked="0" c_rotation="270" c_width="6.3" c_height="6.3" title="U1_3" c_shape="ELLIPSE" pasteExpansion="0" solderExpansion="0.4"><ellipse cx="4236.5" cy="3171" rx="3.15" ry="3.15" stroke-width="0" /><circle c_padhole="1" cx="4236.5" cy="3171" r="1.75" stroke-width="0" /></g><g c_partid="part_pad" c_etype="pinpart" c_origin="4236.5,3181" layerid="11" number="4" net="U1_4" plated ="Y" c_shapetype="group" id="gge53" locked="0" c_rotation="270" c_width="6.3" c_height="6.3" title="U1_4" c_shape="ELLIPSE" pasteExpansion="0" solderExpansion="0.4"><ellipse cx="4236.5" cy="3181" rx="3.15" ry="3.15" stroke-width="0" /><circle c_padhole="1" cx="4236.5" cy="3181" r="1.75" stroke-width="0" /></g><g c_partid="part_pad" c_etype="pinpart" c_origin="4266.5,3181" layerid="11" number="5" net="GND" plated ="Y" c_shapetype="group" id="gge54" locked="0" c_rotation="270" c_width="6.3" c_height="6.3" title="GND" c_shape="ELLIPSE" pasteExpansion="0" solderExpansion="0.4"><ellipse cx="4266.5" cy="3181" rx="3.15" ry="3.15" stroke-width="0" /><circle c_padhole="1" cx="4266.5" cy="3181" r="1.75" stroke-width="0" /></g><g c_partid="part_pad" c_etype="pinpart" c_origin="4266.5,3171" layerid="11" number="6" net="U1_6" plated ="Y" c_shapetype="group" id="gge55" locked="0" c_rotation="270" c_width="6.3" c_height="6.3" title="U1_6" c_shape="ELLIPSE" pasteExpansion="0" solderExpansion="0.4"><ellipse cx="4266.5" cy="3171" rx="3.15" ry="3.15" stroke-width="0" /><circle c_padhole="1" cx="4266.5" cy="3171" r="1.75" stroke-width="0" /></g><g c_partid="part_pad" c_etype="pinpart" c_origin="4266.5,3161" layerid="11" number="7" net="U1_7" plated ="Y" c_shapetype="group" id="gge56" locked="0" c_rotation="270" c_width="6.3" c_height="6.3" title="U1_7" c_shape="ELLIPSE" pasteExpansion="0" solderExpansion="0.4"><ellipse cx="4266.5" cy="3161" rx="3.15" ry="3.15" stroke-width="0" /><circle c_padhole="1" cx="4266.5" cy="3161" r="1.75" stroke-width="0" /></g><g c_partid="part_pad" c_etype="pinpart" c_origin="4266.5,3151" layerid="11" number="8" net="+5V" plated ="Y" c_shapetype="group" id="gge57" locked="0" c_rotation="270" c_width="6.3" c_height="6.3" title="+5V" c_shape="ELLIPSE" pasteExpansion="0" solderExpansion="0.4"><ellipse cx="4266.5" cy="3151" rx="3.15" ry="3.15" stroke-width="0" /><circle c_padhole="1" cx="4266.5" cy="3151" r="1.75" stroke-width="0" /></g><g c_partid="part_pad" c_etype="pinpart" c_origin="4317.5,3191" layerid="11" number="1" net="+5V" plated ="Y" c_shapetype="group" id="gge66" locked="0" c_rotation="90" c_width="7.4" c_height="7.4" title="+5V" c_shape="ELLIPSE" pasteExpansion="0" solderExpansion="0.4"><ellipse cx="4317.5" cy="3191" rx="3.7" ry="3.7" stroke-width="0" /><circle c_padhole="1" cx="4317.5" cy="3191" r="1.77" stroke-width="0" /></g><g c_partid="part_pad" c_etype="pinpart" c_origin="4317.5,3141" layerid="11" number="2" net="R3_2" plated ="Y" c_shapetype="group" id="gge67" locked="0" c_rotation="90" c_width="7.4" c_height="7.4" title="R3_2" c_shape="ELLIPSE" pasteExpansion="0" solderExpansion="0.4"><ellipse cx="4317.5" cy="3141" rx="3.7" ry="3.7" stroke-width="0" /><circle c_padhole="1" cx="4317.5" cy="3141" r="1.77" stroke-width="0" /></g><g c_partid="part_pad" c_etype="pinpart" c_origin="4296.5,3191" layerid="11" number="1" net="U1_6" plated ="Y" c_shapetype="group" id="gge75" locked="0" c_rotation="90" c_width="7.4" c_height="7.4" title="U1_6" c_shape="ELLIPSE" pasteExpansion="0" solderExpansion="0.4"><ellipse cx="4296.5" cy="3191" rx="3.7" ry="3.7" stroke-width="0" /><circle c_padhole="1" cx="4296.5" cy="3191" r="1.77" stroke-width="0" /></g><g c_partid="part_pad" c_etype="pinpart" c_origin="4296.5,3141" layerid="11" number="2" net="+5V" plated ="Y" c_shapetype="group" id="gge76" locked="0" c_rotation="90" c_width="7.4" c_height="7.4" title="+5V" c_shape="ELLIPSE" pasteExpansion="0" solderExpansion="0.4"><ellipse cx="4296.5" cy="3141" rx="3.7" ry="3.7" stroke-width="0" /><circle c_padhole="1" cx="4296.5" cy="3141" r="1.77" stroke-width="0" /></g><g c_partid="part_pad" c_etype="pinpart" c_origin="4197,3190.5" layerid="11" number="1" net="U1_2" plated ="Y" c_shapetype="group" id="gge84" locked="0" c_rotation="90" c_width="7.4" c_height="7.4" title="U1_2" c_shape="ELLIPSE" pasteExpansion="0" solderExpansion="0.4"><ellipse cx="4197" cy="3190.5" rx="3.7" ry="3.7" stroke-width="0" /><circle c_padhole="1" cx="4197" cy="3190.5" r="1.77" stroke-width="0" /></g><g c_partid="part_pad" c_etype="pinpart" c_origin="4197,3140.5" layerid="11" number="2" net="R5_2" plated ="Y" c_shapetype="group" id="gge85" locked="0" c_rotation="90" c_width="7.4" c_height="7.4" title="R5_2" c_shape="ELLIPSE" pasteExpansion="0" solderExpansion="0.4"><ellipse cx="4197" cy="3140.5" rx="3.7" ry="3.7" stroke-width="0" /><circle c_padhole="1" cx="4197" cy="3140.5" r="1.77" stroke-width="0" /></g><g c_partid="part_pad" c_etype="pinpart" c_origin="4339,3191" layerid="11" number="1" net="R2_1" plated ="Y" c_shapetype="group" id="gge93" locked="0" c_rotation="90" c_width="7.4" c_height="7.4" title="R2_1" c_shape="ELLIPSE" pasteExpansion="0" solderExpansion="0.4"><ellipse cx="4339" cy="3191" rx="3.7" ry="3.7" stroke-width="0" /><circle c_padhole="1" cx="4339" cy="3191" r="1.77" stroke-width="0" /></g><g c_partid="part_pad" c_etype="pinpart" c_origin="4339,3141" layerid="11" number="2" net="R2_2" plated ="Y" c_shapetype="group" id="gge94" locked="0" c_rotation="90" c_width="7.4" c_height="7.4" title="R2_2" c_shape="ELLIPSE" pasteExpansion="0" solderExpansion="0.4"><ellipse cx="4339" cy="3141" rx="3.7" ry="3.7" stroke-width="0" /><circle c_padhole="1" cx="4339" cy="3141" r="1.77" stroke-width="0" /></g><g c_partid="part_pad" c_etype="pinpart" c_origin="4173,3190.5" layerid="11" number="1" net="GND" plated ="Y" c_shapetype="group" id="gge102" locked="0" c_rotation="90" c_width="7.4" c_height="7.4" title="GND" c_shape="ELLIPSE" pasteExpansion="0" solderExpansion="0.4"><ellipse cx="4173" cy="3190.5" rx="3.7" ry="3.7" stroke-width="0" /><circle c_padhole="1" cx="4173" cy="3190.5" r="1.77" stroke-width="0" /></g><g c_partid="part_pad" c_etype="pinpart" c_origin="4173,3140.5" layerid="11" number="2" net="U1_7" plated ="Y" c_shapetype="group" id="gge103" locked="0" c_rotation="90" c_width="7.4" c_height="7.4" title="U1_7" c_shape="ELLIPSE" pasteExpansion="0" solderExpansion="0.4"><ellipse cx="4173" cy="3140.5" rx="3.7" ry="3.7" stroke-width="0" /><circle c_padhole="1" cx="4173" cy="3140.5" r="1.77" stroke-width="0" /></g><g c_partid="part_pad" c_etype="pinpart" c_origin="4219,3180.5" layerid="11" number="1" net="U1_3" plated ="Y" c_shapetype="group" id="gge109" locked="0" c_rotation="90" c_width="7.5" c_height="7.5" title="U1_3" c_shape="ELLIPSE" pasteExpansion="0" solderExpansion="0.4"><ellipse cx="4219" cy="3180.5" rx="3.75" ry="3.75" stroke-width="0" /><circle c_padhole="1" cx="4219" cy="3180.5" r="2.1654" stroke-width="0" /></g><g c_partid="part_pad" c_etype="pinpart" c_origin="4219,3150.5" layerid="11" number="2" net="U1_2" plated ="Y" c_shapetype="group" id="gge110" locked="0" c_rotation="90" c_width="7.5" c_height="7.5" title="U1_2" c_shape="ELLIPSE" pasteExpansion="0" solderExpansion="0.4"><ellipse cx="4219" cy="3150.5" rx="3.75" ry="3.75" stroke-width="0" /><circle c_padhole="1" cx="4219" cy="3150.5" r="2.1654" stroke-width="0" /></g><g c_partid="part_pad" c_etype="pinpart" c_origin="4247.5,3099" layerid="11" number="2" net="MIDI_IN_2" plated ="Y" c_shapetype="group" id="gge121" locked="0" c_rotation="180" c_width="7.677" c_height="7.677" title="MIDI_IN_2" c_shape="ELLIPSE" pasteExpansion="0" solderExpansion="0.4"><ellipse cx="4247.5" cy="3099" rx="3.8385" ry="3.8385" stroke-width="0" /><polyline c_padhole="1" points="4247.51 3099 4247.49 3099" stroke-width="5.118"></polyline></g><g c_partid="part_pad" c_etype="pinpart" c_origin="4227.81,3108.84" layerid="11" number="4" net="R5_2" plated ="Y" c_shapetype="group" id="gge122" locked="0" c_rotation="180" c_width="7.677" c_height="7.677" title="R5_2" c_shape="ELLIPSE" pasteExpansion="0" solderExpansion="0.4"><ellipse cx="4227.81" cy="3108.84" rx="3.8385" ry="3.8385" stroke-width="0" /><polyline c_padhole="1" points="4227.825 3108.842 4227.805 3108.842" stroke-width="5.118"></polyline></g><g c_partid="part_pad" c_etype="pinpart" c_origin="4217.97,3099" layerid="11" number="1" net="MIDI_IN_1" plated ="Y" c_shapetype="group" id="gge123" locked="0" c_rotation="180" c_width="7.677" c_height="7.677" title="MIDI_IN_1" c_shape="ELLIPSE" pasteExpansion="0" solderExpansion="0.4"><ellipse cx="4217.97" cy="3099" rx="3.8385" ry="3.8385" stroke-width="0" /><polyline c_padhole="1" points="4217.983 3099 4217.963 3099" stroke-width="5.118"></polyline></g><g c_partid="part_pad" c_etype="pinpart" c_origin="4267.19,3108.84" layerid="11" number="5" net="U1_3" plated ="Y" c_shapetype="group" id="gge124" locked="0" c_rotation="180" c_width="7.677" c_height="7.677" title="U1_3" c_shape="ELLIPSE" pasteExpansion="0" solderExpansion="0.4"><ellipse cx="4267.19" cy="3108.84" rx="3.8385" ry="3.8385" stroke-width="0" /><polyline c_padhole="1" points="4267.195 3108.842 4267.175 3108.842" stroke-width="5.118"></polyline></g><g c_partid="part_pad" c_etype="pinpart" c_origin="4277.03,3099" layerid="11" number="3" net="MIDI_IN_3" plated ="Y" c_shapetype="group" id="gge125" locked="0" c_rotation="180" c_width="7.677" c_height="7.677" title="MIDI_IN_3" c_shape="ELLIPSE" pasteExpansion="0" solderExpansion="0.4"><ellipse cx="4277.03" cy="3099" rx="3.8385" ry="3.8385" stroke-width="0" /><polyline c_padhole="1" points="4277.037 3099 4277.017 3099" stroke-width="5.118"></polyline></g><g c_partid="part_pad" c_etype="pinpart" c_origin="4257.34,3059.63" layerid="11" number="S1" net="MIDI_IN_S1" plated ="Y" c_shapetype="group" id="gge126" locked="0" c_rotation="180" c_width="7.677" c_height="7.677" title="MIDI_IN_S1" c_shape="ELLIPSE" pasteExpansion="0" solderExpansion="0.4"><ellipse cx="4257.34" cy="3059.63" rx="3.8385" ry="3.8385" stroke-width="0" /><polyline c_padhole="1" points="4257.352 3059.63 4257.332 3059.63" stroke-width="5.118"></polyline></g><g c_partid="part_pad" c_etype="pinpart" c_origin="4237.66,3059.63" layerid="11" number="S2" net="MIDI_IN_S1" plated ="Y" c_shapetype="group" id="gge127" locked="0" c_rotation="180" c_width="7.677" c_height="7.677" title="MIDI_IN_S1" c_shape="ELLIPSE" pasteExpansion="0" solderExpansion="0.4"><ellipse cx="4237.66" cy="3059.63" rx="3.8385" ry="3.8385" stroke-width="0" /><polyline c_padhole="1" points="4237.668 3059.63 4237.648 3059.63" stroke-width="5.118"></polyline></g><g c_partid="part_pad" c_etype="pinpart" c_origin="4332.5,3099" layerid="11" number="2" net="GND" plated ="Y" c_shapetype="group" id="gge140" locked="0" c_rotation="180" c_width="7.677" c_height="7.677" title="GND" c_shape="ELLIPSE" pasteExpansion="0" solderExpansion="0.4"><ellipse cx="4332.5" cy="3099" rx="3.8385" ry="3.8385" stroke-width="0" /><polyline c_padhole="1" points="4332.51 3099 4332.49 3099" stroke-width="5.118"></polyline></g><g c_partid="part_pad" c_etype="pinpart" c_origin="4312.81,3108.84" layerid="11" number="4" net="R3_2" plated ="Y" c_shapetype="group" id="gge141" locked="0" c_rotation="180" c_width="7.677" c_height="7.677" title="R3_2" c_shape="ELLIPSE" pasteExpansion="0" solderExpansion="0.4"><ellipse cx="4312.81" cy="3108.84" rx="3.8385" ry="3.8385" stroke-width="0" /><polyline c_padhole="1" points="4312.825 3108.842 4312.805 3108.842" stroke-width="5.118"></polyline></g><g c_partid="part_pad" c_etype="pinpart" c_origin="4302.97,3099" layerid="11" number="1" net="MIDI_OUT_1" plated ="Y" c_shapetype="group" id="gge142" locked="0" c_rotation="180" c_width="7.677" c_height="7.677" title="MIDI_OUT_1" c_shape="ELLIPSE" pasteExpansion="0" solderExpansion="0.4"><ellipse cx="4302.97" cy="3099" rx="3.8385" ry="3.8385" stroke-width="0" /><polyline c_padhole="1" points="4302.983 3099 4302.963 3099" stroke-width="5.118"></polyline></g><g c_partid="part_pad" c_etype="pinpart" c_origin="4352.19,3108.84" layerid="11" number="5" net="R2_2" plated ="Y" c_shapetype="group" id="gge143" locked="0" c_rotation="180" c_width="7.677" c_height="7.677" title="R2_2" c_shape="ELLIPSE" pasteExpansion="0" solderExpansion="0.4"><ellipse cx="4352.19" cy="3108.84" rx="3.8385" ry="3.8385" stroke-width="0" /><polyline c_padhole="1" points="4352.195 3108.842 4352.175 3108.842" stroke-width="5.118"></polyline></g><g c_partid="part_pad" c_etype="pinpart" c_origin="4362.03,3099" layerid="11" number="3" net="MIDI_OUT_3" plated ="Y" c_shapetype="group" id="gge144" locked="0" c_rotation="180" c_width="7.677" c_height="7.677" title="MIDI_OUT_3" c_shape="ELLIPSE" pasteExpansion="0" solderExpansion="0.4"><ellipse cx="4362.03" cy="3099" rx="3.8385" ry="3.8385" stroke-width="0" /><polyline c_padhole="1" points="4362.037 3099 4362.017 3099" stroke-width="5.118"></polyline></g><g c_partid="part_pad" c_etype="pinpart" c_origin="4342.34,3059.63" layerid="11" number="S1" net="MIDI_OUT_S1" plated ="Y" c_shapetype="group" id="gge145" locked="0" c_rotation="180" c_width="7.677" c_height="7.677" title="MIDI_OUT_S1" c_shape="ELLIPSE" pasteExpansion="0" solderExpansion="0.4"><ellipse cx="4342.34" cy="3059.63" rx="3.8385" ry="3.8385" stroke-width="0" /><polyline c_padhole="1" points="4342.352 3059.63 4342.332 3059.63" stroke-width="5.118"></polyline></g><g c_partid="part_pad" c_etype="pinpart" c_origin="4322.66,3059.63" layerid="11" number="S2" net="MIDI_OUT_S1" plated ="Y" c_shapetype="group" id="gge146" locked="0" c_rotation="180" c_width="7.677" c_height="7.677" title="MIDI_OUT_S1" c_shape="ELLIPSE" pasteExpansion="0" solderExpansion="0.4"><ellipse cx="4322.66" cy="3059.63" rx="3.8385" ry="3.8385" stroke-width="0" /><polyline c_padhole="1" points="4322.668 3059.63 4322.648 3059.63" stroke-width="5.118"></polyline></g><g c_partid="part_pad" c_etype="pinpart" c_origin="4165,3225" layerid="11" number="1" net="GND" plated ="Y" c_shapetype="group" id="gge153" locked="0" c_rotation="270" c_width="6.2" c_height="6.2" title="GND" c_shape="RECT" pasteExpansion="0" solderExpansion="0.4"><polygon points="4168.1 3221.9 4168.1 3228.1 4161.9 3228.1 4161.9 3221.9" stroke-width="0" /><circle c_padhole="1" cx="4165" cy="3225" r="1.75" stroke-width="0" /></g><g c_partid="part_pad" c_etype="pinpart" c_origin="4175,3225" layerid="11" number="2" net="SAVE_BTN_2" plated ="Y" c_shapetype="group" id="gge154" locked="0" c_rotation="270" c_width="6.2" c_height="6.2" title="SAVE_BTN_2" c_shape="ELLIPSE" pasteExpansion="0" solderExpansion="0.4"><ellipse cx="4175" cy="3225" rx="3.1" ry="3.1" stroke-width="0" /><circle c_padhole="1" cx="4175" cy="3225" r="1.75" stroke-width="0" /></g><g c_partid="part_pad" c_etype="pinpart" c_origin="4217.5,3225.5" layerid="11" number="3" net="+5V" plated ="Y" c_shapetype="group" id="gge160" locked="0" c_rotation="0" c_width="6.2" c_height="6.2" title="+5V" c_shape="ELLIPSE" pasteExpansion="0" solderExpansion="0.4"><ellipse cx="4217.5" cy="3225.5" rx="3.1" ry="3.1" stroke-width="0" /><circle c_padhole="1" cx="4217.5" cy="3225.5" r="1.75" stroke-width="0" /></g><g c_partid="part_pad" c_etype="pinpart" c_origin="4207.5,3225.5" layerid="11" number="2" net="GND" plated ="Y" c_shapetype="group" id="gge161" locked="0" c_rotation="0" c_width="6.2" c_height="6.2" title="GND" c_shape="ELLIPSE" pasteExpansion="0" solderExpansion="0.4"><ellipse cx="4207.5" cy="3225.5" rx="3.1" ry="3.1" stroke-width="0" /><circle c_padhole="1" cx="4207.5" cy="3225.5" r="1.75" stroke-width="0" /></g><g c_partid="part_pad" c_etype="pinpart" c_origin="4197.5,3225.5" layerid="11" number="1" net="POT_IN_1" plated ="Y" c_shapetype="group" id="gge162" locked="0" c_rotation="0" c_width="6.2" c_height="6.2" title="POT_IN_1" c_shape="RECT" pasteExpansion="0" solderExpansion="0.4"><polygon points="4194.4 3222.4 4200.6 3222.4 4200.6 3228.6 4194.4 3228.6" stroke-width="0" /><circle c_padhole="1" cx="4197.5" cy="3225.5" r="1.75" stroke-width="0" /></g><g c_partid="part_pad" c_etype="pinpart" c_origin="4260,3225.5" layerid="11" number="3" net="+5V" plated ="Y" c_shapetype="group" id="gge168" locked="0" c_rotation="0" c_width="6.2" c_height="6.2" title="+5V" c_shape="ELLIPSE" pasteExpansion="0" solderExpansion="0.4"><ellipse cx="4260" cy="3225.5" rx="3.1" ry="3.1" stroke-width="0" /><circle c_padhole="1" cx="4260" cy="3225.5" r="1.75" stroke-width="0" /></g><g c_partid="part_pad" c_etype="pinpart" c_origin="4250,3225.5" layerid="11" number="2" net="GND" plated ="Y" c_shapetype="group" id="gge169" locked="0" c_rotation="0" c_width="6.2" c_height="6.2" title="GND" c_shape="ELLIPSE" pasteExpansion="0" solderExpansion="0.4"><ellipse cx="4250" cy="3225.5" rx="3.1" ry="3.1" stroke-width="0" /><circle c_padhole="1" cx="4250" cy="3225.5" r="1.75" stroke-width="0" /></g><g c_partid="part_pad" c_etype="pinpart" c_origin="4240,3225.5" layerid="11" number="1" net="POT_OUT_1" plated ="Y" c_shapetype="group" id="gge170" locked="0" c_rotation="0" c_width="6.2" c_height="6.2" title="POT_OUT_1" c_shape="RECT" pasteExpansion="0" solderExpansion="0.4"><polygon points="4236.9 3222.4 4243.1 3222.4 4243.1 3228.6 4236.9 3228.6" stroke-width="0" /><circle c_padhole="1" cx="4240" cy="3225.5" r="1.75" stroke-width="0" /></g><g c_partid="part_pad" c_etype="pinpart" c_origin="4281.5,3225.5" layerid="11" number="1" net="DISP_1" plated ="Y" c_shapetype="group" id="gge176" locked="0" c_rotation="0" c_width="6.2" c_height="6.2" title="DISP_1" c_shape="RECT" pasteExpansion="0" solderExpansion="0.4"><polygon points="4278.4 3222.4 4284.6 3222.4 4284.6 3228.6 4278.4 3228.6" stroke-width="0" /><circle c_padhole="1" cx="4281.5" cy="3225.5" r="1.75" stroke-width="0" /></g><g c_partid="part_pad" c_etype="pinpart" c_origin="4291.5,3225.5" layerid="11" number="2" net="DISP_2" plated ="Y" c_shapetype="group" id="gge177" locked="0" c_rotation="0" c_width="6.2" c_height="6.2" title="DISP_2" c_shape="ELLIPSE" pasteExpansion="0" solderExpansion="0.4"><ellipse cx="4291.5" cy="3225.5" rx="3.1" ry="3.1" stroke-width="0" /><circle c_padhole="1" cx="4291.5" cy="3225.5" r="1.75" stroke-width="0" /></g><g c_partid="part_pad" c_etype="pinpart" c_origin="4301.5,3225.5" layerid="11" number="3" net="GND" plated ="Y" c_shapetype="group" id="gge178" locked="0" c_rotation="0" c_width="6.2" c_height="6.2" title="GND" c_shape="ELLIPSE" pasteExpansion="0" solderExpansion="0.4"><ellipse cx="4301.5" cy="3225.5" rx="3.1" ry="3.1" stroke-width="0" /><circle c_padhole="1" cx="4301.5" cy="3225.5" r="1.75" stroke-width="0" /></g><g c_partid="part_pad" c_etype="pinpart" c_origin="4311.5,3225.5" layerid="11" number="4" net="+5V" plated ="Y" c_shapetype="group" id="gge179" locked="0" c_rotation="0" c_width="6.2" c_height="6.2" title="+5V" c_shape="ELLIPSE" pasteExpansion="0" solderExpansion="0.4"><ellipse cx="4311.5" cy="3225.5" rx="3.1" ry="3.1" stroke-width="0" /><circle c_padhole="1" cx="4311.5" cy="3225.5" r="1.75" stroke-width="0" /></g><g c_partid="part_pad" c_etype="pinpart" c_origin="4139,3058" layerid="11" number="1" net="NANO_2_1" plated ="Y" c_shapetype="group" id="gge185" locked="0" c_rotation="0" c_width="6.6929" c_height="6.6929" title="NANO_2_1" c_shape="RECT" pasteExpansion="0" solderExpansion="0.4"><polygon points="4135.654 3054.654 4142.346 3054.654 4142.346 3061.347 4135.654 3061.347" stroke-width="0" /><circle c_padhole="1" cx="4139" cy="3058" r="2.1654" stroke-width="0" /></g><g c_partid="part_pad" c_etype="pinpart" c_origin="4139,3068" layerid="11" number="2" net="NANO_2_2" plated ="Y" c_shapetype="group" id="gge186" locked="0" c_rotation="270" c_width="6.6929" c_height="6.6929" title="NANO_2_2" c_shape="ELLIPSE" pasteExpansion="0" solderExpansion="0.4"><ellipse cx="4139" cy="3068" rx="3.34645" ry="3.34645" stroke-width="0" /><circle c_padhole="1" cx="4139" cy="3068" r="2.1654" stroke-width="0" /></g><g c_partid="part_pad" c_etype="pinpart" c_origin="4139,3078" layerid="11" number="3" net="NANO_2_3" plated ="Y" c_shapetype="group" id="gge187" locked="0" c_rotation="270" c_width="6.6929" c_height="6.6929" title="NANO_2_3" c_shape="ELLIPSE" pasteExpansion="0" solderExpansion="0.4"><ellipse cx="4139" cy="3078" rx="3.34645" ry="3.34645" stroke-width="0" /><circle c_padhole="1" cx="4139" cy="3078" r="2.1654" stroke-width="0" /></g><g c_partid="part_pad" c_etype="pinpart" c_origin="4139,3088" layerid="11" number="4" net="NANO_2_4" plated ="Y" c_shapetype="group" id="gge188" locked="0" c_rotation="270" c_width="6.6929" c_height="6.6929" title="NANO_2_4" c_shape="ELLIPSE" pasteExpansion="0" solderExpansion="0.4"><ellipse cx="4139" cy="3088" rx="3.34645" ry="3.34645" stroke-width="0" /><circle c_padhole="1" cx="4139" cy="3088" r="2.1654" stroke-width="0" /></g><g c_partid="part_pad" c_etype="pinpart" c_origin="4139,3098" layerid="11" number="5" net="NANO_2_5" plated ="Y" c_shapetype="group" id="gge189" locked="0" c_rotation="270" c_width="6.6929" c_height="6.6929" title="NANO_2_5" c_shape="ELLIPSE" pasteExpansion="0" solderExpansion="0.4"><ellipse cx="4139" cy="3098" rx="3.34645" ry="3.34645" stroke-width="0" /><circle c_padhole="1" cx="4139" cy="3098" r="2.1654" stroke-width="0" /></g><g c_partid="part_pad" c_etype="pinpart" c_origin="4139,3108" layerid="11" number="6" net="NANO_2_6" plated ="Y" c_shapetype="group" id="gge190" locked="0" c_rotation="270" c_width="6.6929" c_height="6.6929" title="NANO_2_6" c_shape="ELLIPSE" pasteExpansion="0" solderExpansion="0.4"><ellipse cx="4139" cy="3108" rx="3.34645" ry="3.34645" stroke-width="0" /><circle c_padhole="1" cx="4139" cy="3108" r="2.1654" stroke-width="0" /></g><g c_partid="part_pad" c_etype="pinpart" c_origin="4139,3118" layerid="11" number="7" net="NANO_2_7" plated ="Y" c_shapetype="group" id="gge191" locked="0" c_rotation="270" c_width="6.6929" c_height="6.6929" title="NANO_2_7" c_shape="ELLIPSE" pasteExpansion="0" solderExpansion="0.4"><ellipse cx="4139" cy="3118" rx="3.34645" ry="3.34645" stroke-width="0" /><circle c_padhole="1" cx="4139" cy="3118" r="2.1654" stroke-width="0" /></g><g c_partid="part_pad" c_etype="pinpart" c_origin="4139,3128" layerid="11" number="8" net="NANO_2_8" plated ="Y" c_shapetype="group" id="gge192" locked="0" c_rotation="270" c_width="6.6929" c_height="6.6929" title="NANO_2_8" c_shape="ELLIPSE" pasteExpansion="0" solderExpansion="0.4"><ellipse cx="4139" cy="3128" rx="3.34645" ry="3.34645" stroke-width="0" /><circle c_padhole="1" cx="4139" cy="3128" r="2.1654" stroke-width="0" /></g><g c_partid="part_pad" c_etype="pinpart" c_origin="4139,3138" layerid="11" number="9" net="SAVE_BTN_2" plated ="Y" c_shapetype="group" id="gge193" locked="0" c_rotation="270" c_width="6.6929" c_height="6.6929" title="SAVE_BTN_2" c_shape="ELLIPSE" pasteExpansion="0" solderExpansion="0.4"><ellipse cx="4139" cy="3138" rx="3.34645" ry="3.34645" stroke-width="0" /><circle c_padhole="1" cx="4139" cy="3138" r="2.1654" stroke-width="0" /></g><g c_partid="part_pad" c_etype="pinpart" c_origin="4139,3148" layerid="11" number="10" net="NANO_2_10" plated ="Y" c_shapetype="group" id="gge194" locked="0" c_rotation="270" c_width="6.6929" c_height="6.6929" title="NANO_2_10" c_shape="ELLIPSE" pasteExpansion="0" solderExpansion="0.4"><ellipse cx="4139" cy="3148" rx="3.34645" ry="3.34645" stroke-width="0" /><circle c_padhole="1" cx="4139" cy="3148" r="2.1654" stroke-width="0" /></g><g c_partid="part_pad" c_etype="pinpart" c_origin="4139,3158" layerid="11" number="11" net="NANO_2_11" plated ="Y" c_shapetype="group" id="gge195" locked="0" c_rotation="270" c_width="6.6929" c_height="6.6929" title="NANO_2_11" c_shape="ELLIPSE" pasteExpansion="0" solderExpansion="0.4"><ellipse cx="4139" cy="3158" rx="3.34645" ry="3.34645" stroke-width="0" /><circle c_padhole="1" cx="4139" cy="3158" r="2.1654" stroke-width="0" /></g><g c_partid="part_pad" c_etype="pinpart" c_origin="4139,3168" layerid="11" number="12" net="GND" plated ="Y" c_shapetype="group" id="gge196" locked="0" c_rotation="270" c_width="6.6929" c_height="6.6929" title="GND" c_shape="ELLIPSE" pasteExpansion="0" solderExpansion="0.4"><ellipse cx="4139" cy="3168" rx="3.34645" ry="3.34645" stroke-width="0" /><circle c_padhole="1" cx="4139" cy="3168" r="2.1654" stroke-width="0" /></g><g c_partid="part_pad" c_etype="pinpart" c_origin="4139,3178" layerid="11" number="13" net="NANO_2_13" plated ="Y" c_shapetype="group" id="gge197" locked="0" c_rotation="270" c_width="6.6929" c_height="6.6929" title="NANO_2_13" c_shape="ELLIPSE" pasteExpansion="0" solderExpansion="0.4"><ellipse cx="4139" cy="3178" rx="3.34645" ry="3.34645" stroke-width="0" /><circle c_padhole="1" cx="4139" cy="3178" r="2.1654" stroke-width="0" /></g><g c_partid="part_pad" c_etype="pinpart" c_origin="4139,3188" layerid="11" number="14" net="NANO_2_14" plated ="Y" c_shapetype="group" id="gge198" locked="0" c_rotation="270" c_width="6.6929" c_height="6.6929" title="NANO_2_14" c_shape="ELLIPSE" pasteExpansion="0" solderExpansion="0.4"><ellipse cx="4139" cy="3188" rx="3.34645" ry="3.34645" stroke-width="0" /><circle c_padhole="1" cx="4139" cy="3188" r="2.1654" stroke-width="0" /></g><g c_partid="part_pad" c_etype="pinpart" c_origin="4139,3198" layerid="11" number="15" net="NANO_2_15" plated ="Y" c_shapetype="group" id="gge199" locked="0" c_rotation="270" c_width="6.6929" c_height="6.6929" title="NANO_2_15" c_shape="ELLIPSE" pasteExpansion="0" solderExpansion="0.4"><ellipse cx="4139" cy="3198" rx="3.34645" ry="3.34645" stroke-width="0" /><circle c_padhole="1" cx="4139" cy="3198" r="2.1654" stroke-width="0" /></g><g c_partid="part_pad" c_etype="pinpart" c_origin="4079,3058" layerid="11" number="1" net="NANO_1_1" plated ="Y" c_shapetype="group" id="gge205" locked="0" c_rotation="0" c_width="6.6929" c_height="6.6929" title="NANO_1_1" c_shape="RECT" pasteExpansion="0" solderExpansion="0.4"><polygon points="4075.654 3054.654 4082.347 3054.654 4082.347 3061.347 4075.654 3061.347" stroke-width="0" /><circle c_padhole="1" cx="4079" cy="3058" r="2.1654" stroke-width="0" /></g><g c_partid="part_pad" c_etype="pinpart" c_origin="4079,3068" layerid="11" number="2" net="NANO_1_2" plated ="Y" c_shapetype="group" id="gge206" locked="0" c_rotation="270" c_width="6.6929" c_height="6.6929" title="NANO_1_2" c_shape="ELLIPSE" pasteExpansion="0" solderExpansion="0.4"><ellipse cx="4079" cy="3068" rx="3.34645" ry="3.34645" stroke-width="0" /><circle c_padhole="1" cx="4079" cy="3068" r="2.1654" stroke-width="0" /></g><g c_partid="part_pad" c_etype="pinpart" c_origin="4079,3078" layerid="11" number="3" net="NANO_1_3" plated ="Y" c_shapetype="group" id="gge207" locked="0" c_rotation="270" c_width="6.6929" c_height="6.6929" title="NANO_1_3" c_shape="ELLIPSE" pasteExpansion="0" solderExpansion="0.4"><ellipse cx="4079" cy="3078" rx="3.34645" ry="3.34645" stroke-width="0" /><circle c_padhole="1" cx="4079" cy="3078" r="2.1654" stroke-width="0" /></g><g c_partid="part_pad" c_etype="pinpart" c_origin="4079,3088" layerid="11" number="4" net="NANO_1_4" plated ="Y" c_shapetype="group" id="gge208" locked="0" c_rotation="270" c_width="6.6929" c_height="6.6929" title="NANO_1_4" c_shape="ELLIPSE" pasteExpansion="0" solderExpansion="0.4"><ellipse cx="4079" cy="3088" rx="3.34645" ry="3.34645" stroke-width="0" /><circle c_padhole="1" cx="4079" cy="3088" r="2.1654" stroke-width="0" /></g><g c_partid="part_pad" c_etype="pinpart" c_origin="4079,3098" layerid="11" number="5" net="NANO_1_5" plated ="Y" c_shapetype="group" id="gge209" locked="0" c_rotation="270" c_width="6.6929" c_height="6.6929" title="NANO_1_5" c_shape="ELLIPSE" pasteExpansion="0" solderExpansion="0.4"><ellipse cx="4079" cy="3098" rx="3.34645" ry="3.34645" stroke-width="0" /><circle c_padhole="1" cx="4079" cy="3098" r="2.1654" stroke-width="0" /></g><g c_partid="part_pad" c_etype="pinpart" c_origin="4079,3108" layerid="11" number="6" net="POT_IN_1" plated ="Y" c_shapetype="group" id="gge210" locked="0" c_rotation="270" c_width="6.6929" c_height="6.6929" title="POT_IN_1" c_shape="ELLIPSE" pasteExpansion="0" solderExpansion="0.4"><ellipse cx="4079" cy="3108" rx="3.34645" ry="3.34645" stroke-width="0" /><circle c_padhole="1" cx="4079" cy="3108" r="2.1654" stroke-width="0" /></g><g c_partid="part_pad" c_etype="pinpart" c_origin="4079,3118" layerid="11" number="7" net="POT_OUT_1" plated ="Y" c_shapetype="group" id="gge211" locked="0" c_rotation="270" c_width="6.6929" c_height="6.6929" title="POT_OUT_1" c_shape="ELLIPSE" pasteExpansion="0" solderExpansion="0.4"><ellipse cx="4079" cy="3118" rx="3.34645" ry="3.34645" stroke-width="0" /><circle c_padhole="1" cx="4079" cy="3118" r="2.1654" stroke-width="0" /></g><g c_partid="part_pad" c_etype="pinpart" c_origin="4079,3128" layerid="11" number="8" net="DISP_2" plated ="Y" c_shapetype="group" id="gge212" locked="0" c_rotation="270" c_width="6.6929" c_height="6.6929" title="DISP_2" c_shape="ELLIPSE" pasteExpansion="0" solderExpansion="0.4"><ellipse cx="4079" cy="3128" rx="3.34645" ry="3.34645" stroke-width="0" /><circle c_padhole="1" cx="4079" cy="3128" r="2.1654" stroke-width="0" /></g><g c_partid="part_pad" c_etype="pinpart" c_origin="4079,3138" layerid="11" number="9" net="DISP_1" plated ="Y" c_shapetype="group" id="gge213" locked="0" c_rotation="270" c_width="6.6929" c_height="6.6929" title="DISP_1" c_shape="ELLIPSE" pasteExpansion="0" solderExpansion="0.4"><ellipse cx="4079" cy="3138" rx="3.34645" ry="3.34645" stroke-width="0" /><circle c_padhole="1" cx="4079" cy="3138" r="2.1654" stroke-width="0" /></g><g c_partid="part_pad" c_etype="pinpart" c_origin="4079,3148" layerid="11" number="10" net="NANO_1_10" plated ="Y" c_shapetype="group" id="gge214" locked="0" c_rotation="270" c_width="6.6929" c_height="6.6929" title="NANO_1_10" c_shape="ELLIPSE" pasteExpansion="0" solderExpansion="0.4"><ellipse cx="4079" cy="3148" rx="3.34645" ry="3.34645" stroke-width="0" /><circle c_padhole="1" cx="4079" cy="3148" r="2.1654" stroke-width="0" /></g><g c_partid="part_pad" c_etype="pinpart" c_origin="4079,3158" layerid="11" number="11" net="NANO_1_11" plated ="Y" c_shapetype="group" id="gge215" locked="0" c_rotation="270" c_width="6.6929" c_height="6.6929" title="NANO_1_11" c_shape="ELLIPSE" pasteExpansion="0" solderExpansion="0.4"><ellipse cx="4079" cy="3158" rx="3.34645" ry="3.34645" stroke-width="0" /><circle c_padhole="1" cx="4079" cy="3158" r="2.1654" stroke-width="0" /></g><g c_partid="part_pad" c_etype="pinpart" c_origin="4079,3168" layerid="11" number="12" net="+5V" plated ="Y" c_shapetype="group" id="gge216" locked="0" c_rotation="270" c_width="6.6929" c_height="6.6929" title="+5V" c_shape="ELLIPSE" pasteExpansion="0" solderExpansion="0.4"><ellipse cx="4079" cy="3168" rx="3.34645" ry="3.34645" stroke-width="0" /><circle c_padhole="1" cx="4079" cy="3168" r="2.1654" stroke-width="0" /></g><g c_partid="part_pad" c_etype="pinpart" c_origin="4079,3178" layerid="11" number="13" net="NANO_1_13" plated ="Y" c_shapetype="group" id="gge217" locked="0" c_rotation="270" c_width="6.6929" c_height="6.6929" title="NANO_1_13" c_shape="ELLIPSE" pasteExpansion="0" solderExpansion="0.4"><ellipse cx="4079" cy="3178" rx="3.34645" ry="3.34645" stroke-width="0" /><circle c_padhole="1" cx="4079" cy="3178" r="2.1654" stroke-width="0" /></g><g c_partid="part_pad" c_etype="pinpart" c_origin="4079,3188" layerid="11" number="14" net="GND" plated ="Y" c_shapetype="group" id="gge218" locked="0" c_rotation="270" c_width="6.6929" c_height="6.6929" title="GND" c_shape="ELLIPSE" pasteExpansion="0" solderExpansion="0.4"><ellipse cx="4079" cy="3188" rx="3.34645" ry="3.34645" stroke-width="0" /><circle c_padhole="1" cx="4079" cy="3188" r="2.1654" stroke-width="0" /></g><g c_partid="part_pad" c_etype="pinpart" c_origin="4079,3198" layerid="11" number="15" net="NANO_1_15" plated ="Y" c_shapetype="group" id="gge219" locked="0" c_rotation="270" c_width="6.6929" c_height="6.6929" title="NANO_1_15" c_shape="ELLIPSE" pasteExpansion="0" solderExpansion="0.4"><ellipse cx="4079" cy="3198" rx="3.34645" ry="3.34645" stroke-width="0" /><circle c_padhole="1" cx="4079" cy="3198" r="2.1654" stroke-width="0" /></g><g c_partid="part_pad" c_etype="pinpart" c_origin="4177.25,3104.81" layerid="11" number="1" net="DC1_1" plated ="Y" c_shapetype="group" id="gge232" locked="0" c_rotation="270" c_width="7.0866" c_height="16.5354" title="DC1_1" c_shape="OVAL" pasteExpansion="0" solderExpansion="0.4"><polyline points="4181.974 3104.81 4172.526 3104.81" stroke-width="7.0866" /><polyline c_padhole="1" points="4172.331 3104.81 4182.174 3104.81" stroke-width="4.7244"></polyline></g><g c_partid="part_pad" c_etype="pinpart" c_origin="4177.25,3081.19" layerid="11" number="2" net="GND" plated ="Y" c_shapetype="group" id="gge235" locked="0" c_rotation="90" c_width="7.0866" c_height="16.5354" title="GND" c_shape="OVAL" pasteExpansion="0" solderExpansion="0.4"><polyline points="4172.526 3081.19 4181.974 3081.19" stroke-width="7.0866" /><polyline c_padhole="1" points="4182.174 3081.19 4172.331 3081.19" stroke-width="4.7244"></polyline></g><g c_partid="part_pad" c_etype="pinpart" c_origin="4158.75,3093" layerid="11" number="3" net="GND" plated ="Y" c_shapetype="group" id="gge240" locked="0" c_rotation="180" c_width="7.0866" c_height="16.5354" title="GND" c_shape="OVAL" pasteExpansion="0" solderExpansion="0.4"><polyline points="4158.75 3097.724 4158.75 3088.276" stroke-width="7.0866" /><polyline c_padhole="1" points="4158.747 3088.079 4158.747 3097.921" stroke-width="4.7244"></polyline></g><g c_partid="part_pad" c_etype="pinpart" c_origin="4171.5,3126" layerid="11" number="1" net="NANO_1_15" plated ="Y" c_shapetype="group" id="gge251" locked="0" c_rotation="270" c_width="6.2" c_height="6.2" title="NANO_1_15" c_shape="RECT" pasteExpansion="0" solderExpansion="0.4"><polygon points="4174.6 3122.9 4174.6 3129.1 4168.4 3129.1 4168.4 3122.9" stroke-width="0" /><circle c_padhole="1" cx="4171.5" cy="3126" r="1.75" stroke-width="0" /></g><g c_partid="part_pad" c_etype="pinpart" c_origin="4181.5,3126" layerid="11" number="2" net="DC1_1" plated ="Y" c_shapetype="group" id="gge254" locked="0" c_rotation="270" c_width="6.2" c_height="6.2" title="DC1_1" c_shape="ELLIPSE" pasteExpansion="0" solderExpansion="0.4"><ellipse cx="4181.5" cy="3126" rx="3.1" ry="3.1" stroke-width="0" /><circle c_padhole="1" cx="4181.5" cy="3126" r="1.75" stroke-width="0" /></g><g c_partid="part_pad" c_etype="pinpart" c_origin="4331.5,3215.5" layerid="11" number="1" net="NANO_2_14" plated ="Y" c_shapetype="group" id="gge264" locked="0" c_rotation="270" c_width="6.2" c_height="6.2" title="NANO_2_14" c_shape="RECT" pasteExpansion="0" solderExpansion="0.4"><polygon points="4334.6 3212.4 4334.6 3218.6 4328.4 3218.6 4328.4 3212.4" stroke-width="0" /><circle c_padhole="1" cx="4331.5" cy="3215.5" r="1.75" stroke-width="0" /></g><g c_partid="part_pad" c_etype="pinpart" c_origin="4341.5,3215.5" layerid="11" number="2" net="U1_6" plated ="Y" c_shapetype="group" id="gge267" locked="0" c_rotation="270" c_width="6.2" c_height="6.2" title="U1_6" c_shape="ELLIPSE" pasteExpansion="0" solderExpansion="0.4"><ellipse cx="4341.5" cy="3215.5" rx="3.1" ry="3.1" stroke-width="0" /><circle c_padhole="1" cx="4341.5" cy="3215.5" r="1.75" stroke-width="0" /></g><g c_partid="part_pad" c_etype="pinpart" c_origin="4331.5,3225.5" layerid="11" number="3" net="NANO_2_15" plated ="Y" c_shapetype="group" id="gge272" locked="0" c_rotation="270" c_width="6.2" c_height="6.2" title="NANO_2_15" c_shape="ELLIPSE" pasteExpansion="0" solderExpansion="0.4"><ellipse cx="4331.5" cy="3225.5" rx="3.1" ry="3.1" stroke-width="0" /><circle c_padhole="1" cx="4331.5" cy="3225.5" r="1.75" stroke-width="0" /></g><g c_partid="part_pad" c_etype="pinpart" c_origin="4341.5,3225.5" layerid="11" number="4" net="R2_1" plated ="Y" c_shapetype="group" id="gge277" locked="0" c_rotation="270" c_width="6.2" c_height="6.2" title="R2_1" c_shape="ELLIPSE" pasteExpansion="0" solderExpansion="0.4"><ellipse cx="4341.5" cy="3225.5" rx="3.1" ry="3.1" stroke-width="0" /><circle c_padhole="1" cx="4341.5" cy="3225.5" r="1.75" stroke-width="0" /></g><g c_partid="part_via" c_etype="pinpart" c_shapetype="group" net="DISP_2" c_origin="4089.52,3210.74" layerid="11" id="gge702" locked="" solderExpansion=""><circle cx="4089.52" cy="3210.74" r="1.2008" stroke-width="0" /><circle cx="4089.52" cy="3210.74" r="0.6102"  stroke-width="0" /></g><g c_partid="part_via" c_etype="pinpart" c_shapetype="group" net="NANO_1_15" c_origin="4100.53,3198" layerid="11" id="gge706" locked="" solderExpansion=""><circle cx="4100.53" cy="3198" r="1.2008" stroke-width="0" /><circle cx="4100.53" cy="3198" r="0.6102"  stroke-width="0" /></g><g c_partid="part_via" c_etype="pinpart" c_shapetype="group" net="+5V" c_origin="4307.5,3203.67" layerid="11" id="gge731" locked="" solderExpansion=""><circle cx="4307.5" cy="3203.67" r="1.2008" stroke-width="0" /><circle cx="4307.5" cy="3203.67" r="0.6102"  stroke-width="0" /></g><g c_partid="part_via" c_etype="pinpart" c_shapetype="group" net="POT_OUT_1" c_origin="4117.18,3220.22" layerid="11" id="gge739" locked="" solderExpansion=""><circle cx="4117.18" cy="3220.22" r="1.2008" stroke-width="0" /><circle cx="4117.18" cy="3220.22" r="0.6102"  stroke-width="0" /></g><g c_partid="part_via" c_etype="pinpart" c_shapetype="group" net="DISP_1" c_origin="4269.45,3237.05" layerid="11" id="gge746" locked="" solderExpansion=""><circle cx="4269.45" cy="3237.05" r="1.2008" stroke-width="0" /><circle cx="4269.45" cy="3237.05" r="0.6102"  stroke-width="0" /></g><g c_partid="part_via" c_etype="pinpart" c_shapetype="group" net="DISP_1" c_origin="4107.97,3225.96" layerid="11" id="gge747" locked="" solderExpansion=""><circle cx="4107.97" cy="3225.96" r="1.2008" stroke-width="0" /><circle cx="4107.97" cy="3225.96" r="0.6102"  stroke-width="0" /></g><g c_partid="part_hole" c_etype="pinpart" c_shapetype="group" c_origin="4060.5,3239.25" layerid="11" id="gge297" ><circle cx="4060.5" cy="3239.25" r="4"   stroke-width="0" /></g><g c_partid="part_hole" c_etype="pinpart" c_shapetype="group" c_origin="4060.5,3059.25" layerid="11" id="gge301" ><circle cx="4060.5" cy="3059.25" r="4"   stroke-width="0" /></g><g c_partid="part_hole" c_etype="pinpart" c_shapetype="group" c_origin="4387,3059.25" layerid="11" id="gge305" ><circle cx="4387" cy="3059.25" r="4"   stroke-width="0" /></g><g c_partid="part_hole" c_etype="pinpart" c_shapetype="group" c_origin="4387,3239.25" layerid="11" id="gge309" ><circle cx="4387" cy="3239.25" r="4"   stroke-width="0" /></g><g c_partid="part_hole" c_etype="pinpart" c_shapetype="group" c_origin="4277.03,3079.32" layerid="11" id="gge128" ><circle cx="4277.03" cy="3079.32" r="4.724"   stroke-width="0" /></g><g c_partid="part_hole" c_etype="pinpart" c_shapetype="group" c_origin="4217.97,3079.32" layerid="11" id="gge129" ><circle cx="4217.97" cy="3079.32" r="4.724"   stroke-width="0" /></g><g c_partid="part_hole" c_etype="pinpart" c_shapetype="group" c_origin="4362.03,3079.32" layerid="11" id="gge147" ><circle cx="4362.03" cy="3079.32" r="4.724"   stroke-width="0" /></g><g c_partid="part_hole" c_etype="pinpart" c_shapetype="group" c_origin="4302.97,3079.32" layerid="11" id="gge148" ><circle cx="4302.97" cy="3079.32" r="4.724"   stroke-width="0" /></g><polyline points="4048 3048 4398.394 3048 4398.394 3252.724 4048 3252.724 4048 3048" stroke-width="1" c_shapetype="line" stroke-linecap="round" fill="none" layerid="10" net="" id="gge288" /></g></svg>